<svg xmlns="http://www.w3.org/2000/svg" width="1920" height="1080"><path d="M1539,1452L593,1573L1923,1451Z" fill="#c42620" stroke="#c42620" stroke-width="1.51"/><path d="M593,1573L-137,1726L1923,1451Z" fill="#c14635" stroke="#c14635" stroke-width="1.51"/><path d="M1923,1451L-137,1726L2235,1449Z" fill="#be2520" stroke="#be2520" stroke-width="1.51"/><path d="M18,-653L1210,-472L2243,-334Z" fill="#ffa38a" stroke="#ffa38a" stroke-width="1.51"/><path d="M1210,-472L1941,-341L2243,-334Z" fill="#ec8973" stroke="#ec8973" stroke-width="1.51"/><path d="M1854,570L2200,917L2250,258Z" fill="#d13f2d" stroke="#d13f2d" stroke-width="1.51"/><path d="M2250,258L2200,917L2408,1078Z" fill="#c12d23" stroke="#c12d23" stroke-width="1.51"/><path d="M2016,48L2250,258L2498,-216Z" fill="#cc654f" stroke="#cc654f" stroke-width="1.51"/><path d="M2243,-334L2016,48L2498,-216Z" fill="#ce725d" stroke="#ce725d" stroke-width="1.51"/><path d="M2250,258L2408,1078L2498,-216Z" fill="#be4936" stroke="#be4936" stroke-width="1.51"/><path d="M2200,917L1885,1254L2235,1449Z" fill="#b61318" stroke="#b61318" stroke-width="1.51"/><path d="M1902,347L1854,570L2250,258Z" fill="#d94f3a" stroke="#d94f3a" stroke-width="1.51"/><path d="M2200,917L2235,1449L2408,1078Z" fill="#ae1118" stroke="#ae1118" stroke-width="1.51"/><path d="M1210,-472L1618,-289L1941,-341Z" fill="#f58e77" stroke="#f58e77" stroke-width="1.51"/><path d="M1885,1254L1923,1451L2235,1449Z" fill="#af1117" stroke="#af1117" stroke-width="1.51"/><path d="M1941,-341L2016,48L2243,-334Z" fill="#dc7964" stroke="#dc7964" stroke-width="1.51"/><path d="M2016,48L1902,347L2250,258Z" fill="#d75b44" stroke="#d75b44" stroke-width="1.51"/><path d="M1719,838L1885,1254L2200,917Z" fill="#ca201e" stroke="#ca201e" stroke-width="1.51"/><path d="M1854,570L1719,838L2200,917Z" fill="#d63026" stroke="#d63026" stroke-width="1.51"/><path d="M18,-653L438,-456L1210,-472Z" fill="#ffbfaa" stroke="#ffbfaa" stroke-width="1.51"/><path d="M1618,-289L1674,58L1941,-341Z" fill="#ec7e67" stroke="#ec7e67" stroke-width="1.51"/><path d="M1941,-341L1674,58L2016,48Z" fill="#e3745c" stroke="#e3745c" stroke-width="1.51"/><path d="M1674,58L1902,347L2016,48Z" fill="#e1644c" stroke="#e1644c" stroke-width="1.51"/><path d="M1732,416L1854,570L1902,347Z" fill="#e14e39" stroke="#e14e39" stroke-width="1.51"/><path d="M1674,58L1732,416L1902,347Z" fill="#e55c44" stroke="#e55c44" stroke-width="1.51"/><path d="M1885,1254L1539,1452L1923,1451Z" fill="#ba1419" stroke="#ba1419" stroke-width="1.51"/><path d="M1719,838L1424,1318L1885,1254Z" fill="#ce1d1e" stroke="#ce1d1e" stroke-width="1.51"/><path d="M1424,1318L1539,1452L1885,1254Z" fill="#c41c1d" stroke="#c41c1d" stroke-width="1.51"/><path d="M1310,1350L593,1573L1539,1452Z" fill="#cb3628" stroke="#cb3628" stroke-width="1.51"/><path d="M1732,416L1719,838L1854,570Z" fill="#e14230" stroke="#e14230" stroke-width="1.51"/><path d="M1618,-289L1350,-52L1674,58Z" fill="#f37e64" stroke="#f37e64" stroke-width="1.51"/><path d="M1189,1219L1424,1318L1719,838Z" fill="#da2923" stroke="#da2923" stroke-width="1.51"/><path d="M1159,699L1189,1219L1719,838Z" fill="#ea382a" stroke="#ea382a" stroke-width="1.51"/><path d="M1674,58L1350,145L1732,416Z" fill="#ee674c" stroke="#ee674c" stroke-width="1.51"/><path d="M1159,699L1719,838L1732,416Z" fill="#eb4532" stroke="#eb4532" stroke-width="1.51"/><path d="M1350,145L1159,699L1732,416Z" fill="#f45c42" stroke="#f45c42" stroke-width="1.51"/><path d="M1350,-52L1350,145L1674,58Z" fill="#f5765a" stroke="#f5765a" stroke-width="1.51"/><path d="M1210,-472L1350,-52L1618,-289Z" fill="#fd8e74" stroke="#fd8e74" stroke-width="1.51"/><path d="M1424,1318L1310,1350L1539,1452Z" fill="#cb2520" stroke="#cb2520" stroke-width="1.51"/><path d="M343,1563L-137,1726L593,1573Z" fill="#bf614e" stroke="#bf614e" stroke-width="1.51"/><path d="M438,-456L581,-376L1210,-472Z" fill="#ffb39b" stroke="#ffb39b" stroke-width="1.51"/><path d="M885,171L1159,699L1350,145Z" fill="#fa7051" stroke="#fa7051" stroke-width="1.51"/><path d="M1189,1219L1310,1350L1424,1318Z" fill="#d42d24" stroke="#d42d24" stroke-width="1.51"/><path d="M738,1310L593,1573L1310,1350Z" fill="#d24733" stroke="#d24733" stroke-width="1.51"/><path d="M1210,-472L745,-117L1350,-52Z" fill="#ff987b" stroke="#ff987b" stroke-width="1.51"/><path d="M885,171L1350,145L1350,-52Z" fill="#fb7f60" stroke="#fb7f60" stroke-width="1.51"/><path d="M745,-117L885,171L1350,-52Z" fill="#fe8f6e" stroke="#fe8f6e" stroke-width="1.51"/><path d="M1189,1219L738,1310L1310,1350Z" fill="#d73d2c" stroke="#d73d2c" stroke-width="1.51"/><path d="M885,171L728,633L1159,699Z" fill="#fb6f4e" stroke="#fb6f4e" stroke-width="1.51"/><path d="M728,633L738,1310L1159,699Z" fill="#f3583e" stroke="#f3583e" stroke-width="1.51"/><path d="M1159,699L738,1310L1189,1219Z" fill="#e64632" stroke="#e64632" stroke-width="1.51"/><path d="M581,-376L745,-117L1210,-472Z" fill="#ffaa8f" stroke="#ffaa8f" stroke-width="1.51"/><path d="M728,633L495,1143L738,1310Z" fill="#eb5e45" stroke="#eb5e45" stroke-width="1.51"/><path d="M745,-117L478,114L885,171Z" fill="#fd9879" stroke="#fd9879" stroke-width="1.51"/><path d="M478,114L529,275L885,171Z" fill="#fc9272" stroke="#fc9272" stroke-width="1.51"/><path d="M529,275L728,633L885,171Z" fill="#fc8362" stroke="#fc8362" stroke-width="1.51"/><path d="M293,931L495,1143L728,633Z" fill="#f36c50" stroke="#f36c50" stroke-width="1.51"/><path d="M581,-376L478,114L745,-117Z" fill="#fea98d" stroke="#fea98d" stroke-width="1.51"/><path d="M495,1143L593,1573L738,1310Z" fill="#d85741" stroke="#d85741" stroke-width="1.51"/><path d="M529,275L53,481L728,633Z" fill="#fd8b6a" stroke="#fd8b6a" stroke-width="1.51"/><path d="M53,481L293,931L728,633Z" fill="#fc8162" stroke="#fc8162" stroke-width="1.51"/><path d="M438,-456L116,34L478,114Z" fill="#fdb499" stroke="#fdb499" stroke-width="1.51"/><path d="M438,-456L478,114L581,-376Z" fill="#ffb59b" stroke="#ffb59b" stroke-width="1.51"/><path d="M495,1143L343,1563L593,1573Z" fill="#d45d46" stroke="#d45d46" stroke-width="1.51"/><path d="M53,481L68,843L293,931Z" fill="#fc886b" stroke="#fc886b" stroke-width="1.51"/><path d="M478,114L116,34L529,275Z" fill="#fda384" stroke="#fda384" stroke-width="1.51"/><path d="M116,34L53,481L529,275Z" fill="#fda283" stroke="#fda283" stroke-width="1.51"/><path d="M-10,1036L343,1563L495,1143Z" fill="#e16c54" stroke="#e16c54" stroke-width="1.51"/><path d="M293,931L-10,1036L495,1143Z" fill="#ee745a" stroke="#ee745a" stroke-width="1.51"/><path d="M18,-653L116,34L438,-456Z" fill="#feccb7" stroke="#feccb7" stroke-width="1.51"/><path d="M-10,1036L-137,1726L343,1563Z" fill="#d6735c" stroke="#d6735c" stroke-width="1.51"/><path d="M-248,1096L-137,1726L-10,1036Z" fill="#e2806a" stroke="#e2806a" stroke-width="1.51"/><path d="M18,-653L-422,-236L116,34Z" fill="#fed5c3" stroke="#fed5c3" stroke-width="1.51"/><path d="M68,843L-10,1036L293,931Z" fill="#f58064" stroke="#f58064" stroke-width="1.51"/><path d="M-409,-524L-422,-236L18,-653Z" fill="#ffe5d8" stroke="#ffe5d8" stroke-width="1.51"/><path d="M53,481L-482,603L68,843Z" fill="#ff9c80" stroke="#ff9c80" stroke-width="1.51"/><path d="M-422,-236L-354,207L116,34Z" fill="#ffc9b3" stroke="#ffc9b3" stroke-width="1.51"/><path d="M-354,207L53,481L116,34Z" fill="#ffb196" stroke="#ffb196" stroke-width="1.51"/><path d="M-248,1096L-369,1703L-137,1726Z" fill="#d17e6c" stroke="#d17e6c" stroke-width="1.51"/><path d="M-248,1096L-10,1036L68,843Z" fill="#f5866d" stroke="#f5866d" stroke-width="1.51"/><path d="M-482,603L-248,1096L68,843Z" fill="#ff947b" stroke="#ff947b" stroke-width="1.51"/><path d="M-354,207L-482,603L53,481Z" fill="#ffae95" stroke="#ffae95" stroke-width="1.51"/><path d="M-482,603L-369,1703L-248,1096Z" fill="#f08c77" stroke="#f08c77" stroke-width="1.51"/><path d="M-422,-236L-482,603L-354,207Z" fill="#ffc1ab" stroke="#ffc1ab" stroke-width="1.51"/><path d="M-482,603L-422,-236L-409,-524Z" fill="#ffd2c0" stroke="#ffd2c0" stroke-width="1.51"/></svg>