<svg xmlns="http://www.w3.org/2000/svg" viewBox="0 0 712 960"><g style="stroke-linejoin:round;stroke-width:.7"><g style="fill:#27291f;stroke:#27291f"><path d="m59 959v1h1.5 1.5 2 2 2.5 2.5.5.5v-.5-.5l-6-23-6-23-5-25.5-5-25.5-5.5-27.5-5.5-27.5-4.5-28.5-4.5-28.5-3-28.5-3-28.5 7.5-20.5 7.5-20.5 10 16.5 10 16.5 9 17 9 17 15-18 15-18 17-14.5 17-14.5 20-13 20-13 20.5-11 20.5-11-3-13-3-13-20.5 11-20.5 11-19.5 13.5-19.5 13.5-17.5 15.5-17.5 15.5-14.5-1-14.5-1-3-30-3-30 1-28.5 1-28.5 2.5-29.5 2.5-29.5 4-29 4-29 4-24.5 4-24.5 5.5-14.5 5.5-14.5-3 28.5-3 28.5v31 31l3.5 27 3.5 27 11 22 11 22 19.5 9.5 19.5 9.5-10.5-10-10.5-10-11-22-11-22-4-27.5-4-27.5 1-30 1-30 3-30.5 3-30.5 5.5-27.5 5.5-27.5 7-24.5 7-24.5-3-9-3-9 2.5-13 2.5-13 11.5-21.5 11.5-21.5 13.5-18 13.5-18 16-17 16-17 18-15.5 18-15.5 20.5-12.5 20.5-12.5 23-8.5 23-8.5 14-4 14-4h-3.5-3.5-2-2-2-2-2.5-2.5-2-2-2.5-2.5-2-2-2.5-2.5-2-2-1-1l-23 9.5-23 9.5-19 12.5-19 12.5-18.5 14-18.5 14-16 15.5-16 15.5-14 19-14 19-11 20.5-11 20.5-8.5 24.5-8.5 24.5-3 28.5-3 28.5-7.5 17.5-7.5 17.5-7 24.5-7 24.5-4.5 28-4.5 28-4.5 27-4.5 27-3 28.5-3 28.5-2 28.5-2 28.5-24.5 37.5-24.5 37.5v2.5 2.5 2.5 2.5 2 2 2 2l6.5 30.5 6.5 30.5 5 27.5 5 27.5 5.5 26 5.5 26 5.5 26 5.5 26 7 25 7 25"/><path d="m313 959v1h1.5 1.5 2 2 2.5 2.5 2 2 1 1l-7-23.5-7-23.5-4-23-4-23-4-19.5-4-19.5-5-26-5-26-5-26.5-5-26.5-4.5-26.5-4.5-26.5-4.5-26-4.5-26-7-17-7-17v29 29l4 27.5 4 27.5 5 26 5 26 5.5 26.5 5.5 26.5 5 26.5 5 26.5 6.5 25.5 6.5 25.5 6 26.5 6 26.5"/><path d="m340 959v1h1.5 1.5 2 2 2.5 2.5 2 2l17.5-33.5 17.5-33.5 11.5-22 11.5-22 10.5-22.5 10.5-22.5 10-21.5 10-21.5 10-23 10-23 9.5-24 9.5-24 9.5-23.5 9.5-23.5 9-22.5 9-22.5 1.5-21.5 1.5-21.5-11.5 21-11.5 21-12 18-12 18-3 12.5-3 12.5v7 7l-8.5 23-8.5 23-9.5 23.5-9.5 23.5-10 23-10 23-10.5 21-10.5 21-10.5 22.5-10.5 22.5-10.5 21-10.5 21-11 21-11 21"/><path d="m689 837l23-56v-3-3-2-2-2-2l-11.5 35-11.5 35"/><path d="m310 623l-2-40-7-26.5-7-26.5-6.5-26.5-6.5-26.5-6-25.5-6-25.5-4.5-27.5-4.5-27.5 11 11.5 11 11.5 10 23 10 23 10 23.5 10 23.5 10 23 10 23 12 17.5 12 17.5-9-24-9-24-10-23.5-10-23.5-7-21-7-21 22.5 11 22.5 11 26 7 26 7 18.5-5 18.5-5-29-4-29-4-23.5-10-23.5-10-18-15-18-15-13.5-18-13.5-18-15-17-15-17-9.5 12-9.5 12-11-19-11-19-11-16.5-11-16.5-2 16-2 16-3.5 28-3.5 28 .5 29.5.5 29.5 4.5 28 4.5 28 10 23 10 23 14.5 17 14.5 17 22-2 22-2 2.5-8 2.5-8 8 25 8 25 5 14 5 14"/><path d="m483 577l-7-37-8-25.5-8-25.5h-8-8l7 26.5 7 26.5 12.5 17.5 12.5 17.5"/><path d="m711 569l1 1v-3-3-2.5-2.5-2-2-2.5-2.5-.5-.5l-51-6.5-51-6.5-24 5.5-24 5.5 20 6 20 6 27.5 1 27.5 1 27.5 4 27.5 4"/><path d="m184 566l4-14-12.5-21-12.5-21-5.5-27.5-5.5-27.5-2.5-30-2.5-30 2-30 2-30 8.5-16 8.5-16-14-3-14-3-5.5 28-5.5 28-.5 30.5-.5 30.5 3 28.5 3 28.5 7.5 25.5 7.5 25.5 14 19.5 14 19.5 3.5 2.5 3.5 2.5"/></g><path d="m249 542l-17-43v5.5 5.5l8.5 16 8.5 16" style="fill:#c7c9be;stroke:#c7c9be"/><g style="fill:#27291f;stroke:#27291f"><path d="m566 495l19-45-3.5-30-3.5-30-7-26-7-26-11-22.5-11-22.5-.5 14.5-.5 14.5 7.5 24 7.5 24 5.5 27.5 5.5 27.5-2.5 27-2.5 27 2 8 2 8"/><path d="m433 403l46-18-5.5-22-5.5-22-8.5 11.5-8.5 11.5-13.5 13-13.5 13 4.5 6.5 4.5 6.5"/><path d="m409 374l37-27-16 2.5-16 2.5-2.5 11-2.5 11"/><path d="m465 314l39-19 14.5-17 14.5-17-16-7-16-7 7-12.5 7-12.5 3-6 3-6-25-4.5-25-4.5-11.5 10.5-11.5 10.5-2 8.5-2 8.5 10.5 22.5 10.5 22.5v15 15"/><path d="m263 311l16-48 11-3.5 11-3.5 17.5 3.5 17.5 3.5 10 11.5 10 11.5 22.5-4.5 22.5-4.5 10.5-21 10.5-21-4.5-5.5-4.5-5.5-4.5-17-4.5-17-29.5-.5-29.5-.5-24 7.5-24 7.5 7-22 7-22 10.5-23 10.5-23 16.5-11.5 16.5-11.5-16-6.5-16-6.5-9.5 11.5-9.5 11.5 3.5-18 3.5-18-13 20-13 20-10 23.5-10 23.5-8.5 24.5-8.5 24.5-9 22.5-9 22.5-7 15-7 15 8 13.5 8 13.5 10.5 4 10.5 4"/></g><path d="m323 249l37-25-22.5 8-22.5 8 4 4.5 4 4.5" style="fill:#c7c9be;stroke:#c7c9be"/><path d="m477 165l21-43-9.5-21-9.5-21 1-23 1-23-11-.5-11-.5-18-5-18-5-12 19.5-12 19.5-13 19-13 19 19.5 5 19.5 5 21.5-2.5 21.5-2.5 10.5-2 10.5-2-2 30-2 30 2.5 2 2.5 2" style="fill:#27291f;stroke:#27291f"/></g></svg>