<svg xmlns="http://www.w3.org/2000/svg" viewBox="0 0 712 960"><g style="fill:#fffff4"><path d="m0 0h712v960h-712z"/><path d="m0 959v1h12.5 12.5 11 11 11.5 11.5 11 11 11 11 6.5 6.5v-.5-.5h-12.5-12.5l9.5-.5 9.5-.5 2-8.5 2-8.5-1-10-1-10-.5-10.5-.5-10.5-.5-10.5-.5-10.5 1.5 6.5 1.5 6.5 1 10.5 1 10.5.5 10.5.5 10.5.5 10.5.5 10.5 9.5 1.5 9.5 1.5h11 11 11.5 11.5 11 11 11 11 11 11 11 11 11.5 11.5l10.5.5 10.5.5h-11-11-11-11-11-11-11.5-11.5-11-11-11-11-11-11l-20 .5-20 .5h13.5 13.5 11 11 11 11 11 11 11 11 11.5 11.5 11 11 11 11 11 11 11 11 11.5 11.5 11 11 11 11 11 11 11 11 11 11 11.5 11.5 11 11 11 11 11 11 11 11 11.5 11.5 11 11 11 11 11 11 11 11 1 1v-10.5-10.5-11-11-11-11-11-11-11-11-11.5-11.5-1.5-1.5l-11 .5-11 .5-10.5.5-10.5.5-10.5.5-10.5.5-10.5.5-10.5.5-11 .5-11 .5-18.5.5-18.5.5h-9-9l-10.5.5-10.5.5h-11.5-11.5l-9.5.5-9.5.5h-11-11l-10.5.5-10.5.5h-11-11l-11 .5-11 .5h-11-11l-18.5.5-18.5.5h-10.5-10.5-11-11-11-11-11-11-11-11-11-11-11-11-11-11-22-22l-1 1.5-1 1.5-1.5-.5-1.5-.5v-.5-.5l-.5-.5-.5-.5-10.5-.5-10.5-.5h-10.5-10.5l-10.5-.5-10.5-.5-10.5-.5-10.5-.5-16 .5-16 .5v12.5 12.5 11 11 11 11 11 11 11 11 6 6" style="stroke:#fffff4;stroke-linejoin:round;stroke-width:.7"/></g><g style="stroke-linejoin:round;stroke-width:.7"><g style="fill:#fee78e;stroke:#fee78e"><path d="m127 959v1h1 1l20-.5 20-.5h11 11 11 11 11 11 11.5 11.5 11 11 11 11 11 11l-10.5-.5-10.5-.5h-11.5-11.5-11-11-11-11-11-11-11-11-11.5-11.5-11-11l-9.5-1.5-9.5-1.5-.5-10.5-.5-10.5-.5-10.5-.5-10.5-1-10.5-1-10.5-1.5-6.5-1.5-6.5.5 10.5.5 10.5.5 10.5.5 10.5 1 10 1 10-2 8.5-2 8.5-9.5.5-9.5.5h12.5 12.5"/><path d="m2 958l25 1h11 11l-6-.5-6-.5h-11-11-6.5-6.5"/><path d="m439 958l25 1h11 11 11.5 11.5 11 11 11 11 11 11l.5-.5.5-.5-8.5-2-8.5-2 1-10 1-10 1-10 1-10-1-10-1-10-1.5 9.5-1.5 9.5v10.5 10.5l-.5 9.5-.5 9.5-8.5 2.5-8.5 2.5h-11-11-11-11-11.5-11.5-11-11-6-6"/><path d="m608 958l25 1h11 11 11.5 11.5 11 11l.5-.5.5-.5h-11-11-11-11-11.5-11.5-11-11-2-2"/><path d="m342 948h2v-2-2-2.5-2.5l.5-1.5.5-1.5-.5-2-.5-2 .5-1.5.5-1.5.5-.5.5-.5-1 .5-1 .5h-1.5-1.5v1.5 1.5 2.5 2.5l.5 1.5.5 1.5v2.5 2.5 1.5 1.5"/></g><path d="m339 928l2 1h1.5 1.5l1-.5 1-.5 1-1 1-1 .5-1.5.5-1.5-1-1.5-1-1.5h-.5-.5l-1-.5-1-.5h-1.5-1.5l-1.5 1.5-1.5 1.5-1 1-1 1 .5 2 .5 2h1 1" style="fill:#84d073;stroke:#84d073"/><path d="m344 919l2 1-1-9.5-1-9.5v-10-10l-.5-9-.5-9-1 7-1 7v11 11 10 10h1.5 1.5" style="fill:#fee78e;stroke:#fee78e"/><path d="m117 838l3 1 1-1.5 1-1.5 11-1 11-1h14 14v-.5-.5h-2-2-11.5-11.5l-10.5-.5-10.5-.5-3 1.5-3 1.5-11-1.5-11-1.5h-11-11l-11-.5-11-.5h-11-11l-11.5-.5-11.5-.5h-2.5-2.5l8.5 1 8.5 1h11 11l9.5.5 9.5.5h11 11l17.5 2 17.5 2v.5.5" style="fill:#84d073;stroke:#84d073"/><g style="fill:#b6f2d5;stroke:#b6f2d5"><path d="m116 836l1 1-17.5-2-17.5-2h-11-11l-9.5-.5-9.5-.5h-11-11l-8.5-1-8.5-1h-1-1v2 2l16-.5 16-.5 10.5.5 10.5.5 10.5.5 10.5.5h10.5 10.5l10.5.5 10.5.5"/><path d="m341 836l37-1h11 11l11-.5 11-.5h11 11l10.5-.5 10.5-.5h11 11l9.5-.5 9.5-.5h11.5 11.5l10.5-.5 10.5-.5h9 9-1-1l-1.5-.5-1.5-.5-2-.5-2-.5h-1.5-1.5l-2 .5-2 .5-1.5-.5-1.5-.5-2 .5-2 .5h-2-2-1.5-1.5-3-3l-2-.5-2-.5-1.5.5-1.5.5h-1.5-1.5-1.5-1.5-1.5-1.5-2.5-2.5-2-2l-2 .5-2 .5-1.5-.5-1.5-.5-2 .5-2 .5-1.5.5-1.5.5h-1.5-1.5-2-2-1-1-1.5-1.5-2-2-1-1-1.5-1.5-2-2-1.5-1.5-1.5-1.5-1.5-1.5-1.5-1.5l-1 .5-1 .5h-2-2-2-2-2-2-2.5-2.5-2-2-2.5-2.5-2-2-2.5-2.5-2-2-1.5-1.5-12-12-11-11l-19.5.5-19.5.5-11 .5-11 .5h-11-11-11-11-11.5-11.5-11-11l-21.5-.5-21.5-.5h-.5-.5-14-14l-11 1-11 1h22 22 11 11 11 11 11 11 11 11 11 11 11 11 11 11 10.5 10.5"/></g><path d="m118 835l6-3 10.5.5 10.5.5h11.5 11.5l10-.5 10-.5 11.5 1 11.5 1h2.5 2.5v-.5-.5h2.5 2.5l.5-1.5.5-1.5-1.5-1-1.5-1 1.5-.5 1.5-.5h2 2 2.5 2.5l1.5.5 1.5.5-1.5 1-1.5 1-1 1-1 1v1 1h11.5 11.5 11 11 11 11 15.5 15.5l19.5-.5 19.5-.5h11 11 12 12v-.5-.5h3 3 2.5 2.5 2 2 2 2 2.5 2.5 2 2 2.5 2.5 2 2 3.5 3.5 1.5 1.5 1.5 1.5 1.5 1.5v-.5-.5h2 2 1 1 1.5 1.5 2 2 1 1l1.5-.5 1.5-.5h-2.5-2.5l-1.5-.5-1.5-.5h-1.5-1.5l-1 .5-1 .5h-1.5-1.5-1-1-1-1l-.5-.5-.5-.5h-1-1l-1-.5-1-.5-1-.5-1-.5-.5.5-.5.5-.5.5-.5.5h-1-1-1-1l-1 .5-1 .5-.5-.5-.5-.5h-1-1l-.5-.5-.5-.5h-1-1-1.5-1.5l-.5-.5-.5-.5-.5.5-.5.5h-1-1l-1 .5-1 .5h-1-1l-.5.5-.5.5h-1.5-1.5-1-1-1.5-1.5-2.5-2.5-2.5-2.5-2-2l-1 .5-1 .5h-1-1l-2.5-.5-2.5-.5-2-.5-2-.5-2-1-2-1-3 2.5-3 2.5h-11-11-12-12v-.5-.5h-1-1-2-2l-6.5 1-6.5 1-21.5-.5-21.5-.5h1.5 1.5 1 1l.5-.5.5-.5h1 1l-.5-.5-.5-.5.5-1 .5-1h1 1l.5.5.5.5h1 1l1-.5 1-.5.5.5.5.5h1 1 1 1l.5-.5.5-.5.5 1 .5 1 .5.5.5.5h1 1 1 1l1.5.5 1.5.5v-.5-.5l-.5-1-.5-1 8.5-2 8.5-2h10 10l13.5 2.5 13.5 2.5-1-2-1-2 1.5-.5 1.5-.5h2.5 2.5 2 2 2 2 3.5 3.5l2.5-.5 2.5-.5h2 2 2.5 2.5l1.5.5 1.5.5 2-.5 2-.5h3 3l10.5-.5 10.5-.5 14-4 14-4-2-10-2-10 2.5-8.5 2.5-8.5.5-9.5.5-9.5-.5-10.5-.5-10.5-1.5-10-1.5-10-1.5-9.5-1.5-9.5-2-18.5-2-18.5 1 11 1 11v9 9l2.5 8.5 2.5 8.5-.5 3-.5 3 1.5 9.5 1.5 9.5.5 10.5.5 10.5-2.5 8.5-2.5 8.5-.5 9.5-.5 9.5 1.5 9 1.5 9-9 1-9 1-7-1-7-1-9.5.5-9.5.5-8.5 1.5-8.5 1.5-9 .5-9 .5h-10-10l-8-1-8-1-8.5.5-8.5.5-10.5.5-10.5.5-9.5 1-9.5 1-9.5-.5-9.5-.5-8.5-.5-8.5-.5-6.5-1.5-6.5-1.5-8-1.5-8-1.5-4 4-4 4-9.5-.5-9.5-.5-5.5-5.5-5.5-5.5 4-7 4-7 1-8.5 1-8.5-1.5-9.5-1.5-9.5 1-5 1-5-1.5-9.5-1.5-9.5 1.5-9.5 1.5-9.5-5.5-6-5.5-6-11.5-5.5-11.5-5.5-.5 2-.5 2 1 1.5 1 1.5 1 1 1 1 2 .5 2 .5 1.5.5 1.5.5 2 .5 2 .5h2 2l2 .5 2 .5 2.5.5 2.5.5 2 9 2 9v10 10l-5 6-5 6-8 2-8 2 4 3.5 4 3.5-2 7-2 7 4 6 4 6 5 3 5 3-2 8-2 8-4.5 5-4.5 5-8.5.5-8.5.5-8.5-.5-8.5-.5-4.5-4.5-4.5-4.5-1.5-9.5-1.5-9.5-1 3.5-1 3.5-5 11.5-5 11.5-10.5-.5-10.5-.5-8-1-8-1-10-1.5-10-1.5h-1-1l-1 1.5-1 1.5-1.5.5-1.5.5h-2.5-2.5l-1.5-.5-1.5-.5h-2.5-2.5l-1.5-.5-1.5-.5h-2-2-2-2-2-2l-1.5-.5-1.5-.5-1 .5-1 .5-1.5-.5-1.5-.5v1.5 1.5l11 .5 11 .5-10.5 1-10.5 1h-2-2-1.5-1.5l-.5.5-.5.5 11.5.5 11.5.5h11 11l11 .5 11 .5h11 11l11 1.5 11 1.5" style="fill:#0f6560;stroke:#0f6560"/><path d="m173 834l43 1h11 11 11.5 11.5 11 11 11 11l11-.5 11-.5h-15.5-15.5-11-11-11-11-11.5-11.5-1.5-1.5-1.5-1.5-2-2-1.5-1.5-2.5-2.5-1.5-1.5-1-1-1-1-1-1l-1-.5-1-.5-1.5.5-1.5.5h-1-1-1.5-1.5-2-2-1-1-1-1-1-1l-1-.5-1-.5h-1-1l-.5.5-.5.5h-2-2" style="fill:#84d073;stroke:#84d073"/><g style="fill:#10a56d;stroke:#10a56d"><path d="m172 833v1h.5.5 2 2l.5-.5.5-.5h1 1l1 .5 1 .5h1 1 1 1 1 1 2 2 1.5 1.5 1 1l1.5-.5 1.5-.5 1 .5 1 .5h1 1 1 1 1 1 1.5 1.5l-11.5-1-11.5-1-10 .5-10 .5h2 2"/><path d="m216 833v1h1.5 1.5 2 2 1.5 1.5 1.5 1.5v-1-1l1-1 1-1 1.5-1 1.5-1-1.5-.5-1.5-.5h-2.5-2.5-2-2l-1.5.5-1.5.5 1.5 1 1.5 1-.5 1.5-.5 1.5h-2.5-2.5"/></g><path d="m277 832l43 1 6.5-1 6.5-1-1.5.5-1.5.5h-1-1-1-1-1-1-1-1-1.5-1.5-1-1-1-1l-.5-.5-.5-.5-1-.5-1-.5-.5.5-.5.5h-1-1l-1 .5-1 .5-1.5-.5-1.5-.5h-1-1-1-1l-.5-.5-.5-.5-.5-1-.5-1-.5.5-.5.5h-1-1-1-1l-.5-.5-.5-.5-1 .5-1 .5h-1-1l-.5-.5-.5-.5h-1-1l-.5 1-.5 1 .5.5.5.5h-1-1l-.5.5-.5.5h-1-1-1.5-1.5" style="fill:#0a110a;stroke:#0a110a"/><path d="m339 832h24 11 11l3-2.5 3-2.5v-.5-.5-.5-.5h-3.5-3.5-2-2-2-2l2 .5 2 .5.5 1.5.5 1.5-1.5 1-1.5 1h-2-2l-1.5-.5-1.5-.5h-.5-.5l-13.5-2.5-13.5-2.5h-10-10l-8.5 2-8.5 2h7 7l6.5 1 6.5 1h2 2 1 1v.5.5" style="fill:#10a56d;stroke:#10a56d"/><path d="m412 832v1h1.5 1.5 2 2 2.5 2.5 2 2 2.5 2.5 2 2 2.5 2.5 2 2 2 2 2 2l1-.5 1-.5h-3.5-3.5-2-2-2.5-2.5-2-2-2.5-2.5-2-2-2-2-2.5-2.5-3-3" style="fill:#84d073;stroke:#84d073"/><path d="m137 831h24l-8.5-1.5-8.5-1.5-10 1.5-10 1.5h6.5 6.5" style="fill:#0a110a;stroke:#0a110a"/><path d="m251 831h24l-5-2-5-2-11 .5-11 .5 4 1.5 4 1.5" style="fill:#10a56d;stroke:#10a56d"/><g style="fill:#84d073;stroke:#84d073"><path d="m307 831v1l1-.5 1-.5h1 1l.5-.5.5-.5 1 .5 1 .5.5.5.5.5h1 1 1 1 1.5 1.5 1 1 1 1 1 1 1 1l1.5-.5 1.5-.5-6.5-1-6.5-1h-7-7l.5 1 .5 1"/><path d="m404 831h2l1-.5 1-.5v-.5-.5l-1-1-1-1h-1.5-1.5l-1.5-.5-1.5-.5-1.5-.5-1.5-.5-3 .5-3 .5v.5.5l2 1 2 1 2 .5 2 .5 2.5.5 2.5.5"/></g><path d="m465 831v1h1.5 1.5 2 2 1.5 1.5 1 1 2 2 1.5 1.5 1 1 2 2 1.5 1.5l1.5-.5 1.5-.5-1.5-.5-1.5-.5h-3-3-2-2l-1.5.5-1.5.5h-1-1-2-2-1.5-1.5-1-1-2-2" style="fill:#10a56d;stroke:#10a56d"/><path d="m68 830h24l5.5-.5 5.5-.5-11-.5-11-.5-9 1-9 1h2.5 2.5" style="fill:#0a110a;stroke:#0a110a"/><g style="fill:#84d073;stroke:#84d073"><path d="m371 830l3 1h2 2l1.5-1 1.5-1-.5-1.5-.5-1.5-2-.5-2-.5h-2.5-2.5l-1.5.5-1.5.5 1 2 1 2h.5.5"/><path d="m425 830h2v-.5-.5l1-.5 1-.5h2.5 2.5l1-1 1-1-.5-.5-.5-.5-2 .5-2 .5-.5-.5-.5-.5-1 .5-1 .5-1.5.5-1.5.5v1 1h-1-1-1-1-1.5-1.5l-.5-1.5-.5-1.5h-1-1-.5-.5l-1.5.5-1.5.5.5.5.5.5 1 .5 1 .5 1.5.5 1.5.5h2.5 2.5 1.5 1.5"/></g><g style="fill:#0f6560;stroke:#0f6560"><path d="m493 830l3 1 2-.5 2-.5 1.5.5 1.5.5 2-.5 2-.5h2 2 2.5 2.5 1.5 1.5l-.5-2-.5-2h-2-2l-1.5-1-1.5-1-1.5.5-1.5.5h-2.5-2.5l-1.5.5-1.5.5-1.5 1-1.5 1-2 .5-2 .5v.5.5"/><path d="m563 830l3 1v-.5-.5l1-.5 1-.5 1-.5 1-.5.5.5.5.5h1 1 1 1l1-.5 1-.5h1 1 1 1 1 1l.5-.5.5-.5h1.5 1.5 1 1 1 1 1 1l.5.5.5.5h1.5 1.5l-3-2-3-2-16 2.5-16 2.5 2 .5 2 .5"/></g><path d="m566 830v1h1 1v-.5-.5l12-.5 12-.5 17.5-1 17.5-1h-2.5-2.5-2-2-2-2-1-1-1.5-1.5-2-2l-.5.5-.5.5h-1.5-1.5-2-2-1.5-1.5l-.5-.5-.5-.5h-1-1-1-1-1-1-1.5-1.5l-.5.5-.5.5h-1-1-1-1-1-1l-1 .5-1 .5h-1-1-1-1l-.5-.5-.5-.5-1 .5-1 .5-1 .5-1 .5" style="fill:#84d073;stroke:#84d073"/><path d="m568 830v1l18.5-.5 18.5-.5 11-.5 11-.5 10.5-.5 10.5-.5 10.5-.5 10.5-.5 10.5-.5 10.5-.5 11-.5 11-.5v-.5-.5h-12-12l-14.5.5-14.5.5-1 .5-1 .5h-2-2-2-2l-2 .5-2 .5h-1-1-2-2-1-1-1.5-1.5-2-2-1.5-1.5l-17.5 1-17.5 1-12 .5-12 .5" style="fill:#b6f2d5;stroke:#b6f2d5"/><path d="m0 829v1h1 1 2.5 2.5l.5-.5.5-.5 1-.5 1-.5 2-1 2-1v-1.5-1.5l-1-1-1-1-1.5 1-1.5 1h-2-2l-2.5.5-2.5.5v1.5 1.5 1 1" style="fill:#512001;stroke:#512001"/><path d="m15 829l21-2-11-.5-11-.5-2 1-2 1-1 .5-1 .5h1.5 1.5 2 2" style="fill:#0a110a;stroke:#0a110a"/><path d="m408 829v1h2 2 2.5 2.5l-1.5-.5-1.5-.5-1-.5-1-.5-.5-.5-.5-.5 1.5-.5 1.5-.5h.5.5 1 1l.5 1.5.5 1.5h1.5 1.5 1 1 1 1v-1-1l1.5-.5 1.5-.5 1-.5 1-.5.5.5.5.5 2-.5 2-.5-2.5-.5-2.5-.5h-2.5-2.5-2-2-1.5-1.5-3-3l-2 .5-2 .5-1.5-.5-1.5-.5h-2.5-2.5-2-2l-2.5.5-2.5.5v.5.5l3-.5 3-.5 1.5.5 1.5.5 1.5.5 1.5.5h1.5 1.5l1 1 1 1" style="fill:#1edcb1;stroke:#1edcb1"/><path d="m427 829v1h1.5 1.5l.5-.5.5-.5h1 1l1-.5 1-.5h1 1l.5-.5.5-.5.5.5.5.5h1.5 1.5 1 1l.5.5.5.5h1 1l.5.5.5.5 1-.5 1-.5h1 1 1 1l.5-.5.5-.5.5-.5.5-.5 1 .5 1 .5 1 .5 1 .5-.5-1-.5-1h1.5 1.5l.5-.5.5-.5-1-.5-1-.5h2 2l.5-.5.5-.5.5-.5.5-.5.5-.5.5-.5 1 .5 1 .5-.5.5-.5.5.5.5.5.5.5.5.5.5.5 1.5.5 1.5h1.5 1.5l-.5-1.5-.5-1.5.5-1 .5-1 9.5-1.5 9.5-1.5 10.5-.5 10.5-.5 9.5-.5 9.5-.5 9 1 9 1 9.5-1 9.5-1 10.5-.5 10.5-.5 9.5-.5 9.5-.5 4.5 2.5 4.5 2.5-10.5.5-10.5.5-10-1.5-10-1.5-7.5 1.5-7.5 1.5-9 1-9 1-14-.5-14-.5-2-.5-2-.5-1.5-1-1.5-1-1 1-1 1h-2-2-2.5-2.5l-2.5.5-2.5.5v.5.5l-.5.5-.5.5h-1-1l.5 1.5.5 1.5 2-.5 2-.5 1.5-1 1.5-1 1.5-.5 1.5-.5h2.5 2.5l1.5-.5 1.5-.5 1.5 1 1.5 1h2 2l.5 2 .5 2h1.5 1.5v-.5-.5-.5-.5l1-1 1-1 .5.5.5.5h1.5 1.5l1.5-.5 1.5-.5 2-.5 2-.5h2 2l1.5.5 1.5.5.5.5.5.5.5 1 .5 1h-2-2l-1 .5-1 .5h1.5 1.5 2 2l2-.5 2-.5 1.5.5 1.5.5 2-.5 2-.5h1.5 1.5l16-2.5 16-2.5 3 2 3 2h2 2 1.5 1.5l.5-.5.5-.5h2 2 1.5 1.5 1 1 2 2 2 2 2.5 2.5 1.5 1.5v-.5-.5h-1.5-1.5-1.5-1.5-1-1-1-1l-1.5-.5-1.5-.5 1-.5 1-.5 1.5-.5 1.5-.5 2-.5 2-.5 1.5.5 1.5.5h2 2l2 .5 2 .5 1 .5 1 .5h.5.5v-.5-.5l10.5-1 10.5-1 16 .5 16 .5h2 2 1 1 1 1 1.5 1.5 1 1 1 1l.5-.5.5-.5 1.5.5 1.5.5v-1-1l-10.5-1-10.5-1h-8.5-8.5-9-9l-10 1-10 1-1.5-2-1.5-2 9-1 9-1 9.5-.5 9.5-.5 9 2 9 2 12-2 12-2v-1-1l-1-.5-1-.5-1-.5-1-.5-.5.5-.5.5-1 .5-1 .5-2-.5-2-.5-1-.5-1-.5v-1-1l1-.5 1-.5h1 1 2.5 2.5 2 2v-1.5-1.5-2-2-2.5-2.5-2-2-2-2-2.5-2.5-1-1l-.5-.5-.5-.5-.5-6-.5-6-2.5 2.5-2.5 2.5-4-2-4-2 3-8.5 3-8.5v-1.5-1.5-.5-.5l.5-1.5.5-1.5v-1-1l1-.5 1-.5 1.5-.5 1.5-.5 1.5-.5 1.5-.5v-.5-.5l-1.5-.5-1.5-.5-1 .5-1 .5-1 1-1 1-.5.5-.5.5-1 .5-1 .5-1.5.5-1.5.5h-1-1l-.5-1-.5-1 .5-1.5.5-1.5v-2-2-2-2l-.5-8-.5-8-1 10-1 10-5 5-5 5v2 2l3 6.5 3 6.5-2 5-2 5h-7-7l-5.5-.5-5.5-.5-.5 5.5-.5 5.5-3.5-3.5-3.5-3.5-2.5.5-2.5.5-1 3.5-1 3.5-9.5 3-9.5 3-.5-11.5-.5-11.5 1-7 1-7 7-2 7-2-7-4.5-7-4.5-.5-.5-.5-.5-.5-1.5-.5-1.5v-1-1l.5-.5.5-.5v-1.5-1.5l.5-1.5.5-1.5v-1.5-1.5-3-3-1.5-1.5-2-2l-.5-2-.5-2-.5 1.5-.5 1.5v2 2l-.5 2-.5 2v2 2l-.5 2.5-.5 2.5-2 10.5-2 10.5-9.5 1-9.5 1 1 2 1 2 9.5 1.5 9.5 1.5-.5 8.5-.5 8.5-3 8-3 8-1.5 6-1.5 6-1 5-1 5-5.5-3.5-5.5-3.5-5.5 3.5-5.5 3.5h-9-9l-8-.5-8-.5v-10-10l.5-9.5.5-9.5.5-9.5.5-9.5v-10-10l-1-6.5-1-6.5-.5 10.5-.5 10.5-5 6-5 6h-10-10l5.5 1.5 5.5 1.5 9 1.5 9 1.5-1 10-1 10-1 10-1 10-2.5 7.5-2.5 7.5-9 1-9 1h-9.5-9.5-9-9l-2.5-5.5-2.5-5.5v-11-11-10-10l.5-7 .5-7v-9-9l-.5-9.5-.5-9.5-.5 10.5-.5 10.5-1 9-1 9v9.5 9.5 11 11l-3 13-3 13h-1.5-1.5l-2-.5-2-.5-14 4-14 4-10.5.5-10.5.5h1.5 1.5 2 2 2.5 2.5l2.5.5 2.5.5.5.5.5.5-1 1-1 1h-2.5-2.5l-1 .5-1 .5" style="fill:#10a56d;stroke:#10a56d"/><g style="fill:#84d073;stroke:#84d073"><path d="m460 829h2l.5.5.5.5h1 1 1 1 1.5 1.5l1-.5 1-.5-.5-1.5-.5-1.5-.5-.5-.5-.5-.5-.5-.5-.5.5-.5.5-.5-1-.5-1-.5-.5.5-.5.5-.5.5-.5.5-.5.5-.5.5h-2-2l1 .5 1 .5-.5.5-.5.5h-1.5-1.5l.5 1 .5 1"/><path d="m475 829l3 1h2.5 2.5 2 2 3 3v-.5-.5l-.5-1.5-.5-1.5h1 1l.5-.5.5-.5v-.5-.5h-1.5-1.5l-2-.5-2-.5h-2-2-1.5-1.5l-1.5.5-1.5.5h-1.5-1.5l-.5 1-.5 1 .5 1.5.5 1.5"/></g><path d="m522 829v1h1.5 1.5l1.5-.5 1.5-.5 2 .5 2 .5h3 3l1-.5 1-.5h2 2l-.5-1-.5-1-.5-.5-.5-.5-1.5-.5-1.5-.5h-2-2l-2 .5-2 .5-1.5.5-1.5.5h-1.5-1.5l-.5-.5-.5-.5-1 1-1 1v.5.5" style="fill:#0f6560;stroke:#0f6560"/><path d="m114 828l10-23 1-3.5 1-3.5 1.5 9.5 1.5 9.5 4.5 4.5 4.5 4.5 8.5.5 8.5.5 8.5-.5 8.5-.5 4.5-5 4.5-5 2-8 2-8-5-3-5-3-4-6-4-6 2-7 2-7-4-3.5-4-3.5 8-2 8-2 5-6 5-6v-10-10l-2-9-2-9 1 8.5 1 8.5-4 6-4 6-4.5 6.5-4.5 6.5-7.5 3.5-7.5 3.5-9.5 1-9.5 1-6-5-6-5-.5-10.5-.5-10.5-1-10-1-10v-8-8l-2.5-1-2.5-1-2 3-2 3 3 8 3 8 .5 10.5.5 10.5-6 13-6 13-10-.5-10-.5-9.5-.5-9.5-.5-7.5-5.5-7.5-5.5-.5-1.5-.5-1.5-.5-.5-.5-.5.5-.5.5-.5v-1.5-1.5l-.5-2.5-.5-2.5v-2.5-2.5l-.5-1.5-.5-1.5-.5-2-.5-2v-2-2-2-2l-.5-1-.5-1-.5.5-.5.5-.5.5-.5.5v1 1 1 1l.5 1 .5 1v1 1 1 1l-.5.5-.5.5v1.5 1.5l.5.5.5.5v1 1 1 1 1.5 1.5 1 1 1 1 1 1 2.5 2.5l.5 1 .5 1-4 6.5-4 6.5-7.5-1.5-7.5-1.5 1 3 1 3 14.5 1 14.5 1 10-.5 10-.5h9 9 10 10l3.5 7.5 3.5 7.5-3 5.5-3 5.5 2 7.5 2 7.5-5-3.5-5-3.5-5.5-.5-5.5-.5-3-2-3-2 3.5-4.5 3.5-4.5-5 2.5-5 2.5-2 6-2 6-3.5-2.5-3.5-2.5-6-3-6-3h-4-4l-1.5-10-1.5-10-1 .5-1 .5-1-.5-1-.5-1 1-1 1v1.5 1.5l.5.5.5.5v1 1l-.5.5-.5.5.5 1 .5 1-.5 1.5-.5 1.5-.5.5-.5.5-1.5-.5-1.5-.5-1 6.5-1 6.5 1.5 2.5 1.5 2.5-.5 1.5-.5 1.5-6.5 4-6.5 4-3 5.5-3 5.5h2 2 2 2l1.5.5 1.5.5h2.5 2.5l1.5.5 1.5.5h2.5 2.5l1.5-.5 1.5-.5 1-1.5 1-1.5h1 1v-.5-.5l-1.5-6-1.5-6-.5-11-.5-11 1.5 7.5 1.5 7.5.5 10 .5 10 10 1.5 10 1.5 8 1 8 1 10.5.5 10.5.5" style="fill:#10a56d;stroke:#10a56d"/><path d="m286 826l19-2 10.5-.5 10.5-.5 8.5-.5 8.5-.5 8 1 8 1h10 10l9-.5 9-.5 8.5-1.5 8.5-1.5 9.5-.5 9.5-.5 7 1 7 1 9-1 9-1-1.5-9-1.5-9 .5-9.5.5-9.5 2.5-8.5 2.5-8.5-.5-10.5-.5-10.5-1.5-9.5-1.5-9.5.5-3 .5-3-2.5-8.5-2.5-8.5v-9-9l-1-11-1-11v-1-1l-.5-.5-.5-.5-.5-1-.5-1-1-1-1-1-1.5 1-1.5 1-1 1-1 1-1.5-1-1.5-1-1-1-1-1 .5-1.5.5-1.5 2 .5 2 .5 1.5.5 1.5.5 1-.5 1-.5 1-.5 1-.5v-.5-.5l-.5-1-.5-1-.5-1.5-.5-1.5-.5-2-.5-2v-2-2l-.5-2-.5-2v-2-2l-.5-1.5-.5-1.5v-2.5-2.5l-.5-.5-.5-.5-.5 2-.5 2-1 1-1 1-1.5 1-1.5 1-1.5.5-1.5.5h-1-1v-1-1l1.5-1 1.5-1 1.5-.5 1.5-.5 1-1 1-1v-1.5-1.5l-.5-1.5-.5-1.5 1.5-2 1.5-2-.5-1-.5-1-.5-.5-.5-.5-.5-1-.5-1-.5-.5-.5-.5v-1-1l-.5-1.5-.5-1.5-5-1.5-5-1.5-2 5-2 5-8.5 6.5-8.5 6.5v-7.5-7.5l-8.5 1.5-8.5 1.5-3-6-3-6 6.5-2.5 6.5-2.5 8.5-2.5 8.5-2.5 2.5 1 2.5 1h6 6v-7-7l-1.5-9.5-1.5-9.5 1-8 1-8 1.5-8 1.5-8-2.5-8.5-2.5-8.5-1.5-9.5-1.5-9.5-1-8-1-8 8 3 8 3 8.5 3 8.5 3 8.5-.5 8.5-.5 6-5 6-5 3.5-7.5 3.5-7.5 2-9 2-9-2-9.5-2-9.5v-10-10l-1.5-9.5-1.5-9.5-1-10-1-10-1.5-9.5-1.5-9.5-1.5-10-1.5-10-1.5-9.5-1.5-9.5-1.5-9.5-1.5-9.5-1.5-9.5-1.5-9.5-2.5-8.5-2.5-8.5-5-6.5-5-6.5-6.5-4.5-6.5-4.5-2.5 7.5-2.5 7.5.5 9.5.5 9.5-.5 9.5-.5 9.5-6-8-6-8-.5-.5-.5-.5-3-9-3-9-2.5-8.5-2.5-8.5-3-9.5-3-9.5-.5-.5-.5-.5-3.5-8-3.5-8-5-10.5-5-10.5-1.5-1-1.5-1-.5-.5-.5-.5-.5-.5-.5-.5-.5-.5-.5-.5h-1-1l-1-.5-1-.5h-1-1l-.5-.5-.5-.5-.5.5-.5.5-.5 1-.5 1v1 1 1 1l-.5.5-.5.5-.5 1-.5 1-.5 1-.5 1-.5 1-.5 1-.5 1-.5 1-.5 1.5-.5 1.5-1 1-1 1-.5 2-.5 2-1 1-1 1-1 1.5-1 1.5-1 1-1 1-1.5 1-1.5 1h-1-1l-6-5-6-5h-7-7l-8.5-2.5-8.5-2.5-6 2-6 2-4 3-4 3-4.5-7-4.5-7-3.5-11.5-3.5-11.5-8 3.5-8 3.5-4 7-4 7 .5 7.5.5 7.5-2 12-2 12-.5 2-.5 2v1 1l-.5 1-.5 1-1 1-1 1v1 1 1 1l-.5.5-.5.5-.5 1-.5 1v1 1l-.5.5-.5.5v1 1l-.5 1-.5 1-.5 1-.5 1-3.5 9-3.5 9-6.5 10.5-6.5 10.5v-2-2-1-1l.5-.5.5-.5v-1-1l.5-1 .5-1 2.5-9 2.5-9 3-8 3-8 2-9 2-9 3-8.5 3-8.5v-1.5-1.5l-.5-.5-.5-.5-1.5.5-1.5.5-2 .5-2 .5-1.5.5-1.5.5-1.5 1-1.5 1-1.5 1-1.5 1-2.5 9-2.5 9-3 8.5-3 8.5-4.5 11-4.5 11-.5 1-.5 1-.5.5-.5.5-.5.5-.5.5v1.5 1.5l.5.5.5.5v1 1l-.5.5-.5.5-.5 1-.5 1-1 1-1 1-.5.5-.5.5-.5-1.5-.5-1.5v-1.5-1.5-2-2-1-1-1.5-1.5l.5-1.5.5-1.5v-2-2-1-1l.5-1 .5-1v-2-2l.5-2 .5-2v-2-2l.5-2 .5-2 .5-1.5.5-1.5.5-2 .5-2 .5-1.5.5-1.5.5-1.5.5-1.5.5-2 .5-2 .5-1.5.5-1.5.5-1 .5-1-7.5.5-7.5.5-6.5 4.5-6.5 4.5-4.5 6.5-4.5 6.5-2.5 9-2.5 9-2 9-2 9-2 9-2 9-1 9-1 9v2 2l-3 8.5-3 8.5-1 10-1 10-1 10-1 10v11 11l-3.5 7.5-3.5 7.5-.5 10-.5 10 1 10 1 10 3 8 3 8 6 5 6 5 9 1 9 1 7-4 7-4 9-2.5 9-2.5-1.5 7.5-1.5 7.5-3 8-3 8-.5 9.5-.5 9.5 1 10 1 10-.5 10-.5 10-2.5 8.5-2.5 8.5-3.5 14-3.5 14-3 8.5-3 8.5-1.5 9.5-1.5 9.5-2 9-2 9-3.5 9.5-3.5 9.5 1 1.5 1 1.5 1 1 1 1 1 1.5 1 1.5 1 1 1 1 .5 2 .5 2-.5 1.5-.5 1.5h-1.5-1.5l-.5-1-.5-1-1.5-1-1.5-1-.5-1.5-.5-1.5-.5-2-.5-2v-2.5-2.5l-1 1-1 1-.5.5-.5.5-.5 1-.5 1-.5 1.5-.5 1.5-1 1.5-1 1.5-1 1-1 1-1.5 1-1.5 1-1 1-1 1-1 1-1 1v1.5 1.5l11.5 5.5 11.5 5.5 5.5 6 5.5 6-1.5 9.5-1.5 9.5 1.5 9.5 1.5 9.5-1 5-1 5 1.5 9.5 1.5 9.5-1 8.5-1 8.5-4 7-4 7 5.5 5.5 5.5 5.5 9.5.5 9.5.5 4-4 4-4 8 1.5 8 1.5 6.5 1.5 6.5 1.5 8.5.5 8.5.5 9.5.5 9.5.5" style="fill:#0a110a;stroke:#0a110a"/><path d="m630 826v1h2 2 1.5 1.5 1 1 2 2 1 1l2-.5 2-.5h2 2 2 2l1-.5 1-.5h-1.5-1.5-1-1-1-1-1.5-1.5-1-1-1-1-1-1-1.5-1.5-.5-.5-1.5-1.5l-1.5.5-1.5.5h-1.5-1.5" style="fill:#1edcb1;stroke:#1edcb1"/><path d="m617 825l3 1h1 1 1 1 1.5 1.5 1.5 1.5 1.5 1.5l1.5-.5 1.5-.5h1.5 1.5l-1-.5-1-.5-2-.5-2-.5h-2-2l-1.5-.5-1.5-.5-2 .5-2 .5-1.5.5-1.5.5-1 .5-1 .5" style="fill:#0f6560;stroke:#0f6560"/><path d="m22 824h4l3-5.5 3-5.5 6.5-4 6.5-4 .5-1.5.5-1.5-1.5-2.5-1.5-2.5 1-6.5 1-6.5-1-1-1-1 1-1.5 1-1.5v-1-1-2-2l.5-1 .5-1 1.5.5 1.5.5 1-1 1-1 1 .5 1 .5 1-.5 1-.5.5-2.5.5-2.5-14.5-1-14.5-1-1-3-1-3 7.5 1.5 7.5 1.5 4-6.5 4-6.5-2.5-.5-2.5-.5-1-2-1-2 1-1 1-1 1.5-1 1.5-1 .5 1 .5 1v-1-1-1-1-1-1-1.5-1.5-1-1-1-1l-.5-.5-.5-.5v-1.5-1.5l.5-.5.5-.5v-1-1-1-1l-.5-1-.5-1v-1-1-1-1l.5-.5.5-.5.5-.5.5-.5.5 1 .5 1 2.5 8 2.5 8 3-6 3-6 1-5.5 1-5.5-6-4.5-6-4.5-.5-1-.5-1-1 .5-1 .5-.5 1.5-.5 1.5v1 1l.5 1 .5 1 .5 1.5.5 1.5-.5.5-.5.5-1-.5-1-.5.5-1.5.5-1.5-.5-1.5-.5-1.5-1-1.5-1-1.5v-2-2l.5-1.5.5-1.5v-2.5-2.5-1-1l-.5-.5-.5-.5v-1-1l-.5-2-.5-2v2 2 1.5 1.5l.5 1.5.5 1.5-.5 1.5-.5 1.5-.5.5-.5.5h-1.5-1.5-2-2-1-1-1.5-1.5-2-2-1-1l-1-.5-1-.5h-1.5-1.5l-1-.5-1-.5-1-1-1-1-2-.5-2-.5-1.5-.5-1.5-.5v-1.5-1.5l-.5-1.5-.5-1.5v-2.5-2.5-1-1l-1 1-1 1-.5-1-.5-1v-1.5-1.5h-1.5-1.5v12 12 11 11 11 11 11 11h1.5 1.5l.5-.5.5-.5.5.5.5.5.5.5.5.5v1.5 1.5 1 1l-.5.5-.5.5-.5 1-.5 1h-1-1l-1 .5-1 .5v1.5 1.5 2.5 2.5.5.5l1-.5 1-.5h1.5 1.5l.5 1.5.5 1.5-.5 1.5-.5 1.5v1 1l-.5 1-.5 1h-2-2v2.5 2.5 2 2 2.5 2.5 2 2 2.5 2.5 2 2 2 2 2.5 2.5 1.5 1.5l2.5-.5 2.5-.5h2 2l1.5-1 1.5-1 1 1 1 1 1.5.5 1.5.5 1-.5 1-.5 1.5.5 1.5.5" style="fill:#84d073;stroke:#84d073"/><path d="m518 824l28 1 9-1 9-1 7.5-1.5 7.5-1.5 10 1.5 10 1.5 10.5-.5 10.5-.5-4.5-2.5-4.5-2.5-9.5.5-9.5.5-10.5.5-10.5.5-9.5 1-9.5 1-9-1-9-1-9.5.5-9.5.5-10.5.5-10.5.5-9.5 1.5-9.5 1.5h1.5 1.5l1.5-.5 1.5-.5h1.5 1.5 2 2l2 .5 2 .5h1.5 1.5l2.5-.5 2.5-.5h2.5 2.5 2 2l1-1 1-1 1.5 1 1.5 1 2 .5 2 .5" style="fill:#1edcb1;stroke:#1edcb1"/><path d="m640 824v1h1.5 1.5 1 1 1 1 1 1 1.5 1.5 1 1 1 1 1.5 1.5v-.5-.5h2 2 2 2 1 1 1 1 1 1 1.5 1.5 1 1 1 1l1-.5 1-.5h2 2 1 1 2.5 2.5l-16-.5-16-.5-10.5 1-10.5 1" style="fill:#0f6560;stroke:#0f6560"/><path d="m659 824v1l14.5-.5 14.5-.5h12 12v-.5-.5l-1.5-.5-1.5-.5-.5.5-.5.5h-1-1-1-1-1.5-1.5-1-1-1-1-2-2-2.5-2.5-1-1-2-2l-1 .5-1 .5h-1-1-1-1-1.5-1.5-1-1-1-1-1-1-2-2-2-2" style="fill:#1edcb1;stroke:#1edcb1"/><g style="fill:#0f6560;stroke:#0f6560"><path d="m57 821v1l-.5-10-.5-10-1.5-7.5-1.5-7.5.5 11 .5 11 1.5 6 1.5 6"/><path d="m278 821l16-6 2-5 2-5 4 2.5 4 2.5-2 3-2 3 3.5-2.5 3.5-2.5 2.5-6.5 2.5-6.5 3.5.5 3.5.5 3-2.5 3-2.5 2-1 2-1 2 5 2 5 1.5-7.5 1.5-7.5-.5-9.5-.5-9.5-6-3.5-6-3.5-6 2-6 2-3.5-3.5-3.5-3.5-5 5-5 5-4 7-4 7-2.5 8.5-2.5 8.5-2 8.5-2 8.5-.5 2.5-.5 2.5"/></g><path d="m636 821l20-2h9 9 8.5 8.5l10.5 1 10.5 1v-1.5-1.5-2-2l-12 2-12 2-9-2-9-2-9.5.5-9.5.5-9 1-9 1 1.5 2 1.5 2" style="fill:#1edcb1;stroke:#1edcb1"/><g style="fill:#0f6560;stroke:#0f6560"><path d="m343 820l6-8-3.5-.5-3.5-.5.5 4.5.5 4.5"/><path d="m374 819l2-12-3.5-7.5-3.5-7.5-4.5-7-4.5-7-3.5-7.5-3.5-7.5-6 2-6 2v9 9l2 7 2 7 5-2.5 5-2.5-.5 9.5-.5 9.5 3.5.5 3.5.5h4 4l2.5 2.5 2.5 2.5"/><path d="m550 818l2-18h-1-1v9 9"/></g><path d="m474 816l6-26v-11-11-9.5-9.5l1-9 1-9 .5-10.5.5-10.5.5 9.5.5 9.5v9 9l-.5 7-.5 7v10 10 11 11l2.5 5.5 2.5 5.5h9 9 9.5 9.5l9-1 9-1 2.5-7.5 2.5-7.5 1-10 1-10 1-10 1-10-9-1.5-9-1.5-5.5-1.5-5.5-1.5h10 10l5-6 5-6 .5-10.5.5-10.5 1 6.5 1 6.5v10 10l-.5 9.5-.5 9.5-.5 9.5-.5 9.5v10 10l8 .5 8 .5h9 9l5.5-3.5 5.5-3.5 5.5 3.5 5.5 3.5 1-5 1-5 1.5-6 1.5-6 3-8 3-8 .5-8.5.5-8.5-9.5-1.5-9.5-1.5-1-2-1-2 9.5-1 9.5-1 2-10.5 2-10.5v-2-2h-1-1l-1.5.5-1.5.5-.5-2-.5-2-3.5-1-3.5-1-4.5 5.5-4.5 5.5 2-3.5 2-3.5-3-4-3-4-3 3.5-3 3.5-5-3-5-3h-2-2l-2-1-2-1h-7-7l-2-7.5-2-7.5 6.5-4.5 6.5-4.5 9-1 9-1-5.5-1.5-5.5-1.5-8.5-.5-8.5-.5-1-10.5-1-10.5.5-10.5.5-10.5.5-10.5.5-10.5h10 10l8-2 8-2-9.5-1-9.5-1-8.5-1.5-8.5-1.5.5-10.5.5-10.5.5-10.5.5-10.5-1.5-5.5-1.5-5.5-.5 11-.5 11-.5 10.5-.5 10.5-3.5 6.5-3.5 6.5h-9-9l-5.5-1.5-5.5-1.5-1.5-6-1.5-6-2 6-2 6-2.5-1.5-2.5-1.5-1.5-4.5-1.5-4.5-2-3-2-3-1-5-1-5-1.5-5-1.5-5 3.5-1.5 3.5-1.5-2.5-6.5-2.5-6.5-5-3-5-3 10-1 10-1 11-.5 11-.5-6.5-2.5-6.5-2.5h-9-9l-3.5-4.5-3.5-4.5-1.5-6.5-1.5-6.5v-11.5-11.5l1.5-11 1.5-11-6 5.5-6 5.5-8.5 1.5-8.5 1.5-13-4.5-13-4.5 1.5 1 1.5 1 1.5.5 1.5.5.5 1 .5 1-1.5.5-1.5.5-2 .5-2 .5h-1-1-1-1l-.5-2.5-.5-2.5.5 11 .5 11 2.5 9 2.5 9-.5 8.5-.5 8.5-1 8-1 8 .5 9.5.5 9.5 3 14.5 3 14.5.5 1.5.5 1.5v1 1l.5.5.5.5.5 1 .5 1 .5.5.5.5.5 1 .5 1 .5 1 .5 1 1 1.5 1 1.5.5 1.5.5 1.5v1 1 1.5 1.5 2 2 1 1l.5 1 .5 1v2 2l.5.5.5.5v1.5 1.5 2 2l.5.5.5.5v1 1l.5 1.5.5 1.5v1.5 1.5l.5.5.5.5v2 2 1 1l2 18.5 2 18.5 1.5 9.5 1.5 9.5 1.5 10 1.5 10 .5 10.5.5 10.5-.5 9.5-.5 9.5-2.5 8.5-2.5 8.5 2 10 2 10 2 .5 2 .5h1.5 1.5" style="fill:#1edcb1;stroke:#1edcb1"/><g style="fill:#0f6560;stroke:#0f6560"><path d="m431 814l3 1 1-1 1-1 .5-2 .5-2-.5-1.5-.5-1.5-1.5 1-1.5 1-1 1-1 1-1 1.5-1 1.5 1 .5 1 .5"/><path d="m330 813l3 1v-1-1-1.5-1.5l.5-1.5.5-1.5-.5-2-.5-2-1.5-.5-1.5-.5v2.5 2.5l.5 1.5.5 1.5-.5 1.5-.5 1.5v.5.5"/><path d="m687 813l3-15v-8-8l-1.5 10-1.5 10v5.5 5.5"/><path d="m201 811l18-6 7-4 7-4 5.5-6 5.5-6 2.5-6.5 2.5-6.5-.5-5.5-.5-5.5-5 4-5 4-4.5 6.5-4.5 6.5-5 6.5-5 6.5-5.5 5.5-5.5 5.5-3.5 2.5-3.5 2.5"/><path d="m701 811l4 1 1-.5 1-.5.5-.5.5-.5 1 .5 1 .5 1 .5 1 .5v-2.5-2.5h-2-2-2.5-2.5-1-1l-1 .5-1 .5v1 1l1 .5 1 .5"/></g><path d="m119 805l-4-15 3-5.5 3-5.5-3.5-7.5-3.5-7.5h-10-10-9-9l-10 .5-10 .5-.5 2.5-.5 2.5 1.5 10 1.5 10h4 4l6 3 6 3 3.5 2.5 3.5 2.5 2-6 2-6 5-2.5 5-2.5-3.5 4.5-3.5 4.5 3 2 3 2 5.5.5 5.5.5 5 3.5 5 3.5" style="fill:#1edcb1;stroke:#1edcb1"/><path d="m219 800l16-8 4-7 4-7-5 2.5-5 2.5-5 6-5 6-2 2.5-2 2.5" style="fill:#10a56d;stroke:#10a56d"/><path d="m129 799l5-11 2.5-5.5 2.5-5.5 5.5-4 5.5-4-7.5-2.5-7.5-2.5-4 5-4 5 .5 10.5.5 10.5.5 2 .5 2" style="fill:#1edcb1;stroke:#1edcb1"/><path d="m451 798l-3-17-2-7-2-7-6-5.5-6-5.5-6.5 2.5-6.5 2.5 5.5.5 5.5.5 4.5 5.5 4.5 5.5 1 8 1 8 5 4.5 5 4.5" style="fill:#0f6560;stroke:#0f6560"/><g style="fill:#1edcb1;stroke:#1edcb1"><path d="m627 788l19-6 1-3.5 1-3.5 2.5-.5 2.5-.5 3.5 3.5 3.5 3.5.5-5.5.5-5.5 5.5.5 5.5.5h7 7l2-5 2-5-3-6.5-3-6.5.5 1.5.5 1.5-.5 1-.5 1-1.5-.5-1.5-.5-2 .5-2 .5-1 1-1 1h-1.5-1.5l-.5-1-.5-1-1.5.5-1.5.5h-1-1l-1-.5-1-.5-1.5.5-1.5.5-1.5-1-1.5-1 1.5-.5 1.5-.5 2.5-.5 2.5-.5h-2-2-2-2-2.5-2.5-2-2-1.5-1.5l1 2 1 2-1.5 1-1.5 1-1.5-.5-1.5-.5-2-.5-2-.5-1-1-1-1h2.5 2.5l1-1 1-1h1.5 1.5v-.5-.5l1-1 1-1 1-1 1-1h2.5 2.5l1.5-.5 1.5-.5h1.5 1.5l1.5.5 1.5.5h1.5 1.5 2 2l3.5-4.5 3.5-4.5.5-1.5.5-1.5-6.5 1.5-6.5 1.5-3 2-3 2-4-1-4-1v-6.5-6.5l-3-2-3-2-6 7-6 7-2 .5-2 .5-1 1-1 1 7 4.5 7 4.5-7 2-7 2-1 7-1 7 .5 11.5.5 11.5"/><path d="m48 785l1-1 .5-1.5.5-1.5-.5-1-.5-1 .5-.5.5-.5v-1-1l-.5-.5-.5-.5v-1.5-1.5l-1.5-.5-1.5-.5-.5 1-.5 1v2 2 1 1l-1 1.5-1 1.5 1 1 1 1 1.5.5 1.5.5"/></g><path d="m0 784v1h2 2l.5-1 .5-1v-1-1l.5-1.5.5-1.5-.5-1.5-.5-1.5h-1.5-1.5l-1 .5-1 .5v2.5 2.5 1.5 1.5" style="fill:#f1d10a;stroke:#f1d10a"/><path d="m711 779l1 1v-3-3-2.5-2.5-2-2-2.5-2.5-.5-.5l-1-.5-1-.5.5-2 .5-2-.5-.5-.5-.5v-1-1l-.5.5-.5.5-.5.5-.5.5-.5 1-.5 1-.5.5-.5.5-.5-.5-.5-.5-.5-.5-.5-.5-.5-1.5-.5-1.5-3 8.5-3 8.5 4 2 4 2 2.5-2.5 2.5-2.5.5 6 .5 6" style="fill:#1edcb1;stroke:#1edcb1"/><path d="m0 766v1l1-.5 1-.5h1 1l.5-1 .5-1 .5-.5.5-.5v-1-1-1.5-1.5l-.5-.5-.5-.5-.5-.5-.5-.5-.5.5-.5.5h-1.5-1.5v3 3 1.5 1.5" style="fill:#f1d10a;stroke:#f1d10a"/><path d="m107 758l12-26-.5-10.5-.5-10.5-3-8-3-8 2-3 2-3 2.5 1 2.5 1v8 8l1 10 1 10 .5 10.5.5 10.5 6 5 6 5 9.5-1 9.5-1 7.5-3.5 7.5-3.5 4.5-6.5 4.5-6.5 4-6 4-6-1-8.5-1-8.5-2.5-.5-2.5-.5-2-.5-2-.5h-2-2l-2-.5-2-.5-1.5-.5-1.5-.5-2-.5-2-.5-1-1-1-1-1-1.5-1-1.5-.5-.5-.5-.5-8.5-1-8.5-1 7-1 7-1 6-5 6-5 4-7 4-7 3.5-8 3.5-8 2-9 2-9-4-6-4-6 5.5-5.5 5.5-5.5-.5-10.5-.5-10.5-.5-10-.5-10 1-8 1-8 1 10 1 10 .5 10.5.5 10.5 2.5-4 2.5-4 2.5-9 2.5-9 2.5-8.5 2.5-8.5.5-8.5.5-8.5-1-10-1-10 3-18 3-18h-2-2-2.5-2.5l-1.5.5-1.5.5h-2.5-2.5-2-2-1-1l-.5-1.5-.5-1.5 1.5-.5 1.5-.5.5-1.5.5-1.5-8.5 2-8.5 2-7-4-7-4-7-12-7-12 2.5 9.5 2.5 9.5 5.5 5.5 5.5 5.5 6.5 2.5 6.5 2.5 2 4 2 4-5 4.5-5 4.5-5 5-5 5-3.5 7.5-3.5 7.5-4.5 5.5-4.5 5.5-4.5 6.5-4.5 6.5-6.5 2-6.5 2-4.5-5.5-4.5-5.5-2.5 5.5-2.5 5.5.5 1.5.5 1.5 1.5 9.5 1.5 9.5v10.5 10.5l.5 8.5.5 8.5-4.5 4.5-4.5 4.5-10.5.5-10.5.5-5.5 3-5.5 3h10 10 10 10l-1 6-1 6-1 6-1 6-4-1.5-4-1.5-1.5 6.5-1.5 6.5-3 1-3 1-5.5 1.5-5.5 1.5-3 4-3 4-2 7.5-2 7.5-1 .5-1 .5-2 .5-2 .5h-2-2-1.5-1.5-2-2l-1.5-.5-1.5-.5-.5-1.5-.5-1.5-.5-1.5-.5-1.5.5-1.5.5-1.5v-.5-.5l-.5-.5-.5-.5v-1.5-1.5l-.5-1.5-.5-1.5-.5-2-.5-2-.5 1.5-.5 1.5-.5 2-.5 2 .5 2 .5 2v1 1l.5.5.5.5v1 1 2.5 2.5l1.5 1 1.5 1 1.5 1 1.5 1v1.5 1.5l6 4.5 6 4.5-1 5.5-1 5.5-3 6-3 6-2.5-8-2.5-8v2 2 2 2l.5 2 .5 2 .5 1.5.5 1.5v2.5 2.5l.5 2.5.5 2.5.5-1.5.5-1.5.5-1 .5-1 1 1 1 1 .5.5.5.5-.5.5-.5.5.5.5.5.5v1.5 1.5h-1-1v1 1 1 1l-.5.5-.5.5h-.5-.5l7.5 5.5 7.5 5.5 9.5.5 9.5.5 10 .5 10 .5" style="fill:#1edcb1;stroke:#1edcb1"/><g style="fill:#0f6560;stroke:#0f6560"><path d="m710 758l2 1v-2.5-2.5-2.5-2.5-2-2-.5-.5l-1 .5-1 .5-1 1.5-1 1.5-.5 1.5-.5 1.5h-1-1l-.5-1-.5-1v-1-1l.5-.5.5-.5.5-1 .5-1 .5-.5.5-.5.5-.5.5-.5.5-.5.5-.5h1.5 1.5v-1-1l-1.5.5-1.5.5-1.5.5-1.5.5-1 .5-1 .5v1 1l-.5 1.5-.5 1.5v.5.5 1.5 1.5l.5 1.5.5 1.5.5.5.5.5.5.5.5.5.5-.5.5-.5.5-1 .5-1 .5-.5.5-.5.5-.5.5-.5v1 1l.5.5.5.5-.5 2-.5 2"/><path d="m305 755h20l6.5-3.5 6.5-3.5v-9.5-9.5l-5-5-5-5-5.5 4.5-5.5 4.5-3.5 7.5-3.5 7.5-2.5 6-2.5 6"/></g><g style="fill:#84d073;stroke:#84d073"><path d="m642 755l3 1 1.5-1 1.5-1-1-2-1-2h-1.5-1.5l-1 1-1 1h-2.5-2.5l1 1 1 1 2 .5 2 .5"/><path d="m672 755h3l1-1 1-1 2-.5 2-.5 1.5.5 1.5.5.5-1 .5-1-.5-1.5-.5-1.5v-2-2l5-5 5-5 1-10 1-10 .5 8 .5 8 1-1 1-1 .5-.5.5-.5v-1-1l-.5-.5-.5-.5.5-1 .5-1 .5-.5.5-.5.5.5.5.5-.5.5-.5.5.5 1 .5 1 .5.5.5.5.5.5.5.5.5-.5.5-.5.5-.5.5-.5-.5-1-.5-1v-1-1l-.5-.5-.5-.5-.5-.5-.5-.5v-1-1-1.5-1.5-3-3l-1-9.5-1-9.5-1-7-1-7-1 9-1 9-1 9-1 9-5.5 2.5-5.5 2.5-1.5 2-1.5 2-5.5-2.5-5.5-2.5-3.5-1.5-3.5-1.5-6.5-1.5-6.5-1.5-5 3-5 3-4-1.5-4-1.5-1-9-1-9 2-7 2-7-1-9-1-9 .5-10.5.5-10.5v-9.5-9.5l1-9 1-9-1.5 1.5-1.5 1.5-.5 9.5-.5 9.5-1 10-1 10-.5 11-.5 11-.5 9.5-.5 9.5-4.5 15.5-4.5 15.5.5 2 .5 2 1.5-.5 1.5-.5h1 1v2 2l.5-2.5.5-2.5v-2-2l.5-2 .5-2v-2-2l.5-1.5.5-1.5.5 2 .5 2v2 2 1.5 1.5 3 3l2-.5 2-.5h1 1l1-1 1-1 1.5 1 1.5 1 .5 1.5.5 1.5v1.5 1.5h-1-1l-.5 2-.5 2-.5 1.5-.5 1.5-1 .5-1 .5 6-7 6-7 3 2 3 2v6.5 6.5l4 1 4 1 3-2 3-2 6.5-1.5 6.5-1.5-.5 1.5-.5 1.5-3.5 4.5-3.5 4.5v1 1l-.5 1-.5 1h-1-1l-1 .5-1 .5-2.5.5-2.5.5-1.5.5-1.5.5 1.5 1 1.5 1 1.5-.5 1.5-.5 1 .5 1 .5h1 1l1.5-.5 1.5-.5.5 1 .5 1"/></g><path d="m424 752l18-6v-6-6l-3-5.5-3-5.5-7.5 2.5-7.5 2.5-5.5 4.5-5.5 4.5-4 1-4 1h10 10l-6.5 4-6.5 4 7.5 2.5 7.5 2.5" style="fill:#0f6560;stroke:#0f6560"/><path d="m705 751h2l.5-1.5.5-1.5 1-1.5 1-1.5 1-.5 1-.5v-1.5-1.5h-1.5-1.5l-.5.5-.5.5-.5.5-.5.5-.5.5-.5.5-.5 1-.5 1-.5.5-.5.5v1 1l.5 1 .5 1" style="fill:#0a110a;stroke:#0a110a"/><path d="m646 749v1h1.5 1.5 2 2 2.5 2.5 2 2 2 2l1-.5 1-.5h1 1l.5-1 .5-1v-1-1h-2-2-1.5-1.5l-1.5-.5-1.5-.5h-1.5-1.5l-1.5.5-1.5.5h-2.5-2.5l-1 1-1 1-1 1-1 1" style="fill:#10a56d;stroke:#10a56d"/><path d="m43 746l5 1-.5-1-.5-1v-2.5-2.5l-.5-1-.5-1-1.5 1-1.5 1-1 1-1 1 1 2 1 2" style="fill:#1edcb1;stroke:#1edcb1"/><path d="m54 745l1-1v-1-1-1-1h1 1v-1.5-1.5l-.5-.5-.5-.5.5-.5.5-.5-.5-.5-.5-.5-1-1-1-1-.5 1-.5 1-.5 1.5-.5 1.5v1.5 1.5l-.5.5-.5.5.5.5.5.5.5 1.5.5 1.5h.5.5" style="fill:#84d073;stroke:#84d073"/><path d="m697 743h2l1.5-.5 1.5-.5 1-.5 1-.5.5-.5.5-.5 1-1 1-1 1-.5 1-.5 1.5.5 1.5.5v-3.5-3.5-2-2-2-2-2.5-2.5-2-2-2.5-2.5-2-2-1-1l-1-.5-1-.5-.5-.5-.5-.5-.5-.5-.5-.5h-1-1l-.5 1-.5 1-.5-.5-.5-.5-.5.5-.5.5-.5.5-.5.5.5.5.5.5 1-.5 1-.5.5.5.5.5v1 1l.5.5.5.5v1 1 1.5 1.5l-.5.5-.5.5-1.5.5-1.5.5v1.5 1.5 1 1l.5.5.5.5.5.5.5.5v1 1l.5 1 .5 1-.5.5-.5.5-.5.5-.5.5-.5-.5-.5-.5-.5-.5-.5-.5-.5-1-.5-1 .5-.5.5-.5-.5-.5-.5-.5-.5.5-.5.5-.5 1-.5 1 .5.5.5.5v1 1l-.5.5-.5.5-1 1-1 1v2 2 2 2l-.5 1.5-.5 1.5.5 1 .5 1" style="fill:#1edcb1;stroke:#1edcb1"/><path d="m627 737l1 1 1-1 1-1 2-.5 2-.5v-.5-.5-1.5-1.5-.5-.5l.5-.5.5-.5.5-.5.5-.5-.5-.5-.5-.5-1-.5-1-.5-.5-.5-.5-.5-.5.5-.5.5-1.5-.5-1.5-.5-.5 1.5-.5 1.5v1.5 1.5l-.5.5-.5.5v1 1l.5 1.5.5 1.5" style="fill:#84d073;stroke:#84d073"/><path d="m447 736h2l.5-1.5.5-1.5 1.5-1 1.5-1-.5-1.5-.5-1.5-1.5-1-1.5-1-1.5.5-1.5.5-1 1.5-1 1.5-.5 1.5-.5 1.5 1 1 1 1 1 .5 1 .5" style="fill:#0f6560;stroke:#0f6560"/><g style="fill:#1edcb1;stroke:#1edcb1"><path d="m634 734v1l1-.5 1-.5.5-1.5.5-1.5.5-2 .5-2h1 1v-1.5-1.5l-.5-1.5-.5-1.5-1.5-1-1.5-1-1 1-1 1h-1-1l-2 .5-2 .5v1.5 1.5l1.5.5 1.5.5.5-.5.5-.5.5.5.5.5 1 .5 1 .5.5.5.5.5-.5.5-.5.5-.5.5-.5.5v.5.5 1.5 1.5"/><path d="m663 732l16-4-5 1-5 1-3 1-3 1"/></g><path d="m602 727l9-11 3.5 1 3.5 1 4.5-15.5 4.5-15.5.5-9.5.5-9.5.5-11 .5-11 1-10 1-10 .5-9.5.5-9.5 1.5-1.5 1.5-1.5-1 9-1 9v9.5 9.5l-.5 10.5-.5 10.5 1 9 1 9-2 7-2 7 1 9 1 9 4 1.5 4 1.5 5-3 5-3 6.5 1.5 6.5 1.5 3.5 1.5 3.5 1.5 5.5 2.5 5.5 2.5 1.5-2 1.5-2 5.5-2.5 5.5-2.5 1-9 1-9 1-9 1-9 1 7 1 7 1 9.5 1 9.5v3 3l1.5-.5 1.5-.5.5-.5.5-.5v-1.5-1.5-1-1l-.5-.5-.5-.5v-1-1l-.5-.5-.5-.5-1 .5-1 .5-.5-.5-.5-.5.5-.5.5-.5.5-.5.5-.5.5.5.5.5.5-1 .5-1h1 1l.5.5.5.5.5.5.5.5 1 .5 1 .5v-13-13-11-11-11.5-11.5-11-11-11-11-11-11-11-11-8.5-8.5l-.5-11-.5-11-.5 11-.5 11-6.5 4.5-6.5 4.5-8-3-8-3-4 1-4 1-7 2-7 2-1.5-2.5-1.5-2.5-6 2-6 2-1-3.5-1-3.5v-8-8-9-9l1-10 1-10v-9.5-9.5l-.5-5.5-.5-5.5-1 10-1 10-.5 9.5-.5 9.5-1 10-1 10-1.5 10-1.5 10-4.5 2.5-4.5 2.5-.5-5.5-.5-5.5-2-4-2-4-3-1-3-1-6-3.5-6-3.5-2.5-6.5-2.5-6.5-2-3-2-3 .5-2.5.5-2.5-10-1-10-1 3.5-1 3.5-1 9-2 9-2-1.5-1.5-1.5-1.5-10.5-.5-10.5-.5-3-7-3-7-.5-9-.5-9-1-1-1-1-1 10-1 10-6-3-6-3-7.5-1.5-7.5-1.5-1.5-5-1.5-5-4.5-1.5-4.5-1.5-4-1-4-1-2-4-2-4-5-2.5-5-2.5.5-4.5.5-4.5-1-4-1-4 8-2 8-2-10.5-3.5-10.5-3.5.5 11 .5 11 1.5 9.5 1.5 9.5 1 10 1 10-5 14-5 14-1.5 11-1.5 11v11.5 11.5l1.5 6.5 1.5 6.5 3.5 4.5 3.5 4.5h9 9l6.5 2.5 6.5 2.5-11 .5-11 .5-10 1-10 1 5 3 5 3 2.5 6.5 2.5 6.5-3.5 1.5-3.5 1.5 1.5 5 1.5 5 1 5 1 5 2 3 2 3 1.5 4.5 1.5 4.5 2.5 1.5 2.5 1.5 2-6 2-6 1.5 6 1.5 6 5.5 1.5 5.5 1.5h9 9l3.5-6.5 3.5-6.5.5-10.5.5-10.5.5-11 .5-11 1.5 5.5 1.5 5.5-.5 10.5-.5 10.5-.5 10.5-.5 10.5 8.5 1.5 8.5 1.5 9.5 1 9.5 1-8 2-8 2h-10-10l-.5 10.5-.5 10.5-.5 10.5-.5 10.5 1 10.5 1 10.5 8.5.5 8.5.5 5.5 1.5 5.5 1.5-9 1-9 1-6.5 4.5-6.5 4.5 2 7.5 2 7.5h7 7l2 1 2 1h2 2l5 3 5 3 3-3.5 3-3.5 3 4 3 4-2 3.5-2 3.5" style="fill:#b6f2d5;stroke:#b6f2d5"/><path d="m433 721l2-10 2-3 2-3-5.5 2-5.5 2-8 3-8 3 6.5-.5 6.5-.5 1.5 2.5 1.5 2.5 2.5 1 2.5 1" style="fill:#0f6560;stroke:#0f6560"/><path d="m24 711l14-2 2-5 2-5h-9.5-9.5l2.5 3.5 2.5 3.5-2 2.5-2 2.5" style="fill:#b6f2d5;stroke:#b6f2d5"/><path d="m47 706l1-1-.5-1.5-.5-1.5-.5-1-.5-1v-1-1l.5-1.5.5-1.5 1-.5 1-.5.5 1 .5 1v-1.5-1.5l-1.5-1-1.5-1-1.5-1-1.5-1-.5 1.5-.5 1.5v2 2l1 1.5 1 1.5.5 1.5.5 1.5-.5 1.5-.5 1.5 1 .5 1 .5" style="fill:#10a56d;stroke:#10a56d"/><path d="m199 705l3 1 1.5-.5 1.5-.5 1-1.5 1-1.5.5-1.5.5-1.5-1-1.5-1-1.5-1-1-1-1-2 .5-2 .5-.5 1.5-.5 1.5-.5 1.5-.5 1.5v1.5 1.5l.5.5.5.5" style="fill:#0f6560;stroke:#0f6560"/><path d="m547 702l6-12-5.5-1.5-5.5-1.5-7 1.5-7 1.5 8 2 8 2 .5 3.5.5 3.5 1 .5 1 .5" style="fill:#b6f2d5;stroke:#b6f2d5"/><path d="m156 696l1 1 .5-2 .5-2v-1.5-1.5l1-1 1-1 1-1 1-1 1.5-1 1.5-1 1-1 1-1 1-1.5 1-1.5.5-1.5.5-1.5.5-1 .5-1 .5-.5.5-.5 1-1 1-1 .5-.5.5-.5 3.5-9.5 3.5-9.5 2-9 2-9 1.5-9.5 1.5-9.5 3-8.5 3-8.5v-.5-.5-1.5-1.5-1-1-2-2l-2.5 4-2.5 4-.5-10.5-.5-10.5-1-10-1-10-1 8-1 8 .5 10 .5 10 .5 10.5.5 10.5-5.5 5.5-5.5 5.5 4 6 4 6-2 9-2 9-3.5 8-3.5 8-4 7-4 7-6 5-6 5-7 1-7 1 8.5 1 8.5 1" style="fill:#10a56d;stroke:#10a56d"/><path d="m48 689l3 1h2 2 1.5 1.5 2 2l2-.5 2-.5 1-.5 1-.5h-1.5-1.5l-1 .5-1 .5h-1-1l-.5-.5-.5-.5h-1-1l-.5-.5-.5-.5-1 .5-1 .5h-1-1-1-1l-.5-.5-.5-.5-1-.5-1-.5v-1-1-1-1l-.5-1-.5-1-.5 1.5-.5 1.5.5 1.5.5 1.5.5 1.5.5 1.5" style="fill:#84d073;stroke:#84d073"/><path d="m18 688h3l1 .5 1 .5h1 1 2 2 1.5 1.5 1 1 2 2 1.5 1.5l.5-.5.5-.5.5-1.5.5-1.5-.5-1.5-.5-1.5v-1.5-1.5-2-2l-.5-10-.5-10-1-10-1-10-.5-10-.5-10-.5-10.5-.5-10.5 1-3 1-3 .5 9.5.5 9.5 1.5 8.5 1.5 8.5v9.5 9.5l2 18 2 18v.5.5l.5 1 .5 1v1 1 1 1l1 .5 1 .5.5.5.5.5h1 1 1 1l1-.5 1-.5.5.5.5.5h1 1l.5.5.5.5h1 1l1-.5 1-.5h1.5 1.5l2-7.5 2-7.5 3-4 3-4 5.5-1.5 5.5-1.5 3-1 3-1 1.5-6.5 1.5-6.5 4 1.5 4 1.5 1-6 1-6 1-6 1-6h-10-10-10-10l5.5-3 5.5-3 10.5-.5 10.5-.5 4.5-4.5 4.5-4.5-.5-8.5-.5-8.5v-10.5-10.5l-1.5-9.5-1.5-9.5-.5-1.5-.5-1.5 2.5-5.5 2.5-5.5 4.5 5.5 4.5 5.5 6.5-2 6.5-2 4.5-6.5 4.5-6.5 4.5-5.5 4.5-5.5 3.5-7.5 3.5-7.5 5-5 5-5 5-4.5 5-4.5-2-4-2-4-6.5-2.5-6.5-2.5-5.5-5.5-5.5-5.5-2.5-9.5-2.5-9.5-1-11.5-1-11.5 2-9 2-9 2.5-8.5 2.5-8.5v-11.5-11.5l1-10.5 1-10.5-2 10.5-2 10.5-6 4-6 4-6.5 3.5-6.5 3.5-2-1-2-1-3 .5-3 .5-5 5-5 5-1-3-1-3-1-10-1-10-1.5-2.5-1.5-2.5.5 10 .5 10-1.5 8.5-1.5 8.5-8.5-.5-8.5-.5h-10-10v2 2l9 1.5 9 1.5 7-2 7-2 3 2 3 2-3 4-3 4-6.5-.5-6.5-.5 1.5 4 1.5 4 2.5 4.5 2.5 4.5-5.5-1.5-5.5-1.5-3.5 4.5-3.5 4.5-4.5-3.5-4.5-3.5v-3.5-3.5-5-5l-7.5 2.5-7.5 2.5-5.5 11.5-5.5 11.5-3-4-3-4-.5-9.5-.5-9.5 4.5-5.5 4.5-5.5-5-2-5-2-1-9-1-9-1.5 7-1.5 7-10 1-10 1v12.5 12.5 11 11 11 11 5.5 5.5h1.5 1.5l1 .5 1 .5.5 1.5.5 1.5-1 1.5-1 1.5-1 1-1 1-1 .5-1 .5v12.5 12.5 11 11 10 10l6 .5 6 .5-6 3.5-6 3.5v13 13 11.5 11.5 8 8l9.5.5 9.5.5-9.5 3.5-9.5 3.5v2.5 2.5 2 2 2.5 2.5 2 2 1 1l1 1.5 1 1.5v1 1l.5.5.5.5.5.5.5.5.5.5.5.5-.5 1-.5 1-.5.5-.5.5v1 1l.5.5.5.5.5-1 .5-1 .5.5.5.5.5.5.5.5v1 1l-.5 1-.5 1v2 2 1 1 2.5 2.5l.5 1.5.5 1.5v1.5 1.5l1.5.5 1.5.5 2 .5 2 .5 1 1 1 1 1 .5 1 .5" style="fill:#b6f2d5;stroke:#b6f2d5"/><path d="m180 687h3l.5-1.5.5-1.5-.5-2-.5-2-1-1-1-1-1-1.5-1-1.5-1-1-1-1-1-1.5-1-1.5-.5.5-.5.5v2.5 2.5l.5 2 .5 2 .5 1.5.5 1.5 1.5 1 1.5 1 .5 1 .5 1" style="fill:#512001;stroke:#512001"/><g style="fill:#84d073;stroke:#84d073"><path d="m639 683l21-1h-6-6l-4.5.5-4.5.5"/><path d="m666 682l15 1-.5-2.5-.5-2.5-7 2-7 2"/></g><path d="m535 680l19-1-2-2-2-2 2.5-6 2.5-6 1-10 1-10 .5-10.5.5-10.5-8.5-2.5-8.5-2.5-9.5.5-9.5.5-11 .5-11 .5-2.5.5-2.5.5 8 1 8 1 .5 4.5.5 4.5-3.5 5.5-3.5 5.5.5 3 .5 3 4.5 4.5 4.5 4.5 6.5 4.5 6.5 4.5 5 5 5 5-1.5 2-1.5 2" style="fill:#b6f2d5;stroke:#b6f2d5"/><path d="m46 678l1 1-2-18-2-18v-9.5-9.5l-1.5-8.5-1.5-8.5-.5-9.5-.5-9.5-1 3-1 3 .5 10.5.5 10.5.5 10 .5 10 1 10 1 10 .5 10 .5 10 .5-2 .5-2 .5-1.5.5-1.5.5 2 .5 2 .5 1.5.5 1.5v1.5 1.5" style="fill:#84d073;stroke:#84d073"/><path d="m209 676h2l1-1 1-1 1-1.5 1-1.5-.5-1.5-.5-1.5-1.5 1-1.5 1-1 1-1 1-1 1.5-1 1.5 1 .5 1 .5" style="fill:#0f6560;stroke:#0f6560"/><path d="m4 672l2-2v-2-2l.5-1 .5-1v-1-1l-.5-.5-.5-.5-.5-.5-.5-.5-.5 1-.5 1-.5-.5-.5-.5v-1-1l.5-.5.5-.5.5-1 .5-1-.5-.5-.5-.5-.5-.5-.5-.5-.5-.5-.5-.5v-1-1l-1-1.5-1-1.5v2 2 2.5 2.5 2 2 2.5 2.5.5.5h1.5 1.5v1.5 1.5l.5 1 .5 1" style="fill:#fee78e;stroke:#fee78e"/><g style="fill:#0f6560;stroke:#0f6560"><path d="m322 665l9-15 4.5-4.5 4.5-4.5 7-4.5 7-4.5h-7-7l-4.5-2.5-4.5-2.5-1.5-5.5-1.5-5.5-2 4-2 4-4.5 4-4.5 4 1.5 5.5 1.5 5.5.5 7.5.5 7.5 1.5 3.5 1.5 3.5"/><path d="m457 659l1 1v-2-2l-.5-.5-.5-.5v-1.5-1.5h-.5-.5l-1 .5-1 .5-1 .5-1 .5-1.5-.5-1.5-.5-2-.5-2-.5-.5 1.5-.5 1.5 1 1 1 1 1.5 1 1.5 1 1-1 1-1 1.5-1 1.5-1 1 1 1 1 .5 1 .5 1"/></g><g style="fill:#10a56d;stroke:#10a56d"><path d="m324 657l3-21h-4-4l1 7.5 1 7.5 1.5 3 1.5 3"/><path d="m456 651v1h.5.5l-.5-1.5-.5-1.5v-1-1l-.5-.5-.5-.5v-2-2-1.5-1.5l-.5-.5-.5-.5v-2-2l-.5-1-.5-1v-1-1-2-2-1.5-1.5-1-1l-.5-1.5-.5-1.5v1.5 1.5 2 2 2.5 2.5 2 2l.5 2 .5 2v2 2l.5 2 .5 2 .5 1.5.5 1.5.5 1 .5 1"/></g><g style="fill:#0f6560;stroke:#0f6560"><path d="m233 646l16-8 6-4 6-4 1.5-7 1.5-7-6-3-6-3-8.5-2.5-8.5-2.5 1 3 1 3 4 4 4 4-5 3.5-5 3.5-3.5-1.5-3.5-1.5.5 6.5.5 6.5 8-1 8-1-1 3-1 3-5 3-5 3"/><path d="m411 635l22-2-3.5-1.5-3.5-1.5-7.5 2-7.5 2v.5.5"/><path d="m400 633l-7-9-4.5-6.5-4.5-6.5v2.5 2.5l4.5 6.5 4.5 6.5 3.5 2 3.5 2"/><path d="m439 630h2l1.5-.5 1.5-.5 1.5-1 1.5-1 1-1 1-1 .5-2 .5-2 .5.5.5.5v2.5 2.5l.5 1.5.5 1.5v-2.5-2.5-2-2-1.5-1.5l-1-1.5-1-1.5-.5-1-.5-1-1.5 2-1.5 2 .5 1.5.5 1.5v1.5 1.5l-1 1-1 1-1.5.5-1.5.5-1.5 1-1.5 1v1 1"/><path d="m336 628l18-6 .5-6.5.5-6.5-1.5 3-1.5 3-4.5-1.5-4.5-1.5-1 3-1 3-2.5 5-2.5 5"/></g><path d="m0 627v1l9.5-3.5 9.5-3.5-9.5-.5-9.5-.5v3 3 .5.5" style="fill:#84d073;stroke:#84d073"/><path d="m413 622l17-13 2-5 2-5 5 1.5 5 1.5-3-14.5-3-14.5-.5-9.5-.5-9.5 1-8 1-8 .5-8.5.5-8.5-2.5-9-2.5-9-.5-11-.5-11v-1.5-1.5h.5.5l2 .5 2 .5 13 4.5 13 4.5 8.5-1.5 8.5-1.5 6-5.5 6-5.5 5-14 5-14-1-10-1-10-1.5-9.5-1.5-9.5-.5-11-.5-11-1.5-10-1.5-10-1.5-10-1.5-10-1.5-9.5-1.5-9.5-1-10-1-10-1.5-9.5-1.5-9.5-1.5-9.5-1.5-9.5-2.5-9-2.5-9-4-7-4-7-6.5-4.5-6.5-4.5-11.5-4-11.5-4 .5 1 .5 1 .5 1 .5 1 .5 1 .5 1 2-1 2-1 .5 1 .5 1v2 2l.5 2 .5 2v2 2l-.5.5-.5.5h-.5-.5l2.5 10 2.5 10-.5 9.5-.5 9.5-1.5-1.5-1.5-1.5-1 1-1 1-1-1.5-1-1.5-.5-1.5-.5-1.5-1-2.5-1-2.5 6 8 6 8 .5-9.5.5-9.5-.5-9.5-.5-9.5 2.5-7.5 2.5-7.5 6.5 4.5 6.5 4.5 5 6.5 5 6.5 2.5 8.5 2.5 8.5 1.5 9.5 1.5 9.5 1.5 9.5 1.5 9.5 1.5 9.5 1.5 9.5 1.5 10 1.5 10 1.5 9.5 1.5 9.5 1 10 1 10 1.5 9.5 1.5 9.5v10 10l2 9.5 2 9.5-2 9-2 9-3.5 7.5-3.5 7.5-6 5-6 5-8.5.5-8.5.5-8.5-3-8.5-3-8-3-8-3 1 8 1 8 1.5 9.5 1.5 9.5 2.5 8.5 2.5 8.5-1.5 8-1.5 8-1 8-1 8 1.5 9.5 1.5 9.5v7 7h-6-6l-2.5-1-2.5-1-8.5 2.5-8.5 2.5-6.5 2.5-6.5 2.5 3 6 3 6 8.5-1.5 8.5-1.5v7.5 7.5" style="fill:#0f6560;stroke:#0f6560"/><path d="m321 609h2l1.5.5 1.5.5 1-1.5 1-1.5v-2-2-2.5-2.5-.5-.5-1.5-1.5-2.5-2.5l-.5-1-.5-1v2 2 2 2 1 1 1.5 1.5l-.5 1.5-.5 1.5v1 1 1.5 1.5h-2-2l-1.5-.5-1.5-.5-7-4-7-4 10-6 10-6h-2-2-1-1-1.5-1.5-1-1-1-1-1-1-1.5-1.5-1-1-1-1-1-1l-1.5-.5-1.5-.5h-1.5-1.5l-.5 1.5-.5 1.5-.5 2-.5 2v2 2 2.5 2.5l.5-1 .5-1v-2-2-1-1-1.5-1.5l1-1 1-1 1 1.5 1 1.5v2 2l-.5 2-.5 2-.5 1.5-.5 1.5h-1-1l-.5-.5-.5-.5-.5 1.5-.5 1.5 2 .5 2 .5 1.5.5 1.5.5h2 2l2 .5 2 .5h2 2l2 .5 2 .5h2 2 1 1" style="fill:#10a56d;stroke:#10a56d"/><path d="m319 607l3 1h2 2v-1.5-1.5-1-1l.5-1.5.5-1.5v-1.5-1.5-1-1-2-2-2-2h-1-1l-10 6-10 6 7 4 7 4" style="fill:#1edcb1;stroke:#1edcb1"/><path d="m398 607l21-3 7.5-3.5 7.5-3.5-1-1.5-1-1.5.5 1 .5 1-.5.5-.5.5h-1-1l-1 .5-1 .5-1 1-1 1h-1-1l-.5.5-.5.5h-1-1l-1 .5-1 .5h-1-1l-.5.5-.5.5h-1-1l-1 .5-1 .5h-1-1-1-1l-.5.5-.5.5-1.5-.5-1.5-.5v-1-1l-2.5.5-2.5.5-.5 1.5-.5 1.5v.5.5" style="fill:#10a56d;stroke:#10a56d"/><path d="m220 604l-5-11-2 2-2 2 4.5 3.5 4.5 3.5" style="fill:#0f6560;stroke:#0f6560"/><g style="fill:#1edcb1;stroke:#1edcb1"><path d="m404 604l3 1 .5-.5.5-.5h1 1 1 1l1-.5 1-.5h1 1l.5-.5.5-.5h1 1l1-.5 1-.5h1 1l.5-.5.5-.5h1 1l1-1 1-1 1-.5 1-.5h1 1l.5-.5.5-.5-.5-1-.5-1-2.5-.5-2.5-.5-1.5 1-1.5 1h-2-2l-1.5 1-1.5 1-1.5.5-1.5.5-1.5 1-1.5 1-1.5.5-1.5.5-1.5.5-1.5.5h-.5-.5v1 1"/><path d="m294 603h2l.5-1.5.5-1.5.5-2 .5-2v-2-2l-1-1.5-1-1.5-1 1-1 1v1.5 1.5 1 1 2 2l-.5 1-.5 1 .5.5.5.5"/></g><g style="fill:#0f6560;stroke:#0f6560"><path d="m369 600h2v-2-2-2.5-2.5l-.5-1.5-.5-1.5-2 .5-2 .5-1 1-1 1 1.5 1 1.5 1 .5 1.5.5 1.5.5 1.5.5 1.5v.5.5"/><path d="m279 599l9-11-5.5.5-5.5.5 1 5 1 5"/><path d="m328 597v1l.5-1 .5-1v-2-2-2.5-2.5l-1.5-.5-1.5-.5h-2.5-2.5-2-2-2.5-2.5-2-2l-1.5-.5-1.5-.5-2 .5-2 .5h-1.5-1.5l1.5.5 1.5.5h1 1 1 1 1 1 1.5 1.5 1 1 1 1 1 1 1.5 1.5 1 1 2 2 1 1l.5 1 .5 1v2.5 2.5 1.5 1.5"/><path d="m195 596v1l3.5-14 3.5-14 2.5-8.5 2.5-8.5.5-10 .5-10-1-10-1-10 .5-9.5.5-9.5 3-8 3-8 1.5-7.5 1.5-7.5-9 2.5-9 2.5-7 4-7 4-9-1-9-1-6-5-6-5-3-8-3-8-1-10-1-10 .5-10 .5-10 3.5-7.5 3.5-7.5v-11-11l1-10 1-10 1-10 1-10 3-8.5 3-8.5v-2-2l1-9 1-9 2-9 2-9 2-9 2-9 2.5-9 2.5-9 4.5-6.5 4.5-6.5 6.5-4.5 6.5-4.5 7.5-.5 7.5-.5 1-2 1-2 1.5-1 1.5-1 1-1 1-1 1.5-1 1.5-1 1.5-.5 1.5-.5 2-.5 2-.5v1.5 1.5l1.5-1 1.5-1 1.5-1 1.5-1 1.5-.5 1.5-.5 2-.5 2-.5 1.5-.5 1.5-.5.5.5.5.5v1.5 1.5l1-1 1-1v-1-1l.5-1 .5-1h1 1l.5-.5.5-.5.5.5.5.5v1 1 1.5 1.5l.5.5.5.5v1 1 1 1 1.5 1.5l-.5.5-.5.5v1 1l-.5.5-.5.5v2 2l2-12 2-12-.5-7.5-.5-7.5 4-7 4-7 8-3.5 8-3.5 1-.5 1-.5.5 1 .5 1 .5.5.5.5v1.5 1.5l.5.5.5.5.5-.5.5-.5.5-.5.5-.5v-1.5-1.5-1-1l-2.5-9-2.5-9 7.5-3 7.5-3 8 3 8 3 6 9.5 6 9.5v.5.5l1-1 1-1 1-.5 1-.5v-.5-.5l.5-1 .5-1v-1-1l1-.5 1-.5.5.5.5.5h1 1l.5-.5.5-.5-.5-1-.5-1-1 .5-1 .5-1-1-1-1-1 .5-1 .5-7-4.5-7-4.5-7.5-3.5-7.5-3.5-9.5 2.5-9.5 2.5-.5 1.5-.5 1.5v1 1 1 1 2 2l.5 2 .5 2-.5.5-.5.5-.5-2-.5-2-.5 1.5-.5 1.5.5 2 .5 2-1.5-.5-1.5-.5-.5 1-.5 1-7 5-7 5-4 7-4 7-.5 6.5-.5 6.5-8.5 2.5-8.5 2.5-8 3.5-8 3.5-8 3-8 3-7.5 3.5-7.5 3.5-5.5 5.5-5.5 5.5-3 8-3 8-2.5 9-2.5 9-2 9-2 9-1.5 9.5-1.5 9.5-2 9-2 9-2 12.5-2 12.5-1 10.5-1 10.5v11.5 11.5l-2.5 8.5-2.5 8.5-2 9-2 9 1 11.5 1 11.5 7 12 7 12 7 4 7 4 8.5-2 8.5-2 2-.5 2-.5h1 1l1-.5 1-.5 1.5-.5 1.5-.5 2-.5 2-.5 1.5-.5 1.5-.5 2-.5 2-.5 1.5-.5 1.5-.5-.5 2-.5 2-.5 2-.5 2-.5 1.5-.5 1.5-1 .5-1 .5v.5.5l-3 18-3 18 1 10 1 10-.5 8.5-.5 8.5-2.5 8.5-2.5 8.5-2.5 9-2.5 9v2 2 1 1 1.5 1.5"/><path d="m227 593l1-1 .5-1.5.5-1.5-.5-2-.5-2 .5-1.5.5-1.5-.5-1-.5-1-1.5-.5-1.5-.5-1 1.5-1 1.5-.5 1.5-.5 1.5v2 2l1 1.5 1 1.5 1.5.5 1.5.5"/></g><path d="m116 587l7-13 3.5-4.5 3.5-4.5 3.5-5 3.5-5-8-1-8-1-4 5-4 5 1 10 1 10 .5 2 .5 2" style="fill:#b6f2d5;stroke:#b6f2d5"/><path d="m215 586h2l1-1 1-1v-1.5-1.5l-1-1-1-1-1.5-1-1.5-1-1.5.5-1.5.5.5 2 .5 2 1 1 1 1 .5 1 .5 1" style="fill:#0f6560;stroke:#0f6560"/><path d="m34 558h2v-2-2l.5-2 .5-2-.5-1.5-.5-1.5h-1.5-1.5v2 2 2.5 2.5l.5 1 .5 1" style="fill:#84d073;stroke:#84d073"/><path d="m689 555l14-2 2-1 2-1-2.5-5-2.5-5-9.5.5-9.5.5-1 2-1 2 4 4.5 4 4.5" style="fill:#fffff4;stroke:#fffff4"/><path d="m0 554v1l6-3.5 6-3.5-6-.5-6-.5v2.5 2.5 1 1" style="fill:#84d073;stroke:#84d073"/><path d="m697 536l13-9 .5-11 .5-11 .5 11 .5 11v-12.5-12.5-11-11-11.5-11.5-11-11-11-11-11-11-11-11-11.5-11.5-11-11-11-11-11-11-11-11-11.5-11.5-11-11-11-11-11-11-11.5-11.5-11-11-11-11-11-11-9-9l-.5 1-.5 1v2.5 2.5 2 2l-.5.5-.5.5-2.5-7.5-2.5-7.5-6.5-1.5-6.5-1.5-7.5.5-7.5.5-5 3-5 3-3.5-7.5-3.5-7.5-6-.5-6-.5-6-5-6-5-9-2-9-2-6.5-3.5-6.5-3.5-8-1.5-8-1.5-2 1-2 1-6.5-4.5-6.5-4.5-10-1-10-1-6.5-3.5-6.5-3.5-7-.5-7-.5h-9-9l-14-3-14-3h-11.5-11.5-11-11-11-11-11-11-11-11-11.5-11.5-4.5-4.5l9 3.5 9 3.5 6.5 3.5 6.5 3.5 8 3.5 8 3.5 7.5 11 7.5 11 3.5 9.5 3.5 9.5-.5 9.5-.5 9.5.5 9.5.5 9.5-1.5 9.5-1.5 9.5-3.5 3-3.5 3-3 .5-3 .5 1 2.5 1 2.5.5 2 .5 2v1.5 1.5l.5 2 .5 2-.5 1.5-.5 1.5v2.5 2.5 2 2 2.5 2.5 2 2 1.5 1.5l6 6 6 6 3.5 7.5 3.5 7.5 3.5 7.5 3.5 7.5 7 5.5 7 5.5 11.5 4 11.5 4 6.5 4.5 6.5 4.5 4 7 4 7 2.5 9 2.5 9 1.5 9.5 1.5 9.5 1.5 9.5 1.5 9.5 1 10 1 10 1.5 9.5 1.5 9.5 1.5 10 1.5 10 1.5 10 1.5 10 10.5 3.5 10.5 3.5-8 2-8 2 1 4 1 4-.5 4.5-.5 4.5 5 2.5 5 2.5 2 4 2 4 4 1 4 1 4.5 1.5 4.5 1.5 1.5 5 1.5 5 7.5 1.5 7.5 1.5 6 3 6 3 1-10 1-10 1 1 1 1 .5 9 .5 9 3 7 3 7 10.5.5 10.5.5 1.5 1.5 1.5 1.5-9 2-9 2-3.5 1-3.5 1 10 1 10 1-.5 2.5-.5 2.5 2 3 2 3 2.5 6.5 2.5 6.5 6 3.5 6 3.5 3 1 3 1 2 4 2 4 .5 5.5.5 5.5 4.5-2.5 4.5-2.5 1.5-10 1.5-10 1-10 1-10 .5-9.5.5-9.5 1-10 1-10 .5 5.5.5 5.5v9.5 9.5l-1 10-1 10v9 9 8 8l1 3.5 1 3.5 6-2 6-2 1.5 2.5 1.5 2.5 7-2 7-2 4-1 4-1 8 3 8 3" style="fill:#fffff4;stroke:#fffff4"/><path d="m215 533l9-15 2.5-6.5 2.5-6.5-4.5 7-4.5 7-2.5 7-2.5 7" style="fill:#512001;stroke:#512001"/><path d="m306 523l4-20-2.5-2.5-2.5-2.5.5 11 .5 11v1.5 1.5" style="fill:#0f6560;stroke:#0f6560"/><path d="m485 503l2-20-4.5 5.5-4.5 5.5 3.5 4.5 3.5 4.5" style="fill:#b6f2d5;stroke:#b6f2d5"/><path d="m306 491l7-17-2.5-4.5-2.5-4.5-1 10.5-1 10.5v2.5 2.5" style="fill:#0b33ee;stroke:#0b33ee"/><g style="fill:#b6f2d5;stroke:#b6f2d5"><path d="m435 486h2 1 1l2-.5 2-.5 1.5-.5 1.5-.5-.5-1-.5-1-1.5-.5-1.5-.5-1.5-1-1.5-1-2-.5-2-.5h-.5-.5v1.5 1.5l.5 2.5.5 2.5"/><path d="m187 480h2 2 2 2.5 2.5l1.5-.5 1.5-.5h2.5 2.5 2 2v-.5-.5-.5-.5l-8.5-1-8.5-1 10.5-2.5 10.5-2.5.5-2 .5-2-1.5.5-1.5.5-2 .5-2 .5-1.5.5-1.5.5-2 .5-2 .5-1.5.5-1.5.5-1 .5-1 .5h-1-1l-2 .5-2 .5-.5 1.5-.5 1.5-1.5.5-1.5.5.5 1.5.5 1.5"/></g><path d="m0 479v1l1-.5 1-.5 1-1 1-1 1-1.5 1-1.5-.5-1.5-.5-1.5-1-.5-1-.5h-1.5-1.5v1.5 1.5 2.5 2.5.5.5" style="fill:#84d073;stroke:#84d073"/><path d="m210 477v1l1-.5 1-.5.5-1.5.5-1.5.5-2 .5-2-10.5 2.5-10.5 2.5 8.5 1 8.5 1" style="fill:#1edcb1;stroke:#1edcb1"/><g style="fill:#fffff4;stroke:#fffff4"><path d="m33 434l11-23 7.5-2.5 7.5-2.5v5 5 3.5 3.5l4.5 3.5 4.5 3.5 3.5-4.5 3.5-4.5 5.5 1.5 5.5 1.5-2.5-4.5-2.5-4.5-1.5-4-1.5-4 6.5.5 6.5.5 3-4 3-4-3-2-3-2-7 2-7 2-9-1.5-9-1.5v-2-2h10 10l8.5.5 8.5.5 1.5-8.5 1.5-8.5-.5-10-.5-10 1.5 2.5 1.5 2.5 1 10 1 10 1 3 1 3 5-5 5-5 3-.5 3-.5 2 1 2 1 6.5-3.5 6.5-3.5 6-4 6-4 2-10.5 2-10.5 2-12.5 2-12.5 2-9 2-9 1.5-9.5 1.5-9.5 2-9 2-9 2.5-9 2.5-9 3-8 3-8 5.5-5.5 5.5-5.5 7.5-3.5 7.5-3.5 8-3 8-3 8-3.5 8-3.5 8.5-2.5 8.5-2.5.5-6.5.5-6.5 4-7 4-7 7-5 7-5v-.5-.5-2-2-1-1-1.5-1.5l-.5-1.5-.5-1.5v-1-1l.5-.5.5-.5v-1-1l-1-1.5-1-1.5-.5-.5-.5-.5-3-8.5-3-8.5-2.5-8.5-2.5-8.5 3-8 3-8-.5-9.5-.5-9.5 3.5-14 3.5-14 4.5-6.5 4.5-6.5 7-4 7-4 7.5-2.5 7.5-2.5 10-5.5 10-5.5h-12-12-11-11-11.5-11.5-6-6l-.5 1.5-.5 1.5-.5 1.5-.5 1.5h-1-1l-.5-1-.5-1-1.5-.5-1.5-.5-1.5-.5-1.5-.5-1.5-.5-1.5-.5h-1-1l-1 .5-1 .5-1-1-1-1h-2.5-2.5-2-2-1-1l-9 3.5-9 3.5-9 2-9 2-8 2-8 2-2.5 7.5-2.5 7.5-5.5-5-5.5-5-8.5 1.5-8.5 1.5-7.5 2.5-7.5 2.5-7 4-7 4-6.5.5-6.5.5-5 5.5-5 5.5-.5 9.5-.5 9.5-7.5-2.5-7.5-2.5-8 3-8 3-4.5 3.5-4.5 3.5-5.5 5-5.5 5-5 5-5 5-.5 6.5-.5 6.5-4.5 6.5-4.5 6.5-2.5 5.5-2.5 5.5-1 10.5-1 10.5-1-1.5-1-1.5h-1-1l-1 1.5-1 1.5v13.5 13.5 11 11 11 11 11 11 11.5 11.5 11 11 11 11 11 11 11 11 11.5 11.5 5 5l10-1 10-1 1.5-7 1.5-7 1 9 1 9 5 2 5 2-4.5 5.5-4.5 5.5.5 9.5.5 9.5 3 4 3 4"/><path d="m47 434l3 1 1-1 1-1 1-1.5 1-1.5-1.5-.5-1.5-.5h-1.5-1.5-2-2l.5 2 .5 2 1 .5 1 .5"/><path d="m16 429l4-18-5-4-5-4-1.5 6-1.5 6 3 6 3 6 1.5 1 1.5 1"/><path d="m509 425v-10 4 4 1 1"/></g><path d="m383 421l19-5 4.5-6.5 4.5-6.5 1-10.5 1-10.5v-1-1l-1.5 10.5-1.5 10.5-13 8-13 8-7-3.5-7-3.5 8.5-2.5 8.5-2.5-5-3-5-3-9 1-9 1-7.5-3.5-7.5-3.5 6.5-3.5 6.5-3.5-7-1-7-1 6-5.5 6-5.5-2-1-2-1-9.5 1-9.5 1-.5-.5-.5-.5h-.5-.5l1.5 10 1.5 10 5 6 5 6 8 3.5 8 3.5 8.5 2.5 8.5 2.5 3.5 2 3.5 2" style="fill:#512001;stroke:#512001"/><path d="m384 417l26-16 1.5-10.5 1.5-10.5v-1.5-1.5-1.5-1.5h-.5-.5l-1 1-1 1h-1.5-1.5-2-2l-3-.5-3-.5-2 .5-2 .5h-1-1l-.5.5-.5.5h-1-1-1.5-1.5l-.5-.5-.5-.5h-1-1-1-1-1-1-1.5-1.5-1-1-1-1-1-1-1.5-1.5l-.5.5-.5.5-.5-.5-.5-.5-.5-1-.5-1 7.5-3.5 7.5-3.5 9.5-2.5 9.5-2.5h-8-8l-7 1-7 1-7.5.5-7.5.5-9 4.5-9 4.5h-1-1l9.5-1 9.5-1 2 1 2 1-6 5.5-6 5.5 7 1 7 1-6.5 3.5-6.5 3.5 7.5 3.5 7.5 3.5 9-1 9-1 5 3 5 3-8.5 2.5-8.5 2.5 7 3.5 7 3.5" style="fill:#c34d00;stroke:#c34d00"/><path d="m254 409l17-7h10 10l9-2.5 9-2.5 4.5-6.5 4.5-6.5-3-8-3-8v2 2l-.5 1-.5 1-7-1-7-1-6.5-4.5-6.5-4.5 2.5 3.5 2.5 3.5 1.5 5 1.5 5-8-3-8-3-8-3-8-3-3.5.5-3.5.5 8.5 3 8.5 3 8 3 8 3 7.5 3.5 7.5 3.5-6 3-6 3-8-3-8-3-9.5-2-9.5-2-.5 1.5-.5 1.5 8 3 8 3 9 2 9 2-7.5 1.5-7.5 1.5-13 2.5-13 2.5-6.5-6-6.5-6-1-12.5-1-12.5.5-2 .5-2v-1-1-1.5-1.5l.5-1.5.5-1.5v-1-1l-.5-.5-.5-.5v-1-1-1.5-1.5l-1.5 12-1.5 12 1 10 1 10 5 6 5 6 6.5 2.5 6.5 2.5" style="fill:#512001;stroke:#512001"/><path d="m246 405l26-5 7.5-1.5 7.5-1.5-9-2-9-2-8-3-8-3 .5-1.5.5-1.5 9.5 2 9.5 2 8 3 8 3 6-3 6-3-7.5-3.5-7.5-3.5-8-3-8-3-8.5-3-8.5-3 3.5-.5 3.5-.5 8 3 8 3 8 3 8 3-1.5-5-1.5-5-2.5-3.5-2.5-3.5 6.5 4.5 6.5 4.5 7 1 7 1-1.5.5-1.5.5-1.5-.5-1.5-.5-1-.5-1-.5-.5-1-.5-1 .5-2 .5-2 1-1 1-1 1.5 1 1.5 1 1 1 1 1 .5 2.5.5 2.5.5-1 .5-1v-2-2l-1.5-1-1.5-1-1-1-1-1-1-1.5-1-1.5-1-1-1-1-.5-1-.5-1-.5-.5-.5-.5-.5-2.5-.5-2.5-1 2-1 2 1 1.5 1 1.5 1 1 1 1h-1-1l-8-3.5-8-3.5-7.5-3-7.5-3-9-6-9-6-1.5-.5-1.5-.5h-1.5-1.5l-1 .5-1 .5 1 1 1 1 1 1.5 1 1.5 1 1 1 1 1 1 1 1 1.5 1 1.5 1 1 1 1 1 1.5 1 1.5 1 1 1 1 1 1 1.5 1 1.5.5 1.5.5 1.5-1.5-.5-1.5-.5-1.5-.5-1.5-.5h-2-2-1-1l-1-.5-1-.5-1.5-.5-1.5-.5-.5-.5-.5-.5-1-.5-1-.5h-2-2l-.5-.5-.5-.5h-1.5-1.5l-1.5-.5-1.5-.5-.5-1-.5-1v1.5 1.5 1 1l.5.5.5.5v1 1l-.5 1.5-.5 1.5v1.5 1.5 1 1l2-.5 2-.5 1.5 1 1.5 1 1 1 1 1 1.5-.5 1.5-.5 1 .5 1 .5v1 1l1 1.5 1 1.5v1 1l-2-.5-2-.5-1.5-.5-1.5-.5-2-.5-2-.5-1.5-.5-1.5-.5-1.5.5-1.5.5v-1.5-1.5l1 12.5 1 12.5 6.5 6 6.5 6" style="fill:#c34d00;stroke:#c34d00"/><path d="m408 394l-8-8-4 3-4 3 8 1 8 1" style="fill:#fee78e;stroke:#fee78e"/><path d="m310 387l3 1 1-1 1-1 .5-2 .5-2-1.5-.5-1.5-.5-2 .5-2 .5-.5 1.5-.5 1.5 1 1 1 1" style="fill:#c34d00;stroke:#c34d00"/><path d="m388 377h2l.5-.5.5-.5h1 1l2-.5 2-.5h-1.5-1.5-2-2l-.5.5-.5.5h-1.5-1.5l-1.5-.5-1.5-.5h-1-1-1.5-1.5-2-2-2.5-2.5-2-2l-1-.5-1-.5.5 1 .5 1 .5.5.5.5.5-.5.5-.5h1.5 1.5 1 1 1 1 1 1 1.5 1.5 1 1 1 1 1 1l.5.5.5.5h1.5 1.5" style="fill:#f1d10a;stroke:#f1d10a"/><g style="fill:#fee78e;stroke:#fee78e"><path d="m410 376l2-2v-.5-.5l-1-1-1-1-2.5.5-2.5.5-1.5.5-1.5.5-1.5-.5-1.5-.5h-2.5-2.5-2-2-2.5-2.5l-1.5.5-1.5.5-2-.5-2-.5h-2-2-1-1l3.5-2 3.5-2 15-.5 15-.5v-1.5-1.5l-.5-1-.5-1h-2-2-1-1-1-1-1.5-1.5l-9.5 2.5-9.5 2.5-7.5 3.5-7.5 3.5 1 .5 1 .5h2 2 2.5 2.5 2 2 1.5 1.5 1 1l1.5.5 1.5.5h1.5 1.5l.5-.5.5-.5h2 2 1.5 1.5l3 .5 3 .5h2 2 1.5 1.5"/><path d="m305 374l3 1 1.5-.5 1.5-.5-.5-2.5-.5-2.5-1-1-1-1-1.5-1-1.5-1-1 1-1 1-.5 2-.5 2 .5 1 .5 1 1 .5 1 .5"/></g><path d="m334 374l18-9 7.5-.5 7.5-.5 7-1 7-1h8 8 1.5 1.5 1 1 1 1 2 2l-.5-1.5-.5-1.5-.5-1-.5-1-11.5 1-11.5 1-14 3-14 3-1.5-.5-1.5-.5-1.5-.5-1.5-.5h-2.5-2.5l-1-1-1-1 1-1 1-1h-1.5-1.5l-.5.5-.5.5-1 .5-1 .5h-1-1l-.5.5-.5.5-.5.5-.5.5-1 .5-1 .5-.5.5-.5.5v1 1l-.5.5-.5.5v1 1l.5 1.5.5 1.5.5.5.5.5h1 1" style="fill:#f1d10a;stroke:#f1d10a"/><path d="m244 373l4 1v-1-1l-1-1.5-1-1.5v-1-1l-1-.5-1-.5-1.5.5-1.5.5-1-1-1-1-1.5-1-1.5-1-2 .5-2 .5-.5 2-.5 2v1.5 1.5l1.5-.5 1.5-.5 1.5.5 1.5.5 2 .5 2 .5 1.5.5 1.5.5" style="fill:#fee78e;stroke:#fee78e"/><path d="m412 373v1h.5.5l-2.5-9.5-2.5-9.5-7-4-7-4-10 1.5-10 1.5-7.5 1.5-7.5 1.5-4 .5-4 .5-1.5.5-1.5.5-2 .5-2 .5-1.5.5-1.5.5-1 1-1 1-2 .5-2 .5-1 1-1 1-1.5 1-1.5 1-.5 1.5-.5 1.5v1.5 1.5l.5 1.5.5 1.5h.5.5l-.5-1.5-.5-1.5v-1-1l.5-.5.5-.5v-1-1l.5-.5.5-.5 1-.5 1-.5.5-.5.5-.5.5-.5.5-.5h1 1l1-.5 1-.5.5-.5.5-.5h1.5 1.5l2-1 2-1 2.5-.5 2.5-.5 10-2 10-2h14 14l1.5.5 1.5.5 1 2 1 2 .5 1 .5 1 .5 1.5.5 1.5.5 1 .5 1v1.5 1.5l.5 2 .5 2 1 1 1 1" style="fill:#84d073;stroke:#84d073"/><path d="m372 372h2 2 2l2 .5 2 .5 1.5-.5 1.5-.5h2.5 2.5 2 2 2.5 2.5l1.5.5 1.5.5 1.5-.5 1.5-.5 2.5-.5 2.5-.5-.5-2-.5-2-15 .5-15 .5-3.5 2-3.5 2" style="fill:#fffff4;stroke:#fffff4"/><path d="m355 365l28-6 11.5-1 11.5-1-1-2-1-2-1.5-.5-1.5-.5-10.5 1.5-10.5 1.5-12.5 3-12.5 3-2.5-.5-2.5-.5.5-1.5.5-1.5 1-.5 1-.5-2.5.5-2.5.5-2 1-2 1-1 1-1 1 1 1 1 1h2.5 2.5l1.5.5 1.5.5 1.5.5 1.5.5" style="fill:#fee78e;stroke:#fee78e"/><path d="m355 361l25-6 10.5-1.5 10.5-1.5h-14-14l-10 2-10 2-1 .5-1 .5-.5 1.5-.5 1.5 2.5.5 2.5.5" style="fill:#fffff4;stroke:#fffff4"/><path d="m300 360h2l-1-1-1-1-1-1.5-1-1.5 1-2 1-2v-1.5-1.5l-2 .5-2 .5-1 1-1 1-1 1-1 1-1.5-.5-1.5-.5-6.5-5-6.5-5-13.5-6-13.5-6-1.5.5-1.5.5 1.5 1 1.5 1 1 1 1 1 9 6 9 6 7.5 3 7.5 3 8 3.5 8 3.5" style="fill:#fee78e;stroke:#fee78e"/><path d="m272 358l3 1v-1-1l-1-1.5-1-1.5-1.5-.5-1.5-.5-2-.5-2-.5-1.5-.5-1.5-.5 1 1.5 1 1.5 1.5.5 1.5.5 1 1 1 1 1 .5 1 .5" style="fill:#512001;stroke:#512001"/><path d="m261 357l3 1-.5-1.5-.5-1.5-1-1.5-1-1.5-1-1-1-1-1.5-1-1.5-1-1-1-1-1-1.5-1-1.5-1-1-1-1-1-1-1-1-1-1-1.5-1-1.5-1-1-1-1-1 1.5-1 1.5-1 1-1 1-1 1.5-1 1.5-1 1-1 1-1.5 1-1.5 1v.5.5l.5 1 .5 1 1.5.5 1.5.5h1.5 1.5l.5.5.5.5h2 2l1 .5 1 .5.5.5.5.5 1.5.5 1.5.5 1 .5 1 .5h1 1 2 2l1.5.5 1.5.5" style="fill:#fee78e;stroke:#fee78e"/><path d="m301 356l1 1-6-5-6-5-6-5-6-5-7-4.5-7-4.5-9 1-9 1-1.5 2.5-1.5 2.5 1-.5 1-.5h1.5 1.5l1.5.5 1.5.5-1-1-1-1-1.5-1-1.5-1 1.5-.5 1.5-.5 9.5 1 9.5 1 6 5 6 5 8 3.5 8 3.5 2-.5 2-.5v1.5 1.5l.5 2.5.5 2.5" style="fill:#84d073;stroke:#84d073"/><path d="m348 354v1l1.5-.5 1.5-.5 3-9 3-9 4.5-6.5 4.5-6.5 5-6 5-6 4.5-6.5 4.5-6.5 4.5-6.5 4.5-6.5 4.5-7 4.5-7-3.5-6-3.5-6-.5 1-.5 1-1 .5-1 .5-1 1-1 1-4.5 7.5-4.5 7.5-4 7-4 7-4.5 6.5-4.5 6.5-4 7.5-4 7.5-2.5-2.5-2.5-2.5v-10-10l-2-9-2-9h-1-1l.5 1 .5 1v1 1h-2.5-2.5l3.5 9.5 3.5 9.5-.5 10.5-.5 10.5v11.5 11.5 4.5 4.5" style="fill:#512001;stroke:#512001"/><g style="fill:#fffff4;stroke:#fffff4"><path d="m255 352l-8-10-4 3-4 3 7.5 2 7.5 2h.5.5"/><path d="m289 352l3 1 1-1 1-1 1-1 1-1-8-3.5-8-3.5-6-5-6-5-9.5-1-9.5-1 13.5 6 13.5 6 6.5 5 6.5 5"/></g><path d="m309 348l14-10 6.5-4.5 6.5-4.5-3-2.5-3-2.5-6 5-6 5-5.5 5.5-5.5 5.5 1 1.5 1 1.5" style="fill:#c34d00;stroke:#c34d00"/><path d="m323 313l3 1 1.5-.5 1.5-.5 1.5-1 1.5-1h.5.5v-.5-.5-.5-.5l-1.5 1-1.5 1-1.5.5-1.5.5-1.5-.5-1.5-.5-1.5-1.5-1.5-1.5-.5-1.5-.5-1.5-1-2.5-1-2.5-1 2.5-1 2.5.5 2.5.5 2.5 1 .5 1 .5 1 1 1 1h1 1" style="fill:#10a56d;stroke:#10a56d"/><path d="m324 311l3 1 1.5-.5 1.5-.5 1.5-1 1.5-1 .5-1.5.5-1.5-.5-2-.5-2-.5-1.5-.5-1.5-1.5-1-1.5-1-1.5-.5-1.5-.5-1.5.5-1.5.5h-1-1l-1 .5-1 .5-.5 1-.5 1 1 2.5 1 2.5.5 1.5.5 1.5 1.5 1.5 1.5 1.5" style="fill:#1edcb1;stroke:#1edcb1"/><path d="m333 310v1l-1.5-8-1.5-8-7 3-7 3 .5 4.5.5 4.5-.5-2.5-.5-2.5 1-2.5 1-2.5.5-1 .5-1 1-.5 1-.5h1 1l1.5-.5 1.5-.5 1.5.5 1.5.5 1.5 1 1.5 1 .5 1.5.5 1.5.5 2 .5 2-.5 1.5-.5 1.5v.5.5" style="fill:#0f6560;stroke:#0f6560"/><path d="m371 306l14-10 4.5-6.5 4.5-6.5 3.5-7 3.5-7-4.5-.5-4.5-.5-4 7-4 7-4.5 6.5-4.5 6.5-2 5.5-2 5.5" style="fill:#c34d00;stroke:#c34d00"/><path d="m300 302h2v-2-2-2.5-2.5l.5-1.5.5-1.5v-2.5-2.5l-.5-.5-.5-.5-1 1.5-1 1.5v2 2 2 2 2.5 2.5 1 1" style="fill:#512001;stroke:#512001"/><path d="m421 297h2l-.5-.5-.5-.5.5-1 .5-1h1 1 1 1l.5-.5.5-.5h1 1l1-.5 1-.5.5-.5.5-.5h1 1l.5.5.5.5v1.5 1.5l1.5-1.5 1.5-1.5-1.5-1-1.5-1-1.5-.5-1.5-.5-1.5 1-1.5 1-1.5.5-1.5.5-2 .5-2 .5-1.5.5-1.5.5.5 1.5.5 1.5" style="fill:#0f6560;stroke:#0f6560"/><g style="fill:#10a56d;stroke:#10a56d"><path d="m422 296l1 1h3 3l2-.5 2-.5 1.5-.5 1.5-.5v-1.5-1.5l-.5-.5-.5-.5h-1-1l-.5.5-.5.5-1 .5-1 .5h-1-1l-.5.5-.5.5h-1-1-1-1l-.5 1-.5 1"/><path d="m250 292l3 1h2 2l2-.5 2-.5 1.5-.5 1.5-.5 1.5-1 1.5-1-1.5.5-1.5.5.5-2 .5-2v-1-1l-2 1-2 1-5 2.5-5 2.5-.5-.5-.5-.5v1 1"/></g><path d="m251 291l10-5 2-1 2-1-.5-1.5-.5-1.5-2 .5-2 .5-1.5.5-1.5.5-1.5-1-1.5-1-1 1-1 1-.5 1.5-.5 1.5-.5 2-.5 2 .5.5.5.5" style="fill:#0f6560;stroke:#0f6560"/><path d="m417 291l-1-19-2-9-2-9-2-9.5-2-9.5-5.5-2.5-5.5-2.5.5 8.5.5 8.5 3 8 3 8 3 8 3 8 3.5 6 3.5 6" style="fill:#0b33ee;stroke:#0b33ee"/><path d="m227 282l13-21 3.5-9 3.5-9-3.5 8-3.5 8-6 8.5-6 8.5.5-2.5.5-2.5-.5 1-.5 1v1 1l-.5.5-.5.5v1 1 2 2" style="fill:#0f6560;stroke:#0f6560"/><path d="m312 281l3 1h2 2 2.5 2.5 2 2 2.5 2.5 2 2 2.5 2.5 2.5 2.5v-1-1l-.5-1-.5-1-1.5-1-1.5-1-2-.5-2-.5h-1-1l-2 .5-2 .5h-2-2l-2-.5-2-.5h-2-2l-1.5.5-1.5.5-2 .5-2 .5-1 1-1 1v1 1" style="fill:#84d073;stroke:#84d073"/><path d="m314 279l25 1-5.5-.5-5.5-.5h-7-7" style="fill:#fee78e;stroke:#fee78e"/><path d="m206 278l1-1 1-1 1-1 .5-1 .5-1 .5-.5.5-.5v-1-1l-.5-.5-.5-.5v-1.5-1.5l.5-.5.5-.5.5-.5.5-.5.5-1 .5-1-1.5.5-1.5.5-.5 1.5-.5 1.5v2 2l-1 .5-1 .5v-2-2-1-1-1.5-1.5-2-2-1-1-2-2l-.5 1-.5 1v1 1 2 2l-.5 1.5-.5 1.5v1.5 1.5 1 1 2 2 1.5 1.5l.5 1.5.5 1.5" style="fill:#0f6560;stroke:#0f6560"/><g style="fill:#0b33ee;stroke:#0b33ee"><path d="m443 277l1-19-2.5-10-2.5-10-.5-2.5-.5-2.5-.5-1.5-.5-1.5-.5-1.5-.5-1.5-.5-1-.5-1-.5-1-.5-1-.5-1-.5-1-.5-1-.5-1-.5-.5-.5-.5-1.5-1-1.5-1h-1-1l-.5-.5-.5-.5-.5-.5-.5-.5-1-.5-1-.5h-1-1l-1-.5-1-.5 2.5 10.5 2.5 10.5 5 16 5 16 1 2.5 1 2.5.5 1.5.5 1.5 1 1.5 1 1.5 1-1 1-1 1.5 1.5 1.5 1.5"/><path d="m228 276l12-17 3.5-8 3.5-8 .5-1 .5-1 .5-1 .5-1v-1-1l.5-.5.5-.5v-1-1l.5-1 .5-1 .5-.5.5-.5v-1-1-1-1l1-1 1-1 .5-1 .5-1v-1-1l.5-2 .5-2v-2-2l.5-.5.5-.5v-1-1l.5-.5.5-.5v-1.5-1.5-1-1-1-1l-.5-.5-.5-.5v-1.5-1.5-1-1l-.5-.5-.5-.5-.5.5-.5.5h-1-1l-.5 1-.5 1v1 1l-1 1-1 1-3 8.5-3 8.5-2 9-2 9-3 8-3 8-2.5 9-2.5 9-.5 2.5-.5 2.5"/><path d="m207 271l2-1v-2-2l.5-1.5.5-1.5 1.5-.5 1.5-.5 4.5-11 4.5-11 3-8.5 3-8.5 2.5-9 2.5-9v-1.5-1.5l-2 .5-2 .5-1.5.5-1.5.5-1.5 1-1.5 1-1 1-1 1-1.5 1-1.5 1-1 2-1 2-.5 1-.5 1-.5 1.5-.5 1.5-.5 2-.5 2-.5 1.5-.5 1.5-.5 1.5-.5 1.5-.5 2-.5 2-.5 1.5-.5 1.5-.5 2-.5 2v2 2l-.5 2-.5 2v2 2 2 2 1 1 2 2 1.5 1.5 1 1 2 2"/></g><g style="fill:#0f6560;stroke:#0f6560"><path d="m376 270l3 1 1-1 1-1h1.5 1.5l1-1 1-1 1-1.5 1-1.5 1.5-.5 1.5-.5v.5.5l1-1 1-1 1-.5 1-.5.5-1 .5-1-4-5.5-4-5.5-5 6-5 6-1 5-1 5"/><path d="m432 264l1 1-5-16-5-16-2.5-10.5-2.5-10.5-1.5-1-1.5-1 3 9.5 3 9.5 2.5 8.5 2.5 8.5 3 9 3 9"/></g><path d="m440 238l1-1v-2-2l-.5-2-.5-2v-2-2l-.5-1-.5-1-2 1-2 1 .5 1 .5 1 .5 1.5.5 1.5.5 1.5.5 1.5.5 2.5.5 2.5h.5.5" style="fill:#0a110a;stroke:#0a110a"/><path d="m342 218l11-11-1.5-5.5-1.5-5.5-8.5 2-8.5 2-8.5-1.5-8.5-1.5.5 4.5.5 4.5 8-1 8-1 4 7 4 7h.5.5" style="fill:#512001;stroke:#512001"/><path d="m431 218l1 1-7-5.5-7-5.5-3.5-7.5-3.5-7.5-3.5-7.5-3.5-7.5-6-6-6-6-.5-.5-.5-.5-1.5-.5-1.5-.5-.5-.5-.5-.5-1.5-1-1.5-1 .5-2 .5-2 .5-1.5.5-1.5.5-1 .5-1v-1-1l.5-.5.5-.5v-1-1l.5-1 .5-1 .5-.5.5-.5v-1-1l.5-.5.5-.5v-2-2l-.5-1-.5-1h-9-9l-8.5 2.5-8.5 2.5-7 7.5-7 7.5v.5.5l1 2 1 2 1 1 1 1 2 1.5 2 1.5h1 1l-4-7.5-4-7.5 6.5-4.5 6.5-4.5 8.5-2.5 8.5-2.5 7 3 7 3-5.5 10-5.5 10 .5.5.5.5 1.5-.5 1.5-.5 1 .5 1 .5-.5 1.5-.5 1.5-.5 2-.5 2-.5 2.5-.5 2.5v1 1l.5-1 .5-1 .5-1 .5-1 .5-.5.5-.5v-1-1-1-1l.5-1 .5-1 .5-.5.5-.5.5.5.5.5h1 1l1 .5 1 .5h1 1l.5.5.5.5.5.5.5.5.5.5.5.5 1.5 1 1.5 1 5 7.5 5 7.5 4 11.5 4 11.5 1.5 1 1.5 1 1 .5 1 .5h1 1l1 .5 1 .5.5.5.5.5.5.5.5.5h1 1l1.5 1 1.5 1" style="fill:#84d073;stroke:#84d073"/><path d="m414 209l1 1-4-11.5-4-11.5-5-7.5-5-7.5 5 10.5 5 10.5 3.5 8 3.5 8" style="fill:#0f6560;stroke:#0f6560"/><path d="m362 199h2l1.5-1 1.5-1 1-1 1-1 1-1.5 1-1.5 1-1 1-1 .5-2 .5-2 1-1 1-1 .5-1.5.5-1.5.5-1 .5-1-1 1-1 1-.5.5-.5.5v1 1l-.5.5-.5.5-1 .5-1 .5v1 1l-.5.5-.5.5-.5.5-.5.5-1 .5-1 .5-.5.5-.5.5v1 1h-1-1l-7-4.5-7-4.5-8 1-8 1-7-3-7-3 2.5-3.5 2.5-3.5 3.5-8 3.5-8h-2.5-2.5v-.5-.5l-1 .5-1 .5-1 1-1 1-1 1.5-1 1.5-1.5.5-1.5.5-1.5.5-1.5.5h-2.5-2.5l-1.5-.5-1.5-.5-2-.5-2-.5-1.5-.5-1.5-.5-2-.5-2-.5-1-1-1-1-1.5-1-1.5-1-1-.5-1-.5v1 1l9 4 9 4-4 11-4 11-4-5.5-4-5.5-3.5-10.5-3.5-10.5-1 .5-1 .5 3.5 11.5 3.5 11.5 4.5 7 4.5 7 4-3 4-3 6-2 6-2 8.5 2.5 8.5 2.5h7 7l6 5 6 5" style="fill:#512001;stroke:#512001"/><g style="fill:#c34d00;stroke:#c34d00"><path d="m365 194h2v-1-1l.5-.5.5-.5 1-.5 1-.5.5-.5.5-.5.5-.5.5-.5v-1-1l1-.5 1-.5.5-.5.5-.5v-1-1l.5-.5.5-.5 1-1 1-1 .5-1 .5-1v-1-1l-1 .5-1 .5-.5 1.5-.5 1.5h-1-1l.5-1 .5-1 .5-1.5.5-1.5v-2-2-1.5-1.5l-.5-1.5-.5-1.5-1 .5-1 .5h-1-1l-.5.5-.5.5-1 .5-1 .5h-2-2-1-1l-1 .5-1 .5h-2-2l-1.5-.5-1.5-.5-2-1-2-1-2-1.5-2-1.5.5 1 .5 1 1 1 1 1 .5.5.5.5.5.5.5.5h1 1l1 .5 1 .5.5.5.5.5.5.5.5.5.5.5.5.5-1 .5-1 .5-.5.5-.5.5v1 1l-.5.5-.5.5h-1-1l-.5-1-.5-1v-1-1l-1-1-1-1-1-1.5-1-1.5-1-1-1-1-1.5-1-1.5-1-.5-1.5-.5-1.5-.5-2-.5-2 1-.5 1-.5v-.5-.5l-1.5-.5-1.5-.5h-2-2l-1 .5-1 .5-1 .5-1 .5-1 1-1 1h2.5 2.5l-3.5 8-3.5 8-2.5 3.5-2.5 3.5 7 3 7 3 8-1 8-1 7 4.5 7 4.5"/><path d="m300 188l8-22-9-4-9-4v1.5 1.5l-.5.5-.5.5-.5.5-.5.5-.5-.5-.5-.5v-1.5-1.5l-.5-.5-.5-.5-.5-1-.5-1 3.5 10.5 3.5 10.5 4 5.5 4 5.5"/></g><path d="m374 179h2l.5-1.5.5-1.5 1-.5 1-.5.5-2.5.5-2.5.5-2 .5-2 .5-1.5.5-1.5-1-.5-1-.5-1.5.5-1.5.5-1 .5-1 .5.5 1.5.5 1.5v1.5 1.5 2 2l-.5 1.5-.5 1.5-.5 1-.5 1" style="fill:#f1d10a;stroke:#f1d10a"/><g style="fill:#512001;stroke:#512001"><path d="m351 177h2l.5-.5.5-.5v-1-1l.5-.5.5-.5 1-.5 1-.5-.5-.5-.5-.5-.5-.5-.5-.5-.5-.5-.5-.5-1-.5-1-.5h-1-1l-.5-.5-.5-.5-.5-.5-.5-.5-1-1-1-1-.5-1-.5-1-1-1-1-1-1-2-1-2-1 .5-1 .5.5 2 .5 2 .5 1.5.5 1.5 1.5 1 1.5 1 1 1 1 1 1 1.5 1 1.5 1 1 1 1v1 1l.5 1 .5 1"/><path d="m353 167l3 1h2 2l1-.5 1-.5h1 1 2 2l1-.5 1-.5.5-.5.5-.5h1 1l1-.5 1-.5 1-.5 1-.5-.5-.5-.5-.5-1 .5-1 .5-1 .5-1 .5-2 .5-2 .5-1.5.5-1.5.5h-2.5-2.5-2-2l-1.5-.5-1.5-.5h-1-1-1-1l2 1 2 1"/></g><path d="m353 165l3 1h2 2 2.5 2.5l1.5-.5 1.5-.5 2-.5 2-.5 1-.5 1-.5 1-.5 1-.5 5.5-10 5.5-10-7-3-7-3-8.5 2.5-8.5 2.5-6.5 4.5-6.5 4.5 4 7.5 4 7.5h1 1" style="fill:#0a110a;stroke:#0a110a"/><path d="m391 165l1 1v-1.5-1.5-2-2-2.5-2.5-2-2-2.5-2.5l.5-1.5.5-1.5-.5-2-.5-2v-1.5-1.5l-.5 1-.5 1v2 2l-.5.5-.5.5v1 1l-.5.5-.5.5-.5 1-.5 1v1 1l-.5.5-.5.5v1 1l-.5 1-.5 1 1-1.5 1-1.5.5 1.5.5 1.5v1 1 1.5 1.5l-.5 2.5-.5 2.5 1.5.5 1.5.5" style="fill:#b6f2d5;stroke:#b6f2d5"/><path d="m308 164l3 1h2.5 2.5l1.5-.5 1.5-.5 1.5-.5 1.5-.5 1-1.5 1-1.5 1-1 1-1 1-.5 1-.5-6-9.5-6-9.5-8-3-8-3-7.5 3-7.5 3 2.5 9 2.5 9 1 .5 1 .5 1.5 1 1.5 1 1 1 1 1 2 .5 2 .5 1.5.5 1.5.5 2 .5 2 .5" style="fill:#0a110a;stroke:#0a110a"/><path d="m387 163l1 1 .5-2.5.5-2.5v-1.5-1.5-1-1l-.5-1.5-.5-1.5-1 1.5-1 1.5-.5 1.5-.5 1.5-.5 2-.5 2 1.5 1 1.5 1" style="fill:#fffff4;stroke:#fffff4"/><path d="m278 155v1l.5-1 .5-1 1.5.5 1.5.5-.5-2-.5-2 .5-1.5.5-1.5.5 2 .5 2 .5-.5.5-.5-.5-2-.5-2-.5-.5-.5-.5h-1-1l-.5-.5-.5-.5-.5-1-.5-1 .5-.5.5-.5v-1-1l.5-.5.5-.5v-2-2l-.5-3-.5-3-.5 1-.5 1 .5.5.5.5-.5.5-.5.5-1 1-1 1 1 1.5 1 1.5v1 1l-.5.5-.5.5v1 1l.5 1.5.5 1.5v1.5 1.5 1 1 2 2" style="fill:#b6f2d5;stroke:#b6f2d5"/><path d="m332 154v1l1-.5 1-.5h2 2l1.5.5 1.5.5 7-7.5 7-7.5 8.5-2.5 8.5-2.5h9 9l-9-1-9-1-8.5 2.5-8.5 2.5-8.5 4.5-8.5 4.5.5 1 .5 1-.5.5-.5.5h-1-1l-.5-.5-.5-.5-1 .5-1 .5v1 1l-.5 1-.5 1" style="fill:#f1d10a;stroke:#f1d10a"/><g style="fill:#fee78e;stroke:#fee78e"><path d="m6 153l2-21 2.5-5.5 2.5-5.5 4.5-6.5 4.5-6.5.5-6.5.5-6.5 5-5 5-5 5.5-5 5.5-5 4.5-3.5 4.5-3.5 8-3 8-3 7.5 2.5 7.5 2.5.5-9.5.5-9.5 5-5.5 5-5.5 6.5-.5 6.5-.5 7-4 7-4 7.5-2.5 7.5-2.5 8.5-1.5 8.5-1.5 5.5 5 5.5 5 2.5-7.5 2.5-7.5 8-2 8-2 9-2 9-2 9-3.5 9-3.5h-12-12-11-11-11.5-11.5-8.5-8.5l-8 1.5-8 1.5-7.5.5-7.5.5-8 3-8 3-3 7-3 7-3.5-5.5-3.5-5.5-6 .5-6 .5-3.5 4.5-3.5 4.5-6.5.5-6.5.5-3.5 6.5-3.5 6.5-3.5 2.5-3.5 2.5-4.5 6-4.5 6-1.5 5.5-1.5 5.5-5.5 3.5-5.5 3.5-3 12.5-3 12.5-.5-2-.5-2v12.5 12.5 11 11 6.5 6.5l1-1.5 1-1.5h1 1l1 1.5 1 1.5"/><path d="m336 148l2-1 8.5-4.5 8.5-4.5 8.5-2.5 8.5-2.5 9 1 9 1 .5 1 .5 1 .5-1 .5-1-.5-2-.5-2-1-2.5-1-2.5v1.5 1.5h-1-1l-1.5-.5-1.5-.5-1-.5-1-.5-6 2-6 2-10 3-10 3-1 .5-1 .5-1.5 1-1.5 1-1.5.5-1.5.5h-1.5-1.5-2-2-1-1l-.5-.5-.5-.5-1-.5-1-.5-.5-.5-.5-.5-.5-.5-.5-.5-1.5-.5-1.5-.5-1-.5-1-.5-1-.5-1-.5-1-1-1-1-1.5-.5-1.5-.5-2-1-2-1-1.5-1-1.5-1-1.5-.5-1.5-.5-2-.5-2-.5-1.5-.5-1.5-.5h-2.5-2.5l-1.5.5-1.5.5-1.5.5-1.5.5-2.5-1-2.5-1-.5 1-.5 1h-1.5-1.5v1.5 1.5l.5 3 .5 3 .5-2 .5-2 9.5-1.5 9.5-1.5 8 3 8 3 9 6 9 6 1 1 1 1"/></g><path d="m332 147l2-1-9-6-9-6-8-3-8-3-9.5 1.5-9.5 1.5.5 1 .5 1v2 2l1-.5 1-.5 9.5-2.5 9.5-2.5 7.5 3.5 7.5 3.5 7 4.5 7 4.5" style="fill:#f1d10a;stroke:#f1d10a"/><path d="m282 146l1 1v-2-2-1-1-1-1l.5-1.5.5-1.5-1 .5-1 .5v-2-2l-.5-1-.5-1-.5 2-.5 2v2 2l-.5.5-.5.5v1 1l-.5.5-.5.5.5 1 .5 1 .5.5.5.5h1 1" style="fill:#84d073;stroke:#84d073"/><path d="m339 141h3l1.5-.5 1.5-.5 1.5-1 1.5-1 1-.5 1-.5 1-1.5 1-1.5h-2-2l-1.5 1-1.5 1-1.5.5-1.5.5-1.5.5-1.5.5h-1.5-1.5l-1-1-1-1h-1-1l-1-.5-1-.5h-1-1l-.5-.5-.5-.5h-1-1l-.5-1-.5-1h-1-1l.5.5.5.5.5.5.5.5.5 1 .5 1 1.5.5 1.5.5.5.5.5.5.5.5.5.5 1 .5 1 .5.5.5.5.5h1 1 2 2" style="fill:#512001;stroke:#512001"/><path d="m336 138h3l1.5-.5 1.5-.5 1.5-.5 1.5-.5 1.5-1 1.5-1h2 2l-1 1.5-1 1.5 10-3 10-3 6-2 6-2h.5.5v-.5-.5l-1-.5-1-.5.5-1 .5-1 1-1 1-1 1.5-1 1.5-1 2-1 2-1h.5.5l1-1 1-1 .5-2.5.5-2.5-1 .5-1 .5-.5.5-.5.5h-1-1l-4.5-7-4.5-7-7-4.5-7-4.5 1.5-2.5 1.5-2.5 9 1 9 1 3.5 12 3.5 12h.5.5l-2-9.5-2-9.5-6.5-5-6.5-5-9.5-.5-9.5-.5-8 2-8 2-8-1-8-1-9.5-1.5-9.5-1.5-9 2.5-9 2.5-3.5 7.5-3.5 7.5 2.5 6.5 2.5 6.5 7 3 7 3 6.5 6 6.5 6v.5.5l1.5.5 1.5.5 1 1 1 1 1 .5 1 .5 1 .5 1 .5-.5-1-.5-1-.5-.5-.5-.5-.5-.5-.5-.5h1 1l.5 1 .5 1h1 1l.5.5.5.5h1 1l1 .5 1 .5h1 1l1 1 1 1" style="fill:#c34d00;stroke:#c34d00"/><path d="m275 134l1 1 1-1 1-1 .5-.5.5-.5-.5-.5-.5-.5.5-1 .5-1v-1.5-1.5-.5-.5-1.5-1.5l-.5-1.5-.5-1.5-.5 1-.5 1-.5-1.5-.5-1.5v-2-2-1.5-1.5l.5 1.5.5 1.5 1.5 1 1.5 1 .5 1.5.5 1.5 1 2.5 1 2.5 2.5 1 2.5 1 1.5-.5 1.5-.5 1.5-.5 1.5-.5h2.5 2.5l1.5.5 1.5.5 2 .5 2 .5 1.5.5 1.5.5 1.5 1 1.5 1 2 1 2 1v-.5-.5-.5-.5l-1.5-.5-1.5-.5-1.5-.5-1.5-.5-1.5-1-1.5-1-1.5-.5-1.5-.5-2-.5-2-.5h-2-2-2.5-2.5l-1.5.5-1.5.5-2-.5-2-.5v-2-2l-.5-2-.5-2-1-1.5-1-1.5-1-1-1-1-.5-2-.5-2-1.5-.5-1.5-.5-1 1-1 1v2 2l.5 2 .5 2v2 2l.5 2 .5 2v2 2l-.5.5-.5.5-.5-2-.5-2-.5-2-.5-2-.5-1.5-.5-1.5-.5-2-.5-2v-2-2-2-2l1-9.5 1-9.5-.5-9.5-.5-9.5 4-14 4-14-1-1-1-1 1-1.5 1-1.5 1-1 1-1 1.5-1 1.5-1 1-1 1-1 1-.5 1-.5h2 2l.5.5.5.5.5-1 .5-1 1-1 1-1 1-1 1-1-1 .5-1 .5-1.5.5-1.5.5-1.5.5-1.5.5-2 .5-2 .5-1 1-1 1-1.5.5-1.5.5-1 1.5-1 1.5-1 1-1 1-.5 1.5-.5 1.5-3.5 14-3.5 14 .5 9.5.5 9.5-3 8-3 8 2.5 8.5 2.5 8.5 3 8.5 3 8.5" style="fill:#84d073;stroke:#84d073"/><path d="m316 129v1l-6.5-6-6.5-6-7-3-7-3-2.5-6.5-2.5-6.5 3.5-7.5 3.5-7.5 9-2.5 9-2.5 9.5 1.5 9.5 1.5 8 1 8 1 8-2 8-2 9.5.5 9.5.5 6.5 5 6.5 5 2 9.5 2 9.5h1.5 1.5l.5 1.5.5 1.5.5-1.5.5-1.5v-2-2-1-1-1.5-1.5-2.5-2.5l-3-3-3-3-6.5-4.5-6.5-4.5-8.5-1.5-8.5-1.5-9.5 1.5-9.5 1.5-8-1.5-8-1.5-9-1-9-1-9.5 1.5-9.5 1.5-5.5 5.5-5.5 5.5-1.5 6-1.5 6 3.5 10 3.5 10-1-1.5-1-1.5v2 2l2 .5 2 .5 1.5-.5 1.5-.5h2.5 2.5 2 2l2 .5 2 .5 1.5.5 1.5.5 1.5 1 1.5 1 1.5.5 1.5.5 1.5.5 1.5.5" style="fill:#512001;stroke:#512001"/><path d="m387 129h2v-1.5-1.5l3-.5 3-.5 3.5-3 3.5-3 1.5-9.5 1.5-9.5-.5-9.5-.5-9.5.5-9.5.5-9.5-3.5-9.5-3.5-9.5-.5-.5-.5-.5-1-1.5-1-1.5v-1-1-1-1-1-1l-.5-1-.5-1v-1-1l-.5-.5-.5-.5-1-.5-1-.5.5 1 .5 1v1.5 1.5h-1-1l1.5 1 1.5 1 .5 2.5.5 2.5v1.5 1.5l1 1 1 1 1 1.5 1 1.5 1 1 1 1 1 2.5 1 2.5.5 1 .5 1v1.5 1.5 1 1 1.5 1.5 2 2l-.5 2-.5 2-.5 1.5-.5 1.5.5 2 .5 2v2 2 2.5 2.5 2 2l-.5 1.5-.5 1.5v.5.5 2.5 2.5 1.5 1.5 1 1 2 2l-.5 1.5-.5 1.5-.5-1.5-.5-1.5h-1.5-1.5-.5-.5l-.5 2.5-.5 2.5-1 1-1 1h-.5-.5l-.5 1-.5 1v1 1l-1 .5-1 .5-.5.5-.5.5-.5.5-.5.5-.5 1-.5 1 .5.5.5.5h-1.5-1.5-.5-.5l1 .5 1 .5 1.5.5 1.5.5" style="fill:#84d073;stroke:#84d073"/><g style="fill:#512001;stroke:#512001"><path d="m274 128l1-1v-2-2l-.5-2-.5-2v-2-2l-.5-2-.5-2v-2-2l-1.5-1-1.5-1v2 2 2 2l.5 2 .5 2 .5 1.5.5 1.5.5 2 .5 2 .5 2 .5 2"/><path d="m383 126v1h1.5 1.5l-.5-.5-.5-.5.5-1 .5-1 .5-.5.5-.5.5-.5.5-.5 1-.5 1-.5v-1-1l.5-1 .5-1-2 1-2 1-1.5 1-1.5 1-1 1-1 1-.5 1-.5 1 1 .5 1 .5"/></g><path d="m279 125v1h1.5 1.5l.5-1 .5-1-1-2.5-1-2.5-.5-1.5-.5-1.5-1.5-1-1.5-1-.5-1.5-.5-1.5v1.5 1.5 2 2l.5 1.5.5 1.5.5-1 .5-1 .5 1.5.5 1.5v1.5 1.5" style="fill:#fffff4;stroke:#fffff4"/><path d="m286 122l-7-20 1.5-6 1.5-6 5.5-5.5 5.5-5.5 9.5-1.5 9.5-1.5 9 1 9 1 8 1.5 8 1.5 9.5-1.5 9.5-1.5 8.5 1.5 8.5 1.5 6.5 4.5 6.5 4.5 3 3 3 3v-.5-.5-.5-.5l-2.5-9-2.5-9 1.5-6.5 1.5-6.5-7-4-7-4 8.5-.5 8.5-.5-1-2.5-1-2.5-1-1-1-1-1-1.5-1-1.5-1-1-1-1-.5-.5-.5-.5-6.5-5.5-6.5-5.5-8-3-8-3-9.5-1.5-9.5-1.5-10 .5-10 .5-5.5 1.5-5.5 1.5-7.5 2.5-7.5 2.5-10 4.5-10 4.5-4 14-4 14 .5 9.5.5 9.5-1 9.5-1 9.5 1.5 1 1.5 1 1-1 1-1 1.5.5 1.5.5.5 2 .5 2 1 1 1 1 1 1.5 1 1.5.5 2 .5 2 1 1.5 1 1.5" style="fill:#0a110a;stroke:#0a110a"/><g style="fill:#f1d10a;stroke:#f1d10a"><path d="m390 112h2l.5-.5.5-.5 1-.5 1-.5-3.5-12-3.5-12-9-1-9-1-1.5 2.5-1.5 2.5 7 4.5 7 4.5 4.5 7 4.5 7"/><path d="m1 97l6-25 5.5-3.5 5.5-3.5 1.5-5.5 1.5-5.5 4.5-6 4.5-6 3.5-2.5 3.5-2.5 3.5-6.5 3.5-6.5 6.5-.5 6.5-.5 3.5-4.5 3.5-4.5 6-.5 6-.5 3.5 5.5 3.5 5.5 3-7 3-7 8-3 8-3 7.5-.5 7.5-.5 8-1.5 8-1.5h-12-12-11.5-11.5-11-11-11-11-11-11-11-11-.5-.5v11 11 11 11 11 11 11 11 2.5 2.5l.5 2 .5 2"/></g><path d="m401 94v1l.5-1.5.5-1.5v-2-2-2.5-2.5-2-2l-.5-2-.5-2 .5-1.5.5-1.5.5-2 .5-2v-2-2-1.5-1.5-1-1-1.5-1.5l-.5-1-.5-1-8.5.5-8.5.5 7 4 7 4-1.5 6.5-1.5 6.5 2.5 9 2.5 9" style="fill:#0f6560;stroke:#0f6560"/><path d="m710 74l1-1v-2-2-2.5-2.5l.5-1 .5-1v-3-3-2-2-2.5-2.5-2-2-2-2-2.5-2.5-1-1h-1-1l-1-.5-1-.5v-1-1l.5-.5.5-.5.5-1 .5-1v-1-1l-.5-.5-.5-.5h-1-1l-1-.5-1-.5-.5-.5-.5-.5h-1.5-1.5-1.5-1.5l-2-.5-2-.5-1-1-1-1-1.5 1-1.5 1v1 1l-2 .5-2 .5-1.5-.5-1.5-.5h-2.5-2.5-1-1l-5.5-4-5.5-4-7-2-7-2-6.5.5-6.5.5-8-1-8-1-10.5-4.5-10.5-4.5h-11.5-11.5-11-11-11.5-11.5-11-11-11-11-4.5-4.5l14 3 14 3h9 9l7 .5 7 .5 6.5 3.5 6.5 3.5 10 1 10 1 6.5 4.5 6.5 4.5 2-1 2-1 8 1.5 8 1.5 6.5 3.5 6.5 3.5 9 2 9 2 6 5 6 5 6 .5 6 .5 3.5 7.5 3.5 7.5 5-3 5-3 7.5-.5 7.5-.5 6.5 1.5 6.5 1.5 2.5 7.5 2.5 7.5" style="fill:#fee78e;stroke:#fee78e"/><path d="m339 52l2-18-1 8-1 8v1 1" style="fill:#0f6560;stroke:#0f6560"/><path d="m397 42l1 1-7.5-11-7.5-11-8-3.5-8-3.5-6.5-3.5-6.5-3.5-9-3.5-9-3.5h-1-1l-10 5.5-10 5.5-7.5 2.5-7.5 2.5-7 4-7 4-4.5 6.5-4.5 6.5.5-1.5.5-1.5 1-1 1-1 1-1.5 1-1.5 1.5-.5 1.5-.5 1-1 1-1 2-.5 2-.5 1.5-.5 1.5-.5 1.5-.5 1.5-.5 1-.5 1-.5v-.5-.5l8.5-4 8.5-4 7.5-3.5 7.5-3.5 7.5 1.5 7.5 1.5 9.5 2.5 9.5 2.5 1 .5 1 .5.5.5.5.5.5.5.5.5h1 1l1 .5 1 .5h1 1l.5.5.5.5.5.5.5.5 1 .5 1 .5h1 1l.5.5.5.5h1 1l.5.5.5.5h1.5 1.5l1 1 1 1 1 1 1 1 1 .5 1 .5.5.5.5.5v1 1l.5 1 .5 1v1 1 1 1 1 1l1 1.5 1 1.5" style="fill:#fee78e;stroke:#fee78e"/><path d="m393 41l1 1v-1.5-1.5l-.5-.5-.5-.5-4-6-4-6-7-2-7-2-10.5-1-10.5-1-2.5-.5-2.5-.5-1.5.5-1.5.5-1.5-.5-1.5-.5-2-.5-2-.5v-2-2l.5-1.5.5-1.5v-1.5-1.5h-3-3l-1 1-1 1-1.5.5-1.5.5-1 1-1 1-1.5 1-1.5 1h-1.5-1.5l-1.5.5-1.5.5-1.5.5-1.5.5-1 1.5-1 1.5-1 1-1 1-1 .5-1 .5h-1-1l-1-.5-1-.5-1 1-1 1-.5.5-.5.5-.5 1-.5 1 1.5-.5 1.5-.5-.5.5-.5.5-1 .5-1 .5-1 1-1 1h-1-1l-.5 1-.5 1-1.5.5-1.5.5h-1-1l1-2 1-2-1.5-.5-1.5-.5-1 1-1 1-1.5 1-1.5 1-1 1-1 1-1 1.5-1 1.5 1 1 1 1 10-4.5 10-4.5 7.5-2.5 7.5-2.5 5.5-1.5 5.5-1.5 10-.5 10-.5 9.5 1.5 9.5 1.5 8 3 8 3 6.5 5.5 6.5 5.5" style="fill:#512001;stroke:#512001"/><g style="fill:#c34d00;stroke:#c34d00"><path d="m393 38l1 1-.5-2.5-.5-2.5-1.5-1-1.5-1h1 1v-1.5-1.5l-.5-1-.5-1-1-1-1-1-1.5-.5-1.5-.5h-1.5-1.5-1.5-1.5l-.5-.5-.5-.5-1 .5-1 .5-1-1-1-1-.5-.5-.5-.5-.5-1-.5-1h-2-2l-.5-.5-.5-.5-1-.5-1-.5-1-1.5-1-1.5-1.5-.5-1.5-.5-1-1-1-1h-1-1-1-1-1-1l-1 .5-1 .5-.5.5-.5.5h-1-1v1 1l1 .5 1 .5 1 1 1 1-1 1-1 1 10.5 1 10.5 1 7 2 7 2 4 6 4 6"/><path d="m287 33h2l1.5-.5 1.5-.5.5-1 .5-1h1 1l1-1 1-1 1-.5 1-.5.5-.5.5-.5-1.5.5-1.5.5.5-1 .5-1 .5-.5.5-.5 1-1 1-1h-1.5-1.5l-1 1-1 1-1 1-1 1-.5 1-.5 1-.5-.5-.5-.5h-2-2l-1 .5-1 .5 1.5.5 1.5.5-1 2-1 2"/></g><path d="m710 32h2v-2-2-2.5-2.5l-1.5-.5-1.5-.5-1-1.5-1-1.5-1-1-1-1-1 1.5-1 1.5-1 .5-1 .5h1.5 1.5l.5.5.5.5 1 .5 1 .5h1 1l.5.5.5.5v1 1l-.5 1-.5 1-.5.5-.5.5v1 1l1 .5 1 .5" style="fill:#84d073;stroke:#84d073"/><path d="m386 24l3 1-1-1-1-1h-1.5-1.5l-.5-.5-.5-.5h-1-1l-.5-.5-.5-.5h-1-1l-1-.5-1-.5-.5-.5-.5-.5-.5-.5-.5-.5h-1-1l-1-.5-1-.5h-1-1l-.5-.5-.5-.5-.5-.5-.5-.5-1-.5-1-.5 1 1.5 1 1.5 1 .5 1 .5.5.5.5.5h2 2l.5 1 .5 1 .5.5.5.5 1 1 1 1 1-.5 1-.5.5.5.5.5h1.5 1.5 1.5 1.5" style="fill:#f1d10a;stroke:#f1d10a"/><path d="m305 23l2-1 1-1 1-1 1-1.5 1-1.5 1.5-.5 1.5-.5 1.5-.5 1.5-.5h1.5 1.5l1.5-1 1.5-1h-1.5-1.5-1.5-1.5l-1.5 1-1.5 1-1.5.5-1.5.5-1.5 1-1.5 1-1 1-1 1-2.5 1-2.5 1 1 .5 1 .5h1 1" style="fill:#c34d00;stroke:#c34d00"/><g style="fill:#f1d10a;stroke:#f1d10a"><path d="m675 22h2 2.5 2.5l1.5.5 1.5.5 2-.5 2-.5v-1-1l1.5-1 1.5-1 1 1 1 1 2 .5 2 .5h1.5 1.5l1-.5 1-.5 1-1.5 1-1.5 1 1 1 1 1 1.5 1 1.5 1.5.5 1.5.5v-2-2-2.5-2.5-.5-.5h-1-1v-.5-.5l-.5-1.5-.5-1.5-1.5-1-1.5-1-1.5-.5-1.5-.5-2-.5-2-.5-1.5-.5-1.5-.5-2-.5-2-.5-1.5-.5-1.5-.5-.5-1-.5-1h-12-12-11-11-11-11-10-10l10.5 4.5 10.5 4.5 8 1 8 1 6.5-.5 6.5-.5 7 2 7 2 5.5 4 5.5 4"/><path d="m298 21v1h1.5 1.5l2.5-1 2.5-1 1-1 1-1 1.5-1 1.5-1 1.5-.5 1.5-.5 1.5-1 1.5-1h1.5 1.5 1.5 1.5l1-1 1-1 1.5-.5 1.5-.5 1-1 1-1 1-.5 1-.5 1.5-.5 1.5-.5 2 .5 2 .5.5 1.5.5 1.5-1 1.5-1 1.5-.5 1.5-.5 1.5 1 1 1 1h1.5 1.5l1.5-.5 1.5-.5 1.5 1 1.5 1 1 .5 1 .5 1-1 1-1-1-1-1-1-1-.5-1-.5v-1-1h1 1l.5-.5.5-.5 1-.5 1-.5h1 1 1 1 1 1l1 1 1 1 1.5.5 1.5.5-9.5-2.5-9.5-2.5-7.5-1.5-7.5-1.5-7.5 3.5-7.5 3.5-8.5 4-8.5 4"/></g><g style="fill:#c34d00;stroke:#c34d00"><path d="m339 19l3 1 1.5-.5 1.5-.5 2.5.5 2.5.5-1-.5-1-.5-1.5-1-1.5-1-1.5.5-1.5.5h-1.5-1.5l-1-1-1-1 .5-1.5.5-1.5 1-1.5 1-1.5-.5-1.5-.5-1.5-2-.5-2-.5-1.5.5-1.5.5-1 .5-1 .5h3 3v1.5 1.5l-.5 1.5-.5 1.5v2 2l2 .5 2 .5"/><path d="m710 13h2v-2-2-2.5-2.5-2-2h-2.5-2.5-2-2-2.5-2.5-2-2-2-2-1-1l.5 1 .5 1 1.5.5 1.5.5 2 .5 2 .5 1.5.5 1.5.5 2 .5 2 .5 1.5.5 1.5.5 1.5 1 1.5 1 .5 1.5.5 1.5v.5.5"/></g><path d="m249 6h2l.5-1.5.5-1.5.5-1.5.5-1.5h-2.5-2.5-2.5-2.5-2-2-2.5-2.5-.5-.5l1 1 1 1 1-.5 1-.5h1 1l1.5.5 1.5.5 1.5.5 1.5.5 1.5.5 1.5.5.5 1 .5 1" style="fill:#fee78e;stroke:#fee78e"/></g></svg>