<svg xmlns="http://www.w3.org/2000/svg" viewBox="0 0 712 960"><g style="stroke-linejoin:round;stroke-width:.7"><g style="fill:#241e0c;stroke:#241e0c"><path d="m295 885l14-28 5.5-16.5 5.5-16.5-3-17.5-3-17.5-7.5-14.5-7.5-14.5-6.5-15.5-6.5-15.5-6-16.5-6-16.5-6 1-6 1 1 18.5 1 18.5-3.5 18.5-3.5 18.5 2.5 17.5 2.5 17.5 5.5 17 5.5 17 11 11 11 11v11 11"/><path d="m333 858l7-35-4-18-4-18-4-18.5-4-18.5-5.5-16.5-5.5-16.5-1.5 12.5-1.5 12.5 4.5 18 4.5 18 3.5 18.5 3.5 18.5 3.5 19 3.5 19v2.5 2.5"/></g><path d="m290 848l7-29-9-13-9-13 6.5 2 6.5 2 5-3 5-3-7-15-7-15-7.5-10-7.5-10-3.5 18.5-3.5 18.5 4.5 18 4.5 18 6 16 6 16 1.5 1 1.5 1" style="fill:#d5d1b9;stroke:#d5d1b9"/><path d="m295 675l2-28-4-18-4-18-3.5-19-3.5-19-2.5-19.5-2.5-19.5 5-4 5-4 9.5 13 9.5 13 2 17 2 17-4.5 17-4.5 17 8-10 8-10 5.5-16.5 5.5-16.5 5-17.5 5-17.5 4-18 4-18 3-19.5 3-19.5-6.5 8.5-6.5 8.5-4 18-4 18-4.5 18-4.5 18-8.5-4.5-8.5-4.5-9-13.5-9-13.5-10.5-11.5-10.5-11.5-4.5 11.5-4.5 11.5-16 3.5-16 3.5-5-17-5-17-4.5-18-4.5-18 7.5-7.5 7.5-7.5 16.5 4.5 16.5 4.5 7-15.5 7-15.5 8-14 8-14 8.5-14 8.5-14 8.5-13.5 8.5-13.5-5-15-5-15 .5-17 .5-17 10-12 10-12v-19.5-19.5l1-8 1-8 5 17 5 17v-16.5-16.5l14-5 14-5 7 13.5 7 13.5-4 18-4 18-4.5 17.5-4.5 17.5-5 17.5-5 17.5-6 16-6 16 8-7.5 8-7.5 7-13 7-13 7 15 7 15 7.5 15 7.5 15 7.5 14.5 7.5 14.5 9 13.5 9 13.5 8 14 8 14-2 11-2 11-9.5-6-9.5-6-8.5 13.5-8.5 13.5-8.5 14-8.5 14-6.5 2.5-6.5 2.5 3.5 18.5 3.5 18.5 3.5 19 3.5 19-4 14-4 14 4.5 5 4.5 5 18-4 18-4 17-4 17-4-19-1.5-19-1.5 5.5-11.5 5.5-11.5 12.5-10 12.5-10 21.5.5 21.5.5 18 4 18 4-3 9.5-3 9.5-2 8-2 8 13.5-9 13.5-9 14.5-7.5 14.5-7.5 3.5-7 3.5-7-11-7-11-7-1.5-20.5-1.5-20.5-3.5-14-3.5-14-15-6-15-6-15-.5-15-.5-16.5-.5-16.5-.5-4.5-14.5-4.5-14.5 10 12.5 10 12.5 4.5-9.5 4.5-9.5 16.5 6 16.5 6 13.5-3.5 13.5-3.5 12.5-1.5 12.5-1.5 7.5 15 7.5 15 3.5 16.5 3.5 16.5-4 12.5-4 12.5 12.5-9.5 12.5-9.5-2.5-9.5-2.5-9.5-7.5-15-7.5-15-6.5-15.5-6.5-15.5-10-12.5-10-12.5-17-5-17-5-16-3-16-3-14 8.5-14 8.5-7.5-14.5-7.5-14.5-5-17.5-5-17.5-5-17-5-17-4.5-17.5-4.5-17.5-4-18.5-4-18.5-4-18-4-18-8.5-14-8.5-14-15.5-6.5-15.5-6.5-17-5-17-5-8 14.5-8 14.5-5.5 16.5-5.5 16.5-1.5 20-1.5 20-6-16-6-16-5.5-16.5-5.5-16.5 1.5-6 1.5-6-2-11-2-11 1-7.5 1-7.5 10 1 10 1-12.5-9.5-12.5-9.5-4-12.5-4-12.5 15.5-3.5 15.5-3.5 1 7.5 1 7.5-3.5-12.5-3.5-12.5-4-4.5-4-4.5-1-6-1-6-9.5 12.5-9.5 12.5-8 14.5-8 14.5-2 18-2 18 2 19.5 2 19.5v22 22l3.5 18.5 3.5 18.5 15 7.5 15 7.5 11 11 11 11-3 17.5-3 17.5-8 14-8 14-8 14-8 14-7.5 15-7.5 15-17.5-2.5-17.5-2.5-10-12.5-10-12.5 7.5-14.5 7.5-14.5 9.5-12.5 9.5-12.5 13.5-9 13.5-9-3-16-3-16-6.5-16-6.5-16-6-16-6-16-4.5-17.5-4.5-17.5 12-9.5 12-9.5-8-14-8-14 4.5-18 4.5-18 8-14 8-14 10-12 10-12 7.5-9 7.5-9-6.5-1.5-6.5-1.5-12.5 10-12.5 10-9.5 12.5-9.5 12.5-7.5 14.5-7.5 14.5-5 17.5-5 17.5-.5 21.5-.5 21.5-4.5 18-4.5 18-2 20-2 20-3.5 18.5-3.5 18.5-3.5 19-3.5 19-5 17-5 17-5 17.5-5 17.5 1 13 1 13 5-17 5-17 3.5-19 3.5-19 4-18 4-18 4.5-18 4.5-18 4-18 4-18 4-18.5 4-18.5 5.5 10.5 5.5 10.5 6 16 6 16 6.5 16 6.5 16-7.5 13.5-7.5 13.5-10.5 12-10.5 12-9 13-9 13-2 15-2 15 6.5 16 6.5 16 4.5 17.5 4.5 17.5 4 18.5 4 18.5-6.5 3.5-6.5 3.5-7.5-14.5-7.5-14.5-7 12.5-7 12.5-4.5-6.5-4.5-6.5-.5-19-.5-19 2-5 2-5-7-6-7-6-15-5.5-15-5.5 2.5 15.5 2.5 15.5-4 16.5-4 16.5-8.5 13.5-8.5 13.5-5 17-5 17 2.5 19 2.5 19 5.5 16.5 5.5 16.5 11.5 10 11.5 10-3.5-14.5-3.5-14.5 3-19 3-19 6-16.5 6-16.5 4.5 14.5 4.5 14.5 8.5 14 8.5 14 19-1 19-1-4.5-16.5-4.5-16.5.5-13 .5-13 8 14 8 14 9 13.5 9 13.5 6-8 6-8-4-18-4-18 7-12.5 7-12.5 9 10 9 10 3 19.5 3 19.5 4 18 4 18 4 18 4 18 3 10 3 10" style="fill:#241e0c;stroke:#241e0c"/><g style="fill:#d5d1b9;stroke:#d5d1b9"><path d="m409 596l23-19 .5-14.5.5-14.5-4.5-16-4.5-16-9 13-9 13-3 16.5-3 16.5 4.5 10.5 4.5 10.5"/><path d="m557 571l9-27-10.5-11.5-10.5-11.5-19.5-3-19.5-3-20-2-20-2-13.5 7-13.5 7 8 14 8 14 20.5 1.5 20.5 1.5 19 3.5 19 3.5 11.5 4 11.5 4"/><path d="m393 538l19-23 7-15 7-15-10 10.5-10 10.5-7 15-7 15 .5 1 .5 1"/><path d="m551 515l6-26-18.5-3.5-18.5-3.5-21-1.5-21-1.5h-20-20l9.5 11 9.5 11 20 2 20 2 18.5 3.5 18.5 3.5 8.5 1.5 8.5 1.5"/><path d="m528 441l30-12-5-10-5-10-20-2.5-20-2.5-15.5 6.5-15.5 6.5 12 8 12 8 13.5 4 13.5 4"/></g><path d="m338 440l-3-7-16-6-16-6-10.5-6-10.5-6 11.5 10.5 11.5 10.5 16.5 5 16.5 5" style="fill:#241e0c;stroke:#241e0c"/><g style="fill:#d5d1b9;stroke:#d5d1b9"><path d="m452 431l3-29-5.5-16.5-5.5-16.5-5.5-17-5.5-17-5-17-5-17-4.5-17.5-4.5-17.5-4.5-18-4.5-18-5-12-5-12-4.5 18-4.5 18-4.5 17.5-4.5 17.5 6 16 6 16 7 15.5 7 15.5 7.5 14.5 7.5 14.5 8 14.5 8 14.5 7.5 14.5 7.5 14.5 1.5 2 1.5 2"/><path d="m268 254l5-37-3 7-3 7 .5 11.5.5 11.5"/><path d="m207 178l8-30 3.5-18.5 3.5-18.5-5.5 12-5.5 12-3 19-3 19 1 2.5 1 2.5"/><path d="m249 155l6-26-4 11-4 11 1 2 1 2"/></g></g></svg>