<svg xmlns="http://www.w3.org/2000/svg" viewBox="0 0 712 960"><g style="fill:#0a0800"><path d="m0 0h712v960h-712z"/><path d="m0 959v1h1.5 1.5 1 1v-.5-.5l-2.5-9.5-2.5-9.5v3 3 2.5 2.5 2 2 2 2" style="stroke:#0a0800;stroke-linejoin:round;stroke-width:.7"/></g><g style="stroke-linejoin:round;stroke-width:.7"><path d="m5 959v1h1.5 1.5 2 2 1 1v-.5-.5l-3-18.5-3-18.5 3-21.5 3-21.5 4.5-18.5 4.5-18.5 24-7 24-7-.5-1-.5-1-18 1-18 1-10.5 13.5-10.5 13.5-6.5 27.5-6.5 27.5v1.5 1.5 2.5 2.5 2 2 2.5 2.5 2 2 2.5 2.5 2 2l2.5 9.5 2.5 9.5" style="fill:#9b4600;stroke:#9b4600"/><path d="m14 959v1h26 26 13.5 13.5v-.5-.5l-2.5-18.5-2.5-18.5-5.5-13-5.5-13 2-11 2-11 8.5 11 8.5 11 2-7.5 2-7.5 5.5-3 5.5-3 1-.5 1-.5.5-1.5.5-1.5 1.5.5 1.5.5v-1.5-1.5l.5-.5.5-.5 1.5 1 1.5 1 1.5-.5 1.5-.5.5 2 .5 2 .5 2.5.5 2.5h.5.5v-.5-.5l1-1.5 1-1.5.5-1.5.5-1.5-.5-.5-.5-.5-.5-1-.5-1-1-1-1-1-.5-2-.5-2v-2-2l.5-2 .5-2 .5-1.5.5-1.5v-1-1l.5-1.5.5-1.5v-.5-.5l-4 10.5-4 10.5-5-13.5-5-13.5 6.5-2.5 6.5-2.5v-.5-.5l-1-.5-1-.5h-1-1l-.5.5-.5.5-.5.5-.5.5-1.5-.5-1.5-.5-1-.5-1-.5h-1.5-1.5-1-1l-1.5-.5-1.5-.5-1-1-1-1-1-.5-1-.5h-1.5-1.5-1-1l-1 .5-1 .5-.5 1-.5 1-.5 1-.5 1 3.5 7 3.5 7-16.5 8-16.5 8-5 14.5-5 14.5 7 8.5 7 8.5-7 9.5-7 9.5-7-9-7-9-2-8.5-2-8.5 7-14.5 7-14.5 4.5-6 4.5-6 4.5-11.5 4.5-11.5v-.5-.5l-24 7-24 7-4.5 18.5-4.5 18.5-3 21.5-3 21.5 3 18.5 3 18.5" style="fill:#fa0;stroke:#fa0"/><path d="m93 959v1h1.5 1.5 2 2 .5.5v-.5-.5l6.5-34.5 6.5-34.5v-1.5-1.5l-.5-2-.5-2-.5-1.5-.5-1.5.5-2.5.5-2.5-5.5 3-5.5 3-2 7.5-2 7.5-8.5-11-8.5-11-2 11-2 11 5.5 13 5.5 13 2.5 18.5 2.5 18.5" style="fill:#ffd;stroke:#ffd"/><path d="m101 959v1h1.5 1.5.5.5v-.5-.5l1-2 1-2 .5-1.5.5-1.5 1-1.5 1-1.5.5-1.5.5-1.5.5-1.5.5-1.5v-1-1l.5-1 .5-1 .5-2 .5-2-.5-.5-.5-.5.5-22 .5-22-6.5 34.5-6.5 34.5" style="fill:#fa0;stroke:#fa0"/><path d="m105 959v1h26 26 24.5 24.5 24 24 2.5 2.5v-.5-.5l3.5.5 3.5.5h2.5 2.5 2 2 2 2 2.5 2.5 1 1v-.5-.5l-10.5-13-10.5-13-4-15.5-4-15.5-4-16.5-4-16.5-4 13.5-4 13.5-1 16.5-1 16.5-.5 4-.5 4-7 1-7 1-8-4.5-8-4.5-9.5 4-9.5 4-2.5-6-2.5-6-10-10.5-10-10.5-.5-19-.5-19-1.5-12.5-1.5-12.5-3.5-3-3.5-3-3-13.5-3-13.5-9.5-10-9.5-10-6 6.5-6 6.5-13-3.5-13-3.5-8.5-7-8.5-7 8-9 8-9 12-12.5 12-12.5 9-7.5 9-7.5-3-.5-3-.5-13.5-6-13.5-6-13-5.5-13-5.5-7-12-7-12 1.5-18 1.5-18 2 5.5 2 5.5 10 10.5 10 10.5-11-1.5-11-1.5 12 9.5 12 9.5.5-6 .5-6-7-15-7-15-2.5-14-2.5-14-7-5.5-7-5.5 4 1.5 4 1.5.5-4 .5-4 3.5-27.5 3.5-27.5-.5 1-.5 1v.5.5l.5 2 .5 2-.5 1.5-.5 1.5-1 .5-1 .5-.5 1-.5 1-.5 1.5-.5 1.5-.5 1.5-.5 1.5-1 1.5-1 1.5-.5 1.5-.5 1.5h-1-1v-2.5-2.5-1-1l.5-1 .5-1 1-1 1-1 1-1 1-1 1.5-.5 1.5-.5v-.5-.5l-1-1-1-1-1-.5-1-.5-.5-.5-.5-.5v-1-1l.5-.5.5-.5.5-.5.5-.5v-1.5-1.5l.5-.5.5-.5.5.5.5.5h1 1l1 .5 1 .5-3-19.5-3-19.5v-22.5-22.5l12-28.5 12-28.5v-.5-.5l8.5-16 8.5-16 11-17 11-17 13-12 13-12 17.5-17.5 17.5-17.5v-.5-.5l8-2 8-2 1.5 1.5 1.5 1.5h2 2 1 1l1.5-1 1.5-1 1.5-.5 1.5-.5 1 .5 1 .5 1 1.5 1 1.5 9.5 4 9.5 4 2-.5 2-.5 5-2 5-2 12-.5 12-.5.5-1.5.5-1.5.5-.5.5-.5v-1-1l1-.5 1-.5h1 1l.5.5.5.5.5.5.5.5h.5.5l1-1 1-1 .5-.5.5-.5.5-1 .5-1v-.5-.5l.5-1 .5-1-.5-1-.5-1-1 1-1 1h-1-1l-1 .5-1 .5-1-1-1-1v-1-1l.5-.5.5-.5h1 1l.5-1 .5-1h1 1l.5-.5.5-.5 1-1 1-1 1-2 1-2 1-1.5 1-1.5 1-1 1-1 2-21 2-21-4-20-4-20-2-20.5-2-20.5 7.5-17 7.5-17 6.5-15 6.5-15 6.5 1 6.5 1 13-2.5 13-2.5 15.5 9 15.5 9 .5 13.5.5 13.5 8.5 15 8.5 15 1.5 20 1.5 20-1.5 21-1.5 21-16.5 8-16.5 8 7 13 7 13 13 12 13 12 18 13.5 18 13.5 7 18.5 7 18.5 5.5 19 5.5 19 6 39.5 6 39.5 7 22.5 7 22.5.5 1 .5 1 .5 1.5.5 1.5 1 1 1 1 1 1.5 1 1.5.5 21 .5 21 5 18.5 5 18.5v22 22l5.5 11 5.5 11-1 3.5-1 3.5h2.5 2.5l7 10.5 7 10.5-8 5.5-8 5.5 4 11 4 11 9-2.5 9-2.5-.5 5-.5 5-.5 9-.5 9 1.5 19 1.5 19 12 12.5 12 12.5 10 14 10 14 6 18.5 6 18.5-3.5 20-3.5 20-9 15.5-9 15.5-9.5 7-9.5 7h25.5 25.5 24.5 24.5 20.5 20.5v-4-4-24.5-24.5-24.5-24.5-24.5-24.5-24.5-24.5-24-24-24.5-24.5-24.5-24.5-24.5-24.5-24.5-24.5-24.5-24.5-24-24-24.5-24.5-24.5-24.5-24.5-24.5-24.5-24.5-24.5-24.5-24-24-24.5-24.5-24.5-24.5-12-12h-12.5-12.5-24.5-24.5-24.5-24.5-24.5-24.5-24-24-24.5-24.5-24.5-24.5-24.5-24.5-24.5-24.5-24.5-24.5-24-24-24.5-24.5-24.5-24.5-24.5-24.5-24.5-24.5-1.5-1.5v23 23 24.5 24.5 24 24 24.5 24.5 24.5 24.5 24.5 24.5 24.5 24.5 24.5 24.5 24 24 24.5 24.5 24.5 24.5 24.5 24.5 24.5 24.5 24.5 24.5 24.5 24.5 24 24 24.5 24.5 24.5 24.5 17 17l6.5-27.5 6.5-27.5 10.5-13.5 10.5-13.5 18-1 18-1 18.5-.5 18.5-.5 12 4.5 12 4.5-1 24-1 24h-2-2l-1-1-1-1h-1-1l-1-.5-1-.5-.5-1-.5-1-1-.5-1-.5-1 1-1 1-.5 1-.5 1h-.5-.5l.5 1.5.5 1.5.5 2 .5 2v24 24l-.5 2-.5 2-.5 1-.5 1v1 1l-.5 1.5-.5 1.5-.5 1.5-.5 1.5-1 1.5-1 1.5-.5 1.5-.5 1.5-1 2-1 2" style="fill:#0a0800;stroke:#0a0800"/><g style="fill:#0a67a5;stroke:#0a67a5"><path d="m259 959v1h1.5 1.5 2 2l-3.5-.5-3.5-.5"/><path d="m286 959v1h1.5 1.5v-.5-.5l-11-14-11-14-1-17.5-1-17.5 8-16.5 8-16.5 6.5-18 6.5-18 5-16.5 5-16.5 6.5-14.5 6.5-14.5 2 2.5 2 2.5 13.5 6 13.5 6-5-15.5-5-15.5-3-7.5-3-7.5 18-9 18-9-25 9-25 9v-1.5-1.5-1-1-1-1-1.5-1.5l-.5-.5-.5-.5v-1-1-1-1l-.5-1-.5-1v-1-1-1-1-1-1-1-1l-.5-1-.5-1v-1-1l-.5-1.5-.5-1.5-.5-1.5-.5-1.5-.5-2-.5-2-.5-2-.5-2v-1.5-1.5-2-2l.5-.5.5-.5v-1-1-1-1l-1-1-1-1-.5-1.5-.5-1.5-.5-.5-.5-.5-.5-1-.5-1v-1-1l-.5-1-.5-1-.5-1.5-.5-1.5v-2.5-2.5l-.5-1.5-.5-1.5v-2-2l-.5-.5-.5-.5v-1.5-1.5l-.5-1.5-.5-1.5-.5-.5-.5-.5v-1.5-1.5-1.5-1.5l2.5-15 2.5-15v-.5-.5l2-29.5 2-29.5-1.5-29.5-1.5-29.5-.5-2-.5-2v-2.5-2.5l-.5-1.5-.5-1.5v-3.5-3.5l-.5-1-.5-1v-2-2l-.5-.5-.5-.5v-1.5-1.5-2-2-2-2-2-2l-.5-1.5-.5-1.5-.5-2-.5-2v-2-2-2.5-2.5-2-2-2.5-2.5-1.5-1.5l-.5-.5-.5-.5h-.5-.5l-4 14.5-4 14.5-7.5 12.5-7.5 12.5-4 16.5-4 16.5-6.5 14.5-6.5 14.5-5 33-5 33-1.5-.5-1.5-.5-1.5-1-1.5-1-.5-1.5-.5-1.5.5-2 .5-2 .5-1.5.5-1.5-.5-1.5-.5-1.5.5-.5.5-.5v-1.5-1.5l-.5-1.5-.5-1.5-1 1.5-1 1.5-.5 1-.5 1-6 20.5-6 20.5-6.5 18.5-6.5 18.5-.5 1-.5 1-.5 1.5-.5 1.5-.5 1.5-.5 1.5-.5 2-.5 2-6 18.5-6 18.5-3 24-3 24-6-19.5-6-19.5-3.5-21-3.5-21-6-18.5-6-18.5-14-9.5-14-9.5-20-15.5-20-15.5-1-.5-1-.5-7.5-26.5-7.5-26.5-3.5-21.5-3.5-21.5 1-21.5 1-21.5 8.5-18.5 8.5-18.5.5-1 .5-1 .5-1 .5-1 .5-2 .5-2 .5-1 .5-1-12 28.5-12 28.5v22.5 22.5l3 19.5 3 19.5-3.5 27.5-3.5 27.5-.5 4-.5 4-4-1.5-4-1.5 7 5.5 7 5.5 2.5 14 2.5 14 7 15 7 15-.5 6-.5 6-12-9.5-12-9.5 11 1.5 11 1.5-10-10.5-10-10.5-2-5.5-2-5.5-1.5 18-1.5 18 7 12 7 12 13 5.5 13 5.5 13.5 6 13.5 6 3 .5 3 .5-9 7.5-9 7.5-12 12.5-12 12.5-8 9-8 9 8.5 7 8.5 7 13 3.5 13 3.5 6-6.5 6-6.5 9.5 10 9.5 10 3 13.5 3 13.5 3.5 3 3.5 3 1.5 12.5 1.5 12.5.5 19 .5 19 10 10.5 10 10.5 2.5 6 2.5 6 9.5-4 9.5-4 8 4.5 8 4.5 7-1 7-1 .5-4 .5-4 1-16.5 1-16.5 4-13.5 4-13.5 4 16.5 4 16.5 4 15.5 4 15.5 10.5 13 10.5 13"/></g><path d="m289 959v1h1.5 1.5 2 2 2.5 2.5 2 2v-.5-.5l-11-14.5-11-14.5 1-7.5 1-7.5-9.5-7-9.5-7 7-17 7-17 6.5-18 6.5-18 5.5-4 5.5-4 2.5-9 2.5-9 10 14.5 10 14.5 9 15.5 9 15.5 7 2 7 2-9-15.5-9-15.5-9-15.5-9-15.5-7.5-15-7.5-15 16.5 7 16.5 7 6.5-13 6.5-13 8.5 14.5 8.5 14.5 7 15.5 7 15.5 5.5 16 5.5 16 14 30.5 14 30.5-7.5-18-7.5-18-6.5-17.5-6.5-17.5 10 2.5 10 2.5 14.5 10 14.5 10 12 12.5 12 12.5 6 11.5 6 11.5-5.5 6-5.5 6-5.5-6.5-5.5-6.5-6 15.5-6 15.5 16 .5 16 .5 14.5-8 14.5-8 13 4.5 13 4.5 2.5 3 2.5 3 13.5-4.5 13.5-4.5 22-21 22-21-1.5.5-1.5.5-.5.5-.5.5-.5 1-.5 1-1 1-1 1-.5 1.5-.5 1.5-.5.5-.5.5-.5 1-.5 1-1 1-1 1-.5.5-.5.5-1 .5-1 .5-1.5.5-1.5.5-.5.5-.5.5-1 .5-1 .5h-1.5-1.5l-9.5-6.5-9.5-6.5-14-8-14-8-13.5-.5-13.5-.5-3-4-3-4 2.5-8 2.5-8-5.5-15-5.5-15-2-12.5-2-12.5-14-3.5-14-3.5-5.5 1-5.5 1-7.5.5-7.5.5v-5.5-5.5h-5.5-5.5l2.5-5 2.5-5-7.5 1-7.5 1-.5 1-.5 1-1 1-1 1-1.5 1-1.5 1-1.5.5-1.5.5-2 .5-2 .5-1 1-1 1-1 1.5-1 1.5-1.5.5-1.5.5h-1-1l-.5-1-.5-1v-1-1h1 1 1 1l.5-.5.5-.5 1-.5 1-.5.5-.5.5-.5.5-.5.5-.5v-1-1l1-.5 1-.5.5-.5.5-.5-.5-.5-.5-.5v-1-1h1.5 1.5v1 1l.5-.5.5-.5h1 1 1 1 2 2l-5.5-4-5.5-4-7 5.5-7 5.5 10.5-11 10.5-11 10.5-11 10.5-11 13.5 5 13.5 5 11.5.5 11.5.5.5-6 .5-6 18.5 5.5 18.5 5.5-11-13-11-13-5.5 5-5.5 5h-12-12l-8.5 1-8.5 1-14-7.5-14-7.5 1-13.5 1-13.5-10-3.5-10-3.5-18.5 11-18.5 11-1.5 2-1.5 2-18 9-18 9 3 7.5 3 7.5 5 15.5 5 15.5-13.5-6-13.5-6-2-2.5-2-2.5-6.5 14.5-6.5 14.5-5 16.5-5 16.5-6.5 18-6.5 18-8 16.5-8 16.5 1 17.5 1 17.5 11 14 11 14" style="fill:#36d0e5;stroke:#36d0e5"/><path d="m305 959v1h26 26 24.5 24.5 21 21v-.5-.5l-11-20.5-11-20.5-14-30.5-14-30.5-5.5-16-5.5-16-7-15.5-7-15.5-8.5-14.5-8.5-14.5-6.5 13-6.5 13-16.5-7-16.5-7 7.5 15 7.5 15 9 15.5 9 15.5 9 15.5 9 15.5-7-2-7-2-9-15.5-9-15.5-10-14.5-10-14.5-2.5 9-2.5 9-5.5 4-5.5 4-6.5 18-6.5 18-7 17-7 17 9.5 7 9.5 7-1 7.5-1 7.5 11 14.5 11 14.5" style="fill:#ffd;stroke:#ffd"/><path d="m448 959v1h26 26 24.5 24.5 11 11l9.5-7 9.5-7 9-15.5 9-15.5 3.5-20 3.5-20-6-18.5-6-18.5-10-14-10-14-12-12.5-12-12.5-1.5-19-1.5-19 .5-9 .5-9 .5-5 .5-5-9 2.5-9 2.5-4-11-4-11 8-5.5 8-5.5-7-10.5-7-10.5h-2.5-2.5l1-3.5 1-3.5-5.5-11-5.5-11v-22-22l-5-18.5-5-18.5-.5-21-.5-21v22.5 22.5l-3.5 21-3.5 21-17 29.5-17 29.5-7.5-18-7.5-18-4.5-36.5-4.5-36.5-.5-.5-.5-.5-3.5-21.5-3.5-21.5-3-21.5-3-21.5-3.5-20-3.5-20-2-22-2-22-.5-2.5-.5-2.5-5.5 16.5-5.5 16.5-4.5 19.5-4.5 19.5-4.5 28-4.5 28-.5-1.5-.5-1.5-.5-1.5-.5-1.5v-1-1l-.5-1-.5-1v-2-2l-.5-2-.5-2v-2-2l-.5-2-.5-2v2 2 2.5 2.5l5 28.5 5 28.5.5 1 .5 1 .5 2 .5 2 .5 1.5.5 1.5.5 2 .5 2 .5 2.5.5 2.5.5 2 .5 2 .5 2 .5 2 6.5 18.5 6.5 18.5 6 18.5 6 18.5-4.5 15-4.5 15-23 18.5-23 18.5 18.5-11 18.5-11 10 3.5 10 3.5-1 13.5-1 13.5 14 7.5 14 7.5 8.5-1 8.5-1h12 12l5.5-5 5.5-5 11 13 11 13 .5.5.5.5 12 12.5 12 12.5 12.5 13 12.5 13 10 14 10 14 7 32 7 32-22 21-22 21-13.5 4.5-13.5 4.5-2.5-3-2.5-3-13-4.5-13-4.5-14.5 8-14.5 8-16-.5-16-.5 6-15.5 6-15.5 5.5 6.5 5.5 6.5 5.5-6 5.5-6-6-11.5-6-11.5-12-12.5-12-12.5-14.5-10-14.5-10-10-2.5-10-2.5 6.5 17.5 6.5 17.5 7.5 18 7.5 18 11 20.5 11 20.5" style="fill:#0a67a5;stroke:#0a67a5"/><path d="m67 957l6-29-3.5 9-3.5 9 .5 5.5.5 5.5" style="fill:#ffd;stroke:#ffd"/><path d="m439 939l20-31-3-13.5-3-13.5-13.5-10.5-13.5-10.5-12.5-4-12.5-4 6.5 18 6.5 18 8 16.5 8 16.5 4.5 9 4.5 9" style="fill:#0a0800;stroke:#0a0800"/><path d="m113 934l1 1v-24-24 1.5 1.5l-.5 22-.5 22" style="fill:#9b4600;stroke:#9b4600"/><g style="fill:#ffd;stroke:#ffd"><path d="m57 928l14-19-7-8.5-7-8.5 5-14.5 5-14.5 16.5-8 16.5-8-3.5-7-3.5-7-2-.5-2-.5h-1.5-1.5l-.5-1-.5-1-.5-.5-.5-.5-1 .5-1 .5h-2-2l-.5-.5-.5-.5h-1.5-1.5-1.5-1.5l-4.5 11.5-4.5 11.5-4.5 6-4.5 6-7 14.5-7 14.5 2 8.5 2 8.5 7 9 7 9"/><path d="m519 920l3 1 1.5-.5 1.5-.5v-1.5-1.5l-.5-1.5-.5-1.5-.5-2-.5-2-.5-1.5-.5-1.5-1 .5-1 .5-1 1-1 1-.5 1.5-.5 1.5.5 2 .5 2 .5 1.5.5 1.5"/><path d="m588 918h3l1-.5 1-.5.5-.5.5-.5 1.5-.5 1.5-.5 1-.5 1-.5.5-.5.5-.5 1-1 1-1 .5-1 .5-1 .5-.5.5-.5.5-1.5.5-1.5 1-1 1-1 .5-1 .5-1 .5-.5.5-.5 1.5-.5 1.5-.5-7-32-7-32-10-14-10-14-12.5-13-12.5-13-1 1.5-1 1.5-.5 1.5-.5 1.5-1 1.5-1 1.5h-1-1l-8.5-10-8.5-10v-7-7l-.5-.5-.5-.5-18.5-5.5-18.5-5.5-.5 6-.5 6-11.5-.5-11.5-.5-13.5-5-13.5-5-10.5 11-10.5 11-10.5 11-10.5 11 7-5.5 7-5.5 5.5 4 5.5 4 7.5-1 7.5-1-2.5 5-2.5 5h5.5 5.5v5.5 5.5l7.5-.5 7.5-.5 5.5-1 5.5-1 14 3.5 14 3.5 2 12.5 2 12.5 5.5 15 5.5 15-2.5 8-2.5 8 3 4 3 4 13.5.5 13.5.5 14 8 14 8 9.5 6.5 9.5 6.5"/></g><path d="m233 898l-1-40-1.5-3-1.5-3 1.5 18.5 1.5 18.5.5 4.5.5 4.5" style="fill:#0a0800;stroke:#0a0800"/><path d="m129 882l2-48-12-4.5-12-4.5-18.5.5-18.5.5.5 1 .5 1 2-.5 2-.5h1 1 1 1 2.5 2.5l1.5.5 1.5.5h1.5 1.5l2.5.5 2.5.5 1-.5 1-.5h1 1 1.5 1.5l1 .5 1 .5 1-.5 1-.5h1.5 1.5l1.5.5 1.5.5.5-.5.5-.5h1.5 1.5l1-1 1-1h1 1l1-.5 1-.5 1.5-.5 1.5-.5h1 1 .5.5l-.5 1.5-.5 1.5-.5 1.5-.5 1.5-.5 1.5-.5 1.5v.5.5 2 2l1 1 1 1 1.5 1 1.5 1v1.5 1.5.5.5l2 .5 2 .5v1 1 1 1 1 1l-.5 1-.5 1 .5 1.5.5 1.5v1 1 1 1l-.5.5-.5.5.5 1 .5 1v1 1 1 1 1 1 1.5 1.5l-.5.5-.5.5v1 1l-.5.5-.5.5h-1.5-1.5-.5-.5l-1 .5-1 .5-1.5-.5-1.5-.5-2.5-.5-2.5-.5.5 1 .5 1 1 .5 1 .5h1 1l1 1 1 1h2 2" style="fill:#0a67a5;stroke:#0a67a5"/><path d="m497 881l-15-26 3.5 9 3.5 9 4 4 4 4" style="fill:#ffd;stroke:#ffd"/><path d="m113 880l1-2 1-1 1-1 1 .5 1 .5 2.5.5 2.5.5 1.5.5 1.5.5 1-.5 1-.5-.5-2.5-.5-2.5-.5-2-.5-2-1.5.5-1.5.5-1.5-1-1.5-1-.5.5-.5.5v1.5 1.5l-1.5-.5-1.5-.5-.5 1.5-.5 1.5-1 .5-1 .5-.5 2.5-.5 2.5h.5.5" style="fill:#9b4600;stroke:#9b4600"/><path d="m129 877v1h1.5 1.5l.5-.5.5-.5v-1-1l.5-.5.5-.5v-1.5-1.5-1-1-1-1-1-1l-.5-1-.5-1 .5-.5.5-.5v-1-1-1-1l-.5-1.5-.5-1.5.5-1 .5-1v-1-1-1-1-1-1l-2-.5-2-.5-.5 1.5-.5 1.5v1 1l-.5 1.5-.5 1.5-.5 2-.5 2v2 2l.5 2 .5 2 1 1 1 1 .5 1 .5 1 .5.5.5.5-.5 1.5-.5 1.5-1 1.5-1 1.5" style="fill:#ffd;stroke:#ffd"/><path d="m122 866l8-21v-1.5-1.5l-1.5-1-1.5-1-1-1-1-1v-2-2l-6.5 2.5-6.5 2.5 5 13.5 5 13.5" style="fill:#9b4600;stroke:#9b4600"/><path d="m116 833l3 1 .5-.5.5-.5.5-.5.5-.5h1 1l1 .5 1 .5.5-1.5.5-1.5.5-1.5.5-1.5-1-.5-1-.5h-1-1l-1 .5-1 .5-1 1-1 1-.5.5-.5.5-.5.5-.5.5-1.5.5-1.5.5 1 .5 1 .5" style="fill:#ffd;stroke:#ffd"/><g style="fill:#36d0e5;stroke:#36d0e5"><path d="m89 832l4 1 .5-1 .5-1 .5-1 .5-1-2.5-.5-2.5-.5h-1.5-1.5l-1.5-.5-1.5-.5h-2.5-2.5-1-1-1-1l-2 .5-2 .5v.5.5h1.5 1.5 1.5 1.5l.5.5.5.5h2 2l1-.5 1-.5.5.5.5.5.5 1 .5 1h1.5 1.5"/><path d="m106 831l3 1h1 1 1.5 1.5l1.5-.5 1.5-.5.5-.5.5-.5.5-.5.5-.5 1-1 1-1 1-.5 1-.5h1 1l1 .5 1 .5.5-1.5.5-1.5h-.5-.5-1-1l-1.5.5-1.5.5-1 .5-1 .5h-1-1l-1 1-1 1h-1.5-1.5l-.5.5-.5.5-1.5-.5-1.5-.5h-1.5-1.5l-1 .5-1 .5 1 1 1 1"/><path d="m276 818h2l.5-1.5.5-1.5v-2.5-2.5l-1-1-1-1-1-1.5-1-1.5-1.5.5-1.5.5-.5 2-.5 2 1 1 1 1 1 1 1 1 .5 2 .5 2"/></g><path d="m401 800h2l1.5-.5 1.5-.5 1-1.5 1-1.5 1-1 1-1 2-.5 2-.5 1.5-.5 1.5-.5 1.5-1 1.5-1 1-1 1-1 .5-1 .5-1h-2-2-1-1-1-1l-.5.5-.5.5v-1-1h-1.5-1.5v1 1l.5.5.5.5-.5.5-.5.5-1 .5-1 .5v1 1l-.5.5-.5.5-.5.5-.5.5-1 .5-1 .5-.5.5-.5.5h-1-1-1-1v1 1l.5 1 .5 1" style="fill:#ffd;stroke:#ffd"/><path d="m546 790h2l1-1.5 1-1.5.5-1.5.5-1.5 1-1.5 1-1.5-12-12.5-12-12.5v7 7l8.5 10 8.5 10" style="fill:#36d0e5;stroke:#36d0e5"/><path d="m390 776l34-15 6.5-14 6.5-14-9.5-8.5-9.5-8.5-16.5-1-16.5-1-8 15.5-8 15.5 11.5-6 11.5-6h3.5 3.5l-10.5 10-10.5 10h10 10l-3 9.5-3 9.5-1 2-1 2" style="fill:#ffd;stroke:#ffd"/><path d="m189 760l6-48 6-18.5 6-18.5-6.5 19.5-6.5 19.5-3 20.5-3 20.5-5-19.5-5-19.5-2-21.5-2-21.5-7.5-15-7.5-15-10.5-9.5-10.5-9.5-24-16-24-16 20 15.5 20 15.5 14 9.5 14 9.5 6 18.5 6 18.5 3.5 21 3.5 21 6 19.5 6 19.5" style="fill:#36d0e5;stroke:#36d0e5"/><path d="m188 755l6-41 6.5-19.5 6.5-19.5.5-2 .5-2 .5-1.5.5-1.5.5-1.5.5-1.5.5-1 .5-1v-.5-.5l6.5-18 6.5-18 6-20.5 6-20.5 6-19 6-19 7-17.5 7-17.5 5-19.5 5-19.5 13.5-26.5 13.5-26.5v-.5-.5-1.5-1.5-1.5-1.5l.5-.5.5-.5.5-1 .5-1v-2-2l.5-.5.5-.5v-1.5-1.5-2-2-1.5-1.5-1.5-1.5-2-2-1.5-1.5-2-2-1.5-1.5l1.5-12 1.5-12 12 3 12 3-7-13.5-7-13.5-9-.5-9-.5 2-13.5 2-13.5-10.5-10.5-10.5-10.5-.5 1-.5 1-1 1-1 1-1.5 1-1.5 1h-2-2l-1 .5-1 .5h-1-1l-.5-.5-.5-.5-1-.5-1-.5-.5.5-.5.5h-1-1-1-1l-1 .5-1 .5h-1-1l.5.5.5.5v1 1h-1-1l-.5-1-.5-1-1-1-1-1h-2.5-2.5l-2.5-.5-2.5-.5 1.5 21.5 1.5 21.5-5.5-22-5.5-22-1.5-.5-1.5-.5-1.5-1-1.5-1-5 .5-5 .5-7 10.5-7 10.5-3.5-9-3.5-9-11.5 9-11.5 9-23 20.5-23 20.5v1 1l-8.5 17-8.5 17-7 18.5-7 18.5v-2-2l-.5-.5-.5-.5v-1.5-1.5-1-1l.5-.5.5-.5v-1-1l.5-1 .5-1v-1-1-1-1l-.5-.5-.5-.5-.5.5-.5.5-.5 1-.5 1-.5.5-.5.5-.5.5-.5.5-.5.5-.5.5-.5 1-.5 1-.5.5-.5.5v1 1l-.5.5-.5.5-1 1-1 1-8.5 18.5-8.5 18.5-1 21.5-1 21.5 3.5 21.5 3.5 21.5 8.5 27 8.5 27 24 16 24 16 10.5 9.5 10.5 9.5 7.5 15 7.5 15 2 21.5 2 21.5 5 19.5 5 19.5" style="fill:#ffd;stroke:#ffd"/><path d="m318 736l50-18 1.5-2 1.5-2 23-18.5 23-18.5 4.5-15 4.5-15-6-18.5-6-18.5-6.5-18.5-6.5-18.5-5.5 2.5-5.5 2.5-8 11.5-8 11.5 10 9.5 10 9.5 8.5 8.5 8.5 8.5-15 4.5-15 4.5-2 4.5-2 4.5 1.5 11 1.5 11-4.5 6-4.5 6-8.5-1-8.5-1-.5-9-.5-9-3.5-10.5-3.5-10.5-5-4.5-5-4.5-4.5 1-4.5 1-6 15.5-6 15.5 7 4.5 7 4.5-6 12-6 12-1.5-.5-1.5-.5.5 1.5.5 1.5v1 1l.5 1 .5 1v1 1 1 1 1 1 1 1l.5 1 .5 1v1 1 1 1l.5.5.5.5v1.5 1.5 1 1 1 1 1.5 1.5" style="fill:#0a0800;stroke:#0a0800"/><path d="m451 735l18-15-10-3.5-10-3.5 1 11 1 11" style="fill:#36d0e5;stroke:#36d0e5"/><g style="fill:#0a0800;stroke:#0a0800"><path d="m533 722l-12-27-3.5-16-3.5-16v13.5 13.5l-10 2-10 2 4-16.5 4-16.5-6.5 12-6.5 12-8-9.5-8-9.5 1.5 7 1.5 7-11-11.5-11-11.5-2-20-2-20-3.5 4-3.5 4-5 13.5-5 13.5 7.5 5 7.5 5 7 8.5 7 8.5 7.5 8 7.5 8 16.5 8 16.5 8 11.5 5.5 11.5 5.5"/><path d="m466 713l-11-26-.5 4-.5 4 6 9 6 9"/></g><path d="m317 705l12-24-7-4.5-7-4.5 6-15.5 6-15.5 4.5-1 4.5-1 5 4.5 5 4.5 3.5 10.5 3.5 10.5.5 9 .5 9 8.5 1 8.5 1 4.5-6 4.5-6-1.5-11-1.5-11 2-4.5 2-4.5 15-4.5 15-4.5-8.5-8.5-8.5-8.5-10-9.5-10-9.5 8-11.5 8-11.5 5.5-2.5 5.5-2.5-.5-2-.5-2-6 6.5-6 6.5-8 13.5-8 13.5 9.5 10 9.5 10-4 8-4 8-6.5 1-6.5 1-2.5 19-2.5 19-6.5-9-6.5-9-2.5-11-2.5-11-3.5-6-3.5-6-9.5 3-9.5 3-6-12.5-6-12.5 9.5-15 9.5-15-3-15.5-3-15.5 3.5-17.5 3.5-17.5-8 12.5-8 12.5-3-26-3-26 1.5 29.5 1.5 29.5 7-16.5 7-16.5-2 17.5-2 17.5-7 29-7 29-2.5 15-2.5 15 4 18 4 18 .5 1.5.5 1.5 6-18.5 6-18.5-4 13-4 13 2.5 18 2.5 18-1.5-.5-1.5-.5-.5-1-.5-1-.5-1.5-.5-1.5v-1-1l-.5-.5-.5-.5-1-1-1-1 .5 2 .5 2 .5 2 .5 2 .5 1.5.5 1.5 1.5.5 1.5.5" style="fill:#9b4600;stroke:#9b4600"/><path d="m319 704l-5-36 4-13 4-13-6 18.5-6 18.5 1 1 1 1v1 1 1 1l-.5.5-.5.5v2 2 1.5 1.5l1 1 1 1 .5.5.5.5v1 1l.5 1.5.5 1.5.5 1 .5 1 1.5.5 1.5.5" style="fill:#fa0;stroke:#fa0"/><path d="m344 693h2 2 2l1-1.5 1-1.5-1-1-1-1-2-.5-2-.5-1.5-.5-1.5-.5-2-.5-2-.5-.5 1.5-.5 1.5 1 1 1 1 1.5 1 1.5 1 .5.5.5.5" style="fill:#9b4600;stroke:#9b4600"/><path d="m365 685l5-38 6.5-1 6.5-1 4-8 4-8-9.5-10-9.5-10 8-13.5 8-13.5 6-6.5 6-6.5-.5-2-.5-2-.5-.5-.5-.5-9-3.5-9-3.5-10.5-6-10.5-6-2.5-8.5-2.5-8.5 11.5-7 11.5-7 3-17 3-17v-1.5-1.5-1.5-1.5-1-1-1.5-1.5l-.5-1.5-.5-1.5v-1-1-1-1l-.5-.5-.5-.5v-1.5-1.5l-.5-1.5-.5-1.5v-1-1-1.5-1.5l-.5-1.5-.5-1.5-3.5 5-3.5 5-7 5.5-7 5.5-4.5 9-4.5 9-8.5 5.5-8.5 5.5-8-8.5-8-8.5-5.5-4-5.5-4v3.5 3.5l.5 1.5.5 1.5v2.5 2.5l.5 2 .5 2 3 26 3 26 8-12.5 8-12.5-3.5 17.5-3.5 17.5 3 15.5 3 15.5-9.5 15-9.5 15 6 12.5 6 12.5 9.5-3 9.5-3 3.5 6 3.5 6 2.5 11 2.5 11 6.5 9 6.5 9" style="fill:#fa0;stroke:#fa0"/><path d="m308 675l1 1-4-18-4-18v1.5 1.5 1.5 1.5l.5.5.5.5.5 1.5.5 1.5v1.5 1.5l.5.5.5.5v2 2l.5 1.5.5 1.5v2.5 2.5l.5 1.5.5 1.5.5 1 .5 1v1 1l.5 1 .5 1" style="fill:#0a0800;stroke:#0a0800"/><path d="m468 664l34-59 3.5-21 3.5-21v-22.5-22.5l-1-1.5-1-1.5-1-1-1-1-.5-1.5-.5-1.5-.5-1-.5-1-.5-.5-.5-.5-6.5-22-6.5-22-.5-.5-.5-.5-3-21.5-3-21.5-4-20.5-4-20.5-11-34.5-11-34.5-1-.5-1-.5-14.5-10-14.5-10-5.5 1-5.5 1-13.5-17.5-13.5-17.5-1-1-1-1-.5-1-.5-1-1.5-.5-1.5-.5-1 1.5-1 1.5v1.5 1.5l.5 1.5.5 1.5-1 1-1 1h-1.5-1.5l-.5 1.5-.5 1.5.5 2.5.5 2.5.5 1 .5 1 .5 1.5.5 1.5 1 1.5 1 1.5v2 2l1 1.5 1 1.5.5 1.5.5 1.5.5 2 .5 2 .5 2.5.5 2.5 6 19.5 6 19.5 13 22 13 22 .5 2.5.5 2.5 2 16 2 16 3.5 21 3.5 21 3 21 3 21 4 27.5 4 27.5 4.5 36.5 4.5 36.5 7.5 18 7.5 18" style="fill:#ffd;stroke:#ffd"/><path d="m211 662v1l6.5-18.5 6.5-18.5-6.5 18-6.5 18" style="fill:#36d0e5;stroke:#36d0e5"/><path d="m350 621h2l1-1 1-1 1-1.5 1-1.5v-2-2l-1.5-1-1.5-1-1.5.5-1.5.5-.5 2-.5 2-.5 1.5-.5 1.5.5 1.5.5 1.5h.5.5" style="fill:#9b4600;stroke:#9b4600"/><path d="m306 609v1l7-29 7-29 2-17.5 2-17.5-7 16.5-7 16.5-2 29.5-2 29.5" style="fill:#0a0800;stroke:#0a0800"/><path d="m245 603l10-66 6.5-14.5 6.5-14.5 4-16.5 4-16.5 7.5-12.5 7.5-12.5 4-14.5 4-14.5v-.5-.5l-13.5 26.5-13.5 26.5-5 19.5-5 19.5-7 17.5-7 17.5-6 19-6 19 .5-1 .5-1 1-1.5 1-1.5.5 1.5.5 1.5v1.5 1.5l-.5.5-.5.5.5 1.5.5 1.5-.5 1.5-.5 1.5-.5 2-.5 2 .5 1.5.5 1.5 1.5 1 1.5 1 1.5.5 1.5.5" style="fill:#36d0e5;stroke:#36d0e5"/><path d="m354 603l6-33-8 11.5-8 11.5 5 5 5 5" style="fill:#9b4600;stroke:#9b4600"/><path d="m88 591l2 1-8.5-27-8.5-27 7.5 26.5 7.5 26.5" style="fill:#36d0e5;stroke:#36d0e5"/><path d="m71 583l3 1 1.5-.5 1.5-.5v-2.5-2.5l-1-1-1-1h-2.5-2.5l-1 1-1 1 1 1.5 1 1.5.5 1 .5 1" style="fill:#0a0800;stroke:#0a0800"/><path d="m309 576l-6-41-2-15.5-2-15.5-6.5-7-6.5-7 1.5 15.5 1.5 15.5 7 16.5 7 16.5 3 11 3 11" style="fill:#36d0e5;stroke:#36d0e5"/><path d="m60 571h2l.5-1.5.5-1.5 1-1.5 1-1.5.5-1.5.5-1.5.5-1.5.5-1.5.5-1 .5-1-1.5.5-1.5.5-1 1-1 1-1 1-1 1-.5 1-.5 1v1 1 2.5 2.5" style="fill:#0a67a5;stroke:#0a67a5"/><path d="m398 564l1 1-.5-2.5-.5-2.5-.5-2-.5-2-.5-1.5-.5-1.5-.5-2-.5-2-.5-1-.5-1-2-1-2-1-1.5.5-1.5.5v2 2 2.5 2.5l-1 1-1 1h-1.5-1.5l-6.5-5-6.5-5 1-8.5 1-8.5 6.5-20 6.5-20v-2.5-2.5-2-2l-.5-.5-.5-.5-3 17-3 17-11.5 7-11.5 7 2.5 8.5 2.5 8.5 10.5 6 10.5 6 9 3.5 9 3.5" style="fill:#9b4600;stroke:#9b4600"/><path d="m382 557h3l1-1 1-1v-2.5-2.5-2-2l1.5-.5 1.5-.5 2 1 2 1-5-28.5-5-28.5-6.5 20-6.5 20-1 8.5-1 8.5 6.5 5 6.5 5" style="fill:#0a0800;stroke:#0a0800"/><path d="m68 556v1l1-.5 1-.5.5-1.5.5-1.5-.5-2-.5-2v-.5-.5l.5-1 .5-1-1-.5-1-.5h-1-1l-.5-.5-.5-.5-.5.5-.5.5v1.5 1.5l-.5.5-.5.5-.5.5-.5.5v1 1l.5.5.5.5 1 .5 1 .5 1 1 1 1" style="fill:#0a67a5;stroke:#0a67a5"/><path d="m443 554l1 1-4-27.5-4-27.5-3-21-3-21-3.5-21-3.5-21-2-16-2-16 2 22 2 22 3.5 20 3.5 20 3 21.5 3 21.5 3.5 21.5 3.5 21.5" style="fill:#36d0e5;stroke:#36d0e5"/><path d="m704 531l3 1 .5-1.5.5-1.5 1-1.5 1-1.5-.5-1.5-.5-1.5-.5-2-.5-2-1-1-1-1-1 .5-1 .5-.5 1.5-.5 1.5-.5 1.5-.5 1.5.5 2 .5 2 .5 1.5.5 1.5" style="fill:#0a67a5;stroke:#0a67a5"/><path d="m389 507l9-56 4.5-19.5 4.5-19.5 5.5-16.5 5.5-16.5-13-22-13-22-6-19.5-6-19.5h-.5-.5l-5.5 1.5-5.5 1.5v21.5 21.5 2.5 2.5l.5 1.5.5 1.5v2.5 2.5 2 2l4.5 38.5 4.5 38.5.5 1 .5 1v.5.5 1 1 1 1 2 2l.5 1.5.5 1.5v1.5 1.5 1 1l.5 1.5.5 1.5v1.5 1.5l.5.5.5.5v1 1 1 1l.5 1.5.5 1.5v1.5 1.5 1 1 1.5 1.5 1.5 1.5l.5.5.5.5.5 2 .5 2v2 2l.5 2 .5 2v2 2l.5 1 .5 1v1 1l.5 1.5.5 1.5.5 1.5.5 1.5" style="fill:#36d0e5;stroke:#36d0e5"/><g style="fill:#9b4600;stroke:#9b4600"><path d="m502 507l1 1-7-22.5-7-22.5 6.5 22 6.5 22"/><path d="m332 497l17-11 4.5-9 4.5-9 7-5.5 7-5.5 3.5-5 3.5-5v-2-2-1-1-1-1-.5-.5l-.5-1-.5-1v-.5-.5l-.5-1-.5-1-.5-1-.5-1-3 16-3 16h-13-13l-10 .5-10 .5 4 15.5 4 15.5-14.5-20.5-14.5-20.5v2 2 2 2 1.5 1.5l.5.5.5.5v2 2l.5 1 .5 1 5.5 4 5.5 4 8 8.5 8 8.5"/></g><path d="m332 495l-8-31 10-.5 10-.5h13 13l3-16 3-16-3.5-34.5-3.5-34.5-15.5 12.5-15.5 12.5-1-.5-1-.5-.5-1.5-.5-1.5h-2.5-2.5-2-2-2.5-2.5l-1.5-.5-1.5-.5h-2-2l-.5-.5-.5-.5h-1.5-1.5l-1.5-.5-1.5-.5-1-.5-1-.5 7 3.5 7 3.5 3.5 11 3.5 11-12.5 7-12.5 7v1.5 1.5 2.5 2.5 2 2 2.5 2.5 2 2l.5 2 .5 2 .5 1.5.5 1.5v2 2l14.5 20.5 14.5 20.5" style="fill:#0a0800;stroke:#0a0800"/><g style="fill:#9b4600;stroke:#9b4600"><path d="m488 462l1 1-6-39.5-6-39.5-5.5-19-5.5-19-7-18.5-7-18.5 11 34.5 11 34.5 4 20.5 4 20.5 3 21.5 3 21.5"/><path d="m357 448h2l1.5-.5 1.5-.5 1.5-1 1.5-1 .5-1 .5-1-1 .5-1 .5-.5 1-.5 1-1.5.5-1.5.5h-2-2l-1.5-1-1.5-1-1.5.5-1.5.5h-1-1l-1-1.5-1-1.5v-2-2l1.5-1 1.5-1 1.5-.5 1.5-.5.5-2 .5-2v-.5-.5h-.5-.5l-.5 1-.5 1-1 1-1 1-1 1-1 1-1 1.5-1 1.5-.5 1.5-.5 1.5.5 2 .5 2 1.5.5 1.5.5 2-.5 2-.5 1.5.5 1.5.5h1 1"/></g><path d="m348 446h2l1.5-.5 1.5-.5 1.5 1 1.5 1h2 2l1.5-.5 1.5-.5.5-1 .5-1-2 .5-2 .5-1.5-.5-1.5-.5-.5-1.5-.5-1.5 1-1 1-1-1-1.5-1-1.5.5-1.5.5-1.5-2-.5-2-.5-.5 2-.5 2-1.5.5-1.5.5-1.5 1-1.5 1v2 2l1 1.5 1 1.5" style="fill:#fa0;stroke:#fa0"/><path d="m357 444l3 1 2-.5 2-.5 1-.5 1-.5v-.5-.5l.5-1.5.5-1.5-.5-2-.5-2-.5-1.5-.5-1.5-1.5-1-1.5-1-1.5-.5-1.5-.5-1.5-.5-1.5-.5-1 .5-1 .5-.5 1-.5 1v.5.5l2 .5 2 .5-.5 1.5-.5 1.5 1 1.5 1 1.5-1 1-1 1 .5 1.5.5 1.5" style="fill:#ffd;stroke:#ffd"/><g style="fill:#0a67a5;stroke:#0a67a5"><path d="m366 442v1l1-.5 1-.5.5-1.5.5-1.5-.5-2-.5-2-.5-1.5-.5-1.5-1-1.5-1-1.5-1.5-.5-1.5-.5-1-1.5-1-1.5-.5-1.5-.5-1.5-.5-1-.5-1-.5-.5-.5-.5-1-.5-1-.5-.5 1-.5 1-1 1.5-1 1.5.5 1.5.5 1.5-.5 2-.5 2v.5.5h.5.5l.5-1 .5-1 1-.5 1-.5 1.5.5 1.5.5 1.5.5 1.5.5 1.5 1 1.5 1 .5 1.5.5 1.5.5 2 .5 2-.5 1.5-.5 1.5"/><path d="m378 435v1l-4.5-38.5-4.5-38.5v1.5 1.5l3.5 34.5 3.5 34.5.5 1 .5 1 .5 1 .5 1"/></g><path d="m95 421l14-37 8.5-17 8.5-17h-1-1l-8.5 16-8.5 16-9 11.5-9 11.5-.5 1-.5 1-.5 2-.5 2-.5 1-.5 1-.5 1-.5 1 1-1 1-1 .5-.5.5-.5v-1-1l.5-.5.5-.5.5-1 .5-1 .5-.5.5-.5.5-.5.5-.5.5-.5.5-.5.5-1 .5-1 .5-.5.5-.5.5.5.5.5v1 1 1 1l-.5 1-.5 1v1 1l-.5.5-.5.5v1 1 1.5 1.5l.5.5.5.5v2 2" style="fill:#36d0e5;stroke:#36d0e5"/><path d="m300 421l1 1 12.5-7 12.5-7-3.5-11-3.5-11-7-3.5-7-3.5-1.5-.5-1.5-.5v1.5 1.5 2 2 1.5 1.5 2 2 1.5 1.5l13.5 1.5 13.5 1.5-15 11-15 11v.5.5h.5.5" style="fill:#9b4600;stroke:#9b4600"/><path d="m299 419v1l15-11 15-11-13.5-1.5-13.5-1.5v1.5 1.5 2 2 1.5 1.5l-.5.5-.5.5v2 2l-.5 1-.5 1-.5.5-.5.5v1.5 1.5 1.5 1.5" style="fill:#fa0;stroke:#fa0"/><path d="m357 419l1 1 1.5-22 1.5-22-3 20.5-3 20.5v.5.5l1 .5 1 .5" style="fill:#9b4600;stroke:#9b4600"/><path d="m89 404v1l9-11.5 9-11.5 8.5-16 8.5-16-.5-.5-.5-.5 1-.5 1-.5-.5-1.5-.5-1.5 1.5-1 1.5-1 .5-2.5.5-2.5-11 17-11 17-8.5 16-8.5 16" style="fill:#0a67a5;stroke:#0a67a5"/><path d="m338 387l31-25v-1.5-1.5-2-2-2.5-2.5l-.5-1.5-.5-1.5v-2.5-2.5-.5-.5l-.5-2.5-.5-2.5v-1.5-1.5l-.5-.5-.5-.5v-2-2l-.5-.5-.5-.5v-1.5-1.5l-.5-1.5-.5-1.5v-1-1-1.5-1.5l-.5-1.5-.5-1.5v-2-2-1-1-1.5-1.5-2-2-1-1-1.5-1.5l.5-1.5.5-1.5.5-1 .5-1 .5-1.5.5-1.5v-2-2-1.5-1.5-2-2-1-1l.5-.5.5-.5v-1-1l.5-1 .5-1h1.5 1.5l-.5-2.5-.5-2.5.5-1.5.5-1.5h1.5 1.5l1-1 1-1-.5-1.5-.5-1.5v-1.5-1.5l1-1.5 1-1.5-1-1-1-1h-1-1l-1-1.5-1-1.5-.5 1.5-.5 1.5v1.5 1.5 2 2l-1 1-1 1-1 1.5-1 1.5-1.5.5-1.5.5-1 .5-1 .5 8-16.5 8-16.5 16-8 16-8 1-22 1-22-2.5-19-2.5-19-11-13-11-13 2-14.5 2-14.5-15.5-7-15.5-7-15 .5-15 .5-2 5.5-2 5.5-10 12.5-10 12.5-4.5 18-4.5 18 2.5 15.5 2.5 15.5 4.5 20 4.5 20-3.5 21.5-3.5 21.5-1 1-1 1-1 1.5-1 1.5-1 2-1 2v2.5 2.5l.5.5.5.5.5 1 .5 1-1 1-1 1-.5 1-.5 1-.5 1-.5 1-.5.5-.5.5-1 1-1 1h-.5-.5l-.5-.5-.5-.5-.5-.5-.5-.5h-1-1l-1 .5-1 .5v1 1l-.5.5-.5.5-.5 1.5-.5 1.5-.5 2-.5 2 10.5 10.5 10.5 10.5-2 13.5-2 13.5 9 .5 9 .5 7 13.5 7 13.5-12-3-12-3-1.5 12-1.5 12 1.5.5 1.5.5 1 .5 1 .5 1.5.5 1.5.5h1.5 1.5l.5.5.5.5h2 2l1.5.5 1.5.5h2.5 2.5 2 2 2.5 2.5l.5 1.5.5 1.5 1 .5 1 .5" style="fill:#fa0;stroke:#fa0"/><path d="m322 379l3 1 1.5-.5 1.5-.5 1-.5 1-.5-.5-1.5-.5-1.5-1-1.5-1-1.5h-2-2l-1 1.5-1 1.5 1 1 1 1-1 1-1 1h.5.5" style="fill:#ffd;stroke:#ffd"/><path d="m317 356l3 1 .5-1.5.5-1.5-.5-2-.5-2-1.5-.5-1.5-.5-1-1.5-1-1.5-1-1-1-1v1.5 1.5l.5 1.5.5 1.5v2 2l1.5 1 1.5 1" style="fill:#fa0;stroke:#fa0"/><path d="m123 349l1 1h1 1v-1-1-.5-.5l11.5-13.5 11.5-13.5 21.5-20.5 21.5-20.5h-1.5-1.5l-17.5 17.5-17.5 17.5-13 12-13 12-.5 2.5-.5 2.5-1.5 1-1.5 1 .5 1.5.5 1.5-1 .5-1 .5" style="fill:#9b4600;stroke:#9b4600"/><path d="m126 347v1l23-20.5 23-20.5 11.5-9 11.5-9 3.5 9 3.5 9 7-10.5 7-10.5 5-.5 5-.5-1-.5-1-.5-.5.5-.5.5-13.5-4-13.5-4-2 1-2 1-21.5 20.5-21.5 20.5-11.5 13.5-11.5 13.5" style="fill:#fa0;stroke:#fa0"/><path d="m368 341v1-21.5-21.5l5.5-1.5 5.5-1.5v-.5-.5l-.5-1-.5-1-.5-1-.5-1h-.5-.5l-1-1.5-1-1.5-1-1-1-1-1-1.5-1-1.5-1.5-.5-1.5-.5-.5 2.5-.5 2.5-.5 1.5-.5 1.5v1.5 1.5 2.5 2.5 2 2 2 2l.5 2 .5 2v2 2 2.5 2.5 2 2l.5 2 .5 2v3 3 1.5 1.5l.5 2.5.5 2.5" style="fill:#0a67a5;stroke:#0a67a5"/><path d="m243 332l-3-43-1-.5-1-.5-.5-.5-.5-.5v1 1l-.5.5-.5.5-1-.5-1-.5-1-.5-1-.5 5.5 22 5.5 22" style="fill:#fa0;stroke:#fa0"/><path d="m366 332l1 1v-3-3l-.5-2-.5-2v-2-2-2.5-2.5-2-2l-.5-2-.5-2v-2-2-2-2-2.5-2.5-1.5-1.5l-.5 1-.5 1-.5 1.5-.5 1.5v1.5 1.5 1 1 2 2 1.5 1.5 1 1 2 2l.5 1.5.5 1.5v1.5 1.5 1 1l.5 1.5.5 1.5v1.5 1.5l.5.5.5.5v2 2" style="fill:#9b4600;stroke:#9b4600"/><path d="m450 308l2 1-18-13.5-18-13.5-13-12-13-12-1-.5-1-.5-2.5-1-2.5-1 13.5 17.5 13.5 17.5 5.5-1 5.5-1 14.5 10 14.5 10" style="fill:#fa0;stroke:#fa0"/><path d="m379 295v1h.5.5l-.5-2.5-.5-2.5-.5-2-.5-2-.5-1.5-.5-1.5-1-1.5-1-1.5v-2-2l-1-1.5-1-1.5-.5-1.5-.5-1.5-.5-1-.5-1h-1.5-1.5l-.5 1-.5 1v1 1l-.5.5-.5.5v1 1 2 2 1.5 1.5 2 2l.5-2.5.5-2.5v-2-2l.5-1.5.5-1.5v-2-2l1.5 1 1.5 1 .5 1.5.5 1.5.5 2 .5 2 .5 1.5.5 1.5 1 1.5 1 1.5.5 2.5.5 2.5.5 1 .5 1 .5 1 .5 1" style="fill:#9b4600;stroke:#9b4600"/><path d="m253 294h2v-1-1l-.5-.5-.5-.5h1 1l1-.5 1-.5h1 1 1 1l.5-.5.5-.5 1 .5 1 .5.5.5.5.5h1 1l1-.5 1-.5-1.5-.5-1.5-.5-1.5-1-1.5-1v-2.5-2.5l-1.5.5-1.5.5-1.5 1-1.5 1-1.5.5-1.5.5-1 .5-1 .5h-2-2l-2.5.5-2.5.5.5 1 .5 1h2.5 2.5l1 1 1 1 .5 1 .5 1" style="fill:#fa0;stroke:#fa0"/><path d="m376 291h1l-.5-2.5-.5-2.5-1-1.5-1-1.5-.5-1.5-.5-1.5-.5-2-.5-2-.5-1.5-.5-1.5-1.5-1-1.5-1v2 2l-.5 1.5-.5 1.5v2 2l1.5.5 1.5.5 1 1.5 1 1.5 1 1 1 1 1 1.5 1 1.5" style="fill:#0a0800;stroke:#0a0800"/><path d="m236 290l1-1v-1-1l.5.5.5.5 1 .5 1 .5 2.5.5 2.5.5-.5-1-.5-1-.5-1-.5-1-9.5-4-9.5-4-.5 1-.5 1 .5 2 .5 2 1 .5 1 .5 1.5 1 1.5 1 1.5.5 1.5.5 1 .5 1 .5 1 .5 1 .5" style="fill:#0a67a5;stroke:#0a67a5"/><g style="fill:#9b4600;stroke:#9b4600"><path d="m267 289l3 1h2 2l1.5-1 1.5-1 1-1 1-1 .5-1 .5-1 .5-2 .5-2-12 .5-12 .5-1 1.5-1 1.5h-1-1l-1.5-1-1.5-1-.5 1.5-.5 1.5h-1-1l-2 .5-2 .5.5 1 .5 1 2.5-.5 2.5-.5h2 2l1-.5 1-.5 1.5-.5 1.5-.5 1.5-1 1.5-1 1.5-.5 1.5-.5v2.5 2.5l1.5 1 1.5 1"/><path d="m223 285l1-1-.5-2-.5-2 .5-1 .5-1-1-1.5-1-1.5-1-.5-1-.5-1.5.5-1.5.5-1.5 1-1.5 1h-1-1-2-2l-1.5-1.5-1.5-1.5h-1.5-1.5-1-1l-1 .5-1 .5-1 1-1 1 13.5 4 13.5 4"/></g><g style="fill:#0a67a5;stroke:#0a67a5"><path d="m247 285h2l.5-1.5.5-1.5 1.5 1 1.5 1h1 1l1-1.5 1-1.5-5 2-5 2"/><path d="m189 278v1h1.5 1.5l2-1 2-1 1-1 1-1 1-.5 1-.5h1 1 1.5 1.5l-8 2-8 2"/></g><g style="fill:#9b4600;stroke:#9b4600"><path d="m294 269v1l.5-1 .5-1 1-1 1-1-.5-1-.5-1-.5-.5-.5-.5v-2.5-2.5l-1 1-1 1-.5.5-.5.5h-1-1l-.5 1-.5 1h-1-1l-.5.5-.5.5v1 1l1 1 1 1 1-.5 1-.5h1 1l1-1 1-1 .5 1 .5 1-.5 1-.5 1"/><path d="m361 262l2-1 1.5-.5 1.5-.5 1-1.5 1-1.5 1-1 1-1v-2-2-1.5-1.5l.5-1.5.5-1.5 1 1.5 1 1.5h1 1l1 1 1 1 1.5.5 1.5.5.5 1 .5 1 1 1 1 1 2.5 1 2.5 1 1 .5 1 .5-7-13-7-13 16.5-8 16.5-8 1.5-21 1.5-21-1.5-20-1.5-20-8.5-15-8.5-15-.5-13.5-.5-13.5-15.5-9-15.5-9-13 2.5-13 2.5-6.5-1-6.5-1-6.5 15-6.5 15-7.5 17-7.5 17 2 20.5 2 20.5 4 20 4 20-2 21-2 21 3.5-21.5 3.5-21.5-4.5-20-4.5-20-2.5-15.5-2.5-15.5 4.5-18 4.5-18 10-12.5 10-12.5 2-5.5 2-5.5 15-.5 15-.5 15.5 7 15.5 7-2 14.5-2 14.5 11 13 11 13 2.5 19 2.5 19-1 22-1 22-16 8-16 8-8 16.5-8 16.5"/></g><g style="fill:#ffd;stroke:#ffd"><path d="m375 210l1-10-12 .5-12 .5 11.5 4.5 11.5 4.5"/><path d="m338 193l4-15-6 2.5-6 2.5 4 5 4 5"/></g><g style="fill:#9b4600;stroke:#9b4600"><path d="m333 110l29-2-13-3.5-13-3.5-1.5 4.5-1.5 4.5"/><path d="m381 98h2l.5-1.5.5-1.5 1-1.5 1-1.5 1.5-.5 1.5-.5.5-2 .5-2-1-1-1-1-1 1.5-1 1.5-1.5.5-1.5.5-1 1-1 1-.5 2-.5 2 .5 1.5.5 1.5"/></g></g></svg>