<svg xmlns="http://www.w3.org/2000/svg" viewBox="0 0 712 960"><g style="fill:#0a0800"><path d="m0 0h712v960h-712z"/><path d="m0 959v1h1.5 1.5 1 1v-.5-.5l-2.5-9.5-2.5-9.5v3 3 2.5 2.5 2 2 2 2" style="stroke:#0a0800;stroke-linejoin:round;stroke-width:.7"/></g><g style="stroke-linejoin:round;stroke-width:.7"><path d="m5 959v1h1.5 1.5 2 2 1 1v-.5-.5l-3-19.5-3-19.5 3-21.5 3-21.5 5-18 5-18 23-6.5 23-6.5h.5.5l-.5-1-.5-1-17.5.5-17.5.5-11 13.5-11 13.5-6.5 28-6.5 28v3 3 2 2 2.5 2.5 2 2 2.5 2.5 2 2 1 1l2.5 9.5 2.5 9.5" style="fill:#9b4600;stroke:#9b4600"/><path d="m14 959v1h26 26 .5.5v-.5-.5l-3-10.5-3-10.5 5.5 11 5.5 11h2.5 2.5 2 2 2.5 2.5 2 2v-.5-.5l-3-19-3-19-5.5-6.5-5.5-6.5-9 12.5-9 12.5-7-10.5-7-10.5-1-16.5-1-16.5 15.5-25.5 15.5-25.5-23 6.5-23 6.5-5 18-5 18-3 21.5-3 21.5 3 19.5 3 19.5" style="fill:#fa0;stroke:#fa0"/><g style="fill:#ffea7c;stroke:#ffea7c"><path d="m67 959v1h1.5 1.5 1 1l-5.5-11-5.5-11 3 10.5 3 10.5"/><path d="m90 959v1h1.5 1.5 2 2 2 2v-.5-.5l6.5-36.5 6.5-36.5-1-1-1-1-6 29.5-6 29.5-3-14.5-3-14.5 6 .5 6 .5 3-16 3-16 .5-1 .5-1v-.5-.5-1.5-1.5l1-1.5 1-1.5.5-1.5.5-1.5-10.5 8.5-10.5 8.5-3-11-3-11-6 .5-6 .5-9 2.5-9 2.5 14.5-9.5 14.5-9.5 5-12 5-12h-2-2l-.5 1.5-.5 1.5h-2-2-1-1l-1-1.5-1-1.5h-1-1l-2 .5-2 .5-1-.5-1-.5-2.5-.5-2.5-.5h-.5-.5-.5-.5l-15.5 25.5-15.5 25.5 1 16.5 1 16.5 7 10.5 7 10.5 9-12.5 9-12.5 5.5 6.5 5.5 6.5 3 19 3 19"/></g><path d="m101 959v1h1.5 1.5.5.5v-.5-.5l4.5-36.5 4.5-36.5-6.5 36.5-6.5 36.5" style="fill:#9b4600;stroke:#9b4600"/><path d="m105 959v1h26 26 24.5 24.5 24 24 2.5 2.5v-.5-.5l3.5.5 3.5.5h2.5 2.5 2 2 2 2 2.5 2.5 1 1v-.5-.5l-10.5-13.5-10.5-13.5-4.5-15-4.5-15-3.5-17-3.5-17-4 14-4 14-1 16.5-1 16.5-.5 4-.5 4-7 .5-7 .5-8.5-4-8.5-4-9 4.5-9 4.5-2.5-6.5-2.5-6.5-10-10.5-10-10.5-.5-19-.5-19-2-12.5-2-12.5-2.5-3-2.5-3-3.5-13-3.5-13-9.5-10.5-9.5-10.5-6 6.5-6 6.5-13-3.5-13-3.5-8.5-7-8.5-7 8.5-9 8.5-9 11.5-13 11.5-13 9-7 9-7-3-.5-3-.5-13.5-6-13.5-6-13-5.5-13-5.5-7-12.5-7-12.5 1-17.5 1-17.5 2.5 5.5 2.5 5.5 10 10.5 10 10.5-11-1.5-11-1.5 12 9.5 12 9.5.5-6 .5-6-7.5-15-7.5-15-2-14-2-14-7-5.5-7-5.5 4 1.5 4 1.5.5-4 .5-4 3.5-27.5 3.5-27.5-.5 1-.5 1v.5.5l.5 2 .5 2-.5 1.5-.5 1.5-1 .5-1 .5-.5 1-.5 1-.5 1.5-.5 1.5-.5 1.5-.5 1.5-1 1.5-1 1.5-.5 1.5-.5 1.5h-1-1v-2.5-2.5-1-1l.5-1 .5-1 1-1 1-1 1-1 1-1 1.5-.5 1.5-.5v-.5-.5l-1-1-1-1-1-.5-1-.5-.5-.5-.5-.5v-1-1l.5-.5.5-.5.5-.5.5-.5v-1.5-1.5l.5-.5.5-.5.5.5.5.5h1 1l1 .5 1 .5-3-19.5-3-19.5 1.5-28.5 1.5-28.5 7.5-17 7.5-17 8.5-16 8.5-16 14-23 14-23 13-12 13-12 17.5-17.5 17.5-17.5v-.5-.5l8-2 8-2 1.5 1.5 1.5 1.5h2 2 1 1l1.5-1 1.5-1 1.5-.5 1.5-.5 1 .5 1 .5 1 1.5 1 1.5 9.5 4 9.5 4 2-.5 2-.5 5-2 5-2 12-.5 12-.5.5-1 .5-1 .5-1 .5-1v-1-1l1-.5 1-.5 1.5.5 1.5.5.5.5.5.5h.5.5l1-1 1-1 1-1.5 1-1.5v-.5-.5l.5-1 .5-1-.5-1-.5-1-1 1-1 1h-1-1l-1 .5-1 .5-1-1-1-1v-1-1l.5-.5.5-.5h1 1l.5-1 .5-1h1 1l.5-.5.5-.5 1-1 1-1 1-2 1-2 1-1 1-1 1-1.5 1-1.5 2-21 2-21-4-20-4-20-2-20.5-2-20.5 7.5-17 7.5-17 6.5-15 6.5-15 6.5 1 6.5 1 13-2.5 13-2.5 15.5 9 15.5 9 .5 13.5.5 13.5 8.5 15 8.5 15 1.5 20 1.5 20-1.5 21-1.5 21-18 13.5-18 13.5 1.5 1 1.5 1v1 1l1 .5 1 .5 1 1 1 1 1.5.5 1.5.5v1 1l.5.5.5.5 1 .5 1 .5.5.5.5.5h1 1l.5.5.5.5.5.5.5.5.5 1 .5 1 .5.5.5.5.5.5.5.5.5.5.5.5 1 1.5 1 1.5 14 10.5 14 10.5 13.5 10.5 13.5 10.5 6.5 18 6.5 18 5.5 19 5.5 19 3.5 21 3.5 21 4 20.5 4 20.5 5 19.5 5 19.5 4 33.5 4 33.5 6 18.5 6 18.5-1.5 22-1.5 22 7 8 7 8-2.5 5-2.5 5 5-2.5 5-2.5 6 13.5 6 13.5-11 .5-11 .5 8.5 8 8.5 8 4.5 4 4.5 4 4.5 3.5 4.5 3.5-2 12.5-2 12.5 4 18 4 18 1 .5 1 .5.5.5.5.5.5.5.5.5.5 1 .5 1 1 1 1 1 .5.5.5.5 1 .5 1 .5 1 1 1 1 .5.5.5.5.5 1 .5 1 1 1 1 1 .5.5.5.5.5.5.5.5.5 1 .5 1 10 15.5 10 15.5 5.5 19 5.5 19-5 19.5-5 19.5-9.5 14.5-9.5 14.5-8 5-8 5h25.5 25.5 24.5 24.5 20.5 20.5v-4-4-24.5-24.5-24.5-24.5-24.5-24.5-24.5-24.5-24-24-24.5-24.5-24.5-24.5-24.5-24.5-24.5-24.5-24.5-24.5-24-24-24.5-24.5-24.5-24.5-24.5-24.5-24.5-24.5-24.5-24.5-24.5-24.5-24-24-24.5-24.5-12-12h-12.5-12.5-24.5-24.5-24.5-24.5-24.5-24.5-24-24-24.5-24.5-24.5-24.5-24.5-24.5-24.5-24.5-24.5-24.5-24-24-24.5-24.5-24.5-24.5-24.5-24.5-24.5-24.5-1.5-1.5v23 23 24.5 24.5 24 24 24.5 24.5 24.5 24.5 24.5 24.5 24.5 24.5 24.5 24.5 24 24 24.5 24.5 24.5 24.5 24.5 24.5 24.5 24.5 24.5 24.5 24.5 24.5 24 24 24.5 24.5 24.5 24.5 17 17l6.5-28 6.5-28 11-13.5 11-13.5 17.5-.5 17.5-.5 29 1 29 1 .5 27 .5 27-2-.5-2-.5-2-.5-2-.5-1.5-1.5-1.5-1.5-1-.5-1-.5-1 1-1 1-.5 1.5-.5 1.5-.5 1-.5 1v.5.5l1 1 1 1-4.5 36.5-4.5 36.5" style="fill:#0a0800;stroke:#0a0800"/><g style="fill:#0a67a5;stroke:#0a67a5"><path d="m259 959v1h1.5 1.5 2 2l-3.5-.5-3.5-.5"/><path d="m286 959v1h1.5 1.5v-.5-.5l-14.5-23-14.5-23 7.5-17 7.5-17 8.5-24 8.5-24 .5-1.5.5-1.5.5-.5.5-.5.5-.5.5-.5.5-.5.5-.5 1-.5 1-.5-.5-.5-.5-.5-.5-1.5-.5-1.5v-2.5-2.5l.5-1.5.5-1.5.5-1.5.5-1.5.5-2 .5-2 1-1 1-1 .5-2.5.5-2.5v-1.5-1.5l1-1.5 1-1.5 1-1 1-1 1-1.5 1-1.5-.5-1-.5-1 6.5-15.5 6.5-15.5 4 14 4 14-.5-19-.5-19-1 .5-1 .5 11-4.5 11-4.5 13-11 13-11 12.5-12 12.5-12 12 .5 12 .5 3.5 15.5 3.5 15.5-1 1-1 1-1 1-1 1 15 7.5 15 7.5h20.5 20.5l-.5-1.5-.5-1.5 3-9 3-9 3.5 1 3.5 1 5.5 12 5.5 12 16 19.5 16 19.5 2-.5 2-.5 1 1 1 1 1 .5 1 .5 1 .5 1 .5.5.5.5.5v1 1l.5.5.5.5 1.5.5 1.5.5-4-18-4-18 2-12.5 2-12.5-4.5-3.5-4.5-3.5-4.5-4-4.5-4-8.5-8-8.5-8 11-.5 11-.5-6-13.5-6-13.5-5 2.5-5 2.5 2.5-5 2.5-5-7-8-7-8 1.5-22 1.5-22-6-18.5-6-18.5-.5 2-.5 2v1 1 1 1l-.5.5-.5.5v1 1 1 1l-.5 1-.5 1v1 1 1 1l-.5.5-.5.5v1.5 1.5l-.5.5-.5.5v1 1l-.5.5-.5.5v1.5 1.5l-.5.5-.5.5v1 1l-.5.5-.5.5-.5 1-.5 1-12 23-12 23-.5 1.5-.5 1.5-.5 1.5-.5 1.5-1 1.5-1 1.5-1 1-1 1-1.5-.5-1.5-.5-1-1-1-1-.5-.5-.5-.5-.5-1-.5-1-.5-.5-.5-.5v-1-1l-.5-.5-.5-.5-.5-1-.5-1-1-1-1-1-.5-.5-.5-.5-.5-1-.5-1-.5-1.5-.5-1.5-.5-.5-.5-.5-2-22.5-2-22.5-3-21-3-21-3-21.5-3-21.5-3.5-21-3.5-21-3-20.5-3-20.5-3-21.5-3-21.5v-1.5-1.5l-.5-1.5-.5-1.5-.5-1.5-.5-1.5-5.5 19-5.5 19-4 20-4 20-4.5 26-4.5 26-.5-1-.5-1v-1.5-1.5l-.5-1.5-.5-1.5v-1-1l-.5-1-.5-1v-2-2l-.5-2-.5-2v-2-2l-.5-1.5-.5-1.5v2 2 2.5 2.5l5 28.5 5 28.5.5 1 .5 1 .5 2 .5 2 .5 1.5.5 1.5.5 2 .5 2 .5 2.5.5 2.5.5 2 .5 2 .5 2 .5 2 6.5 19 6.5 19 6 18.5 6 18.5-5 14.5-5 14.5-14.5 10-14.5 10-12 12.5-12 12.5-22.5 7-22.5 7v-2-2-2-2l-.5-2-.5-2v-2-2l-.5-1.5-.5-1.5v-2.5-2.5l-.5-1.5-.5-1.5-.5-2.5-.5-2.5-.5-1-.5-1-.5-2-.5-2-.5-2.5-.5-2.5v-1.5-1.5-2-2l.5-1.5.5-1.5-1-1-1-1v2.5 2.5l-.5 1.5-.5 1.5.5 2 .5 2-.5 1.5-.5 1.5-1.5-.5-1.5-.5v-3-3l-.5-1.5-.5-1.5.5-1.5.5-1.5-1-1.5-1-1.5.5-1.5.5-1.5 1 1.5 1 1.5h1.5 1.5v-.5-.5l-.5-1.5-.5-1.5-.5-.5-.5-.5-.5-1-.5-1v-1-1l-.5-1-.5-1-.5-1.5-.5-1.5v-2-2l-.5-.5-.5-.5v-1.5-1.5-2-2l-.5-.5-.5-.5v-1.5-1.5l-.5-1.5-.5-1.5-.5-.5-.5-.5v-1.5-1.5-1.5-1.5l2.5-15 2.5-15v-.5-.5l2-29.5 2-29.5-1.5-29.5-1.5-29.5-.5-1-.5-1v-1.5-1.5-2-2l-.5-.5-.5-.5v-1.5-1.5-3-3l-.5-1-.5-1v-2-2l-.5-.5-.5-.5v-1-1-1-1-1.5-1.5-2-2-2-2l-.5-1.5-.5-1.5-.5-2-.5-2v-2-2-2.5-2.5-2-2-2.5-2.5-1.5-1.5l-.5-.5-.5-.5h-.5-.5v2 2l1 21 1 21v12.5 12.5l1.5 11 1.5 11 1.5 15 1.5 15 1 23.5 1 23.5-3.5-16.5-3.5-16.5-6-18-6-18-4.5-18-4.5-18 7-8.5 7-8.5-4.5-1-4.5-1-8 11-8 11-7 22-7 22-.5 1.5-.5 1.5-.5 1.5-.5 1.5-.5 1-.5 1-2 19-2 19-1 17.5-1 17.5-3.5 16.5-3.5 16.5-1.5-32-1.5-32-6 20-6 20-5.5 18-5.5 18-7 17.5-7 17.5-6.5 31-6.5 31-5-19.5-5-19.5-.5-.5-.5-.5-5.5-27-5.5-27-17-20-17-20-1-.5-1-.5-16-9.5-16-9.5-9.5-15-9.5-15-3.5-20-3.5-20-1.5-41-1.5-41-1.5 28.5-1.5 28.5 3 19.5 3 19.5-3.5 27.5-3.5 27.5-.5 4-.5 4-4-1.5-4-1.5 7 5.5 7 5.5 2 14 2 14 7.5 15 7.5 15-.5 6-.5 6-12-9.5-12-9.5 11 1.5 11 1.5-10-10.5-10-10.5-2.5-5.5-2.5-5.5-1 17.5-1 17.5 7 12.5 7 12.5 13 5.5 13 5.5 13.5 6 13.5 6 3 .5 3 .5-9 7-9 7-11.5 13-11.5 13-8.5 9-8.5 9 8.5 7 8.5 7 13 3.5 13 3.5 6-6.5 6-6.5 9.5 10.5 9.5 10.5 3.5 13 3.5 13 2.5 3 2.5 3 2 12.5 2 12.5.5 19 .5 19 10 10.5 10 10.5 2.5 6.5 2.5 6.5 9-4.5 9-4.5 8.5 4 8.5 4 7-.5 7-.5.5-4 .5-4 1-16.5 1-16.5 4-14 4-14 3.5 17 3.5 17 4.5 15 4.5 15 10.5 13.5 10.5 13.5"/></g><path d="m289 959v1h1.5 1.5 2 2 1 1v-.5-.5l-19-23-19-23 14.5 23 14.5 23" style="fill:#14c6e1;stroke:#14c6e1"/><path d="m298 959v1h1.5 1.5 2 2 2.5 2.5 2 2 2.5 2.5 2 2 2.5 2.5 2 2 1 1v-.5-.5h-3-3-2-2l-2-.5-2-.5-1-1-1-1h-1-1l-1 .5-1 .5-.5.5-.5.5h-1-1-1-1l-1.5-.5-1.5-.5-6.5-8.5-6.5-8.5 2-7.5 2-7.5-4.5-10-4.5-10-9.5 2-9.5 2 5-5 5-5-1-11.5-1-11.5 7-17.5 7-17.5 9.5-7 9.5-7-2-12.5-2-12.5 10 14.5 10 14.5 9 15 9 15 10.5 6 10.5 6-9-15.5-9-15.5-9.5-15-9.5-15-9.5-15-9.5-15 16.5 5 16.5 5 8.5-10.5 8.5-10.5 5 14.5 5 14.5 8.5 13 8.5 13 6.5 17 6.5 17 7 17.5 7 17.5 16 31.5 16 31.5.5.5.5.5v.5.5h1 1v-.5-.5l-9-16.5-9-16.5-7.5-17-7.5-17-8.5-22-8.5-22-6.5-18.5-6.5-18.5-8-16.5-8-16.5-6-.5-6-.5-25 4-25 4 .5 1 .5 1 10 14.5 10 14.5 13.5 23.5 13.5 23.5.5 1 .5 1 1 1 1 1 1 1.5 1 1.5.5 1.5.5 1.5 1.5 1 1.5 1-.5 1.5-.5 1.5h-1-1l-1.5-.5-1.5-.5-.5-.5-.5-.5-10-14.5-10-14.5-17.5-24.5-17.5-24.5-.5 2.5-.5 2.5-1 1-1 1-.5 2-.5 2-.5 1.5-.5 1.5-.5 1.5-.5 1.5v2.5 2.5l1 1 1 1 1 .5 1 .5 1.5.5 1.5.5.5.5.5.5 1 .5 1 .5 1 1 1 1 1.5 1 1.5 1 .5 1.5.5 1.5-1.5-.5-1.5-.5-1-.5-1-.5-1-.5-1-.5h-1-1l-1-.5-1-.5h-2-2-1-1l-.5.5-.5.5-1 .5-1 .5-8.5 24-8.5 24-7.5 17-7.5 17 19 23 19 23" style="fill:#7be5ef;stroke:#7be5ef"/><path d="m334 959v1h26 26 24.5 24.5 5.5 5.5v-.5-.5h-25-25-31-31" style="fill:#ffffea;stroke:#ffffea"/><path d="m448 959v1h1.5 1.5 1.5 1.5v-.5-.5l2-14.5 2-14.5 6-6.5 6-6.5 2.5-5 2.5-5-7-9.5-7-9.5-12.5-12-12.5-12-19-8-19-8 8.5 22 8.5 22 7.5 17 7.5 17 9 16.5 9 16.5" style="fill:#0a67a5;stroke:#0a67a5"/><path d="m454 959v1h1.5 1.5 2 2 2.5 2.5 2 2 2.5 2.5 1.5 1.5v-.5-.5l8.5-3 8.5-3-6-1.5-6-1.5 14.5-7 14.5-7 8.5 5.5 8.5 5.5 13 4.5 13 4.5 23.5-15.5 23.5-15.5-1-1.5-1-1.5-1 1-1 1-.5.5-.5.5-1 .5-1 .5-1.5.5-1.5.5-.5.5-.5.5-.5.5-.5.5h-1-1-1-1l-6-7.5-6-7.5-13.5-8-13.5-8-11.5-4-11.5-4 5 8.5 5 8.5-10 7-10 7-3.5-13-3.5-13-4.5-4-4.5-4-5-3.5-5-3.5-9-13.5-9-13.5 2-9.5 2-9.5.5 7.5.5 7.5 12.5 9 12.5 9-3-9.5-3-9.5.5-15 .5-15-11.5-2-11.5-2 6-6.5 6-6.5-17.5 5.5-17.5 5.5-10 2.5-10 2.5 15-.5 15-.5 4.5 7 4.5 7-14.5 4-14.5 4-7.5-10-7.5-10 2-6 2-6 2-5.5 2-5.5-8.5 3-8.5 3-13-5.5-13-5.5 12.5-11 12.5-11-13.5 4-13.5 4-5.5-4.5-5.5-4.5-3-8.5-3-8.5-1-8.5-1-8.5 11-13.5 11-13.5 19.5 8 19.5 8-3.5-15.5-3.5-15.5-12-.5-12-.5-12.5 12-12.5 12-13 11-13 11-11 4.5-11 4.5h-1.5-1.5v-2-2l1-1 1-1 1.5-1 1.5-1 1 1 1 1 2 .5 2 .5h2 2l.5 2 .5 2v2 2l-1.5-.5-1.5-.5-.5-1-.5-1v-1-1l-.5-.5-.5-.5h-1-1-1.5-1.5l-.5 1-.5 1 .5 19 .5 19-4-14-4-14-6.5 15.5-6.5 15.5 25-4 25-4 6 .5 6 .5 8 16.5 8 16.5 6.5 18.5 6.5 18.5 19 8 19 8 12.5 12 12.5 12 7 9.5 7 9.5-2.5 5-2.5 5-6 6.5-6 6.5-2 14.5-2 14.5" style="fill:#14c6e1;stroke:#14c6e1"/><path d="m478 959v1h26 26 20.5 20.5l8-5 8-5 9.5-14.5 9.5-14.5 5-19.5 5-19.5-5.5-19-5.5-19-10-15.5-10-15.5 1 2 1 2 1 1.5 1 1.5 1 1 1 1 1 1.5 1 1.5 1 2 1 2 8.5 33.5 8.5 33.5v1 1l-.5 1.5-.5 1.5-.5 2-.5 2-.5 1.5-.5 1.5-.5 1.5-.5 1.5-.5 2-.5 2-.5 1.5-.5 1.5-1 1.5-1 1.5-.5 1-.5 1-.5 1-.5 1-23.5 15.5-23.5 15.5-13-4.5-13-4.5-8.5-5.5-8.5-5.5-14.5 7-14.5 7 6 1.5 6 1.5-8.5 3-8.5 3" style="fill:#0a67a5;stroke:#0a67a5"/><path d="m320 958l4 1h2 2 3 3 31 31 25 25l-.5-.5-.5-.5h-25.5-25.5-37-37" style="fill:#ffea7c;stroke:#ffea7c"/><g style="fill:#ffffea;stroke:#ffffea"><path d="m306 957l3 1h1 1 1 1l.5-.5.5-.5 1-.5 1-.5h1 1l1 1 1 1h37 37 25.5 25.5l-16-31.5-16-31.5-7-17.5-7-17.5-6.5-17-6.5-17-8.5-13-8.5-13-5-14.5-5-14.5-8.5 10.5-8.5 10.5-16.5-5-16.5-5 9.5 15 9.5 15 9.5 15 9.5 15 9 15.5 9 15.5-10.5-6-10.5-6-9-15-9-15-10-14.5-10-14.5 2 12.5 2 12.5-9.5 7-9.5 7-7 17.5-7 17.5 1 11.5 1 11.5-5 5-5 5 9.5-2 9.5-2 4.5 10 4.5 10-2 7.5-2 7.5 6.5 8.5 6.5 8.5"/><path d="m100 943l12-59v-.5-.5l-3 16-3 16-6-.5-6-.5 3 14.5 3 14.5"/></g><path d="m439 939l20-31-3-13.5-3-13.5-13.5-10.5-13.5-10.5-12.5-4-12.5-4 6.5 18 6.5 18 8 16.5 8 16.5 4.5 9 4.5 9" style="fill:#0a0800;stroke:#0a0800"/><path d="m586 929h2 1 1l.5-.5.5-.5.5-.5.5-.5 1.5-.5 1.5-.5 1-.5 1-.5.5-.5.5-.5 1-1 1-1 1 1.5 1 1.5.5-1 .5-1v-.5-.5l-1-.5-1-.5-1.5-.5-1.5-.5 1-1.5 1-1.5 1.5-.5 1.5-.5 1-1.5 1-1.5.5-1.5.5-1.5.5-2 .5-2 .5-1.5.5-1.5 1.5-1 1.5-1 .5-1.5.5-1.5-1.5.5-1.5.5-1 1.5-1 1.5-1.5.5-1.5.5h-1.5-1.5l-.5 1.5-.5 1.5-1.5 1-1.5 1-1.5.5-1.5.5-1 1-1 1h-1.5-1.5l-9-5.5-9-5.5-15-7.5-15-7.5-9-5-9-5-4.5-10-4.5-10 3-10.5 3-10.5-7-13.5-7-13.5-14.5-6-14.5-6-13.5 1-13.5 1 11-7 11-7-15.5 3-15.5 3 4-4.5 4-4.5-4-5.5-4-5.5-16.5 5-16.5 5 11-8.5 11-8.5 5.5-8.5 5.5-8.5 14 5.5 14 5.5 15 2.5 15 2.5 1-9.5 1-9.5 11 12.5 11 12.5 9.5 12 9.5 12 4.5-3 4.5-3-16-19.5-16-19.5-1-.5-1-.5-1-1-1-1-1.5-.5-1.5-.5-1-1-1-1-2 .5-2 .5-1-1-1-1-2-.5-2-.5-1-1-1-1-1.5 1-1.5 1 .5 1.5.5 1.5-1.5 8-1.5 8-11.5-3-11.5-3-23.5 5.5-23.5 5.5 1-18 1-18 1-1 1-1 1-1 1-1-19.5-8-19.5-8-11 13.5-11 13.5 1 8.5 1 8.5 3 8.5 3 8.5 5.5 4.5 5.5 4.5 13.5-4 13.5-4-12.5 11-12.5 11 13 5.5 13 5.5 8.5-3 8.5-3-2 5.5-2 5.5-2 6-2 6 7.5 10 7.5 10 14.5-4 14.5-4-4.5-7-4.5-7-15 .5-15 .5 10-2.5 10-2.5 17.5-5.5 17.5-5.5-6 6.5-6 6.5 11.5 2 11.5 2-.5 15-.5 15 3 9.5 3 9.5-12.5-9-12.5-9-.5-7.5-.5-7.5-2 9.5-2 9.5 9 13.5 9 13.5 5 3.5 5 3.5 4.5 4 4.5 4 3.5 13 3.5 13 10-7 10-7-5-8.5-5-8.5 11.5 4 11.5 4 13.5 8 13.5 8 6 7.5 6 7.5" style="fill:#7be5ef;stroke:#7be5ef"/><path d="m603 922v1l.5-1 .5-1 1-1.5 1-1.5.5-1.5.5-1.5.5-2 .5-2 .5-1.5.5-1.5.5-1.5.5-1.5.5-2 .5-2-1.5 1-1.5 1-.5 1.5-.5 1.5-.5 2-.5 2-.5 1.5-.5 1.5-1 1.5-1 1.5-1.5.5-1.5.5-1 1.5-1 1.5 1.5.5 1.5.5 1 .5 1 .5" style="fill:#14c6e1;stroke:#14c6e1"/><path d="m589 911h3l1-1 1-1 1.5-.5 1.5-.5 1.5-1 1.5-1 .5-1.5.5-1.5h1.5 1.5l1.5-.5 1.5-.5 1-1.5 1-1.5 1.5-.5 1.5-.5v-1-1-.5-.5l-8.5-33-8.5-33-.5-.5-.5-.5-17.5-20.5-17.5-20.5-1-.5-1-.5-1-1-1-1-2 .5-2 .5-4.5 3-4.5 3-9.5-12-9.5-12-11-12.5-11-12.5-1 9.5-1 9.5-15-2.5-15-2.5-14-5.5-14-5.5-5.5 8.5-5.5 8.5-11 8.5-11 8.5 16.5-5 16.5-5 4 5.5 4 5.5-4 4.5-4 4.5 15.5-3 15.5-3-11 7-11 7 13.5-1 13.5-1 14.5 6 14.5 6 7 13.5 7 13.5-3 10.5-3 10.5 4.5 10 4.5 10 9 5 9 5 15 7.5 15 7.5 9 5.5 9 5.5" style="fill:#ffffea;stroke:#ffffea"/><path d="m233 898l-1-40-1.5-3-1.5-3 1.5 18.5 1.5 18.5.5 4.5.5 4.5" style="fill:#0a0800;stroke:#0a0800"/><path d="m612 895v1l-8.5-33.5-8.5-33.5 8.5 33 8.5 33" style="fill:#7be5ef;stroke:#7be5ef"/><path d="m95 888l21-17h1.5 1.5l.5-.5.5-.5-.5-1-.5-1h1 1l.5.5.5.5 1 .5 1 .5h1 1l.5 2.5.5 2.5 1.5-.5 1.5-.5v-2-2l-1-1.5-1-1.5-.5-1.5-.5-1.5-.5-2-.5-2v-1.5-1.5l-.5 2.5-.5 2.5v2 2h-1.5-1.5l-4.5-13-4.5-13 5.5-3 5.5-3h-1.5-1.5l-1 .5-1 .5-2-.5-2-.5-1.5-.5-1.5-.5h-2.5-2.5l-1-1-1-1-.5-1-.5-1-2-.5-2-.5-1 .5-1 .5-5 12-5 12-14.5 9.5-14.5 9.5 9-2.5 9-2.5 6-.5 6-.5 3 11 3 11" style="fill:#fa0;stroke:#fa0"/><path d="m129 882l-1-54-.5 1.5-.5 1.5v1 1l.5 1 .5 1 .5.5.5.5.5.5.5.5v1 1l-1.5-.5-1.5-.5-.5-1-.5-1-.5-1-.5-1v3 3h2.5 2.5v2.5 2.5l.5 1 .5 1 .5 1 .5 1 1 1 1 1v2.5 2.5l.5 1.5.5 1.5-.5 2-.5 2v2 2 2.5 2.5l-.5 1.5-.5 1.5-.5 1.5-.5 1.5h-2-2l-1 .5-1 .5-.5-.5-.5-.5-1-.5-1-.5h-1-1-1.5-1.5l1.5 1.5 1.5 1.5 2 .5 2 .5 2 .5 2 .5" style="fill:#0a67a5;stroke:#0a67a5"/><path d="m113 880v1l.5-1.5.5-1.5 1-1 1-1 1 .5 1 .5h1.5 1.5 1 1l1 .5 1 .5.5.5.5.5 1-.5 1-.5v-.5-.5l-.5-1-.5-1-.5-2.5-.5-2.5h-1-1l-1-.5-1-.5-.5-.5-.5-.5h-1-1l.5 1 .5 1-.5.5-.5.5h-1.5-1.5l-.5 1.5-.5 1.5-1 1.5-1 1.5v1.5 1.5" style="fill:#9b4600;stroke:#9b4600"/><path d="m361 878h2l.5-1.5.5-1.5-1.5-1-1.5-1-.5-1.5-.5-1.5-1-1.5-1-1.5-1-1-1-1-.5-1-.5-1-1-2-1-2-1-1-1-1-.5.5-.5.5v1.5 1.5l.5 1.5.5 1.5 1 1.5 1 1.5 1 1 1 1 .5 2 .5 2 1 2 1 2 1.5.5 1.5.5" style="fill:#0a67a5;stroke:#0a67a5"/><path d="m128 877v1h2 2l.5-1.5.5-1.5.5-1.5.5-1.5v-2.5-2.5-2-2l.5-2 .5-2-.5-1.5-.5-1.5v-2.5-2.5l-1-1-1-1-.5-1-.5-1-.5-1-.5-1-1.5.5-1.5.5h-2-2l-.5 1.5-.5 1.5-.5.5-.5.5v.5.5l1.5.5 1.5.5v1 1l1 1.5 1 1.5v1.5 1.5l.5 2 .5 2 .5 1.5.5 1.5 1 1.5 1 1.5v2 2l-1.5.5-1.5.5.5 1 .5 1" style="fill:#ffea7c;stroke:#ffea7c"/><path d="m357 876l1 1-1-2-1-2-.5-2-.5-2-1-1-1-1-1-1.5-1-1.5-.5-1.5-.5-1.5v-1.5-1.5l.5-.5.5-.5 1 1 1 1 1 2 1 2-13.5-23.5-13.5-23.5-10-14.5-10-14.5-1 1.5-1 1.5-1 1-1 1-1 1.5-1 1.5v1.5 1.5l17.5 24.5 17.5 24.5 10 14.5 10 14.5" style="fill:#14c6e1;stroke:#14c6e1"/><path d="m122 866h3v-2-2l.5-2.5.5-2.5-1-1.5-1-1.5v-1-1l-1.5-.5-1.5-.5v-.5-.5l.5-.5.5-.5.5-1.5.5-1.5h2 2l1.5-.5 1.5-.5v-2.5-2.5h-2.5-2.5v-3-3h-.5-.5l-5.5 3-5.5 3 4.5 13 4.5 13" style="fill:#9b4600;stroke:#9b4600"/><path d="m127 838l3 1v-1-1l-.5-.5-.5-.5-.5-.5-.5-.5-.5-1-.5-1v-1-1l.5-1.5.5-1.5v-1.5-1.5-.5-.5h-1.5-1.5l-1.5.5-1.5.5-1.5.5-1.5.5-1.5 1-1.5 1h-2-2-2.5-2.5l-1.5.5-1.5.5 2 1 2 1h2 2l2-.5 2-.5 1.5-.5 1.5-.5h1 1l1.5 1 1.5 1 .5 1.5.5 1.5.5 1 .5 1 .5 1 .5 1" style="fill:#7be5ef;stroke:#7be5ef"/><path d="m115 834l4 1 1-.5 1-.5h1.5 1.5.5.5l-.5-1.5-.5-1.5-1.5-1-1.5-1h-1-1l-1.5.5-1.5.5-2 .5-2 .5h-2-2l-2-1-2-1 .5 1 .5 1 1 1 1 1h2.5 2.5l1.5.5 1.5.5" style="fill:#ffea7c;stroke:#ffea7c"/><g style="fill:#14c6e1;stroke:#14c6e1"><path d="m87 832h2 2 2l.5-1.5.5-1.5-1.5-.5-1.5-.5-1-1-1-1h-1-1l-1 .5-1 .5-1.5-.5-1.5-.5h-1-1-1.5-1.5l-1.5.5-1.5.5 1.5 1 1.5 1 1 .5 1 .5 2-.5 2-.5h1 1l1 1.5 1 1.5"/><path d="m309 832l3 1-.5-1.5-.5-1.5-1.5-1-1.5-1-1-1-1-1-1-.5-1-.5-.5-.5-.5-.5-1.5-.5-1.5-.5-1-.5-1-.5-1-1-1-1 .5 1.5.5 1.5.5.5.5.5-1 .5-1 .5-.5.5-.5.5-.5.5-.5.5-.5.5-.5.5-.5 1.5-.5 1.5 1-.5 1-.5.5-.5.5-.5h1 1 2 2l1 .5 1 .5h1 1l1 .5 1 .5 1 .5 1 .5"/></g><path d="m72 828l5 1-1.5-1-1.5-1 1.5-.5 1.5-.5h1.5 1.5 1 1l1.5.5 1.5.5 1-.5 1-.5h1 1l1 1 1 1 1.5.5 1.5.5h2 2l1-.5 1-.5 2 .5 2 .5 1.5-.5 1.5-.5h2.5 2.5 2 2l1.5-1 1.5-1 1.5-.5 1.5-.5 1.5-.5 1.5-.5h1.5 1.5v.5.5 1.5 1.5l-29-1-29-1 .5 1 .5 1h.5.5" style="fill:#0a67a5;stroke:#0a67a5"/><path d="m594 828l1 1-1-2-1-2-1-1.5-1-1.5-1-1-1-1-1-1.5-1-1.5-1-2-1-2-.5-1-.5-1-.5-.5-.5-.5-.5-.5-.5-.5-1-1-1-1-.5-1-.5-1-.5-.5-.5-.5-1-1-1-1-1-.5-1-.5-.5-.5-.5-.5-1-1-1-1-.5-1-.5-1-.5-.5-.5-.5-.5-.5-.5-.5-1-.5-1-.5-1.5-.5-1.5-.5-.5-.5-.5-.5v-1-1l-.5-.5-.5-.5-1-.5-1-.5 17.5 20.5 17.5 20.5" style="fill:#7be5ef;stroke:#7be5ef"/><path d="m402 771l28-23-3-7.5-3-7.5-3-1.5-3-1.5-5 6-5 6-2.5 14-2.5 14-.5.5-.5.5" style="fill:#ffffea;stroke:#ffffea"/><path d="m423 762l47-11 11.5 3 11.5 3 1.5-8 1.5-8h-20.5-20.5l-15-7.5-15-7.5-1 18-1 18" style="fill:#14c6e1;stroke:#14c6e1"/><path d="m187 756l13-62 7-17.5 7-17.5 5.5-18 5.5-18 6-20 6-20 7-20 7-20-7 18-7 18-5.5 18.5-5.5 18.5-6 18.5-6 18.5-6.5 18-6.5 18-7 32-7 32-4-20.5-4-20.5-1-21-1-21-7.5-10-7.5-10-15.5-14-15.5-14 17 20 17 20 6 27.5 6 27.5 5 19.5 5 19.5" style="fill:#7be5ef;stroke:#7be5ef"/><g style="fill:#ffffea;stroke:#ffffea"><path d="m187 753l14-64 6.5-18 6.5-18 6-18.5 6-18.5 5.5-18.5 5.5-18.5 7-18 7-18 .5-1 .5-1v-.5-.5l6.5-18.5 6.5-18.5 6-18.5 6-18.5 10.5-23.5 10.5-23.5v-1.5-1.5-1.5-1.5l.5-1.5.5-1.5.5-.5.5-.5v-1-1-1-1l.5-1 .5-1v-1-1-1-1-1-1l.5-1 .5-1v-1-1-1-1l-.5-.5-.5-.5.5-1 .5-1v-2.5-2.5l-.5-.5-.5-.5-2.5-22.5-2.5-22.5-2-21.5-2-21.5h-7.5-7.5l-8.5 8-8.5 8v20.5 20.5l-4-19.5-4-19.5h-4-4l-2 6.5-2 6.5-6-12.5-6-12.5h-6.5-6.5l-4 9.5-4 9.5-1.5 6-1.5 6-8-7.5-8-7.5-10 6-10 6-21 15.5-21 15.5-9 14.5-9 14.5-8 29.5-8 29.5-6-10.5-6-10.5v2 2l-.5.5-.5.5-.5.5-.5.5-.5.5-.5.5-.5 1-.5 1-.5.5-.5.5v1 1 1 1l-.5 1-.5 1-.5.5-.5.5-.5.5-.5.5v1 1l-.5 1-.5 1-.5.5-.5.5v1 1l-.5 1-.5 1-1 21.5-1 21.5 3.5 20.5 3.5 20.5 3.5 20 3.5 20 25 22.5 25 22.5 15.5 14 15.5 14 7.5 10 7.5 10 1 21 1 21 4 20.5 4 20.5"/><path d="m378 750l31-20-14.5 8-14.5 8-1 2-1 2"/></g><path d="m335 747l3 1v-2-2l-.5-2-.5-2h-2-2l-2-.5-2-.5-1-1-1-1-1.5 1-1.5 1-1 1-1 1v2 2h1.5 1.5l1-.5 1-.5.5-1 .5-1h1.5 1.5 1 1l.5.5.5.5v1 1l.5 1 .5 1" style="fill:#7be5ef;stroke:#7be5ef"/><path d="m370 745l31-20 1-5.5 1-5.5-12 10.5-12 10.5-4.5 5-4.5 5" style="fill:#ffffea;stroke:#ffffea"/><path d="m517 745l2 1-5.5-12-5.5-12-3.5-1-3.5-1-3 9-3 9 1.5-1 1.5-1 1 1 1 1 2 .5 2 .5 1 1 1 1 2-.5 2-.5 1 1 1 1 1.5.5 1.5.5 1 1 1 1" style="fill:#14c6e1;stroke:#14c6e1"/><path d="m318 736l45-14 12-12.5 12-12.5 14.5-10 14.5-10 5-14.5 5-14.5-6-18.5-6-18.5-6.5-19-6.5-19-5.5 2.5-5.5 2.5-8 11.5-8 11.5 10 9 10 9 8.5 9 8.5 9-15 4.5-15 4.5-2 4.5-2 4.5 1.5 11 1.5 11-4.5 6-4.5 6-8.5-1-8.5-1-.5-9.5-.5-9.5-3.5-10-3.5-10-5-4.5-5-4.5-4.5 1-4.5 1-6 15.5-6 15.5 7 4.5 7 4.5-6 12-6 12-1.5-.5-1.5-.5.5 2.5.5 2.5.5 1.5.5 1.5v2.5 2.5l.5 1.5.5 1.5v2 2l.5 2 .5 2v2 2 2 2" style="fill:#0a0800;stroke:#0a0800"/><path d="m452 736l21-14-13.5-2-13.5-2 3 9 3 9" style="fill:#14c6e1;stroke:#14c6e1"/><path d="m533 722l-12-27-3.5-16-3.5-16v13.5 13.5l-10 2-10 2 4-16.5 4-16.5-6.5 12-6.5 12-8-9.5-8-9.5 1.5 7 1.5 7-11-11.5-11-11.5-2-20-2-20-3.5 4-3.5 4-5 13.5-5 13.5 7.5 5 7.5 5 7 8.5 7 8.5 7.5 8 7.5 8 16.5 8 16.5 8 11.5 5.5 11.5 5.5" style="fill:#0a0800;stroke:#0a0800"/><path d="m176 716l1 1-6-27.5-6-27.5 5.5 27 5.5 27" style="fill:#14c6e1;stroke:#14c6e1"/><path d="m432 713l-20-27-4.5 9-4.5 9 14.5 4.5 14.5 4.5" style="fill:#7be5ef;stroke:#7be5ef"/><path d="m466 713l-11-26-.5 4-.5 4 6 9 6 9" style="fill:#0a0800;stroke:#0a0800"/><path d="m317 705l12-24-7-4.5-7-4.5 6-15.5 6-15.5 4.5-1 4.5-1 5 4.5 5 4.5 3.5 10 3.5 10 .5 9.5.5 9.5 8.5 1 8.5 1 4.5-6 4.5-6-1.5-11-1.5-11 2-4.5 2-4.5 15-4.5 15-4.5-8.5-9-8.5-9-10-9-10-9 8-11.5 8-11.5 5.5-2.5 5.5-2.5-.5-2-.5-2-6 6.5-6 6.5-8 13.5-8 13.5 9.5 10 9.5 10-4 8-4 8-6.5 1-6.5 1-2.5 19-2.5 19-7-9-7-9-2.5-11-2.5-11-3-6.5-3-6.5-9.5 3-9.5 3-6-12.5-6-12.5 9.5-15 9.5-15-3-15-3-15 3.5-18 3.5-18-8 13.5-8 13.5-3-26.5-3-26.5 1.5 29.5 1.5 29.5 7-16.5 7-16.5-2 17.5-2 17.5-7 29-7 29-2.5 15-2.5 15 4 18 4 18 .5 1.5.5 1.5 6-18.5 6-18.5-4 13-4 13 2.5 18 2.5 18-1.5-.5-1.5-.5-.5-1-.5-1-.5-1.5-.5-1.5v-1-1l-.5-.5-.5-.5-1-1-1-1 .5 2.5.5 2.5.5 2 .5 2 .5 1 .5 1 1.5.5 1.5.5" style="fill:#9b4600;stroke:#9b4600"/><path d="m319 704l-5-36 4-13 4-13-6 18.5-6 18.5v.5.5.5.5l1 1 1 1-.5 1.5-.5 1.5v2 2 1.5 1.5l1 1 1 1 .5.5.5.5v1 1l.5 1.5.5 1.5.5 1 .5 1 1.5.5 1.5.5" style="fill:#fa0;stroke:#fa0"/><path d="m306 695l3 1 .5-1.5.5-1.5-.5-2-.5-2 .5-1.5.5-1.5v-2.5-2.5-.5-.5h-1.5-1.5l-1-1.5-1-1.5-.5 1.5-.5 1.5 1 1.5 1 1.5-.5 1.5-.5 1.5.5 1.5.5 1.5v3 3" style="fill:#14c6e1;stroke:#14c6e1"/><path d="m344 693h2 2 2l1-1.5 1-1.5-1-1-1-1-2-.5-2-.5-1.5-.5-1.5-.5-2-.5-2-.5-.5 1.5-.5 1.5 1 1 1 1 1.5 1 1.5 1 .5.5.5.5" style="fill:#9b4600;stroke:#9b4600"/><path d="m264 687l12-19-.5-15-.5-15 1-12.5 1-12.5 3-14 3-14-4.5-3-4.5-3-3.5-7-3.5-7 3-5.5 3-5.5-3-3.5-3-3.5-4 3.5-4 3.5 4 15 4 15 3 8.5 3 8.5-5.5 7-5.5 7-1 17.5-1 17.5-1 17.5-1 17.5 3 1 3 1" style="fill:#14c6e1;stroke:#14c6e1"/><path d="m365 685l5-38 6.5-1 6.5-1 4-8 4-8-9.5-10-9.5-10 8-13.5 8-13.5 6-6.5 6-6.5-.5-2-.5-2-.5-.5-.5-.5-9-3.5-9-3.5-10.5-6-10.5-6-2.5-8.5-2.5-8.5 11.5-7 11.5-7 3-17 3-17v-.5-.5l-.5-2-.5-2-.5-2-.5-2-.5-1.5-.5-1.5v-2-2l-.5-2-.5-2-.5-1.5-.5-1.5v-2.5-2.5l.5-2 .5-2v-.5-.5l-3.5 5-3.5 5-7 5.5-7 5.5-4.5 9-4.5 9-8.5 5.5-8.5 5.5-9-8.5-9-8.5-4.5-4-4.5-4v3 3 1.5 1.5l.5.5.5.5v2 2 1.5 1.5l.5 1 .5 1 3 26.5 3 26.5 8-13.5 8-13.5-3.5 18-3.5 18 3 15 3 15-9.5 15-9.5 15 6 12.5 6 12.5 9.5-3 9.5-3 3 6.5 3 6.5 2.5 11 2.5 11 7 9 7 9" style="fill:#fa0;stroke:#fa0"/><path d="m308 675l1 1-4-18-4-18v1.5 1.5 1.5 1.5l.5.5.5.5.5 1.5.5 1.5v1.5 1.5l.5.5.5.5v2 2 1.5 1.5l.5.5.5.5v2 2l.5 1.5.5 1.5.5 1 .5 1v1 1l.5 1 .5 1" style="fill:#0a0800;stroke:#0a0800"/><path d="m467 663l3 1 1-1 1-1 1-1.5 1-1.5.5-1.5.5-1.5.5-1.5.5-1.5-1 1-1 1-1 1.5-1 1.5-.5 1.5-.5 1.5h-1-1l-1-2-1-2h-1-1l-1-1.5-1-1.5-.5-1.5-.5-1.5-1-1.5-1-1.5-.5-1.5-.5-1.5-2-1.5-2-1.5v1 1l.5 1.5.5 1.5.5 1 .5 1 .5.5.5.5 1 1 1 1 .5 1 .5 1 .5.5.5.5v1 1l.5.5.5.5.5 1 .5 1 .5.5.5.5 1 1 1 1" style="fill:#ffea7c;stroke:#ffea7c"/><path d="m469 661h2l.5-1.5.5-1.5 1-1.5 1-1.5 1-1 1-1v-.5-.5l12-22.5 12-22.5v-.5-.5l4-20.5 4-20.5v-22.5-22.5l-7-17.5-7-17.5-4-4.5-4-4.5-1.5-12-1.5-12-2-21-2-21-5-18.5-5-18.5-4.5-20-4.5-20-8.5-12-8.5-12-12.5-10-12.5-10 2.5 7 2.5 7-4.5-2-4.5-2 .5 4.5.5 4.5-9-14.5-9-14.5-2 3.5-2 3.5 5.5 19 5.5 19-5-9.5-5-9.5-7.5-17-7.5-17 1.5 13.5 1.5 13.5 8 22 8 22 8 8.5 8 8.5 3 16 3 16 3.5 21.5 3.5 21.5 3 21.5 3 21.5 3.5 20 3.5 20 3 21.5 3 21.5 4.5 41 4.5 41 2 1.5 2 1.5.5 1.5.5 1.5 1 1.5 1 1.5.5 1.5.5 1.5 1 1.5 1 1.5h1 1l1 2 1 2" style="fill:#ffffea;stroke:#ffffea"/><path d="m476 652v1l12-23 12-23-12 22.5-12 22.5" style="fill:#ffea7c;stroke:#ffea7c"/><path d="m240 647l7-33 1-17.5 1-17.5 2-19 2-19h-.5-.5l-.5 1-.5 1-7 20-7 20 1.5 32 1.5 32" style="fill:#14c6e1;stroke:#14c6e1"/><g style="fill:#7be5ef;stroke:#7be5ef"><path d="m454 643l1 1v-1-1l-4.5-41-4.5-41-3-21.5-3-21.5-3.5-20-3.5-20-3-21.5-3-21.5-3.5-21.5-3.5-21.5-.5-.5-.5-.5v-1.5-1.5l3 21.5 3 21.5 3 20.5 3 20.5 3.5 21 3.5 21 3 21.5 3 21.5 3 21 3 21 2 22.5 2 22.5"/><path d="m129 621l2 1-25-22.5-25-22.5-3.5-20-3.5-20-3.5-20.5-3.5-20.5 1-21.5 1-21.5v-.5-.5l-.5-1-.5-1 1.5 41 1.5 41 3.5 20 3.5 20 9.5 15 9.5 15 16 9.5 16 9.5"/></g><path d="m350 621h2l1-1 1-1 1-1.5 1-1.5v-2-2l-1.5-1-1.5-1-1.5.5-1.5.5-.5 2-.5 2-.5 1.5-.5 1.5.5 1.5.5 1.5h.5.5" style="fill:#9b4600;stroke:#9b4600"/><path d="m306 609v1l7-29 7-29 2-17.5 2-17.5-7 16.5-7 16.5-2 29.5-2 29.5" style="fill:#0a0800;stroke:#0a0800"/><path d="m500 606v1l.5-1 .5-1 .5-.5.5-.5v-1-1l.5-.5.5-.5v-1.5-1.5l.5-.5.5-.5v-1-1l.5-.5.5-.5v-1.5-1.5l.5-.5.5-.5v-1-1-1-1l.5-1 .5-1v-1-1-1-1l.5-.5.5-.5v-1-1-1-1l.5-2 .5-2-4-33.5-4-33.5-5-19.5-5-19.5-4-20.5-4-20.5-3.5-21-3.5-21-5.5-19-5.5-19-6.5-18-6.5-18-13.5-10.5-13.5-10.5-14-10.5-14-10.5h-2-2l-1.5-1.5-1.5-1.5-1-1.5-1-1.5-1-1-1-1-1-1.5-1-1.5-1-1-1-1-1-1.5-1-1.5-1-1-1-1-1-.5-1-.5v-1-1l-1.5-1-1.5-1-1 1-1 1-.5 2-.5 2 1 .5 1 .5.5-.5.5-.5 1-.5 1-.5-.5 1.5-.5 1.5-.5.5-.5.5v1.5 1.5l.5 1.5.5 1.5-.5.5-.5.5-1-.5-1-.5-1 1-1 1v1 1 1.5 1.5l.5 1.5.5 1.5.5 2.5.5 2.5.5 1 .5 1v1 1 1 1l.5 1 .5 1 .5.5.5.5.5.5.5.5.5.5.5.5v1.5 1.5 1 1l.5 1 .5 1 1 2 1 2 .5 1 .5 1 1 .5 1 .5-1.5-13.5-1.5-13.5 7.5 17 7.5 17 5 9.5 5 9.5-5.5-19-5.5-19 2-3.5 2-3.5 9 14.5 9 14.5-.5-4.5-.5-4.5 4.5 2 4.5 2-2.5-7-2.5-7 12.5 10 12.5 10 8.5 12 8.5 12 4.5 20 4.5 20 5 18.5 5 18.5 2 21 2 21 1.5 12 1.5 12 4 4.5 4 4.5 7 17.5 7 17.5v22.5 22.5l-4 20.5-4 20.5" style="fill:#ffea7c;stroke:#ffea7c"/><path d="m354 603l6-33-8 11.5-8 11.5 5 5 5 5" style="fill:#9b4600;stroke:#9b4600"/><path d="m309 591l-2-47-1.5-15-1.5-15-1.5-11-1.5-11v-12.5-12.5l-1-21-1-21-14.5 32-14.5 32 8-11 8-11 4.5 1 4.5 1-7 8.5-7 8.5 4.5 18 4.5 18 6 18 6 18 3.5 16.5 3.5 16.5" style="fill:#14c6e1;stroke:#14c6e1"/><path d="m71 583l3 1 1.5-.5 1.5-.5v-2.5-2.5l-1-1-1-1h-2.5-2.5l-1 1-1 1 1 1.5 1 1.5.5 1 .5 1" style="fill:#0a0800;stroke:#0a0800"/><path d="m60 571h2l.5-1.5.5-1.5 1-1.5 1-1.5.5-1.5.5-1.5.5-1.5.5-1.5.5-1 .5-1-1.5.5-1.5.5-1 1-1 1-1 1-1 1-.5 1-.5 1v1 1 2.5 2.5" style="fill:#0a67a5;stroke:#0a67a5"/><path d="m273 569l10-25-3-1.5-3-1.5-2 14-2 14" style="fill:#14c6e1;stroke:#14c6e1"/><path d="m398 564l1 1-.5-2.5-.5-2.5-.5-2-.5-2-.5-1.5-.5-1.5-.5-2-.5-2-.5-1-.5-1-2-1-2-1-1.5.5-1.5.5v2 2 2.5 2.5l-1 1-1 1h-1.5-1.5l-6.5-5-6.5-5 1-8.5 1-8.5 6.5-20 6.5-20v-2.5-2.5-2-2-.5-.5h-.5-.5l-3 17-3 17-11.5 7-11.5 7 2.5 8.5 2.5 8.5 10.5 6 10.5 6 9 3.5 9 3.5" style="fill:#9b4600;stroke:#9b4600"/><path d="m382 557h3l1-1 1-1v-2.5-2.5-2-2l1.5-.5 1.5-.5 2 1 2 1-5-28.5-5-28.5-6.5 20-6.5 20-1 8.5-1 8.5 6.5 5 6.5 5" style="fill:#0a0800;stroke:#0a0800"/><path d="m68 556v1l1-.5 1-.5.5-1.5.5-1.5-.5-2-.5-2v-.5-.5l.5-1 .5-1-1-.5-1-.5h-1-1l-.5-.5-.5-.5-.5.5-.5.5v1.5 1.5l-.5.5-.5.5-.5.5-.5.5v1 1l.5.5.5.5 1 .5 1 .5 1 1 1 1" style="fill:#0a67a5;stroke:#0a67a5"/><path d="m252 540v1h.5.5l.5-1 .5-1 .5-1.5.5-1.5.5-1.5.5-1.5v-.5-.5l7-21.5 7-21.5 14.5-32 14.5-32v-2-2l-.5-1-.5-1-10.5 23.5-10.5 23.5-6 18.5-6 18.5-6.5 18.5-6.5 18.5" style="fill:#7be5ef;stroke:#7be5ef"/><path d="m256 532v1l7-22 7-22-7 21.5-7 21.5" style="fill:#14c6e1;stroke:#14c6e1"/><path d="m704 531l3 1 .5-1.5.5-1.5 1-1.5 1-1.5-.5-1.5-.5-1.5-.5-2-.5-2-1-1-1-1-1 .5-1 .5-.5 1.5-.5 1.5-.5 1.5-.5 1.5.5 2 .5 2 .5 1.5.5 1.5" style="fill:#0a67a5;stroke:#0a67a5"/><path d="m389 508l9-52 4-20 4-20 5.5-19 5.5-19-9.5-17-9.5-17-.5-.5-.5-.5-8.5-23-8.5-23-6 1.5-6 1.5v21 21 1.5 1.5l.5 1 .5 1v1.5 1.5 2 2 2.5 2.5l4.5 38 4.5 38v.5.5l.5 1.5.5 1.5v2 2 2 2 .5.5l.5 1.5.5 1.5v2 2l.5.5.5.5v1.5 1.5l.5 1.5.5 1.5v2.5 2.5l.5 1.5.5 1.5.5 2 .5 2v3 3 .5.5l.5 1.5.5 1.5v2 2l.5 2 .5 2v2 2l.5 1 .5 1v1 1l.5 1.5.5 1.5v1.5 1.5l.5 1 .5 1" style="fill:#14c6e1;stroke:#14c6e1"/><path d="m332 497l17-11 4.5-9 4.5-9 7-5.5 7-5.5 3.5-5 3.5-5v-2-2-2-2l-.5-1.5-.5-1.5v-.5-.5l-.5-.5-.5-.5-.5-1.5-.5-1.5-3 16-3 16h-13-13l-10 .5-10 .5 4 15.5 4 15.5-14.5-20.5-14.5-20.5v2 2 1.5 1.5 1 1 1 1l.5.5.5.5v2 2l.5 1 .5 1 4.5 4 4.5 4 9 8.5 9 8.5" style="fill:#9b4600;stroke:#9b4600"/><path d="m332 495l-8-31 10-.5 10-.5h13 13l3-16 3-16-3.5-34.5-3.5-34.5-15 9.5-15 9.5-16.5-.5-16.5-.5 5 3 5 3 6.5 12 6.5 12-14 6-14 6v1.5 1.5 2.5 2.5 2 2 2.5 2.5 2 2l.5 2 .5 2 .5 1.5.5 1.5v2 2l14.5 20.5 14.5 20.5" style="fill:#0a0800;stroke:#0a0800"/><path d="m389 484l10-41-8.5-8-8.5-8 1.5 15 1.5 15 1.5 11.5 1.5 11.5.5 2 .5 2" style="fill:#7be5ef;stroke:#7be5ef"/><g style="fill:#0a67a5;stroke:#0a67a5"><path d="m383 479v1h.5.5v-3-3l-.5-2-.5-2-.5-1.5-.5-1.5v-2.5-2.5l-.5-1.5-.5-1.5v-1.5-1.5l-.5-.5-.5-.5v-2-2l-.5-1.5-.5-1.5-.5 2-.5 2v2.5 2.5l.5 1.5.5 1.5.5 2 .5 2v2 2l.5 1.5.5 1.5.5 2 .5 2 .5 2 .5 2"/><path d="m69 452v1l.5-1 .5-1v-1-1l.5-.5.5-.5.5-1 .5-1v-1-1l.5-.5.5-.5.5-.5.5-.5.5-1 .5-1v-1-1-1-1l.5-.5.5-.5.5-1 .5-1 .5-.5.5-.5.5-.5.5-.5.5-.5.5-.5v-2-2-1.5-1.5l.5-1.5.5-1.5 1-1.5 1-1.5 1-1 1-1 .5-2 .5-2 1-1 1-1 .5-1.5.5-1.5 1.5-1 1.5-1 1-1 1-1 1-2.5 1-2.5.5-2 .5-2 .5-.5.5-.5.5-.5.5-.5.5-.5.5-.5.5-1 .5-1 .5-.5.5-.5h1 1l.5-.5.5-.5.5-1 .5-1 .5-.5.5-.5v-1-1l.5-.5.5-.5 1-1.5 1-1.5.5-1.5.5-1.5.5-1.5.5-1.5 1-1.5 1-1.5 1-1 1-1 1-1.5 1-1.5.5-1.5.5-1.5.5-2 .5-2 .5-1.5.5-1.5 1.5-1 1.5-1v-1-1l.5-1 .5-1v-.5-.5-1-1l1-1 1-1 .5-2 .5-2-14 23-14 23-8.5 16-8.5 16-7.5 17-7.5 17 .5 1 .5 1"/></g><path d="m459 452l-4-41-4-9.5-4-9.5 4.5 19 4.5 19 1.5 11 1.5 11" style="fill:#ffea7c;stroke:#ffea7c"/><path d="m357 448h2l1.5-.5 1.5-.5 1.5-1 1.5-1 .5-1 .5-1-1.5.5-1.5.5-1 1-1 1-2.5.5-2.5.5-1.5-1-1.5-1-1.5.5-1.5.5h-1-1l-1-1.5-1-1.5.5-2 .5-2 1-1 1-1 1.5-1 1.5-1 .5-2 .5-2h-.5-.5l-.5 1-.5 1-1 1-1 1-1 1-1 1-1 1.5-1 1.5-.5 1.5-.5 1.5.5 2 .5 2 1.5.5 1.5.5 2-.5 2-.5 1.5.5 1.5.5h1 1" style="fill:#9b4600;stroke:#9b4600"/><path d="m92 447l16-59 9-14.5 9-14.5-.5-1-.5-1-.5-1.5-.5-1.5.5-.5.5-.5-.5-1-.5-1-1.5 1-1.5 1-.5 1.5-.5 1.5-.5 2-.5 2-.5 1.5-.5 1.5-1 1.5-1 1.5-1 1-1 1-1 1.5-1 1.5-.5 1.5-.5 1.5-.5 1.5-.5 1.5-.5 1.5-.5 1.5-.5 1-.5 1-.5 1.5-.5 1.5-.5.5-.5.5-.5.5-.5.5v1 1l-.5 1-.5 1v1 1l-.5.5-.5.5v1 1l-.5 1-.5 1-.5.5-.5.5v1 1l-.5.5-.5.5-.5 1-.5 1v1 1l-.5.5-.5.5-.5.5-.5.5.5-2 .5-2v-1-1-1.5-1.5-1-1h-1-1l-1 2.5-1 2.5-1 1-1 1-1.5 1-1.5 1-.5 1.5-.5 1.5-1 1-1 1-.5 2-.5 2-1 1-1 1-1 1.5-1 1.5-.5 1.5-.5 1.5v1.5 1.5l6 10.5 6 10.5" style="fill:#7be5ef;stroke:#7be5ef"/><path d="m348 446h2l1.5-.5 1.5-.5 1.5 1 1.5 1 2.5-.5 2.5-.5-1.5-.5-1.5-.5h-1.5-1.5l-1-1.5-1-1.5v-2-2l-.5-1.5-.5-1.5-1.5 1-1.5 1-1 1-1 1-.5 2-.5 2 1 1.5 1 1.5" style="fill:#fa0;stroke:#fa0"/><path d="m358 445l3 1 1-1 1-1 1.5-.5 1.5-.5.5-.5.5-.5v-.5-.5-.5-.5h-1.5-1.5l-.5-1-.5-1-1 .5-1 .5-1-1-1-1-.5-1.5-.5-1.5v-2.5-2.5l-1 .5-1 .5-1.5.5-1.5.5-.5 2-.5 2 .5 1.5.5 1.5v2 2l1 1.5 1 1.5h1.5 1.5" style="fill:#ffea7c;stroke:#ffea7c"/><path d="m367 441v1l.5-1 .5-1 .5-1.5.5-1.5-.5-2-.5-2-1-1-1-1-1-1.5-1-1.5-1.5-.5-1.5-.5-.5-2-.5-2-1-1-1-1v-.5-.5l-.5-.5-.5-.5-1-.5-1-.5-.5 2-.5 2-1 1.5-1 1.5.5 1.5.5 1.5-.5 1.5-.5 1.5h.5.5l1.5-.5 1.5-.5 1-.5 1-.5 1 .5 1 .5h1.5 1.5l.5.5.5.5v1 1 1 1l1 .5 1 .5.5.5.5.5v1.5 1.5.5.5" style="fill:#0a67a5;stroke:#0a67a5"/><path d="m364 440h3v-1.5-1.5l-.5-.5-.5-.5-1-.5-1-.5v-1-1-1-1l-.5-.5-.5-.5h-1.5-1.5l-1-.5-1-.5v2.5 2.5l.5 1.5.5 1.5 1 1 1 1 1-.5 1-.5.5 1 .5 1" style="fill:#ffffea;stroke:#ffffea"/><path d="m377 434l1 1-4.5-38-4.5-38v1.5 1.5l3.5 34.5 3.5 34.5.5 1.5.5 1.5" style="fill:#0a67a5;stroke:#0a67a5"/><g style="fill:#9b4600;stroke:#9b4600"><path d="m300 421l1 1 14-6 14-6-6.5-12-6.5-12-5-3-5-3 16.5.5 16.5.5h-2-2-1-1l-.5.5-.5.5h-1.5-1.5-1-1-1-1l-1.5-.5-1.5-.5-2.5-.5-2.5-.5-1.5-.5-1.5-.5-2-.5-2-.5-1.5-.5-1.5-.5-2 .5-2 .5-.5 2.5-.5 2.5v2.5 2.5l-.5 1-.5 1 .5.5.5.5v1 1 1 1l-.5 1-.5 1v1 1 1 1 1 1l-.5 1-.5 1v1 1 1 1l-.5.5-.5.5-.5 1.5-.5 1.5v1.5 1.5 1.5 1.5l.5 1 .5 1h.5.5"/><path d="m357 419l1 1 1.5-22 1.5-22-3 20.5-3 20.5v.5.5l1 .5 1 .5"/></g><path d="m300 412l31-10-13.5-1-13.5-1-2 6-2 6" style="fill:#fa0;stroke:#fa0"/><path d="m97 408l1-1 .5-.5.5-.5v-1-1l.5-1 .5-1 .5-.5.5-.5v-1-1l.5-.5.5-.5.5-1 .5-1v-1-1l.5-.5.5-.5v-1-1l.5-1 .5-1v-1-1l.5-.5.5-.5.5-.5.5-.5.5-1.5.5-1.5.5-1 .5-1 .5-1.5.5-1.5-1 1.5-1 1.5-.5.5-.5.5v1 1l-.5.5-.5.5-.5 1-.5 1-.5.5-.5.5h-1-1l-.5.5-.5.5-.5 1-.5 1-.5.5-.5.5-.5.5-.5.5-.5.5-.5.5-.5 2-.5 2h1 1v1 1 1.5 1.5 1 1l-.5 2-.5 2" style="fill:#14c6e1;stroke:#14c6e1"/><g style="fill:#ffea7c;stroke:#ffea7c"><path d="m419 390l1 1-3-16-3-16-8-8.5-8-8.5v1 1l9.5 17 9.5 17 .5 1.5.5 1.5.5 1.5.5 1.5v1.5 1.5 1.5 1.5"/><path d="m301 382l1 1 .5-2.5.5-2.5 2-.5 2-.5 1.5.5 1.5.5 2 .5 2 .5 1.5.5 1.5.5 2.5.5 2.5.5 2.5-8.5 2.5-8.5 9.5 6 9.5 6 1-9.5 1-9.5 4.5-9.5 4.5-9.5-12.5 2-12.5 2-10.5-5-10.5-5-7-6.5-7-6.5 12.5-3 12.5-3-20.5-16.5-20.5-16.5-.5 1-.5 1v1 1l-1 .5-1 .5-.5.5-.5.5-.5.5-.5.5-.5.5-.5.5-1 .5-1 .5-1.5.5-1.5.5-1.5-.5-1.5-.5-1-1-1-1-1 .5-1 .5-1.5-.5-1.5-.5-.5-.5-.5-.5h-1.5-1.5-1-1-2.5-2.5l-1-.5-1-.5-2 .5-2 .5v1.5 1.5h-1-1l-2-1-2-1h-2.5-2.5-5.5-5.5l-11.5 11-11.5 11-15-.5-15-.5-1.5.5-1.5.5-.5.5-.5.5-.5.5-.5.5-.5.5-.5.5-1 .5-1 .5-1 .5-1 .5.5 2 .5 2-1 1-1 1-1.5 1-1.5 1-1 1-1 1-1.5 1-1.5 1-1.5.5-1.5.5h-1-1-1-1l-1 .5-1 .5-1 1-1 1-1 1.5-1 1.5-1.5.5-1.5.5-1 1.5-1 1.5h1.5 1.5 1 1l.5-1 .5-1 .5-1.5.5-1.5.5-.5.5-.5.5-.5.5-.5h1 1l-.5 1-.5 1v1 1l-.5.5-.5.5-.5.5-.5.5-1 .5-1 .5v2 2l-.5.5-.5.5-1 .5-1 .5-1.5.5-1.5.5h-1.5-1.5l-.5 1-.5 1-1 .5-1 .5-.5 1-.5 1v1 1l.5 1 .5 1-.5.5-.5.5.5 1.5.5 1.5.5 1 .5 1 21-15.5 21-15.5 10-6 10-6 8 7.5 8 7.5 1.5-6 1.5-6 4-9.5 4-9.5h6.5 6.5l6 12.5 6 12.5 2-6.5 2-6.5h4 4l4 19.5 4 19.5v-20.5-20.5l8.5-8 8.5-8h7.5 7.5l2 21.5 2 21.5 2.5 22.5 2.5 22.5"/></g><path d="m322 381l3 1h1 1 1 1 1.5 1.5l.5-.5.5-.5h1 1 2 2l15-9.5 15-9.5v-1.5-1.5-2.5-2.5-2-2-1.5-1.5l-.5-1-.5-1v-1.5-1.5-.5-.5-1.5-1.5l-.5-.5-.5-.5v-2-2l-.5-.5-.5-.5v-1.5-1.5l-.5-1-.5-1v-1-1-1-1-1-1l-.5-1-.5-1v-2-2-1-1l-.5-.5-.5-.5v-1-1-1.5-1.5-1-1-1-1-1-1-1.5-1.5-1-1-1-1l.5-.5.5-.5.5-1.5.5-1.5 1-1.5 1-1.5v-1-1-1.5-1.5-2-2l.5-1.5.5-1.5.5-2 .5-2 1 1 1 1-.5-2.5-.5-2.5-.5-1.5-.5-1.5v-1.5-1.5-1-1l1-1 1-1 1 .5 1 .5.5-.5.5-.5-.5-1.5-.5-1.5v-1.5-1.5l.5-.5.5-.5.5-1.5.5-1.5-1 .5-1 .5-.5.5-.5.5-1-.5-1-.5v1 1 2 2l-1.5 1-1.5 1-.5 1.5-.5 1.5-1.5 1-1.5 1h-1-1l8-16.5 8-16.5 16-8 16-8 1-22 1-22-2.5-19-2.5-19-11-13.5-11-13.5 2-14.5 2-14.5-16-6.5-16-6.5h-14.5-14.5l-2 6-2 6-10 12.5-10 12.5-4.5 18-4.5 18 2.5 16 2.5 16 4.5 20 4.5 20-3.5 21-3.5 21-1 1.5-1 1.5-1 1-1 1-1 2-1 2v1.5 1.5 1 1l.5.5.5.5.5 1 .5 1-.5.5-.5.5-.5.5-.5.5-.5 1-.5 1-1 1.5-1 1.5-1 1-1 1h-.5-.5l-.5-.5-.5-.5-1.5-.5-1.5-.5-1 .5-1 .5v1 1l-.5 1-.5 1-.5 1-.5 1 20.5 16.5 20.5 16.5-12.5 3-12.5 3 7 6.5 7 6.5 10.5 5 10.5 5 12.5-2 12.5-2-4.5 9.5-4.5 9.5-1 9.5-1 9.5-9.5-6-9.5-6-2.5 8.5-2.5 8.5" style="fill:#fa0;stroke:#fa0"/><path d="m125 346v1l1-.5 1-.5.5-1 .5-1v-.5-.5l.5-1 .5-1v-1-1l1-1 1-1 1-1.5 1-1.5 1.5-.5 1.5-.5 1-1.5 1-1.5 1-1 1-1 1-.5 1-.5 1-1.5 1-1.5 1.5-.5 1.5-.5 1-.5 1-.5 1.5-.5 1.5-.5.5-2 .5-2 1-1 1-1 1.5-.5 1.5-.5 1-.5 1-.5 1-.5 1-.5.5-.5.5-.5.5-.5.5-.5.5-.5.5-.5 1.5-.5 1.5-.5 12-14.5 12-14.5h-1.5-1.5l-17.5 17.5-17.5 17.5-13 12-13 12-.5 2-.5 2-1 1-1 1v1 1" style="fill:#9b4600;stroke:#9b4600"/><path d="m128 343v1h1.5 1.5l1.5-.5 1.5-.5 1-.5 1-.5.5-.5.5-.5v-2-2l1-.5 1-.5.5-.5.5-.5.5-.5.5-.5v-1-1l.5-1 .5-1h-1-1l-.5.5-.5.5-.5.5-.5.5-.5 1.5-.5 1.5-.5 1-.5 1h-1-1-1.5-1.5l-1 1-1 1v1 1l-.5 1-.5 1" style="fill:#fa0;stroke:#fa0"/><path d="m397 343l1 1v-1-1l-8-22-8-22-1-.5-1-.5 8.5 23 8.5 23" style="fill:#7be5ef;stroke:#7be5ef"/><path d="m368 341v1-21-21l6-1.5 6-1.5-.5-1-.5-1-1-2-1-2h-.5-.5l-.5-1-.5-1-.5-.5-.5-.5-.5-1-.5-1-1-1-1-1-.5-.5-.5-.5-1.5-.5-1.5-.5v1.5 1.5 1 1l-1 1.5-1 1.5v1.5 1.5 2 2 2 2 2 2l.5 2 .5 2v2 2 2.5 2.5 2 2l.5 2 .5 2v2 2 1.5 1.5 2 2l.5.5.5.5v1.5 1.5" style="fill:#0a67a5;stroke:#0a67a5"/><path d="m366 332l1 1v-1.5-1.5-2-2l-.5-2-.5-2v-2-2-2.5-2.5-2-2l-.5-2-.5-2v-2-2-2-2-2-2-1.5-1.5l-.5 1.5-.5 1.5-.5.5-.5.5v1 1 1 1 1.5 1.5 1 1 1 1 1 1 1.5 1.5 1 1l.5.5.5.5v1 1 2 2l.5 1 .5 1v1 1 1 1 1 1l.5 1 .5 1v1.5 1.5" style="fill:#9b4600;stroke:#9b4600"/><g style="fill:#fa0;stroke:#fa0"><path d="m144 327h2l1.5-.5 1.5-.5 1.5-1 1.5-1 1-1 1-1 1.5-1 1.5-1 1-1 1-1-.5-2-.5-2-1.5.5-1.5.5-1 1-1 1-.5 2-.5 2-1.5.5-1.5.5-1 .5-1 .5-1.5.5-1.5.5-1 1.5-1 1.5h1 1"/><path d="m198 309l23-22h5.5 5.5 2.5 2.5l-1-.5-1-.5-1.5-.5-1.5-.5-1.5-.5-1.5-.5-2.5-.5-2.5-.5-.5 1-.5 1-13.5-4-13.5-4-1-.5-1-.5-1 1.5-1 1.5-12 14.5-12 14.5 15 .5 15 .5"/></g><path d="m376 291h1l-.5-1-.5-1v-1-1-1.5-1.5l-.5-.5-.5-.5-.5-.5-.5-.5-.5-.5-.5-.5-.5-1-.5-1v-1-1-1-1l-.5-1-.5-1-1-1-1-1-.5 2-.5 2-.5 1.5-.5 1.5v2 2l1.5.5 1.5.5.5.5.5.5 1 1 1 1 .5 1 .5 1 .5.5.5.5.5 1 .5 1" style="fill:#0a0800;stroke:#0a0800"/><path d="m241 289h2v-1.5-1.5l-9.5-4-9.5-4-.5 1.5-.5 1.5.5 1 .5 1 2.5.5 2.5.5 1.5.5 1.5.5 1.5.5 1.5.5 1 .5 1 .5 2 1 2 1" style="fill:#0a67a5;stroke:#0a67a5"/><g style="fill:#9b4600;stroke:#9b4600"><path d="m267 289l3 1 1.5-.5 1.5-.5 1-.5 1-.5.5-.5.5-.5.5-.5.5-.5.5-.5.5-.5 1-.5 1-.5v-1-1l.5-1 .5-1-12 .5-12 .5-1 1.5-1 1.5h-1-1l-1.5-1-1.5-1-.5 2-.5 2h2.5 2.5 1 1 1.5 1.5l.5.5.5.5 1.5.5 1.5.5 1-.5 1-.5 1 1 1 1"/><path d="m223 285l1-2-.5-1-.5-1 .5-1.5.5-1.5-1-1.5-1-1.5-1-.5-1-.5-1.5.5-1.5.5-1.5 1-1.5 1h-1-1-2-2l-1.5-1.5-1.5-1.5h-1.5-1.5-2-2l-1 1.5-1 1.5 13.5 4 13.5 4"/></g><g style="fill:#0a67a5;stroke:#0a67a5"><path d="m247 285l2 1 .5-2 .5-2 1.5 1 1.5 1h1 1l1-1.5 1-1.5-5 2-5 2"/><path d="m189 278v1h1.5 1.5l1-1.5 1-1.5 1 .5 1 .5 1-1.5 1-1.5h2 2 1.5 1.5l-8 2-8 2"/></g><path d="m294 269v1l.5-1 .5-1 .5-.5.5-.5.5-.5.5-.5-.5-1-.5-1-.5-.5-.5-.5v-1-1-1.5-1.5l-1 1-1 1-.5.5-.5.5h-1-1l-.5 1-.5 1h-1-1l-.5.5-.5.5v1 1l1 1 1 1 1-.5 1-.5h1 1l1-1 1-1 .5 1 .5 1-.5 1-.5 1" style="fill:#9b4600;stroke:#9b4600"/><path d="m393 266h4l-1-1.5-1-1.5-.5-.5-.5-.5-.5-.5-.5-.5-.5-.5-.5-.5-.5-1-.5-1-.5-.5-.5-.5-.5-.5-.5-.5h-1-1l-.5-.5-.5-.5-1-.5-1-.5-.5-.5-.5-.5v-1-1l-1.5-.5-1.5-.5 1 1.5 1 1.5 1 1 1 1 1 1.5 1 1.5 1 1 1 1 1 1.5 1 1.5 1.5 1.5 1.5 1.5" style="fill:#fa0;stroke:#fa0"/><path d="m361 262h2l1.5-1 1.5-1 .5-1.5.5-1.5 1.5-1 1.5-1v-2-2-1-1l.5-2 .5-2 1-1 1-1 18-13.5 18-13.5 1.5-21 1.5-21-1.5-20-1.5-20-8.5-15-8.5-15-.5-13.5-.5-13.5-15.5-9-15.5-9-13 2.5-13 2.5-6.5-1-6.5-1-6.5 15-6.5 15-7.5 17-7.5 17 2 20.5 2 20.5 4 20 4 20-2 21-2 21 3.5-21 3.5-21-4.5-20-4.5-20-2.5-16-2.5-16 4.5-18 4.5-18 10-12.5 10-12.5 2-6 2-6h14.5 14.5l16 6.5 16 6.5-2 14.5-2 14.5 11 13.5 11 13.5 2.5 19 2.5 19-1 22-1 22-16 8-16 8-8 16.5-8 16.5" style="fill:#9b4600;stroke:#9b4600"/><path d="m381 212l-6-13-11-11.5-11-11.5-.5-15.5-.5-15.5-10 2.5-10 2.5 2 5.5 2 5.5-7 12.5-7 12.5 8 10.5 8 10.5 15.5 1.5 15.5 1.5 6 1 6 1" style="fill:#ffea7c;stroke:#ffea7c"/><g style="fill:#9b4600;stroke:#9b4600"><path d="m333 110l29-2-13-3.5-13-3.5-1.5 4.5-1.5 4.5"/><path d="m381 98h2l.5-1.5.5-1.5 1-1.5 1-1.5 1.5-.5 1.5-.5.5-2 .5-2-1-1-1-1-1 1.5-1 1.5-1.5.5-1.5.5-1 1-1 1-.5 2-.5 2 .5 1.5.5 1.5"/></g></g></svg>