<svg xmlns="http://www.w3.org/2000/svg" viewBox="0 0 712 960"><g style="fill:#0a0600"><path d="m0 0h712v960h-712z"/><path d="m0 959v1h1 1v-.5-.5l.5-27 .5-27 9-23 9-23 39 3 39 3 .5 2.5.5 2.5-.5 1.5-.5 1.5.5 1.5.5 1.5-1 1.5-1 1.5.5 1.5.5 1.5 2 .5 2 .5 1 1 1 1 1.5 1 1.5 1 .5 1.5.5 1.5v1.5 1.5l2 32.5 2 32.5-.5 1-.5 1h34.5 34.5 33.5 33.5 32.5 32.5v-.5-.5h-2.5-2.5-2-2-2-2l1-.5 1-.5v-.5-.5l.5-5.5.5-5.5-12-28-12-28 11.5-16 11.5-16-9-21.5-9-21.5 8-14.5 8-14.5 19 13 19 13 1-17.5 1-17.5 6.5-3.5 6.5-3.5 13.5 20 13.5 20 9 23.5 9 23.5 12 32.5 12 32.5 9 19 9 19h33.5 33.5 33 33 6 6v-.5-.5h-1.5-1.5-1-1-1-1-1.5-1.5l-.5-.5-.5-.5h1 1 2 2v-.5-.5l-6-16.5-6-16.5-13.5-12.5-13.5-12.5-9.5-12-9.5-12-.5-.5-.5-.5-1.5-1-1.5-1h-1-1l-1.5-1-1.5-1 .5-1.5.5-1.5 1-1.5 1-1.5-2-1-2-1-.5-.5-.5-.5-13-12.5-13-12.5-.5.5-.5.5-.5-.5-.5-.5-.5-1-.5-1-1-1-1-1-.5-.5-.5-.5-1 .5-1 .5-.5 1-.5 1h-1.5-1.5l-.5.5-.5.5-17.5-4-17.5-4-19.5-17.5-19.5-17.5-.5-.5-.5-.5-10.5-24.5-10.5-24.5 18-15 18-15 12 14.5 12 14.5 17 14 17 14 17-8.5 17-8.5 15 8.5 15 8.5 15.5 17.5 15.5 17.5 17.5 16.5 17.5 16.5.5 1 .5 1 1.5 1 1.5 1 1 1 1 1 1 1 1 1 .5 2 .5 2 1 1 1 1 1 2 1 2 9 24.5 9 24.5-11.5 27.5-11.5 27.5v.5.5h35 35 17 17v-16.5-16.5-33-33-33.5-33.5-33.5-33.5-33-33-33.5-33.5-33-33-33.5-33.5-33.5-33.5-33-33-33.5-33.5-33-33-33.5-33.5-33.5-33.5-30.5-30.5h-2.5-2.5-33.5-33.5-33-33-33.5-33.5-33-33-33.5-33.5-33.5-33.5-33-33-33.5-33.5-33-33-33.5-33.5-20.5-20.5v13 13 33 33 33.5 33.5 33 33 33.5 33.5 33.5 33.5 33 33 33.5 33.5 33 33 33.5 33.5 33.5 33.5 33 33 33.5 33.5 33 33 33.5 33.5.5.5" style="stroke:#0a0600;stroke-linejoin:round;stroke-width:.7"/></g><g style="stroke-linejoin:round;stroke-width:.7"><path d="m2 959v1h1.5 1.5 2 2v-.5-.5l-1-29-1-29 28.5-23 28.5-23 14.5 11.5 14.5 11.5 1-1 1-1 .5-.5.5-.5.5-.5.5-.5v-1-1-1.5-1.5l.5-.5.5-.5v-1-1l.5-.5.5-.5-39-3-39-3-9 23-9 23-.5 27-.5 27" style="fill:#243c02;stroke:#243c02"/><path d="m9 959v1h1.5 1.5 2 2 2.5 2.5 2 2 2.5 2.5 2 2 2.5 2.5 1 1v-.5-.5l-1.5-15.5-1.5-15.5-2.5-17.5-2.5-17.5-9 9.5-9 9.5 2-16 2-16 10.5-3 10.5-3 15-7.5 15-7.5.5 15.5.5 15.5 7.5 14 7.5 14 9.5 21 9.5 21h2 2v-.5-.5h.5.5v-.5-.5l-8.5-20-8.5-20-14.5-31.5-14.5-31.5-28.5 23-28.5 23 1 29 1 29" style="fill:#ffd159;stroke:#ffd159"/><path d="m41 959v1h1.5 1.5 2 2 2.5 2.5 2 2 2.5 2.5 2 2 2.5 2.5 2 2 .5.5v-.5-.5-1.5-1.5l1-1 1-1-1-1-1-1-1.5-1-1.5-1-1 1-1 1 .5 2 .5 2-1 1-1 1 8 1 8 1h3 3v-.5-.5l3.5.5 3.5.5h1.5 1.5 1.5 1.5l-9.5-21-9.5-21-7.5-14-7.5-14-.5-15.5-.5-15.5-15 7.5-15 7.5-10.5 3-10.5 3-2 16-2 16 9-9.5 9-9.5 2.5 17.5 2.5 17.5 1.5 15.5 1.5 15.5" style="fill:#fff8aa;stroke:#fff8aa"/><path d="m76 959v1h1.5 1.5 1.5 1.5v-.5-.5l-1-1.5-1-1.5-.5-1.5-.5-1.5-.5-1.5-.5-1.5-.5-2-.5-2-.5-.5-.5-.5-1.5 1-1.5 1-1 1-1 1-1 1.5-1 1.5.5 1.5.5 1.5v1.5 1.5l1-1 1-1-.5-2-.5-2 1-1 1-1 1.5 1 1.5 1 1 1 1 1-1 1-1 1v1.5 1.5" style="fill:#dda027;stroke:#dda027"/><path d="m82 959v1h1.5 1.5.5.5l-8-1-8-1v-1.5-1.5l-.5-1.5-.5-1.5 1-1.5 1-1.5 1-1 1-1 1.5-1 1.5-1 .5.5.5.5.5 2 .5 2 .5 1.5.5 1.5.5 1.5.5 1.5 1 1.5 1 1.5" style="fill:#ffd159;stroke:#ffd159"/><path d="m92 959v1h1.5 1.5 2 2l-3.5-.5-3.5-.5" style="fill:#ffffec;stroke:#ffffec"/><path d="m109 959v1h1.5 1.5l.5-1 .5-1-.5-.5-.5-.5-1.5-32-1.5-32-.5-.5-.5-.5-1-1.5-1-1.5.5 1.5.5 1.5.5 1.5.5 1.5v2.5 2.5 2 2 1.5 1.5 2 2 2.5 2.5l.5 2.5.5 2.5-.5 1-.5 1v2.5 2.5l.5 1.5.5 1.5v2 2l.5 2 .5 2-.5 1.5-.5 1.5v2.5 2.5 1 1l.5 2 .5 2v2 2 1 1h-.5-.5" style="fill:#575c07;stroke:#575c07"/><path d="m313 959v1h1.5 1.5 2 2 2.5 2.5 2 2 2 2v-.5-.5l-14-23-14-23-1-1-1-1-1.5-.5-1.5-.5-7.5-10.5-7.5-10.5 10-13.5 10-13.5-8.5-14.5-8.5-14.5 5.5-7 5.5-7 8 15 8 15 9.5 16 9.5 16 1 2 1 2 1.5.5 1.5.5.5 2 .5 2 .5 1.5.5 1.5 2 1.5 2 1.5.5 1 .5 1 .5 1 .5 1 1 1 1 1v1 1l.5 1 .5 1 1-9.5 1-9.5.5 2 .5 2 .5 1.5.5 1.5.5 2 .5 2 1.5.5 1.5.5v1.5 1.5l-.5 1.5-.5 1.5h-1-1l-16-27-16-27-1-6.5-1-6.5 9.5 15 9.5 15 1.5-2 1.5-2-.5-1-.5-1-1-1.5-1-1.5-1.5-1.5-1.5-1.5-13-20-13-20 1.5-4.5 1.5-4.5 20.5-3 20.5-3-4.5-15.5-4.5-15.5 13 15.5 13 15.5 15.5 40 15.5 40 9.5 20.5 9.5 20.5-12-32.5-12-32.5-9-23.5-9-23.5-13.5-20-13.5-20-6.5 3.5-6.5 3.5-1 17.5-1 17.5-19-13-19-13-8 14.5-8 14.5 9 21.5 9 21.5-11.5 16-11.5 16 9.5 16 9.5 16 2 18 2 18-1 .5-1 .5h2 2 2 2 2.5 2.5" style="fill:#105f5c;stroke:#105f5c"/><path d="m333 959v1h1.5 1.5 2 2 1 1v-.5-.5l-10-16.5-10-16.5-1-.5-1-.5-7.5-6-7.5-6 14 23 14 23" style="fill:#138d9a;stroke:#138d9a"/><path d="m342 959v1h1.5 1.5 2 2 1.5 1.5v-.5-.5l-13-21.5-13-21.5-1-1-1-1-.5-2-.5-2-2-.5-2-.5v-1.5-1.5l-1-.5-1-.5-.5 1-.5 1 .5 1.5.5 1.5-.5 1.5-.5 1.5.5 2 .5 2 .5 1.5.5 1.5 1 1.5 1 1.5 1 1.5 1 1.5 10 16.5 10 16.5" style="fill:#89d5e1;stroke:#89d5e1"/><path d="m352 959v1h1.5 1.5 2 2 2.5 2.5 2 2v-.5-.5l-9-5.5-9-5.5-2.5-16.5-2.5-16.5h-1.5-1.5-1.5-1.5-1-1-1-1l-.5.5-.5.5h-1-1l-1-.5-1-.5h-.5-.5l-1.5.5-1.5.5 13 21.5 13 21.5" style="fill:#cbece9;stroke:#cbece9"/><path d="m368 959v1h32.5 32.5v-.5-.5l-1-1-1-1-.5-1.5-.5-1.5-.5-.5-.5-.5v-1-1l-.5-.5-.5-.5-.5-2-.5-2-.5-.5-.5-.5-10.5-21-10.5-21-7.5-11.5-7.5-11.5-15-11-15-11-7 .5-7 .5 1 28.5 1 28.5-1.5-.5-1.5-.5 2.5 16.5 2.5 16.5 9 5.5 9 5.5" style="fill:#ffffec;stroke:#ffffec"/><path d="m433 959v1h1.5 1.5 2 2l-9-19-9-19-9.5-20.5-9.5-20.5.5 2 .5 2 1 1.5 1 1.5.5 1.5.5 1.5v1.5 1.5l10 25 10 25v1 1l.5 2 .5 2 .5.5.5.5v1 1l.5.5.5.5.5 1.5.5 1.5 1 1 1 1" style="fill:#138d9a;stroke:#138d9a"/><path d="m585 959v1h1.5 1.5 2 2 2.5 2.5 2 2 2.5 2.5 1 1v-.5-.5h-1.5-1.5l-1.5-.5-1.5-.5-10-15.5-10-15.5-1.5-1-1.5-1-1 .5-1 .5-13-17.5-13-17.5-11.5-19-11.5-19-8.5-12.5-8.5-12.5-15.5-10-15.5-10-18.5-5.5-18.5-5.5 1.5-11.5 1.5-11.5 18.5-1.5 18.5-1.5 15.5-9 15.5-9 27 28.5 27 28.5.5.5.5.5 15.5 13 15.5 13-17.5-16.5-17.5-16.5-15.5-17.5-15.5-17.5-15-8.5-15-8.5-17 8.5-17 8.5-17-14-17-14-12-14.5-12-14.5-18 15-18 15 11 25 11 25 13 3.5 13 3.5 7.5 8 7.5 8 18.5 9.5 18.5 9.5.5-1 .5-1 1-.5 1-.5.5.5.5.5 1 1 1 1 .5 1 .5 1 .5.5.5.5.5-.5.5-.5 13.5 13 13.5 13 1 .5 1 .5 1.5-1 1.5-1 1-1 1-1v1 1l.5 2 .5 2v1 1l2-.5 2-.5v1 1l-1 1.5-1 1.5v2 2l12 10 12 10 17 31.5 17 31.5h-2-2-1-1l.5.5.5.5h1.5 1.5 1 1 1 1 1.5 1.5" style="fill:#105f5c;stroke:#105f5c"/><path d="m110 958v1-1-1-2-2l-.5-2-.5-2v-1-1-2.5-2.5l.5-1.5.5-1.5-.5-2-.5-2v-2-2l-.5-1.5-.5-1.5v-2.5-2.5l.5-1 .5-1-.5-.5-.5-.5-7-9.5-7-9.5-2-9-2-9 .5-1 .5-1 .5-.5.5-.5.5-1 .5-1-14.5-11.5-14.5-11.5 14.5 31.5 14.5 31.5 8.5 20 8.5 20" style="fill:#dda027;stroke:#dda027"/><path d="m602 958l3 1h1.5 1.5v-.5-.5l10.5-23 10.5-23-8-28.5-8-28.5-1-2-1-2-1-1-1-1-.5-2-.5-2-1-1-1-1-1-1-1-1-1.5-1-1.5-1-.5-1-.5-1-15.5-13-15.5-13v.5.5l1 .5 1 .5 1 2 1 2 16 18 16 18 .5 1.5.5 1.5.5.5.5.5v1 1l.5.5.5.5 1.5 1 1.5 1 6 30 6 30v2 2l-.5.5-.5.5-.5.5-.5.5.5.5.5.5v1 1l-1 .5-1 .5v1.5 1.5l-9 9.5-9 9.5-10-13.5-10-13.5 10 15.5 10 15.5" style="fill:#138d9a;stroke:#138d9a"/><path d="m608 958v1l11.5-27.5 11.5-27.5-9-24.5-9-24.5 8 28.5 8 28.5-10.5 23-10.5 23" style="fill:#105f5c;stroke:#105f5c"/><g style="fill:#243c02;stroke:#243c02"><path d="m112 957l1 1-2-32.5-2-32.5 1.5 32 1.5 32"/><path d="m302 957v1l-2-18-2-18-9.5-16-9.5-16 12 28 12 28-.5 5.5-.5 5.5"/><path d="m580 957v1l-17-31.5-17-31.5-12-10-12-10 9.5 12 9.5 12 13.5 12.5 13.5 12.5 6 16.5 6 16.5"/></g><path d="m602 954l18-19-1 .5-1 .5-1.5 1-1.5 1-1.5.5-1.5.5-1.5 1-1.5 1-1.5.5-1.5.5h-1-1l-21-25.5-21-25.5-1-.5-1-.5-3.5-20-3.5-20 8-19 8-19v-.5-.5l-.5-.5-.5-.5-16-16-16-16-15.5-5.5-15.5-5.5-15.5 7-15.5 7 4 10.5 4 10.5 18 7 18 7 6.5 12 6.5 12 6-3 6-3 .5 14 .5 14 19 32.5 19 32.5 10 13.5 10 13.5" style="fill:#49bed3;stroke:#49bed3"/><path d="m426 945l1 1v-1-1l-.5-.5-.5-.5-11-23.5-11-23.5-9.5-19-9.5-19-9.5-12.5-9.5-12.5-15-4.5-15-4.5 6 24 6 24 1 1 1 1 .5 1.5.5 1.5.5.5.5.5.5 1 .5 1 .5 1.5.5 1.5.5.5.5.5v1 1l.5.5.5.5 1 .5 1 .5v1 1l.5.5.5.5v1 1l.5 1 .5 1 1 1 1 1 1 1.5 1 1.5.5 1.5.5 1.5v1 1 1 1 1.5 1.5l-.5 1.5-.5 1.5-.5.5-.5.5-1 .5-1 .5-1.5-.5-1.5-.5-.5.5-.5.5-1-.5-1-.5-1.5.5-1.5.5-2 .5-2 .5-1-28.5-1-28.5 7-.5 7-.5 15 11 15 11 7.5 11.5 7.5 11.5 10.5 21 10.5 21" style="fill:#cbece9;stroke:#cbece9"/><g style="fill:#89d5e1;stroke:#89d5e1"><path d="m426 943l1 1-10-25-10-25-.5-.5-.5-.5-10-24-10-24-6-15-6-15-21 2.5-21 2.5 2.5 17.5 2.5 17.5v.5.5l1.5 1.5 1.5 1.5 1 1.5 1 1.5.5 1 .5 1 .5 1 .5 1-.5 1-.5 1 1 1 1 1 1.5 1 1.5 1-6-24-6-24 15 4.5 15 4.5 9.5 12.5 9.5 12.5 9.5 19 9.5 19 11 23.5 11 23.5"/><path d="m604 942h2l1.5-.5 1.5-.5 1.5-1 1.5-1 1.5-.5 1.5-.5 1.5-1 1.5-1 1-.5 1-.5v-1.5-1.5l1-.5 1-.5v-1-1l-.5-.5-.5-.5.5-.5.5-.5.5-.5.5-.5v-2-2l-.5 2-.5 2-2 .5-2 .5.5 1.5.5 1.5-1 .5-1 .5-1.5.5-1.5.5-1 1.5-1 1.5 1 1 1 1-1.5-.5-1.5-.5-24.5-22.5-24.5-22.5 21 25.5 21 25.5"/></g><path d="m611 936l3 1-1-1-1-1 1-1.5 1-1.5 1.5-.5 1.5-.5 1-.5 1-.5-.5-1.5-.5-1.5 2-.5 2-.5.5-2 .5-2-6-30-6-30v31.5 31.5l-12.5-14-12.5-14-8-14.5-8-14.5 5-8 5-8-2-9.5-2-9.5 14.5 10 14.5 10-16-18-16-18-5.5 11.5-5.5 11.5v25.5 25.5l24.5 22.5 24.5 22.5" style="fill:#cbece9;stroke:#cbece9"/><path d="m577 926l2-1 1.5 1 1.5 1-19-32.5-19-32.5-.5-14-.5-14-6 3-6 3-6.5-12-6.5-12-18-7-18-7-4-10.5-4-10.5 15.5-7 15.5-7 15.5 5.5 15.5 5.5 16 16 16 16-27-28.5-27-28.5-15.5 9-15.5 9-18.5 1.5-18.5 1.5-1.5 11.5-1.5 11.5 18.5 5.5 18.5 5.5 15.5 10 15.5 10 8.5 12.5 8.5 12.5 11.5 19 11.5 19 13 17.5 13 17.5" style="fill:#138d9a;stroke:#138d9a"/><path d="m320 925l2 1-1-1.5-1-1.5-1-1.5-1-1.5-.5-1.5-.5-1.5-.5-2-.5-2 .5-1.5.5-1.5-.5-1.5-.5-1.5.5-1 .5-1-1.5-.5-1.5-.5-1.5 1-1.5 1-1 .5-1 .5-1 1.5-1 1.5-2 .5-2 .5 1 1 1 1 7.5 6 7.5 6" style="fill:#49bed3;stroke:#49bed3"/><path d="m611 925v-63l-1.5-1-1.5-1-.5-.5-.5-.5v-1-1l-.5-.5-.5-.5-.5-1.5-.5-1.5-14.5-10-14.5-10 2 9.5 2 9.5-5 8-5 8 8 14.5 8 14.5 12.5 14 12.5 14" style="fill:#ffffec;stroke:#ffffec"/><path d="m108 920l1 1-.5-2.5-.5-2.5v-2.5-2.5-2-2-1.5-1.5-2-2-2.5-2.5l-.5-1.5-.5-1.5-.5-1.5-.5-1.5-2-1.5-2-1.5-1.5.5-1.5.5-1 .5-1 .5-.5.5-.5.5-.5.5-.5.5-.5.5-.5.5-1 .5-1 .5-.5.5-.5.5-.5.5-.5.5v1 1l-1 .5-1 .5h-1-1l-.5.5-.5.5h-1-1l-1.5-.5-1.5-.5.5-1 .5-1-1-1-1-1 .5-.5.5-.5.5-1 .5-1 1.5-.5 1.5-.5v-1-1h1.5 1.5l1-1 1-1 .5-1 .5-1 2 9 2 9 7 9.5 7 9.5" style="fill:#86780c;stroke:#86780c"/><path d="m332 916h2l.5-.5.5-.5h1 1 1 1 1.5 1.5 1.5 1.5l1.5.5 1.5.5 2-.5 2-.5v-.5-.5-.5-.5l-.5-1-.5-1-1-1.5-1-1.5-13 1-13 1 .5 2 .5 2 1 1 1 1 1.5-.5 1.5-.5h.5.5l1 .5 1 .5" style="fill:#fff8aa;stroke:#fff8aa"/><path d="m352 914v1l1.5-.5 1.5-.5 1 .5 1 .5.5-.5.5-.5 1.5.5 1.5.5 1-.5 1-.5.5-.5.5-.5.5-1.5.5-1.5v-1.5-1.5-1-1-1-1l-.5-1.5-.5-1.5-1-1.5-1-1.5.5 1 .5 1v1.5 1.5l.5 2 .5 2-.5 1.5-.5 1.5-1.5 1-1.5 1-1 1-1 1-1.5-.5-1.5-.5-1-.5-1-.5-.5-1-.5-1-1-1.5-1-1.5-.5 1-.5 1 1 1.5 1 1.5.5 1 .5 1v.5.5" style="fill:#89d5e1;stroke:#89d5e1"/><g style="fill:#138d9a;stroke:#138d9a"><path d="m355 912l3 1 1-1 1-1 1.5-1 1.5-1 .5-1.5.5-1.5-.5-2-.5-2v-1.5-1.5l-.5-1-.5-1-1-1-1-1-.5-1-.5-1v-1-1l-.5-.5-.5-.5v-1-1l-1-.5-1-.5-.5-.5-.5-.5v-1-1l-.5-.5-.5-.5-.5-1.5-.5-1.5-.5-1-.5-1-.5-.5-.5-.5-.5-1.5-.5-1.5-1-1-1-1-1.5-1-1.5-1-1-1-1-1 .5-1 .5-1-.5-1-.5-1-1.5 2-1.5 2 1 1 1 1 .5 1.5.5 1.5 1 1.5 1 1.5v2 2l1 1 1 1 .5.5.5.5 1 .5 1 .5 1 1.5 1 1.5-1 9.5-1 9.5 1 1.5 1 1.5.5 1 .5 1 1 .5 1 .5"/><path d="m300 910l3 1 2-.5 2-.5 1-1.5 1-1.5v-.5-.5l.5-1.5.5-1.5v-.5-.5l-2.5-14-2.5-14h1.5 1.5l1-.5 1-.5 1-1.5 1-1.5 11 5.5 11 5.5-9.5-16-9.5-16-8-15-8-15-5.5 7-5.5 7 8.5 14.5 8.5 14.5-10 13.5-10 13.5 7.5 10.5 7.5 10.5"/></g><path d="m319 909l4 1 13-1 13-1 .5-1 .5-1-.5-1-.5-1v-1-1l-1-1-1-1-.5-1-.5-1-.5-1-.5-1-9.5-6-9.5-6-6 10-6 10 1.5.5 1.5.5 1 .5 1 .5v1.5 1.5" style="fill:#cbece9;stroke:#cbece9"/><path d="m309 906v1l1-.5 1-.5 1.5-1 1.5-1 6-10 6-10 9.5 6 9.5 6-2-1.5-2-1.5-.5-1.5-.5-1.5-.5-2-.5-2-1.5-.5-1.5-.5-1-2-1-2-1.5-.5-1.5-.5-1-.5-1-.5-1-1.5-1-1.5-1.5.5-1.5.5.5-1 .5-1-.5-1.5-.5-1.5-.5-1.5-.5-1.5h-1.5-1.5l-1 1-1 1h-1.5-1.5l-1.5-.5-1.5-.5-1 1.5-1 1.5-1 .5-1 .5h-1.5-1.5l2.5 14.5 2.5 14.5-.5 1.5-.5 1.5" style="fill:#89d5e1;stroke:#89d5e1"/><path d="m355 905h2l.5-1.5.5-1.5v-1.5-1.5l-1.5-.5-1.5-.5-.5-2-.5-2-.5-1.5-.5-1.5-.5-2-.5-2-1-1.5-1-1.5-1-.5-1-.5-.5-.5-.5-.5-1-1-1-1v-2-2l-1-1.5-1-1.5-.5-1.5-.5-1.5-1-1-1-1-9.5-15-9.5-15 .5 1.5.5 1.5.5 1.5.5 1.5.5.5.5.5.5 1 .5 1 .5 1.5.5 1.5.5.5.5.5.5 1 .5 1-2-.5-2-.5-.5-.5-.5-.5 16 27 16 27" style="fill:#243c02;stroke:#243c02"/><path d="m310 902v1l-2.5-14.5-2.5-14.5 2.5 14 2.5 14" style="fill:#49bed3;stroke:#49bed3"/><path d="m80 897l3 1h1 1l.5-.5.5-.5h1 1l1-.5 1-.5v-1-1l.5-.5.5-.5.5-.5.5-.5 1-.5 1-.5.5-.5.5-.5.5-.5.5-.5.5-.5.5-.5 1-.5 1-.5 1.5-.5 1.5-.5-.5-1-.5-1-1.5-.5-1.5-.5-.5.5-.5.5-.5-.5-.5-.5-.5-.5-.5-.5v-.5-.5-1-1l.5-.5.5-.5.5-.5.5-.5.5-1 .5-1v-1-1-1-1l.5-.5.5-.5v-2.5-2.5l-.5.5-.5.5v1 1l-.5.5-.5.5v1.5 1.5 1 1l-.5.5-.5.5-.5.5-.5.5-1 1-1 1-.5 1-.5 1-.5.5-.5.5-.5 1-.5 1-.5 1-.5 1-1 1-1 1h-1.5-1.5v1 1l-1.5.5-1.5.5-.5 1-.5 1-.5.5-.5.5 1 1 1 1-.5 1-.5 1" style="fill:#575c07;stroke:#575c07"/><path d="m406 893l1 1v-1.5-1.5l-.5-1.5-.5-1.5-1-1.5-1-1.5-.5-2-.5-2-.5-.5-.5-.5-9-23.5-9-23.5-12-16.5-12-16.5-16.5 7.5-16.5 7.5 5 20 5 20-2.5-17.5-2.5-17.5 21-2.5 21-2.5 6 15 6 15 10 24 10 24" style="fill:#49bed3;stroke:#49bed3"/><path d="m108 892l1 1v-1.5-1.5l-.5-1.5-.5-1.5-1.5-1-1.5-1-1-1-1-1-2-.5-2-.5-.5-1.5-.5-1.5 1-1.5 1-1.5-.5-1.5-.5-1.5.5-1.5.5-1.5-.5-2.5-.5-2.5v2.5 2.5l-.5.5-.5.5v1 1 1 1l-.5 1-.5 1-.5.5-.5.5-.5.5-.5.5v1 1 .5.5l.5.5.5.5.5.5.5.5.5-.5.5-.5 1.5.5 1.5.5.5 1 .5 1 2 1.5 2 1.5 1 1.5 1 1.5" style="fill:#243c02;stroke:#243c02"/><path d="m560 890l2 1v-25.5-25.5l5.5-11.5 5.5-11.5-1-2-1-2-1-.5-1-.5-8 19-8 19 3.5 20 3.5 20" style="fill:#89d5e1;stroke:#89d5e1"/><path d="m331 880l3 1-11-5.5-11-5.5 1.5.5 1.5.5h1.5 1.5l1-1 1-1h1.5 1.5l.5 1.5.5 1.5.5 1.5.5 1.5-.5 1-.5 1 1.5-.5 1.5-.5 1 1.5 1 1.5 1 .5 1 .5" style="fill:#49bed3;stroke:#49bed3"/><path d="m402 880l1 1-15.5-40-15.5-40-13-15.5-13-15.5 4.5 15.5 4.5 15.5-20.5 3-20.5 3-1.5 4.5-1.5 4.5 13 20 13 20v-.5-.5l-5-20-5-20 16.5-7.5 16.5-7.5 12 16.5 12 16.5 9 23.5 9 23.5" style="fill:#138d9a;stroke:#138d9a"/><g style="fill:#243c02;stroke:#243c02"><path d="m521 874l1 1v-2-2l1-1.5 1-1.5v-1-1l-2 .5-2 .5v-1-1l-.5-2-.5-2v-1-1l-1 1-1 1-1.5 1-1.5 1-1-.5-1-.5 2 1 2 1-1 1.5-1 1.5-.5 1.5-.5 1.5 1.5 1 1.5 1h1 1l1.5 1 1.5 1"/><path d="m511 861l1 1-13.5-13-13.5-13 13 12.5 13 12.5"/></g><path d="m324 852l4 1-.5-1-.5-1-.5-.5-.5-.5-.5-1.5-.5-1.5-.5-1-.5-1-.5-.5-.5-.5-.5-1.5-.5-1.5-.5-1.5-.5-1.5 1 6.5 1 6.5.5.5.5.5" style="fill:#0a0600;stroke:#0a0600"/><path d="m348 846h2l1.5-.5 1.5-.5 1.5-1 1.5-1 .5-1.5.5-1.5-1.5-1-1.5-1h-1-1-1.5-1.5l-1 1-1 1-.5 1.5-.5 1.5 1 1.5 1 1.5" style="fill:#ffffec;stroke:#ffffec"/><path d="m472 835l1-1h1.5 1.5l-18.5-9.5-18.5-9.5-7.5-8-7.5-8-13-3.5-13-3.5 19.5 17.5 19.5 17.5 17.5 4 17.5 4" style="fill:#243c02;stroke:#243c02"/><path d="m544 814l-10-31-14.5.5-14.5.5.5 8 .5 8 13.5 4.5 13.5 4.5 5.5 2.5 5.5 2.5" style="fill:#89d5e1;stroke:#89d5e1"/><path d="m515 800l14-13-11.5.5-11.5.5 4.5 6 4.5 6" style="fill:#cbece9;stroke:#cbece9"/><path d="m567 796l14-41-9 6-9 6 2 14.5 2 14.5" style="fill:#243c02;stroke:#243c02"/><path d="m573 792l5-36-1-.5-1-.5h-1-1l-.5-.5-.5-.5-.5-.5-.5-.5-.5-.5-.5-.5-1-.5-1-.5-.5.5-.5.5-.5.5-.5.5-.5.5-.5.5v1 1l-.5 1-.5 1v1 1l.5.5.5.5v1 1 1.5 1.5 1 1l.5.5.5.5-.5 1-.5 1 .5 1.5.5 1.5v2 2l.5 1.5.5 1.5v1.5 1.5l-.5 1.5-.5 1.5 1 1.5 1 1.5 1 1 1 1h1 1" style="fill:#dda027;stroke:#dda027"/><path d="m397 791l1 1-11-25-11-25 10.5 24.5 10.5 24.5" style="fill:#243c02;stroke:#243c02"/><path d="m420 786l12-33-5.5-19.5-5.5-19.5-6 8.5-6 8.5-9 9-9 9 11.5 14 11.5 14 3 4.5 3 4.5" style="fill:#138d9a;stroke:#138d9a"/><path d="m566 770v1l.5-1 .5-1-.5-.5-.5-.5v-1-1-1.5-1.5-1-1l-.5-.5-.5-.5v-1-1l.5-1 .5-1v-1-1l.5-.5.5-.5.5-.5.5-.5.5-.5.5-.5 1 .5 1 .5.5.5.5.5.5.5.5.5.5.5.5.5h1 1l1 .5 1 .5-6 7-6 7" style="fill:#86780c;stroke:#86780c"/><path d="m466 752h2 1 1l2-.5 2-.5 1-1 1-1-.5-1-.5-1h-.5-.5l-.5 1-.5 1h-1-1l-1-1.5-1-1.5v-1-1l-1 .5-1 .5-.5 1.5-.5 1.5-1.5-1-1.5-1v-2-2l1.5-.5 1.5-.5h1.5 1.5 1.5 1.5l-1-1-1-1-1-1-1-1-1.5-1-1.5-1-1.5-.5-1.5-.5-1 1.5-1 1.5.5 1.5.5 1.5-1 1.5-1 1.5 1 1 1 1 1 1 1 1 1 1.5 1 1.5.5 1 .5 1" style="fill:#243c02;stroke:#243c02"/><path d="m471 749h2l.5-1 .5-1 1-2 1-2-1-1-1-1h-1-1-1.5-1.5-1.5-1.5l-1.5.5-1.5.5v2 2l1.5 1 1.5 1 .5-1.5.5-1.5 1-.5 1-.5v1 1l1 1.5 1 1.5" style="fill:#105f5c;stroke:#105f5c"/><g style="fill:#243c02;stroke:#243c02"><path d="m203 694l17-38 9-24 9-24 9-24.5 9-24.5 10-23 10-23 10-23.5 10-23.5 9.5-20.5 9.5-20.5-.5 1-.5 1-.5 1-.5 1-.5.5-.5.5-1 .5-1 .5v2 2l-.5.5-.5.5-.5 1-.5 1-.5 1.5-.5 1.5-.5.5-.5.5v1.5 1.5l-1 1-1 1-.5.5-.5.5-.5 1-.5 1-.5 1.5-.5 1.5-1 1-1 1v1 1l-1 .5-1 .5-1 1-1 1v2.5 2.5l-1.5.5-1.5.5v2.5 2.5l-1 1-1 1-.5 1-.5 1-1 1-1 1-1 1-1 1-9 25-9 25-9 18-9 18-11.5 33.5-11.5 33.5v2 2l-.5.5-.5.5-1 .5-1 .5v1 1l.5.5.5.5-.5.5-.5.5-.5.5-.5.5-1 .5-1 .5-.5.5-.5.5-.5.5-.5.5v1 1 1.5 1.5l-.5.5-.5.5v1 1l-.5.5-.5.5-.5.5-.5.5v1.5 1.5l-.5.5-.5.5-.5.5-.5.5-1.5-.5-1.5-.5-2.5-28.5-2.5-28.5 6-50 6-50v-.5-.5l5.5-25.5 5.5-25.5v-.5-.5-2-2-1-1l.5-.5.5-.5.5-.5.5-.5-.5-1-.5-1v-1-1-1-1l.5-.5.5-.5v-1.5-1.5-1-1l.5-1.5.5-1.5v-.5-.5l-6-10-6-10-4.5 18.5-4.5 18.5-1-1-1-1-1-1-1-1-1.5-1-1.5-1-.5-1.5-.5-1.5-1-1.5-1-1.5-1 1-1 1-.5 2-.5 2-.5 2.5-.5 2.5-.5 1.5-.5 1.5-5 26.5-5 26.5-12.5 27.5-12.5 27.5-4-20.5-4-20.5-.5-22-.5-22 .5-24.5.5-24.5-5-26.5-5-26.5 17-27 17-27-19 15.5-19 15.5 3.5 20.5 3.5 20.5.5 25 .5 25 .5 24.5.5 24.5 1.5 26 1.5 26 7.5 20 7.5 20 4-21 4-21 9.5-19 9.5-19 5-25 5-25 12-8.5 12-8.5-4.5 22-4.5 22-3.5 20.5-3.5 20.5-4 23.5-4 23.5-1 26-1 26 3 18.5 3 18.5-3.5 17.5-3.5 17.5 2 5 2 5"/><path d="m469 681l29-40 10-23 10-23 3.5-29 3.5-29-8.5-23.5-8.5-23.5-4-28.5-4-28.5-4-27.5-4-27.5-6-27-6-27-17-16.5-17-16.5-18.5-13.5-18.5-13.5-1.5 21-1.5 21 .5 13.5.5 13.5-1-20.5-1-20.5v-.5-.5l-.5-1-.5-1-.5-1.5-.5-1.5-.5-.5-.5-.5.5-1 .5-1-.5-1.5-.5-1.5.5-.5.5-.5 1-.5 1-.5.5-1.5.5-1.5.5-.5.5-.5.5-.5.5-.5v-1-1l-.5-1-.5-1 .5-.5.5-.5.5-.5.5-.5.5-.5.5-.5 2 .5 2 .5.5 1 .5 1 1.5 1 1.5 1 1 1 1 1 .5 1 .5 1 1 2 1 2 1 1.5 1 1.5 1.5.5 1.5.5 1 1.5 1 1.5 1.5.5 1.5.5 1.5 1 1.5 1 1.5.5 1.5.5 1.5 1 1.5 1 1.5 1 1.5 1 16.5 17 16.5 17 7.5 35.5 7.5 35.5 3.5 38 3.5 38 8 53 8 53-8 26.5-8 26.5-.5 1.5-.5 1.5-1 1-1 1-.5.5-.5.5-.5 1-.5 1-1 1-1 1-.5.5-.5.5-.5 1-.5 1-.5 1.5-.5 1.5-.5.5-.5.5-.5 1.5-.5 1.5-1 1-1 1-1 1.5-1 1.5-1 1-1 1-1 1-1 1-1.5 1-1.5 1-.5 1.5-.5 1.5-.5 1-.5 1-.5 1.5-.5 1.5-1 1.5-1 1.5-1 1-1 1-1.5-.5-1.5-.5-1.5-1-1.5-1-1-.5-1-.5-.5-.5-.5-.5 1-11.5 1-11.5 3-35.5 3-35.5-7-26-7-26-7-36.5-7-36.5v-.5-.5-1.5-1.5l-.5-1.5-.5-1.5v-2-2-1.5-1.5l-.5-.5-.5-.5v-2.5-2.5-2-2-1-1l.5-.5.5-.5v-1-1-1.5-1.5-1-1-2-2-.5-.5l-7.5-21.5-7.5-21.5-9-19-9-19 10 24.5 10 24.5 5 16.5 5 16.5.5 27.5.5 27.5 5 26.5 5 26.5 7.5 25.5 7.5 25.5 3.5 26 3.5 26-7.5 22-7.5 22 7 5.5 7 5.5"/></g><path d="m467 676l3 1 1-1 1-1 1-1.5 1-1.5.5-1.5.5-1.5.5-1 .5-1 .5-1.5.5-1.5 1.5-1 1.5-1 1-1 1-1 1-1 1-1 1-1.5 1-1.5 1-1 1-1h-1.5-1.5l-.5.5-.5.5-.5 1-.5 1-1 1-1 1-.5.5-.5.5-.5.5-.5.5-.5.5-.5.5-1 .5-1 .5h-1-1l-.5.5-.5.5-.5.5-.5.5-.5 1-.5 1 .5 1.5.5 1.5-.5.5-.5.5-.5 1-.5 1-1.5.5-1.5.5-1.5-.5-1.5-.5-.5-1-.5-1-1-1-1-1-.5-1.5-.5-1.5-.5-2-.5-2v2 2l.5 1.5.5 1.5 1 2.5 1 2.5 1 .5 1 .5 1.5 1 1.5 1" style="fill:#dda027;stroke:#dda027"/><path d="m461 672l1 1-1-2.5-1-2.5-.5-1.5-.5-1.5v-2-2l.5-2 .5-2 .5-1.5.5-1.5.5-1 .5-1 .5-1.5.5-1.5-1 11.5-1 11.5" style="fill:#86780c;stroke:#86780c"/><path d="m464 672l3 1 1.5-.5 1.5-.5.5-1 .5-1 .5-.5.5-.5-.5-1.5-.5-1.5.5-1 .5-1 .5-.5.5-.5.5-.5.5-.5h1 1l1-.5 1-.5.5-.5.5-.5.5-.5.5-.5.5-.5.5-.5 1-1 1-1 .5-1 .5-1 .5-.5.5-.5h1.5 1.5l.5-1.5.5-1.5.5-.5.5-.5.5-1.5.5-1.5.5-1 .5-1 .5-.5.5-.5 1-1 1-1 .5-1 .5-1 .5-.5.5-.5 1-1 1-1 .5-1.5.5-1.5-1 .5-1 .5-.5.5-.5.5-.5.5-.5.5v1 1l-1 .5-1 .5-.5.5-.5.5-.5.5-.5.5-.5.5-.5.5v1.5 1.5l-.5.5-.5.5-.5.5-.5.5-.5.5-.5.5-1 .5-1 .5h-1-1l-.5.5-.5.5h-1-1l-6-36-6-36-3 35.5-3 35.5-.5 1.5-.5 1.5-.5 1-.5 1-.5 1.5-.5 1.5-.5 2-.5 2 .5 2 .5 2 .5 1.5.5 1.5 1 1 1 1 .5 1 .5 1" style="fill:#ffd159;stroke:#ffd159"/><path d="m210 660l3 1 .5-.5.5-.5.5-.5.5-.5v-1.5-1.5l.5-.5.5-.5.5-.5.5-.5v-1-1l.5-.5.5-.5v-1.5-1.5-1-1l.5-.5.5-.5.5-.5.5-.5 1-.5 1-.5.5-.5.5-.5.5-.5.5-.5-.5-.5-.5-.5v-1-1l1-.5 1-.5.5-.5.5-.5v-2-2l-1 1-1 1-1 1-1 1-.5 2-.5 2-.5 1.5-.5 1.5h-1-1l-6.5-20-6.5-20 2.5 28.5 2.5 28.5" style="fill:#575c07;stroke:#575c07"/><path d="m481 650h2l.5-.5.5-.5h1 1l1-.5 1-.5.5-.5.5-.5.5-.5.5-.5.5-.5.5-.5v-1.5-1.5l.5-.5.5-.5.5-.5.5-.5.5-.5.5-.5 1-.5 1-.5v-1-1l.5-.5.5-.5.5-.5.5-.5 1-.5 1-.5 8-26.5 8-26.5-16 19.5-16 19.5-8-25.5-8-25.5-5.5-25.5-5.5-25.5-5-23.5-5-23.5 9-8.5 9-8.5.5-17.5.5-17.5 7.5-13 7.5-13-8-2.5-8-2.5-4.5-.5-4.5-.5-8-24.5-8-24.5 1-20 1-20 17 16.5 17 16.5 3 22.5 3 22.5 5 26 5 26 3.5 27 3.5 27 8.5 50 8.5 50-8-52-8-52-.5-.5-.5-.5-3-37.5-3-37.5-7.5-35.5-7.5-35.5-16.5-17-16.5-17-8 8.5-8 8.5 7 26 7 26 6 26 6 26-7 19-7 19 7 36.5 7 36.5 7 26 7 26 6 36 6 36" style="fill:#fff8aa;stroke:#fff8aa"/><path d="m218 643h2l.5-1.5.5-1.5.5-2 .5-2 1-1 1-1 1-1 1-1 11.5-33.5 11.5-33.5-.5-1.5-.5-1.5-.5 1-.5 1-.5.5-.5.5v1 1l-1 .5-1 .5-.5 1-.5 1-.5 1.5-.5 1.5-1 2-1 2-5.5-9.5-5.5-9.5-8.5 20-8.5 20 1-34 1-34 .5-1.5.5-1.5.5-1.5.5-1.5.5-1.5.5-1.5v-1-1l.5-1 .5-1-.5-2-.5-2v-.5-.5-2-2l-.5-.5-.5-.5.5-2 .5-2-6 50-6 50 6.5 20 6.5 20" style="fill:#86780c;stroke:#86780c"/><path d="m484 619l32-39-8.5-49-8.5-49-3.5-27-3.5-27-5-26-5-26-3-22.5-3-22.5-17-16.5-17-16.5-1 20-1 20 8 24.5 8 24.5 4.5.5 4.5.5 8 2.5 8 2.5-7.5 13-7.5 13-.5 17.5-.5 17.5-9 8.5-9 8.5 5 23.5 5 23.5 5.5 25.5 5.5 25.5 8 25.5 8 25.5" style="fill:#ffffec;stroke:#ffffec"/><path d="m133 602l-2-49-3.5-24.5-3.5-24.5-.5-25-.5-25-2-23-2-23-8 18.5-8 18.5.5 22 .5 22 3.5 23.5 3.5 23.5-10-7.5-10-7.5-2-22.5-2-22.5 2-23 2-23-10.5 20-10.5 20 1 21 1 21 5 10.5 5 10.5 8.5 13 8.5 13 10 18 10 18 7 3.5 7 3.5" style="fill:#243c02;stroke:#243c02"/><path d="m212 598l17-40 5.5 9.5 5.5 9.5-3.5-15-3.5-15-11 18-11 18 1.5-26.5 1.5-26.5-1 34-1 34" style="fill:#dda027;stroke:#dda027"/><path d="m499 597l5-54-6 12-6 12 3.5 15 3.5 15" style="fill:#fff8aa;stroke:#fff8aa"/><path d="m128 594l3 1 1-1 1-1v-1.5-1.5l.5-1 .5-1-4-22-4-22-5.5-4-5.5-4 3.5 28 3.5 28 2.5 1 2.5 1h.5.5" style="fill:#86780c;stroke:#86780c"/><path d="m120 591l2 1-3.5-28-3.5-28 5.5 4 5.5 4 4 22 4 22-3.5-24-3.5-24-2.5-19.5-2.5-19.5-2.5-19-2.5-19-3-10-3-10-1 15.5-1 15.5 1 19.5 1 19.5 3 25 3 25 1.5 14 1.5 14" style="fill:#575c07;stroke:#575c07"/><path d="m211 583l22-36 3.5 15 3.5 15 1-2 1-2 .5-1.5.5-1.5.5-1 .5-1v-.5-.5l11.5-22.5 11.5-22.5 8.5-24 8.5-24 13.5-24.5 13.5-24.5 11.5-19.5 11.5-19.5 19-11 19-11-5.5-16-5.5-16-12 18.5-12 18.5-11-17-11-17-16-11.5-16-11.5-12.5 4.5-12.5 4.5-8.5 7-8.5 7-3 42-3 42v2 2l.5 1 .5 1v1 1l-.5.5-.5.5-.5.5-.5.5v1 1l-.5 1-.5 1v1 1 1 1l-.5.5-.5.5.5 1 .5 1v1 1l-.5.5-.5.5-.5.5-.5.5v1 1 .5.5l-.5 1-.5 1-6.5 32-6.5 32 .5 2 .5 2-.5 1-.5 1v1 1l-.5 1.5-.5 1.5-.5 1.5-.5 1.5-.5 1.5-.5 1.5-1.5 26.5-1.5 26.5" style="fill:#ffd159;stroke:#ffd159"/><path d="m244 567v1l1-.5 1-.5v-1-1l.5-.5.5-.5.5-1 .5-1 .5 1.5.5 1.5 9-18 9-18-.5-.5-.5-.5v-1.5-1.5l.5-1.5.5-1.5-11.5 22.5-11.5 22.5" style="fill:#dda027;stroke:#dda027"/><path d="m160 553l25-55 5-26.5 5-26.5-.5 1.5-.5 1.5v1.5 1.5 2 2l-1 1-1 1-6 21.5-6 21.5-13 17.5-13 17.5v-21.5-21.5l1-12 1-12-2-24.5-2-24.5-.5 24.5-.5 24.5.5 22 .5 22 4 20.5 4 20.5" style="fill:#575c07;stroke:#575c07"/><path d="m457 544l-13-54 .5 6.5.5 6.5 6 20.5 6 20.5" style="fill:#105f5c;stroke:#105f5c"/><path d="m220 540l27-36 4.5 9.5 4.5 9.5 8-18.5 8-18.5-3.5-19.5-3.5-19.5 1-25.5 1-25.5 7-4.5 7-4.5v27 27l8 .5 8 .5 9-22.5 9-22.5-1-24-1-24-12.5-16-12.5-16-7 17-7 17-7.5 2-7.5 2-5.5-6-5.5-6-2.5 23.5-2.5 23.5-3.5 27-3.5 27-5 26.5-5 26.5-3 21.5-3 21.5" style="fill:#fff8aa;stroke:#fff8aa"/><g style="fill:#86780c;stroke:#86780c"><path d="m154 535l26-35 6-21.5 6-21.5-9.5 21-9.5 21-4-15.5-4-15.5-1-16.5-1-16.5-4.5-10-4.5-10-3.5-21.5-3.5-21.5 3.5-19 3.5-19 31-12.5 31-12.5-20 1.5-20 1.5-17 27-17 27 5 26.5 5 26.5 2 24.5 2 24.5-1 12-1 12v21.5 21.5"/><path d="m266 528l1 1 9-25 9-25v-.5-.5l.5-1.5.5-1.5.5-.5.5-.5.5-.5.5-.5v-1-1l.5-1 .5-1 .5-.5.5-.5.5-.5.5-.5v-1-1l.5-1 .5-1 .5-1.5.5-1.5v-1-1l1-.5 1-.5 1-1 1-1 .5-.5.5-.5.5-1 .5-1 1.5-1 1.5-1 .5-1 .5-1 .5-.5.5-.5 1-1 1-1v-1.5-1.5l.5-.5.5-.5.5-1.5.5-1.5.5-1 .5-1 .5-.5.5-.5v-2-2l1-.5 1-.5.5-.5.5-.5.5-1 .5-1 .5-1 .5-1 13-17 13-17 18-13 18-13 2-19 2-19-1-2-1-2-17.5 4-17.5 4-1.5-.5-1.5-.5-1.5.5-1.5.5h-1-1-1.5-1.5l-1 1-1 1-2-.5-2-.5-1.5.5-1.5.5-1.5-.5-1.5-.5-16-14.5-16-14.5-32 6-32 6 22.5 1 22.5 1 16.5-4 16.5-4 12.5 15.5 12.5 15.5 2.5 9.5 2.5 9.5 5-13 5-13h18.5 18.5l-8 25-8 25-26.5 21-26.5 21-13.5 24.5-13.5 24.5-8.5 24-8.5 24-.5 1.5-.5 1.5v1.5 1.5"/></g><path d="m217 512v1l6.5-32 6.5-32-1 1-1 1-5.5 26-5.5 26-.5 2-.5 2 .5.5.5.5v2 2" style="fill:#dda027;stroke:#dda027"/><path d="m217 502v1l5.5-26 5.5-26-5.5 25.5-5.5 25.5" style="fill:#86780c;stroke:#86780c"/><path d="m80 499l4-31-4-4-4-4 2 19.5 2 19.5" style="fill:#575c07;stroke:#575c07"/><path d="m173 499l19-42v-.5-.5-1.5-1.5-1.5-1.5l.5-2 .5-2v-2-2-1.5-1.5-1.5-1.5l-6.5 21-6.5 21-8.5-16-8.5-16 3.5-13 3.5-13-9.5-20.5-9.5-20.5 3-20.5 3-20.5 30.5-13.5 30.5-13.5-1-1-1-1-31 12.5-31 12.5-3.5 19-3.5 19 3.5 21.5 3.5 21.5 4.5 10 4.5 10 1 16.5 1 16.5 4 15.5 4 15.5" style="fill:#dda027;stroke:#dda027"/><path d="m180 478l13-42v-.5-.5l8.5-4.5 8.5-4.5 9.5-21.5 9.5-21.5-5.5-36-5.5-36-30.5 13.5-30.5 13.5-3 20.5-3 20.5 9.5 20.5 9.5 20.5-3.5 13-3.5 13 8.5 16 8.5 16" style="fill:#ffd159;stroke:#ffd159"/><path d="m285 478v1l1-1 1-1 1-1 1-1 .5-1 .5-1 1-1 1-1v-2.5-2.5l1.5-.5 1.5-.5v-2.5-2.5l1-1 1-1 1-.5 1-.5v-1-1l1-1 1-1 .5-1.5.5-1.5-1.5 1-1.5 1-.5 1-.5 1-.5.5-.5.5-1 1-1 1-1 .5-1 .5v1 1l-.5 1.5-.5 1.5-.5 1-.5 1v1 1l-.5.5-.5.5-.5.5-.5.5-.5 1-.5 1v1 1l-.5.5-.5.5-.5.5-.5.5-.5 1.5-.5 1.5" style="fill:#105f5c;stroke:#105f5c"/><path d="m499 474l1 1-3.5-38-3.5-38 3 37.5 3 37.5" style="fill:#ffd159;stroke:#ffd159"/><path d="m192 456v1l1-1 1-1v-2-2-1.5-1.5l.5-1.5.5-1.5.5-1.5.5-1.5 11.5-18 11.5-18v-2-2h1.5 1.5 1 1l-.5-1-.5-1-.5-1.5-.5-1.5-14.5 19.5-14.5 19.5v1.5 1.5 1.5 1.5 2 2l-.5 2-.5 2v1.5 1.5 1.5 1.5" style="fill:#86780c;stroke:#86780c"/><path d="m441 452v1l7-19 7-19-6-26-6-26-7-26-7-26 8-8.5 8-8.5-1.5-1-1.5-1-1.5-1-1.5-1-1.5-.5-1.5-.5-1.5-1-1.5-1-1.5-.5-1.5-.5-1-1.5-1-1.5-1.5-.5-1.5-.5-1-1.5-1-1.5-6.5 23-6.5 23 7.5 21 7.5 21 9 4 9 4-1.5 29.5-1.5 29.5v2.5 2.5 1.5 1.5 2 2l.5 1.5.5 1.5v1.5 1.5" style="fill:#ffd159;stroke:#ffd159"/><path d="m228 450v1l1-1 1-1 .5-1 .5-1v-.5-.5-1-1l.5-.5.5-.5.5-.5.5-.5v-1-1l-.5-1-.5-1 .5-.5.5-.5v-1-1-1-1l.5-1 .5-1v-1-1l.5-.5.5-.5.5-.5.5-.5v-1-1l-.5-1-.5-1v-2-2l-6.5-11-6.5-11 4.5 15 4.5 15-.5 1.5-.5 1.5v1 1 1.5 1.5l-.5.5-.5.5v1 1 1 1l.5 1 .5 1-.5.5-.5.5-.5.5-.5.5v1 1 2 2" style="fill:#86780c;stroke:#86780c"/><path d="m210 443l9-37-11.5 18-11.5 18 .5-2.5.5-2.5.5-2 .5-2 1-1 1-1 1 1.5 1 1.5.5 1.5.5 1.5 1.5 1 1.5 1 1 1 1 1 1 1 1 1" style="fill:#575c07;stroke:#575c07"/><path d="m274 442l5-50-6.5 12.5-6.5 12.5 4 12.5 4 12.5" style="fill:#dda027;stroke:#dda027"/><path d="m439 438l1 1v-2.5-2.5-.5-.5l-7.5-33-7.5-33-7.5-21-7.5-21-.5-.5-.5-.5 6-24.5 6-24.5-.5-1-.5-1-1-1-1-1-1.5-1-1.5-1-.5-1-.5-1-4.5 12.5-4.5 12.5 1 20.5 1 20.5 9 19 9 19 7.5 22 7.5 22v2 2 1 1 1.5 1.5 1 1l-.5.5-.5.5v1 1 2 2 2.5 2.5" style="fill:#86780c;stroke:#86780c"/><g style="fill:#dda027;stroke:#dda027"><path d="m193 435v1l14.5-19.5 14.5-19.5 6.5 11 6.5 11 3-42 3-42 8.5-7 8.5-7 12.5-4.5 12.5-4.5 16 11.5 16 11.5 11 17 11 17 12-18.5 12-18.5 5.5 16 5.5 16-19 11-19 11-11.5 19.5-11.5 19.5 26.5-21 26.5-21 8-25 8-25h-18.5-18.5l-5 13-5 13-2.5-9.5-2.5-9.5-12.5-15.5-12.5-15.5-16.5 4-16.5 4-22.5-1-22.5-1-1-.5-1-.5-1-1-1-1-1.5-.5-1.5-.5 5.5 36 5.5 36-9.5 21.5-9.5 21.5-8.5 4.5-8.5 4.5"/><path d="m440 433v1l1.5-29.5 1.5-29.5-9-4-9-4 7.5 33 7.5 33"/></g><path d="m186 426l19-22 13-17 13-17-4.5-23-4.5-23-20.5-2.5-20.5-2.5-9.5 18-9.5 18v17.5 17.5l12 18 12 18" style="fill:#fff8aa;stroke:#fff8aa"/><path d="m231 426v1l-4.5-15-4.5-15 .5 1.5.5 1.5.5 1 .5 1h-1-1-1.5-1.5v2 2l6 10 6 10" style="fill:#575c07;stroke:#575c07"/><path d="m270 426l3 1 1.5-.5 1.5-.5.5-2 .5-2v-2-2l.5-2 .5-2v-2-2l-.5-2-.5-2v-1-1l-.5 1-.5 1v1.5 1.5l.5.5.5.5v1.5 1.5l-.5 1.5-.5 1.5-.5.5-.5.5-.5 1-.5 1v.5.5h-2-2v-1-1l-1-1-1-1v1.5 1.5 2 2l1 1 1 1v.5.5" style="fill:#86780c;stroke:#86780c"/><g style="fill:#ffffec;stroke:#ffffec"><path d="m289 423l22-23-2-27-2-27-9 1.5-9 1.5-1.5 26.5-1.5 26.5 1.5 10.5 1.5 10.5"/><path d="m246 420l16-33-7.5 5.5-7.5 5.5-.5 11-.5 11"/></g><g style="fill:#575c07;stroke:#575c07"><path d="m274 420v-1l.5-1 .5-1 .5-.5.5-.5.5-1.5.5-1.5v-1.5-1.5l-.5-.5-.5-.5v-1.5-1.5l.5-1 .5-1-4.5 6-4.5 6 1 1 1 1v1 1h2 2"/><path d="m440 414v1l-7.5-22-7.5-22 7.5 21.5 7.5 21.5"/></g><path d="m321 332l3 1 1.5-.5 1.5-.5 2 .5 2 .5 1-1 1-1h1.5 1.5 1 1l1.5-.5 1.5-.5 19-3.5 19-3.5 1 2 1 2-4.5-19-4.5-19-11.5 18-11.5 18-17.5-6-17.5-6-17.5-3.5-17.5-3.5-23.5 1-23.5 1-19-5-19-5-9 7-9 7 20-1.5 20-1.5 1 1 1 1 1.5.5 1.5.5 1 1 1 1 1 .5 1 .5 32-6 32-6 16 14.5 16 14.5" style="fill:#243c02;stroke:#243c02"/><path d="m344 331l35-8-19 3.5-19 3.5 1.5.5 1.5.5" style="fill:#575c07;stroke:#575c07"/><path d="m409 324l1 1 6.5-23 6.5-23-1-2-1-2-6 24.5-6 24.5" style="fill:#dda027;stroke:#dda027"/><path d="m405 291v1l4.5-12.5 4.5-12.5-2-.5-2-.5-.5.5-.5.5-.5.5-.5.5-.5.5-.5.5.5 1 .5 1v1 1l-.5.5-.5.5-.5.5-.5.5-.5 1.5-.5 1.5-1 .5-1 .5-.5.5-.5.5.5 1.5.5 1.5-.5 1-.5 1 .5.5.5.5.5 1.5.5 1.5.5 1 .5 1" style="fill:#575c07;stroke:#575c07"/><path d="m382 242l40-25 5.5-23.5 5.5-23.5 1-9 1-9v2 2l-1 1-1 1v2 2 1 1l-.5.5-.5.5-.5.5-.5.5-.5 1-.5 1h1 1v1 1 1 1l-.5.5-.5.5-.5.5-.5.5.5 1 .5 1v1.5 1.5l-10.5 26.5-10.5 26.5-.5 1-.5 1-1.5 1-1.5 1-1.5.5-1.5.5-1.5 1-1.5 1-1.5-.5-1.5-.5-2 .5-2 .5-1.5-.5-1.5-.5-1.5.5-1.5.5-2-.5-2-.5-1.5-.5-1.5-.5h-1-1-1.5-1.5l-.5-.5-.5-.5-.5-.5-.5-.5h-1-1l-.5-1-.5-1h-1-1-1-1l-1.5-.5-1.5-.5h-1-1l-1.5-.5-1.5-.5 4.5-7 4.5-7v-.5-.5l2-.5 2-.5 1-1 1-1 1.5-1 1.5-1 .5-1.5.5-1.5.5-1.5.5-1.5 1-1.5 1-1.5.5-1.5.5-1.5 1.5-1 1.5-1 .5-1.5.5-1.5 1.5-.5 1.5-.5v-.5-.5l.5-1.5.5-1.5v-1-1l-.5-.5-.5-.5-1-.5-1-.5h-1-1v-1-1l-.5-.5-.5-.5-.5-1-.5-1-.5-.5-.5-.5v-1-1-1-1l.5-1 .5-1 .5-.5.5-.5.5-.5.5-.5.5-1 .5-1-6 20-6 20-20-5.5-20-5.5 12.5 17.5 12.5 17.5 12 4.5 12 4.5" style="fill:#243c02;stroke:#243c02"/><path d="m383 238l4 1 1.5-.5 1.5-.5 1.5.5 1.5.5 2-.5 2-.5 1.5.5 1.5.5 1.5-1 1.5-1 1.5-.5 1.5-.5 1.5-1 1.5-1 .5-1 .5-1v-.5-.5l8.5-23.5 8.5-23.5-15-14.5-15-14.5 18-3 18-3-8.5-24-8.5-24-16.5-14.5-16.5-14.5-10.5 14.5-10.5 14.5 1 1 1 1 1 1.5 1 1.5.5 1.5.5 1.5v2.5 2.5 2 2l-.5 2-.5 2-.5 1.5-.5 1.5-.5 2-.5 2-.5 1.5-.5 1.5h-1-1l-1-.5-1-.5h-1-1-1-1l-.5-.5-.5-.5-.5-.5-.5-.5-1-.5-1-.5-.5.5-.5.5h-1-1-2-2l-11.5 12-11.5 12 32 3.5 32 3.5 10 14.5 10 14.5-19 14-19 14-.5 1-.5 1v1 1h-1-1-1-1l-1 .5-1 .5-.5-.5-.5-.5h-1-1v1 1 1 1l-1 .5-1 .5-.5.5-.5.5h1 1l.5-.5.5-.5 1 .5 1 .5v1 1l.5.5.5.5.5-.5.5-.5 1 1.5 1 1.5 1.5.5 1.5.5h1 1 1 1l.5 1 .5 1h1 1l.5.5.5.5.5.5.5.5h1.5 1.5 1 1l1.5.5 1.5.5" style="fill:#dda027;stroke:#dda027"/><path d="m386 235l35-32-13.5-.5-13.5-.5-8.5 16-8.5 16 4.5.5 4.5.5" style="fill:#ffd159;stroke:#ffd159"/><g style="fill:#86780c;stroke:#86780c"><path d="m358 231l3 1h1 1l-1-1.5-1-1.5-.5.5-.5.5-.5-.5-.5-.5v-1-1l-1-.5-1-.5-.5.5-.5.5h-1-1l.5-.5.5-.5 1-.5 1-.5v-1-1-1-1h1 1l.5.5.5.5 1-.5 1-.5h1 1 1 1v-1-1l.5-1 .5-1-4.5 7-4.5 7"/><path d="m410 231v1l10.5-26.5 10.5-26.5-1-.5-1-.5-1-.5-1-.5-1.5.5-1.5.5-.5.5-.5.5-1 .5-1 .5-1.5.5-1.5.5h-1-1l-1-.5-1-.5-1.5-.5-1.5-.5v-1.5-1.5l-1-2.5-1-2.5 5-4 5-4h1 1l2 1 2 1 .5 1.5.5 1.5 1-.5 1-.5.5-1.5.5-1.5 1-1.5 1-1.5 1-1.5 1-1.5 1-1 1-1v-2-2l-7-25.5-7-25.5-14-17.5-14-17.5-24 5-24 5-1.5 1-1.5 1-1.5.5-1.5.5-.5.5-.5.5-.5 1-.5 1-1 1-1 1-.5.5-.5.5-1 .5-1 .5-1 1-1 1-.5 2-.5 2v1 1l1.5 1 1.5 1 1.5-.5 1.5-.5h2 2l.5.5.5.5 1 .5 1 .5h1.5 1.5l1.5.5 1.5.5h1 1 1.5 1.5l1.5.5 1.5.5.5.5.5.5h1.5 1.5l1 .5 1 .5 10.5-14.5 10.5-14.5 16.5 14.5 16.5 14.5 8.5 24 8.5 24-18 3-18 3 15 14.5 15 14.5-8.5 23.5-8.5 23.5"/><path d="m367 216v1l19-14 19-14-10-14.5-10-14.5 1.5 16.5 1.5 16.5-1.5.5-1.5.5-.5 1.5-.5 1.5-1.5 1-1.5 1-.5 1.5-.5 1.5-1 1.5-1 1.5-.5 1.5-.5 1.5-.5 1.5-.5 1.5-1.5 1-1.5 1-1 1-1 1-2 .5-2 .5"/></g><g style="fill:#575c07;stroke:#575c07"><path d="m388 192v1l-1.5-16.5-1.5-16.5-32-3.5-32-3.5 11.5-12 11.5-12 9-14 9-14-1-.5-1-.5h-1.5-1.5l-.5-.5-.5-.5-1.5-.5-1.5-.5h-1.5-1.5-1-1l-1.5-.5-1.5-.5h-1.5-1.5l1.5.5 1.5.5.5.5.5.5 2 .5 2 .5-3.5 12-3.5 12-2.5 2-2.5 2-9 14-9 14 21-1 21-1 11.5 7.5 11.5 7.5-.5 1-.5 1-.5.5-.5.5-.5.5-.5.5-.5 1-.5 1v1 1 1 1l.5.5.5.5.5 1 .5 1 .5.5.5.5v1 1h1 1l1 .5 1 .5.5.5.5.5v1 1l-.5 1.5-.5 1.5"/><path d="m416 181h2l1.5-.5 1.5-.5 1-.5 1-.5.5-.5.5-.5 1.5-.5 1.5-.5 1 .5 1 .5 1 .5 1 .5v-1.5-1.5l-.5-1-.5-1 .5-.5.5-.5.5-.5.5-.5v-1-1-1-1h-1-1l.5-1 .5-1 .5-.5.5-.5.5-.5.5-.5v-1-1-2-2l-1 1.5-1 1.5-1 1.5-1 1.5-.5 1.5-.5 1.5-1 .5-1 .5-.5-1.5-.5-1.5-2-1-2-1 .5 1 .5 1 1 1 1 1 .5 2 .5 2 1 1 1 1-.5 1-.5 1-1.5.5-1.5.5-1 1.5-1 1.5-1.5-.5-1.5-.5h-1.5-1.5l-2-1-2-1v1.5 1.5l1.5.5 1.5.5 1 .5 1 .5"/></g><path d="m397 180l3 1 .5-1.5.5-1.5 1-1.5 1-1.5-1-1-1-1-1-1.5-1-1.5-1.5.5-1.5.5-2 .5-2 .5-.5 1.5-.5 1.5.5 1.5.5 1.5 2 .5 2 .5.5.5.5.5" style="fill:#ffd159;stroke:#ffd159"/><path d="m415 178h3l1.5.5 1.5.5 1-1.5 1-1.5 1.5-.5 1.5-.5.5-1 .5-1-1-1-1-1-.5-2-.5-2-1-1-1-1-.5-1-.5-1h-1-1l.5 1 .5 1 .5 1 .5 1v2.5 2.5l.5 1.5.5 1.5-1.5 1-1.5 1h-1-1l-1.5-.5-1.5-.5-1.5-1.5-1.5-1.5-1-1-1-1 1 2.5 1 2.5 2 1 2 1" style="fill:#243c02;stroke:#243c02"/><path d="m414 176l3 1h1 1l1.5-1 1.5-1-.5-1.5-.5-1.5v-2.5-2.5l-.5-1-.5-1-.5-1-.5-1-5 4-5 4 1 1 1 1 1.5 1.5 1.5 1.5" style="fill:#0a0600;stroke:#0a0600"/><path d="m317 156h2 .5.5l9-14 9-14-13.5 10.5-13.5 10.5 3 3.5 3 3.5" style="fill:#243c02;stroke:#243c02"/><g style="fill:#ffd159;stroke:#ffd159"><path d="m337 156l5-22-3.5 10.5-3.5 10.5 1 .5 1 .5"/><path d="m422 156l-7-38-18.5-3.5-18.5-3.5 12-7.5 12-7.5-11-11-11-11-14.5 9-14.5 9 9.5 15 9.5 15 12.5 14.5 12.5 14.5 13.5 2.5 13.5 2.5"/></g><path d="m361 132h2l.5-1.5.5-1.5.5-2 .5-2 .5-1.5.5-1.5.5-2 .5-2v-2-2-2.5-2.5l-.5-1.5-.5-1.5-1-1.5-1-1.5-1-1-1-1-9 14-9 14h2 2 1 1l.5-.5.5-.5 1 .5 1 .5.5.5.5.5.5.5.5.5h1 1 1 1l1 .5 1 .5" style="fill:#86780c;stroke:#86780c"/><path d="m394 124l3 1h2 2l1.5-1 1.5-1 1.5-.5 1.5-.5 1.5-1 1.5-1 .5-1 .5-1v-.5-.5l-13-.5-13-.5.5 2 .5 2 1.5 1 1.5 1 1 1 1 1h1.5 1.5" style="fill:#243c02;stroke:#243c02"/><path d="m411 117v1l-13.5-3.5-13.5-3.5.5 2.5.5 2.5 13 .5 13 .5" style="fill:#86780c;stroke:#86780c"/><path d="m333 116l17-16-2-.5-2-.5-.5-.5-.5-.5-1.5-.5-1.5-.5-2 .5-2 .5-1 1-1 1-.5 1.5-.5 1.5 1 1.5 1 1.5 1.5-.5 1.5-.5h1.5 1.5l.5 1.5.5 1.5.5 2 .5 2-1 1-1 1h-1.5-1.5l-5-13-5-13 1-1 1-1 1-.5 1-.5.5-.5.5-.5 1-1 1-1 .5-1 .5-1 .5-.5.5-.5 1.5-.5 1.5-.5 1.5-1 1.5-1-10 16.5-10 16.5 4 3.5 4 3.5" style="fill:#243c02;stroke:#243c02"/><path d="m340 114h3l1-1 1-1-.5-2-.5-2-.5-1.5-.5-1.5h-1.5-1.5l-1.5.5-1.5.5-1-1.5-1-1.5.5-1.5.5-1.5 1-1 1-1 2-.5 2-.5-1-.5-1-.5-.5-.5-.5-.5h-2-2l-1.5.5-1.5.5-1.5-1-1.5-1v-1-1l.5-2 .5-2 5 13 5 13" style="fill:#575c07;stroke:#575c07"/></g></svg>