<svg xmlns="http://www.w3.org/2000/svg" viewBox="0 0 712 960"><g style="fill:#0b0700"><path d="m0 0h712v960h-712z"/><path d="m0 959v1h1.5 1.5v-.5-.5l-1.5-9-1.5-9v3.5 3.5 2 2 2.5 2.5 1 1" style="stroke:#0b0700;stroke-linejoin:round;stroke-width:.7"/></g><g style="stroke-linejoin:round;stroke-width:.7"><path d="m3 959v1h1.5 1.5 1.5 1.5v-.5-.5l-1-28.5-1-28.5-2 1.5-2 1.5 1 .5 1 .5v1 1 1 1l.5 1 .5 1-.5 1.5-.5 1.5-.5.5-.5.5-.5 1-.5 1-.5 1.5-.5 1.5-1 .5-1 .5v1.5 1.5 2 2 2.5 2.5 2 2 1.5 1.5l1.5 9 1.5 9" style="fill:#2d2826;stroke:#2d2826"/><path d="m9 959v1h1.5 1.5 2 2 .5.5v-.5-.5l-4-18.5-4-18.5v-2.5-2.5l.5-2 .5-2v-2-2-2.5-2.5l.5-1.5.5-1.5v-2-2-2.5-2.5l.5-1.5.5-1.5.5-2 .5-2 .5-2 .5-2 1-1 1-1v-2.5-2.5-.5-.5l3-14.5 3-14.5 4.5-5 4.5-5 8.5 4.5 8.5 4.5 1-.5 1-.5 1.5-.5 1.5-.5 1-1.5 1-1.5 1.5-.5 1.5-.5 1-1 1-1 1.5-1 1.5-1 1.5-.5 1.5-.5 1.5-1 1.5-1 1.5-1 1.5-1 14.5.5 14.5.5-1.5 3-1.5 3 6 10 6 10v2 2l-.5.5-.5.5.5 1 .5 1 1.5.5 1.5.5 1.5 1 1.5 1v2 2l-1 1-1 1-1 30-1 30-.5 1-.5 1-.5 1.5-.5 1.5-.5 2-.5 2v2 2l-.5 2-.5 2-1 1-1 1-.5 1.5-.5 1.5-.5.5-.5.5-.5 1-.5 1-1 1-1 1v1 1h2.5 2.5 2 2v-.5-.5l-.5-1.5-.5-1.5-.5-.5-.5-.5-.5 1-.5 1-.5.5-.5.5v-1-1l.5-.5.5-.5.5-.5.5-.5.5-1 .5-1v-1-1l.5-.5.5-.5v-1-1l1-1.5 1-1.5v-2-2l1-1.5 1-1.5.5-1.5.5-1.5.5-1.5.5-1.5.5-2.5.5-2.5v-1-1l-1.5-22.5-1.5-22.5 6 7.5 6 7.5 1 .5 1 .5h1 1l.5-1 .5-1-.5-.5-.5-.5-.5-.5-.5-.5v-1-1-1.5-1.5-1-1l.5-.5.5-.5.5-.5.5-.5h1 1l.5 1 .5 1 .5.5.5.5.5-.5.5-.5v-1-1l-.5-.5-.5-.5.5-2 .5-2v-2-2-1-1l.5-1 .5-1-.5-1.5-.5-1.5.5-.5.5-.5-.5-1-.5-1v-2-2-1-1-1.5-1.5-2-2-2-2-1-1l-.5-1-.5-1-.5-1.5-.5-1.5-.5-1.5-.5-1.5-1-1.5-1-1.5-.5-1.5-.5-1.5v-1.5-1.5l.5-1.5.5-1.5-1-1.5-1-1.5-1.5.5-1.5.5h-1-1-1.5-1.5-1.5-1.5l-.5 1-.5 1-.5 1-.5 1-2-.5-2-.5h-2-2l-1.5-.5-1.5-.5-1-.5-1-.5-1-.5-1-.5-1.5.5-1.5.5h-1.5-1.5l-1.5-.5-1.5-.5h-2-2l-1.5-.5-1.5-.5h-1-1l-1 .5-1 .5-1.5-.5-1.5-.5-.5-.5-.5-.5-.5-1-.5-1-1 1-1 1-1.5 1-1.5 1-1.5.5-1.5.5-.5.5-.5.5-1.5-.5-1.5-.5-.5-.5-.5-.5h-1.5-1.5l-.5.5-.5.5-.5.5-.5.5h-1-1-1.5-1.5l-1.5-.5-1.5-.5h-1-1-2-2l-12 9-12 9-6.5 30.5-6.5 30.5 1 28.5 1 28.5" style="fill:#77736c;stroke:#77736c"/><path d="m17 959v1h1.5 1.5 2 2 2.5 2.5 2 2v-.5-.5l1.5-.5 1.5-.5.5-.5.5-.5 1-1.5 1-1.5 1.5-.5 1.5-.5 1-1 1-1 1.5-1 1.5-1 1.5.5 1.5.5 1.5-1 1.5-1 1-1 1-1 1-.5 1-.5-13.5 5-13.5 5-10.5-16.5-10.5-16.5 4 18.5 4 18.5" style="fill:#928d71;stroke:#928d71"/><path d="m33 959v1h1.5 1.5 2 2 2.5 2.5 2 2 2.5 2.5 2 2v-.5-.5h2 2 1 1 1 1l-1-.5-1-.5h-2-2-1-1-1-1-1-1v-1.5-1.5l.5-.5.5-.5.5-1.5.5-1.5.5-3 .5-3-1 .5-1 .5-1 1-1 1-1.5 1-1.5 1-1.5-.5-1.5-.5-1.5 1-1.5 1-1 1-1 1-1.5.5-1.5.5-1 1.5-1 1.5-.5.5-.5.5-1.5.5-1.5.5" style="fill:#77736c;stroke:#77736c"/><path d="m58 959v1h1.5 1.5 2 2 2.5 2.5 1.5 1.5v-.5-.5-.5-.5l1-1 1-1 1-1.5 1-1.5.5-1 .5-1-2-17.5-2-17.5 3-3.5 3-3.5 5.5 24.5 5.5 24.5 2.5 1 2.5 1h1.5 1.5 1 1v-1-1l1-1 1-1 .5-1 .5-1 .5-.5.5-.5.5-1.5.5-1.5 1-1 1-1 .5-2 .5-2v-2-2l.5-2 .5-2 .5-1.5.5-1.5.5-1 .5-1-8.5 12.5-8.5 12.5-4-18.5-4-18.5-4-12-4-12 5.5-6 5.5-6 4.5 11.5 4.5 11.5 1.5 3.5 1.5 3.5 6-21 6-21 1-1 1-1v-2-2l-1.5-1-1.5-1-1.5-.5-1.5-.5-.5-1-.5-1 .5-.5.5-.5v-2-2l-11 3.5-11 3.5-15 8-15 8 12-11.5 12-11.5 12-6.5 12-6.5-17-7-17-7-1.5 1-1.5 1-1.5 1-1.5 1-1.5.5-1.5.5-1.5 1-1.5 1-1 1-1 1-1.5.5-1.5.5-1 1.5-1 1.5-1.5.5-1.5.5-1 .5-1 .5-16 15.5-16 15.5v2.5 2.5l-1 1-1 1-.5 2-.5 2-1.5 17.5-1.5 17.5 9-1.5 9-1.5 6 12.5 6 12.5 12.5-7 12.5-7-4.5 11.5-4.5 11.5-.5 1.5-.5 1.5-.5.5-.5.5v1.5 1.5h1 1 1 1 1 1 2 2l1 .5 1 .5h-1-1-1-1-2-2" style="fill:#b9b6b0;stroke:#b9b6b0"/><path d="m73 959v1h1.5 1.5 2 2 2.5 2.5 2 2 2.5 2.5 1 1l-2.5-1-2.5-1-.5-.5-.5-.5-6-3-6-3-.5 1-.5 1-1 1.5-1 1.5-1 1-1 1v.5.5" style="fill:#928d71;stroke:#928d71"/><path d="m110 959v1h1.5 1.5 2 2 1 1v-.5-.5l-.5-1-.5-1-.5-1.5-.5-1.5h-1-1l-.5-1-.5-1v-1-1l-.5-.5-.5-.5-.5-1-.5-1v-1.5-1.5l-1 1.5-1 1.5v1 1l-.5.5-.5.5v1 1l-.5 1-.5 1-.5.5-.5.5-.5.5-.5.5v1 1l.5-.5.5-.5.5-1 .5-1 .5.5.5.5.5 1.5.5 1.5" style="fill:#2d2826;stroke:#2d2826"/><path d="m119 959v1h23.5 23.5 10.5 10.5v-.5-.5l-5-14.5-5-14.5-9.5-10-9.5-10 .5-.5.5-.5-8.5-20.5-8.5-20.5v1.5 1.5 1.5 1.5 1 1 1.5 1.5l-1 .5-1 .5-1-1-1-1-1-.5-1-.5v18.5 18.5l-5 8-5 8-1-1-1-1 .5-1.5.5-1.5-1-1.5-1-1.5-1.5-.5-1.5-.5h-1-1l-.5 1.5-.5 1.5v1 1l6 3 6 3 7 8.5 7 8.5-6.5 2.5-6.5 2.5-1.5-1-1.5-1-.5-1.5-.5-1.5h-1.5-1.5l-1-1-1-1-1-1.5-1-1.5-.5-1.5-.5-1.5-1-1.5-1-1.5-.5-.5-.5-.5-.5 1.5-.5 1.5-1 2-1 2v1.5 1.5l.5 1 .5 1 .5.5.5.5v1 1l.5 1 .5 1h1 1l.5 1.5.5 1.5.5 1 .5 1" style="fill:#0b0700;stroke:#0b0700"/><path d="m187 959v1h1.5 1.5 2 2 1.5 1.5v-.5-.5l8 .5 8 .5h1.5 1.5 2 2 2 2 1 1v-.5-.5l4.5.5 4.5.5h2 2 2 2 1 1v-.5-.5l7-8 7-8-.5-1-.5-1-.5-1.5-.5-1.5 1-1.5 1-1.5-.5-1.5-.5-1.5 1-2 1-2-1-.5-1-.5-1-1-1-1 .5-2 .5-2-.5-1.5-.5-1.5.5-2 .5-2 .5-2 .5-2v-.5-.5l-1-.5-1-.5.5-1.5.5-1.5.5-1.5.5-1.5h-2.5-2.5l-.5-1.5-.5-1.5 1.5-1 1.5-1-1-2-1-2-2-17.5-2-17.5-5-1-5-1-1 5.5-1 5.5 2.5 20 2.5 20 5 8 5 8-1-.5-1-.5h-1-1v-1-1-1-1h-1-1-1-1l-.5-1-.5-1 .5-.5.5-.5-.5-.5-.5-.5v-1-1l-.5-1-.5-1-1 16.5-1 16.5-8.5-2.5-8.5-2.5-10.5 1-10.5 1 .5 1 .5 1 1 .5 1 .5-.5.5-.5.5-1 .5-1 .5-1 1-1 1h-1.5-1.5l-7-.5-7-.5.5-8 .5-8-13-10-13-10 9.5 10 9.5 10 5 14.5 5 14.5" style="fill:#2d2826;stroke:#2d2826"/><g style="fill:#0b0700;stroke:#0b0700"><path d="m197 959v1h1.5 1.5 2 2 2.5 2.5 2 2l-8-.5-8-.5"/><path d="m226 959v1h1.5 1.5 2 2 1 1l-4.5-.5-4.5-.5"/></g><path d="m245 959v1h1.5 1.5 2 2 2.5 2.5 2 2 2.5 2.5v-.5-.5l1-.5 1-.5.5-1 .5-1-.5-.5-.5-.5-.5-1-.5-1-1-1-1-1-1-1.5-1-1.5-.5-1.5-.5-1.5-1.5-1-1.5-1-7 8-7 8" style="fill:#3e3946;stroke:#3e3946"/><path d="m266 959v1h1.5 1.5 2 2 2.5 2.5 2 2 2 2v-.5-.5l-13-15.5-13-15.5-1 2-1 2 .5 1.5.5 1.5-1 1.5-1 1.5.5 1.5.5 1.5.5 1 .5 1 1.5 1 1.5 1 .5 1.5.5 1.5 1 1.5 1 1.5 1 1 1 1 .5 1 .5 1 .5.5.5.5-.5 1-.5 1-1 .5-1 .5" style="fill:#0b0700;stroke:#0b0700"/><path d="m286 959v1h1.5 1.5.5.5v-.5-.5l-14.5-24-14.5-24 7.5-17 7.5-17 9-24 9-24 1.5-1 1.5-1h2 2l.5-.5.5-.5.5-.5.5-.5h-1-1l-.5-1-.5-1-1-1-1-1-.5-.5-.5-.5v-1-1-1-1-1-1l.5-1 .5-1v-1-1l.5-.5.5-.5v-1-1l.5-1 .5-1 .5-.5.5-.5v-1-1l.5-.5.5-.5.5-2 .5-2v-1.5-1.5l-.5 1-.5 1-.5 2-.5 2-1 1-1 1-.5 2-.5 2-.5.5-.5.5-1-1.5-1-1.5-.5-.5-.5-.5-.5-1-.5-1-.5-1.5-.5-1.5h-1.5-1.5l2.5-21.5 2.5-21.5v-.5-.5l-1-6.5-1-6.5-1 1-1 1-4.5 21.5-4.5 21.5-.5 2-.5 2-.5 1.5-.5 1.5v1 1 1.5 1.5l-.5 1.5-.5 1.5-.5.5-.5.5v2 2l1 1.5 1 1.5 3 6 3 6-.5 1-.5 1-1 .5-1 .5 1 13 1 13-6.5 15.5-6.5 15.5h-1.5-1.5v-1-1h-1.5-1.5l1-1 1-1 .5-.5.5-.5-1-.5-1-.5-1.5.5-1.5.5 1-1.5 1-1.5-1-1-1-1 1.5-1 1.5-1 1.5-21 1.5-21 .5-1 .5-1v-2.5-2.5-2-2l.5-2 .5-2v-1-1l-.5-.5-.5-.5-.5-31.5-.5-31.5-.5-1-.5-1-.5-1-.5-1-.5-1.5-.5-1.5v-1-1l.5-1 .5-1h-1-1l-.5 2-.5 2-1 1-1 1v1.5 1.5l-.5 1.5-.5 1.5.5 1.5.5 1.5v1 1l-.5 2-.5 2-1 22-1 22v2 2l-1 1.5-1 1.5-.5 1.5-.5 1.5.5 1.5.5 1.5 1.5 1.5 1.5 1.5.5 1.5.5 1.5-2 .5-2 .5.5.5.5.5 1.5-.5 1.5-.5.5 2 .5 2-.5 1.5-.5 1.5-.5 2-.5 2-.5 1.5-.5 1.5-1 1-1 1-.5 2-.5 2 1 .5 1 .5v1 1l-.5 1.5-.5 1.5-1 1.5-1 1.5v2 2l-.5 2-.5 2-.5.5-.5.5v-1-1l-.5-2-.5-2 .5-1.5.5-1.5v-2.5-2.5l-.5-1-.5-1-2.5.5-2.5.5h-1-1l-1-1.5-1-1.5-1-.5-1-.5-1.5-17-1.5-17v-23.5-23.5-2-2-1.5-1.5-1-1l.5-1 .5-1v-1.5-1.5l-.5-1.5-.5-1.5-.5-2-.5-2v-1.5-1.5l1-1.5 1-1.5-.5-1.5-.5-1.5v-1.5-1.5l.5-1.5.5-1.5.5-2 .5-2-.5-1.5-.5-1.5.5-2 .5-2 .5-1.5.5-1.5-1-2.5-1-2.5v-1.5-1.5l-.5-1.5-.5-1.5-.5-2-.5-2 .5-1.5.5-1.5-.5-1.5-.5-1.5v-2.5-2.5l.5-1.5.5-1.5.5-2 .5-2v-.5-.5l-4-21.5-4-21.5v-.5-.5l3.5-19.5 3.5-19.5.5-2 .5-2v-2.5-2.5l-1-1-1-1-5.5 18.5-5.5 18.5-10.5 31.5-10.5 31.5-3 15.5-3 15.5 2 17.5 2 17.5 3.5 13.5 3.5 13.5-1 11.5-1 11.5-3-4.5-3-4.5-4.5 10-4.5 10-4 20-4 20-3-16-3-16-.5 1-.5 1h-.5-.5l-.5-2-.5-2-1.5-.5-1.5-.5 1-1.5 1-1.5-1.5-.5-1.5-.5-2 .5-2 .5h-1-1l-1-1.5-1-1.5v1 1l-.5 1.5-.5 1.5-2.5 1-2.5 1h-1.5-1.5v1 1h-1-1l4.5-13 4.5-13v-1.5-1.5l1 .5 1 .5 1-.5 1-.5.5-1 .5-1-10.5-.5-10.5-.5-.5-1.5-.5-1.5v-2-2l.5-.5.5-.5 1-.5 1-.5 1-1 1-1-.5-.5-.5-.5v-.5-.5l2-1 2-1 .5-1.5.5-1.5.5-.5.5-.5h1 1l.5.5.5.5 1-.5 1-.5h2 2l.5-.5.5-.5.5-1 .5-1 1-2 1-2v-1.5-1.5h-1.5-1.5l-28.5 7-28.5 7-1.5-1-1.5-1-1 1-1 1-1 .5-1 .5-.5-1.5-.5-1.5-2-.5-2-.5-.5 1.5-.5 1.5-.5.5-.5.5v-1.5-1.5l-.5-.5-.5-.5-.5.5-.5.5h-1-1v-.5-.5l1.5-.5 1.5-.5.5-.5.5-.5 1-.5 1-.5 1-1 1-1h1 1v-1.5-1.5l1-.5 1-.5 1 1 1 1 1.5-1 1.5-1 1-1 1-1v-1.5-1.5l.5-1.5.5-1.5 1.5-1 1.5-1 1 1 1 1 .5-1.5.5-1.5.5-.5.5-.5 1-.5 1-.5 2-.5 2-.5h1.5 1.5l1.5.5 1.5.5 1-1.5 1-1.5v-1-1l2.5-.5 2.5-.5v-.5-.5h1.5 1.5l.5-1 .5-1 .5-.5.5-.5.5-1 .5-1 1-1 1-1 1-1.5 1-1.5 1-1 1-1 1-1.5 1-1.5.5-1.5.5-1.5 1-1 1-1 .5-2 .5-2 1 1 1 1 1-1.5 1-1.5 2.5.5 2.5.5 1 .5 1 .5-.5 1-.5 1-.5 2-.5 2-.5 1.5-.5 1.5-1 1-1 1v1 1l-1 .5-1 .5-.5 1.5-.5 1.5-.5 1-.5 1 1-.5 1-.5 1.5 1 1.5 1 6 5 6 5 .5-1.5.5-1.5-1-1.5-1-1.5-1.5.5-1.5.5v-1-1-1.5-1.5h-1-1l-1 .5-1 .5-1.5-.5-1.5-.5.5 2 .5 2-1 1.5-1 1.5 1.5.5 1.5.5h1.5 1.5l1-1 1-1 1 1.5 1 1.5.5 1.5.5 1.5 1 .5 1 .5 1.5-.5 1.5-.5v1.5 1.5l1.5 18.5 1.5 18.5 1.5-1.5 1.5-1.5 1.5-1 1.5-1 1.5-1.5 1.5-1.5.5-1 .5-1 1.5.5 1.5.5h1 1l.5-1 .5-1-.5-1.5-.5-1.5-.5.5-.5.5-1 .5-1 .5-.5-1.5-.5-1.5.5-1.5.5-1.5.5-.5.5-.5v-1.5-1.5l1-1.5 1-1.5-.5-.5-.5-.5-1-.5-1-.5-1-2-1-2-.5 1.5-.5 1.5-.5 1-.5 1-5-19.5-5-19.5-.5-.5-.5-.5-5.5-28.5-5.5-28.5-6-18.5-6-18.5-16-3.5-16-3.5-14-10.5-14-10.5-8.5-16-8.5-16-3-19.5-3-19.5-2.5-22-2.5-22 3.5-19.5 3.5-19.5 11.5-19.5 11.5-19.5v1.5 1.5 2 2l-.5 2-.5 2 1.5-.5 1.5-.5.5-1.5.5-1.5v-1-1l.5-1 .5-1v-2-2l1-1.5 1-1.5.5-1.5.5-1.5 9-19.5 9-19.5.5-1.5.5-1.5.5-1 .5-1 .5-.5.5-.5.5-.5.5-.5.5-.5.5-.5.5-.5.5-.5.5-1 .5-1 .5-1 .5-1v-.5-.5-2-2l1-1 1-1 .5-2 .5-2 1.5-.5 1.5-.5 1-1.5 1-1.5h1 1l-1 1.5-1 1.5v1 1l.5.5.5.5 1.5-1 1.5-1 12.5-11 12.5-11 10.5-13.5 10.5-13.5.5-1 .5-1h1.5 1.5l.5-.5.5-.5.5-.5.5-.5v-1-1l-.5-1-.5-1v-1-1l.5-.5.5-.5h1 1l.5-.5.5-.5.5-1 .5-1 .5-.5.5-.5h1 1l.5-.5.5-.5.5-.5.5-.5h1.5 1.5 1 1l.5.5.5.5h-1-1l.5 1.5.5 1.5.5 1 .5 1-2-.5-2-.5-1 1-1 1-.5 2-.5 2-.5 1.5-.5 1.5-1 1-1 1-.5 1.5-.5 1.5v1 1l6 1.5 6 1.5 6.5.5 6.5.5 10.5-2.5 10.5-2.5h11 11l.5 1 .5 1 2 .5 2 .5h1.5 1.5l1-.5 1-.5.5.5.5.5h1.5 1.5l-.5-1.5-.5-1.5.5-.5.5-.5.5-.5.5-.5.5-.5.5-.5h1.5 1.5l1-1 1-1 .5-.5.5-.5 1-1 1-1 6.5-14.5 6.5-14.5 6-13 6-13v-2-2l-.5-1.5-.5-1.5-.5-2-.5-2-1-1-1-1-.5-2-.5-2v-2-2l-.5-2-.5-2-.5-2-.5-2v-2-2-1-1-1-1l-.5-.5-.5-.5-.5-1-.5-1v-1-1l-.5-.5-.5-.5-.5-1-.5-1-.5-2.5-.5-2.5-.5-1.5-.5-1.5-.5-2-.5-2 .5-1.5.5-1.5 1.5-1 1.5-1v-2-2l-.5-1-.5-1-.5-.5-.5-.5-.5-1-.5-1-.5-1.5-.5-1.5.5-1.5.5-1.5-.5-.5-.5-.5-.5-1-.5-1-1-1-1-1-.5-1.5-.5-1.5v-.5-.5l-.5-1.5-.5-1.5-.5-.5-.5-.5v-1-1-1-1l.5-1 .5-1v-2-2l.5-.5.5-.5v-1-1-1-1l1 1 1 1 .5-1 .5-1h.5.5v-1-1-.5-.5l4-3.5 4-3.5v2.5 2.5l7.5-13.5 7.5-13.5v-2.5-2.5l16-9.5 16-9.5 16.5 7 16.5 7 .5 1.5.5 1.5 1 .5 1 .5-1 1-1 1-3 9.5-3 9.5-1.5-1-1.5-1v.5.5l1 2 1 2 1.5.5 1.5.5h1.5 1.5v1 1 1 1l.5.5.5.5.5.5.5.5.5.5.5.5.5 1 .5 1 .5.5.5.5.5.5.5.5.5.5.5.5 1 .5 1 .5.5 1.5.5 1.5v1 1l1 .5 1 .5 1 1.5 1 1.5 1 1 1 1-.5 2-.5 2-.5 1.5-.5 1.5-1.5 1-1.5 1-1.5.5-1.5.5-2.5-1-2.5-1-1 .5-1 .5-1 .5-1 .5-1.5.5-1.5.5 7 6.5 7 6.5 1 1 1 1 1 .5 1 .5 1.5-.5 1.5-.5 1 .5 1 .5h-.5-.5l-2 10.5-2 10.5.5 2 .5 2h1 1l.5-1 .5-1 1 1 1 1 .5-2 .5-2 .5 1.5.5 1.5-.5 1.5-.5 1.5-.5 2-.5 2v2 2 2.5 2.5l.5 1.5.5 1.5.5 2 .5 2v2 2l-.5 1.5-.5 1.5-1 1.5-1 1.5-1 1.5-1 1.5-1.5.5-1.5.5-.5-.5-.5-.5-2 .5-2 .5-1.5.5-1.5.5-2 .5-2 .5-1.5.5-1.5.5-1.5.5-1.5.5 1.5.5 1.5.5 1.5-.5 1.5-.5.5-.5.5-.5.5-.5.5-.5.5.5.5.5h1.5 1.5l-.5.5-.5.5-.5.5-.5.5-1 .5-1 .5-1.5.5-1.5.5h-1-1l-.5 1-.5 1-1.5.5-1.5.5-1.5-.5-1.5-.5 1-.5 1-.5-1-.5-1-.5.5-1 .5-1-2 .5-2 .5-.5 1-.5 1v1.5 1.5h-1-1l-1-.5-1-.5-1.5.5-1.5.5h-1-1l-1 .5-1 .5-.5 1.5-.5 1.5v1 1h1 1v1 1l-.5.5-.5.5-1-.5-1-.5-1-.5-1-.5-2.5 18-2.5 18 4 4 4 4v23.5 23.5l1 1.5 1 1.5.5.5.5.5v1.5 1.5l.5 1.5.5 1.5-.5 1-.5 1 .5-13 .5-13-.5-.5-.5-.5 3.5-8.5 3.5-8.5-3 8.5-3 8.5.5-1.5.5-1.5.5-.5.5-.5v-1-1-1-1l1-.5 1-.5 1.5.5 1.5.5-.5.5-.5.5-.5.5-.5.5-.5.5-.5.5v1.5 1.5l.5.5.5.5.5.5.5.5v1 1l1 .5 1 .5.5-.5.5-.5.5-.5.5-.5-.5-.5-.5-.5.5-1.5.5-1.5.5-1 .5-1v-1-1l.5-.5.5-.5v-1-1-1-1l.5-1 .5-1v-1-1l-.5-2-.5-2v-2-2l-1-1.5-1-1.5-.5-1.5-.5-1.5-.5-1.5-.5-1.5-.5-2-.5-2-1-1-1-1-.5-1.5-.5-1.5-.5-1-.5-1-.5-.5-.5-.5-.5-1-.5-1v-1-1-1-1l.5-.5.5-.5v-1.5-1.5h1 1 1 1l-.5-.5-.5-.5v-1-1-1-1l1-.5 1-.5.5-.5.5-.5h1 1l.5.5.5.5 1 .5 1 .5.5.5.5.5.5 1.5.5 1.5.5.5.5.5 17 14 17 14 .5 1 .5 1 1 .5 1 .5 1.5.5 1.5.5 1.5.5 1.5.5.5.5.5.5.5.5.5.5 1 .5 1 .5.5.5.5.5h1 1l.5.5.5.5.5.5.5.5 1 .5 1 .5.5.5.5.5.5.5.5.5h1 1l1 1.5 1 1.5 8.5 16 8.5 16 5 19 5 19 4.5 18.5 4.5 18.5 2 22 2 22 5 16.5 5 16.5 7.5 16.5 7.5 16.5-.5 23-.5 23-4 20.5-4 20.5-11.5 22-11.5 22 1 .5 1 .5 1-1 1-1h1 1 1 1l1-1 1-1 1.5-.5 1.5-.5.5-1 .5-1 1-1 1-1 .5-.5.5-.5 1-.5 1-.5.5-1.5.5-1.5v1.5 1.5l-.5 1.5-.5 1.5-.5 2-.5 2-.5 1-.5 1v1.5 1.5 1 1 1.5 1.5 1 1l-.5.5-.5.5v1 1l.5 1 .5 1-.5.5-.5.5v1 1 1 1l-.5 1-.5 1v1 1 1 1h-1-1l-.5-13-.5-13-6 .5-6 .5-1 1.5-1 1.5-1 1-1 1v1 1l-.5 1-.5 1-.5 1.5-.5 1.5h-1-1l-7.5-17.5-7.5-17.5-2.5-21.5-2.5-21.5-3-20-3-20-3-21-3-21-3-21-3-21-3.5-19.5-3.5-19.5-8.5-32.5-8.5-32.5-1-.5-1-.5-.5.5-.5.5.5.5.5.5.5 1 .5 1 .5 1.5.5 1.5.5.5.5.5v1.5 1.5l1 1 1 1-.5.5-.5.5 1 .5 1 .5 1 1 1 1v1 1l.5.5.5.5v1 1 1.5 1.5l-.5 1.5-.5 1.5-5 19-5 19-4 22-4 22 .5 1 .5 1 1 .5 1 .5v2 2l-.5 1-.5 1 6.5 11 6.5 11-5 7.5-5 7.5 6.5 9 6.5 9v.5.5l6 15 6 15v2 2h-1.5-1.5l-.5 1.5-.5 1.5-.5 1-.5 1 .5 1.5.5 1.5-.5.5-.5.5-.5-1-.5-1v-1.5-1.5l-.5-.5-.5-.5v-1.5-1.5l-.5-.5-.5-.5-.5-1-.5-1-1.5-.5-1.5-.5-5-10.5-5-10.5v-2-2-.5-.5l-3.5-7.5-3.5-7.5v-15-15l-1.5.5-1.5.5-.5.5-.5.5v-2-2l.5-.5.5-.5v-1-1-1-1-1.5-1.5l-.5 1-.5 1v1.5 1.5l-.5.5-.5.5v1 1 1 1 1.5 1.5l-.5.5-.5.5v1 1 2 2 2.5 2.5l-.5 1-.5 1-.5-1.5-.5-1.5-.5-2-.5-2v-2-2l-.5-1.5-.5-1.5v-1-1-1.5-1.5l-.5-1.5-.5-1.5v-1.5-1.5l-.5-1.5-.5-1.5v-2.5-2.5l-.5-1.5-.5-1.5-.5 2.5-.5 2.5-2.5 17-2.5 17-13 6-13 6 6 7 6 7 5 8.5 5 8.5 8.5 1.5 8.5 1.5 5 8.5 5 8.5-6 4-6 4-8.5 11-8.5 11 9.5 11.5 9.5 11.5-7 6.5-7 6.5-.5-1-.5-1-1.5-.5-1.5-.5h-1-1-1.5-1.5l-1 2-1 2 10.5 14 10.5 14-11 8-11 8-5-9-5-9-1.5-9-1.5-9-6.5-3.5-6.5-3.5-8.5-1.5-8.5-1.5-1.5-.5-1.5-.5-1.5.5-1.5.5-1.5-.5-1.5-.5v-14-14l5-17 5-17-.5-.5-.5-.5-.5-2.5-.5-2.5 1-1.5 1-1.5.5-1.5.5-1.5.5-2 .5-2v-2-2l-1-1.5-1-1.5-1-1-1-1 1-.5 1-.5.5 1.5.5 1.5 1 .5 1 .5-3.5-18-3.5-18v1.5 1.5 1.5 1.5l-1 1.5-1 1.5-.5 1.5-.5 1.5-.5 2-.5 2v2 2 1.5 1.5l-.5 1.5-.5 1.5-.5 1-.5 1-1-.5-1-.5-.5-.5-.5-.5-1-23-1-23-1-17.5-1-17.5 3.5 13 3.5 13 5.5 3.5 5.5 3.5 9 1.5 9 1.5v-.5-.5l-.5-.5-.5-.5-.5-12-.5-12 4.5 12 4.5 12v.5.5l4-11 4-11 11-7 11-7 2 2 2 2v-1.5-1.5l-.5-1.5-.5-1.5v-2.5-2.5l-.5-1.5-.5-1.5v-2-2l-.5-2-.5-2-.5 1-.5 1-.5.5-.5.5.5.5.5.5-1 .5-1 .5.5 1.5.5 1.5-.5.5-.5.5-1.5-.5-1.5-.5-1-.5-1-.5.5-1.5.5-1.5v-2.5-2.5l.5-1.5.5-1.5.5-2 .5-2 1-1 1-1 .5 1.5.5 1.5v1.5 1.5l1 2 1 2-1.5-21-1.5-21-5.5-19.5-5.5-19.5-1 .5-1 .5-1 .5-1 .5-19.5 8-19.5 8h-1.5-1.5-2-2l-1.5-.5-1.5-.5-2-.5-2-.5-1.5-.5-1.5-.5-2 .5-2 .5v1.5 1.5 1 1l.5.5.5.5v1 1 1.5 1.5l-.5.5-.5.5v1 1l.5.5.5.5v1 1 1 1l-.5 1-.5 1v1 1 1 1 1 1 1.5 1.5l-.5.5-.5.5-.5 1.5-.5 1.5v2.5 2.5 1 1 1 1 1 1 1.5 1.5l-.5.5-.5.5h-1-1l-.5.5-.5.5v1 1l.5 1.5.5 1.5-.5 31.5-.5 31.5 5.5 10 5.5 10 2 28 2 28v1 1l-3 17.5-3 17.5.5-15 .5-15-6-23.5-6-23.5-.5-2-.5-2-1-1.5-1-1.5-.5-1.5-.5-1.5-.5-1.5-.5-1.5v-2.5-2.5l-.5-1.5-.5-1.5-.5-2-.5-2-.5-1.5-.5-1.5-.5-1-.5-1-1-1.5-1-1.5-.5 1.5-.5 1.5v1 1 1.5 1.5 2 2l.5 2 .5 2-.5 1.5-.5 1.5v1.5 1.5 1.5 1.5l.5 1 .5 1 .5 2 .5 2 .5 1 .5 1 3.5 9.5 3.5 9.5.5 1 .5 1v2 2l-.5 1.5-.5 1.5 1 2 1 2 .5 1.5.5 1.5.5 2 .5 2 .5 1.5.5 1.5.5 1.5.5 1.5h-1.5-1.5l-1-.5-1-.5-1.5-.5-1.5-.5-.5-.5-.5-.5v-2-2-2.5-2.5l.5-1.5.5-1.5-.5-2-.5-2v-2-2l-.5-2.5-.5-2.5-.5-1-.5-1 1-1 1-1-1-1.5-1-1.5-.5-1.5-.5-1.5v-2.5-2.5l-.5-1-.5-1v2.5 2.5 2.5 2.5l.5 1.5.5 1.5-.5 1-.5 1v3 3l.5 2 .5 2v2 2 2.5 2.5l.5 2 .5 2 .5 1 .5 1v1.5 1.5l.5.5.5.5v1 1l.5.5.5.5v.5.5 1 1l-.5.5-.5.5v1 1l-.5 1-.5 1 .5.5.5.5.5.5.5.5v1 1 1.5 1.5l-.5.5-.5.5.5 1.5.5 1.5.5 1.5.5 1.5-.5 2-.5 2v2 2l.5 2 .5 2v1 1 2.5 2.5 2 2l.5 2 .5 2v2 2l.5 2.5.5 2.5-.5 1-.5 1v2 2l.5 2 .5 2v2 2l-1.5 2-1.5 2 6 33.5 6 33.5 1 1 1 1v1 1l.5 1 .5 1-.5 1.5-.5 1.5v1 1 1 1h1 1v-1.5-1.5l.5-.5.5-.5.5.5.5.5.5.5.5.5-.5 1-.5 1v2 2 1 1l.5 1 .5 1 .5 2.5.5 2.5 1 1 1 1-1 12.5-1 12.5 6.5 2 6.5 2 14.5 1 14.5 1-7-15.5-7-15.5 3-8.5 3-8.5 1.5.5 1.5.5-1 1-1 1h1 1l1.5-1 1.5-1 1-.5 1-.5 1.5-.5 1.5-.5.5-.5.5-.5 1-.5 1-.5 1-1 1-1 .5-.5.5-.5 1-.5 1-.5 1-1 1-1h1 1l1-1 1-1 1-1 1-1 .5-.5.5-.5.5-1 .5-1 .5-.5.5-.5.5-.5.5-.5.5-.5.5-.5.5-1 .5-1 1-1 1-1 .5-.5.5-.5 1-.5 1-.5 1-1 1-1h1 1l1-.5 1-.5 1.5.5 1.5.5h1 1 1.5 1.5l4-9 4-9 14.5 10 14.5 10 .5.5.5.5.5 1 .5 1 .5 2 .5 2 1 1 1 1-1.5 1-1.5 1-1.5.5-1.5.5-1 .5-1 .5 2.5 11 2.5 11-.5 2-.5 2-.5 1.5-.5 1.5-.5 1.5-.5 1.5v1.5 1.5l1.5-1.5 1.5-1.5 11-3.5 11-3.5 11.5 1 11.5 1 9 2.5 9 2.5 15.5 1.5 15.5 1.5 11.5 15 11.5 15 11.5 9.5 11.5 9.5 11 13 11 13 6.5 35 6.5 35 1 .5 1 .5-.5 2-.5 2-.5 1.5-.5 1.5-1 1.5-1 1.5-.5 1.5-.5 1.5-1 1-1 1-1 1.5-1 1.5 1 1 1 1-1 1.5-1 1.5h-1-1l-1-.5-1-.5-1 1-1 1-.5.5-.5.5h-1.5-1.5l-1 1-1 1-.5.5-.5.5-.5 1-.5 1-1.5-.5-1.5-.5-.5.5-.5.5-1 .5-1 .5-.5 1-.5 1 .5 1 .5 1-.5 1.5-.5 1.5.5 1.5.5 1.5-1 2-1 2 1 1 1 1v1 1l-.5 1-.5 1-1 1-1 1-.5.5-.5.5h-.5-.5l-.5-1.5-.5-1.5-.5.5-.5.5-.5 1-.5 1-1 2-1 2h2 2 1.5 1.5v-.5-.5l11-12.5 11-12.5 6.5-17 6.5-17-1-19-1-19-7-16.5-7-16.5-10-13-10-13-9-14.5-9-14.5v-17.5-17.5l-4.5-11.5-4.5-11.5-5-15.5-5-15.5-5-16.5-5-16.5-4-18-4-18-4.5-19-4.5-19-.5-20-.5-20-5-17-5-17-5.5-17-5.5-17-3-19-3-19-3-19.5-3-19.5-5-18-5-18-5-18.5-5-18.5-11-12.5-11-12.5-14.5-9-14.5-9-18-18-18-18h-1.5-1.5v1 1l-.5.5-.5.5v1 1 1.5 1.5 1 1 1 1 1 1l-1 .5-1 .5-.5.5-.5.5-.5.5-.5.5h-1-1v-1.5-1.5l.5-1.5.5-1.5.5-1.5.5-1.5.5-2 .5-2 .5-1.5.5-1.5.5-2 .5-2 .5-1.5.5-1.5 1.5-1 1.5-1 1.5-.5 1.5-.5 2-.5 2-.5 16-8 16-8 1-21.5 1-21.5-1.5-19-1.5-19-8.5-13.5-8.5-13.5 2-9.5 2-9.5-10.5-12.5-10.5-12.5-15-3.5-15-3.5-7.5.5-7.5.5-5-4.5-5-4.5-2.5 21.5-2.5 21.5-1 1-1 1-1-.5-1-.5-1.5.5-1.5.5-.5-2-.5-2h-2-2l-.5 2-.5 2-.5 1.5-.5 1.5-.5 1-.5 1-1 .5-1 .5v2 2l-1 1.5-1 1.5-.5 1.5-.5 1.5-.5 1.5-.5 1.5v1.5 1.5l-.5 2.5-.5 2.5v2.5 2.5l-.5 1.5-.5 1.5-.5 2-.5 2v1 1l-.5 1.5-.5 1.5v2.5 2.5l-.5 1-.5 1v2 2l1 1 1 1 1 1.5 1 1.5.5 2 .5 2 4 20.5 4 20.5.5 21.5.5 21.5-9 13.5-9 13.5-4 7-4 7-7.5-3-7.5-3-5.5-3-5.5-3-3-.5-3-.5-6.5 5-6.5 5-2-3.5-2-3.5 5.5-9.5 5.5-9.5h-6.5-6.5l-15 7.5-15 7.5-11.5 13-11.5 13-13.5 11-13.5 11-12.5 12-12.5 12-8.5 14.5-8.5 14.5-8 16.5-8 16.5-8.5 16-8.5 16-5 18.5-5 18.5 1.5 22 1.5 22-3 21.5-3 21.5-1 17.5-1 17.5 1 .5 1 .5.5 1 .5 1 .5 1.5.5 1.5v1 1l1 .5 1 .5h1 1v1 1 1 1l1 .5 1 .5 1 1 1 1h1 1l1-.5 1-.5 1 1 1 1h1 1v1.5 1.5l4.5 2.5 4.5 2.5h-2-2l-1.5-1-1.5-1-1-1.5-1-1.5-2-.5-2-.5-1-1-1-1h-1-1l-1-.5-1-.5-.5-.5-.5-.5h-1-1v-1-1l-.5-.5-.5-.5-.5-.5-.5-.5-1-.5-1-.5-.5.5-.5.5v-1-1l.5-.5.5-.5-.5-1-.5-1v-1-1l-1-1-1-1-.5 1-.5 1-.5 1.5-.5 1.5v.5.5l1 25.5 1 25.5-.5-1.5-.5-1.5-.5-.5-.5-.5-.5-.5-.5-.5.5-.5.5-.5v-1.5-1.5l-.5-.5-.5-.5-.5-1-.5-1-1.5-.5-1.5-.5-.5 1.5-.5 1.5v2.5 2.5 2 2 2 2l.5 1 .5 1 5.5 17 5.5 17 6.5 11.5 6.5 11.5 5 7.5 5 7.5.5 1 .5 1 .5 2 .5 2 .5.5.5.5 1 .5 1 .5.5 1.5.5 1.5 1 1.5 1 1.5-1.5.5-1.5.5-2 .5-2 .5-.5 1.5-.5 1.5 1 1 1 1 .5.5.5.5 1 .5 1 .5-6.5-22.5-6.5-22.5-1-1-1-1-.5-.5-.5-.5v-1.5-1.5l.5-.5.5-.5.5.5.5.5h1 1l1 .5 1 .5 1 1 1 1v1 1h1 1 1 1l1 .5 1 .5h1 1l.5.5.5.5.5.5.5.5h1.5 1.5 1 1l.5.5.5.5.5 1 .5 1 2 .5 2 .5.5 1.5.5 1.5.5.5.5.5.5 1 .5 1 .5 1.5.5 1.5 1.5 1.5 1.5 1.5 15.5-6 15.5-6-8.5 7.5-8.5 7.5-3 4-3 4-12 10.5-12 10.5-.5 1-.5 1-10.5 2-10.5 2 1.5 12.5 1.5 12.5 13 10 13 10 6.5-2.5 6.5-2.5 3-7 3-7 9 9 9 9 3.5 6.5 3.5 6.5 10.5 5.5 10.5 5.5-.5 1.5-.5 1.5.5 1.5.5 1.5.5 1.5.5 1.5v1.5 1.5l-2 13.5-2 13.5v20.5 20.5l-1.5-1-1.5-1-.5.5-.5.5 13 10 13 10-.5 8-.5 8 7 .5 7 .5v-.5-.5l2.5-3 2.5-3 10.5-1 10.5-1 8.5 2.5 8.5 2.5 1-16.5 1-16.5v-1.5-1.5l-2.5-20-2.5-20 1-5.5 1-5.5 5 1 5 1 2 17.5 2 17.5.5-1.5.5-1.5.5 1 .5 1 .5 1.5.5 1.5 1.5 1 1.5 1-1.5.5-1.5.5 1 1 1 1h1 1l.5 1 .5 1v1 1l-.5.5-.5.5v1.5 1.5l-1 1-1 1-.5 2-.5 2-.5 2-.5 2 .5 1.5.5 1.5-.5 2-.5 2 1 1 1 1 1 .5 1 .5 13 15.5 13 15.5" style="fill:#5d5869;stroke:#5d5869"/><path d="m290 959v1h1.5 1.5 2 2 .5.5v-.5-.5l1.5-1 1.5-1-10.5-9.5-10.5-9.5-9.5-13.5-9.5-13.5 14.5 24 14.5 24" style="fill:#b9b6b0;stroke:#b9b6b0"/><path d="m298 959v1h23.5 23.5 24.5 24.5 24.5 24.5 2 2v-.5-.5l-8.5-15.5-8.5-15.5-7.5-15.5-7.5-15.5-7-17-7-17-6.5-21.5-6.5-21.5-.5-1.5-.5-1.5-.5-.5-.5-.5v-1-1l-.5-.5-.5-.5v-1-1l-.5-1-.5-1-.5-.5-.5-.5-.5-.5-.5-.5v-1-1l-.5-.5-.5-.5-.5-1-.5-1-.5-.5-.5-.5v-1-1l-.5-.5-.5-.5-.5-2-.5-2 5-1.5 5-1.5 9.5 10.5 9.5 10.5 6 5 6 5 3 5.5 3 5.5 9.5 5.5 9.5 5.5 5-2 5-2 7 9 7 9 1.5 6.5 1.5 6.5 8.5 4.5 8.5 4.5 11.5 8.5 11.5 8.5-5 10.5-5 10.5h15 15l4.5-6.5 4.5-6.5-10-5-10-5 16.5 3 16.5 3 10.5 7.5 10.5 7.5 18-7.5 18-7.5-6.5-35-6.5-35-11-13-11-13-11.5-9.5-11.5-9.5-1.5 1.5-1.5 1.5h-1-1l-10-12-10-12 1-4.5 1-4.5-15.5-1.5-15.5-1.5-9-2.5-9-2.5-11.5-1-11.5-1-11 3.5-11 3.5-.5 1.5-.5 1.5v1 1l-.5.5-.5.5-1 .5-1 .5-.5.5-.5.5-.5.5-.5.5-.5.5-.5.5-1.5-.5-1.5-.5.5-1 .5-1 1-1.5 1-1.5.5-1.5.5-1.5.5-1.5.5-1.5 1-1.5 1-1.5.5-1.5.5-1.5 1-1 1-1-2.5-11-2.5-11v-.5-.5l-.5-1-.5-1-1.5-.5-1.5-.5-1.5-.5-1.5-.5-2-.5-2-.5-1.5-.5-1.5-.5-2-.5-2-.5-1-1-1-1-2-.5-2-.5-1-1-1-1h-2-2l-2-1-2-1h-1.5-1.5-1-1l-1.5-.5-1.5-.5-1 .5-1 .5h-1-1l-1 1-1 1-1 .5-1 .5-.5.5-.5.5-1 1-1 1-.5 1-.5 1-.5.5-.5.5-.5.5-.5.5-.5.5-.5.5-.5 1-.5 1-.5.5-.5.5-1 1-1 1-9 12.5-9 12.5-3.5 2-3.5 2-3.5 18.5-3.5 18.5-13.5-5.5-13.5-5.5-.5 1.5-.5 1.5-.5 1.5-.5 1.5.5 1.5.5 1.5.5.5.5.5.5 1 .5 1 1 1 1 1 .5 1 .5 1 1.5 1 1.5 1 1 1 1 1v1 1l.5 1 .5 1 1.5 1.5 1.5 1.5 1 1 1 1 .5 1.5.5 1.5 1 1.5 1 1.5.5 1.5.5 1.5 1 1.5 1 1.5.5 1 .5 1 1 1 1 1 .5.5.5.5.5.5.5.5.5.5.5.5.5 1 .5 1 .5.5.5.5v1 1l.5.5.5.5.5 1 .5 1 1 1 1 1v1 1l1 .5 1 .5.5 1.5.5 1.5.5.5.5.5v1 1l.5.5.5.5.5 1.5.5 1.5 5 15 5 15-1-.5-1-.5-1-1-1-1-1-1-1-1-1-1.5-1-1.5-.5-1.5-.5-1.5-1-1-1-1-.5-2-.5-2-.5-1.5-.5-1.5-.5-.5-.5-.5-8.5-15-8.5-15-12-15-12-15-.5 2-.5 2-.5.5-.5.5v1 1l-.5.5-.5.5-.5 1-.5 1v1 1l-.5.5-.5.5v1 1l-.5 1-.5 1v1 1 1 1 1 1l.5.5.5.5 1 1 1 1 1.5.5 1.5.5 1.5 1 1.5 1 1 1 1 1 1.5 1 1.5 1 .5 1.5.5 1.5h-1-1l-1.5-1.5-1.5-1.5-1.5-.5-1.5-.5h-2.5-2.5-2.5-2.5l-9 24-9 24-7.5 17-7.5 17 9.5 13.5 9.5 13.5 10.5 9.5 10.5 9.5-1.5 1-1.5 1" style="fill:#e5e1d5;stroke:#e5e1d5"/><path d="m447 959v1h23.5 23.5 3.5 3.5v-.5-.5l1-5 1-5 3.5 1 3.5 1 9.5-5 9.5-5 4 9.5 4 9.5h3 3 2 2 2 2v-.5-.5l14.5-6 14.5-6 1-2 1-2-.5-1.5-.5-1.5.5-1.5.5-1.5-.5-1-.5-1-.5.5-.5.5-24 9-24 9 .5-1 .5-1 1.5-1 1.5-1 .5-1.5.5-1.5-.5-2-.5-2 .5-1.5.5-1.5 1-1 1-1v-.5-.5l-2.5-.5-2.5-.5h-1.5-1.5-.5-.5l-1.5.5-1.5.5h-1-1l-1 .5-1 .5-1.5.5-1.5.5-1.5-.5-1.5-.5-1-.5-1-.5-1-.5-1-.5-1.5-1-1.5-1-1-1-1-1-2 .5-2 .5-13 5.5-13 5.5-11.5 6.5-11.5 6.5-.5-9-.5-9 4-14 4-14 6.5 4.5 6.5 4.5-1.5.5-1.5.5-.5.5-.5.5-.5.5-.5.5h-1-1l1.5-11 1.5-11 2.5 9 2.5 9 1-1 1-1 1-1.5 1-1.5.5-1.5.5-1.5.5 1.5.5 1.5 2-.5 2-.5-.5-1.5-.5-1.5 1.5-1 1.5-1-.5-.5-.5-.5-13.5-10.5-13.5-10.5-8.5-8.5-8.5-8.5-17-11-17-11-1-.5-1-.5-9.5-13-9.5-13 6.5 21.5 6.5 21.5 7 17 7 17 7.5 15.5 7.5 15.5 8.5 15.5 8.5 15.5" style="fill:#928d71;stroke:#928d71"/><path d="m501 959v1h1.5 1.5 1.5 1.5v-.5-.5l-.5-1-.5-1-.5-.5-.5-.5v-1.5-1.5l1.5-.5 1.5-.5.5.5.5.5v1.5 1.5h1 1l.5-.5.5-.5v-1-1h1 1l1-.5 1-.5 1.5.5 1.5.5v1 1l.5 1 .5 1-1.5.5-1.5.5-1 1-1 1h3.5 3.5 2 2 2.5 2.5 2 2 1 1l-4-9.5-4-9.5-9.5 5-9.5 5-3.5-1-3.5-1-1 5-1 5" style="fill:#77736c;stroke:#77736c"/><path d="m507 959v1h1.5 1.5 2 2 .5.5l1-1 1-1 1.5-.5 1.5-.5-.5-1-.5-1v-1-1l-1.5-.5-1.5-.5-1 .5-1 .5h-1-1v1 1l-.5.5-.5.5h-1-1v-1.5-1.5l-.5-.5-.5-.5-1.5.5-1.5.5v1.5 1.5l.5.5.5.5.5 1 .5 1" style="fill:#5d5869;stroke:#5d5869"/><path d="m551 959v1h1.5 1.5 2 2 2.5 2.5 2 2 2 2v-.5-.5l.5-1.5.5-1.5-1.5-1-1.5-1-1.5.5-1.5.5-1 1-1 1-1 .5-1 .5-.5-1.5-.5-1.5 1-1.5 1-1.5h2 2 1 1l-.5-1.5-.5-1.5-1-1.5-1-1.5 1.5-.5 1.5-.5 2-.5 2-.5 1-1 1-1 1.5 1 1.5 1 1 1.5 1 1.5-14.5 6-14.5 6" style="fill:#77736c;stroke:#77736c"/><path d="m571 959v1h.5.5l1-2 1-2 .5-1 .5-1 .5-.5.5-.5.5 1.5.5 1.5h.5.5l.5-.5.5-.5 1-1 1-1 .5-1 .5-1v-1-1l-1 1-1 1-.5.5-.5.5-.5-.5-.5-.5-.5-1-.5-1 .5-.5.5-.5-.5-.5-.5-.5h-1-1l-.5 1-.5 1-.5.5-.5.5v1 1l-.5.5-.5.5-1.5-.5-1.5-.5h-1-1-2-2l-1 1.5-1 1.5.5 1.5.5 1.5 1-.5 1-.5 1-1 1-1 1.5-.5 1.5-.5 1.5 1 1.5 1-.5 1.5-.5 1.5" style="fill:#2d2826;stroke:#2d2826"/><path d="m579 959v1h23.5 23.5 24.5 24.5 18.5 18.5v-6-6-24.5-24.5-24.5-24.5-24.5-24.5-24-24-24.5-24.5-24.5-24.5-24.5-24.5-24.5-24.5-9.5-9.5l-1 .5-1 .5-2-.5-2-.5 3-10.5 3-10.5v-24.5-24.5l-.5-.5-.5-.5-7-13.5-7-13.5 7.5 3 7.5 3v-24-24-24.5-24.5-24.5-24.5-24.5-24.5-23.5-23.5l-2-1-2-1v2 2l1 1.5 1 1.5v1 1l-2-.5-2-.5 3-3.5 3-3.5v-24.5-24.5-24.5-24.5-24.5-24.5-24-24-4-4h-20.5-20.5-24.5-24.5-24.5-24.5-24.5-24.5-24.5-24.5-24-24-24.5-24.5-24.5-24.5-24.5-24.5-24.5-24.5-24.5-24.5-24-24-24.5-24.5-24.5-24.5-18-18v6.5 6.5 24.5 24.5 24.5 24.5 24 24 24.5 24.5 24.5 24.5 24.5 24.5 24.5 24.5 24.5 24.5 24 24 24.5 24.5 24.5 24.5 24.5 24.5 24.5 24.5 24.5 24.5 24 24 24.5 24.5 24.5 24.5 24.5 24.5 8 8l1.5-1.5 1.5-1.5 2-1.5 2-1.5 6.5-30.5 6.5-30.5 12-9 12-9 5-9.5 5-9.5-3-13.5-3-13.5 6-.5 6-.5-6-12-6-12 7-8.5 7-8.5-5.5-3.5-5.5-3.5 3.5-12 3.5-12-4-23.5-4-23.5-.5-1-.5-1v-2-2-2-2-2.5-2.5l.5-1.5.5-1.5 1.5.5 1.5.5 1-19.5 1-19.5v-.5-.5l-.5-.5-.5-.5 2.5-20.5 2.5-20.5 3-21.5 3-21.5-1.5-22-1.5-22 5-18.5 5-18.5 8.5-16 8.5-16 8-16.5 8-16.5 8.5-14.5 8.5-14.5 12.5-12 12.5-12 13.5-11 13.5-11 11.5-13 11.5-13 15-7.5 15-7.5h6.5 6.5l-5.5 9.5-5.5 9.5 2 3.5 2 3.5 6.5-5 6.5-5 3 .5 3 .5 5.5 3 5.5 3 7.5 3 7.5 3 4-7 4-7 9-13.5 9-13.5-.5-21.5-.5-21.5-.5-.5-.5-.5-3.5-20-3.5-20-.5-2-.5-2-1-1.5-1-1.5-1-1-1-1v-2-2l.5-1 .5-1-.5-.5-.5-.5 2.5-13 2.5-13v-1.5-1.5l.5-1.5.5-1.5.5-1.5.5-1.5 1-1.5 1-1.5v-2-2l1-.5 1-.5v-.5-.5l.5-1.5.5-1.5.5-1.5.5-1.5v-2.5-2.5l1-1 1-1 1 1.5 1 1.5h1 1l2 .5 2 .5 1.5 1.5 1.5 1.5 2.5-21.5 2.5-21.5 5 4.5 5 4.5 7.5-.5 7.5-.5 15 3.5 15 3.5 10.5 12.5 10.5 12.5-2 9.5-2 9.5 8.5 13.5 8.5 13.5 1.5 19 1.5 19-1 21.5-1 21.5-16 8-16 8-1 .5-1 .5-.5.5-.5.5-1 .5-1 .5-1 1-1 1-.5.5-.5.5-.5.5-.5.5-.5.5-.5.5 1 .5 1 .5 1 .5 1 .5 18 18 18 18 14.5 9 14.5 9 11 12.5 11 12.5 5 18.5 5 18.5 5 18 5 18 3 19.5 3 19.5 3 19 3 19 5.5 17 5.5 17 5 17 5 17 .5 20 .5 20 4.5 19 4.5 19 4 18 4 18 5 16.5 5 16.5 5 15.5 5 15.5 4.5 11.5 4.5 11.5v17.5 17.5l9 14.5 9 14.5 10 13 10 13 7 16.5 7 16.5 1 19 1 19-6.5 17-6.5 17-11 12.5-11 12.5" style="fill:#0b0700;stroke:#0b0700"/><g style="fill:#9a979a;stroke:#9a979a"><path d="m90 957l1 1-5.5-24.5-5.5-24.5-3 3.5-3 3.5 2 17.5 2 17.5 6 3 6 3"/><path d="m455 957l23-13 13-5.5 13-5.5-8.5-13-8.5-13 .5.5.5.5-1.5 1-1.5 1 .5 1.5.5 1.5-2 .5-2 .5-.5-1.5-.5-1.5-.5 1.5-.5 1.5-1 1.5-1 1.5-1 1-1 1-.5.5-.5.5-6.5-4.5-6.5-4.5-4 14-4 14 .5 9 .5 9"/></g><path d="m95 956l17-25 1-30 1-30-6 21-6 21-1.5-3.5-1.5-3.5-4.5-11.5-4.5-11.5-5.5 6-5.5 6 4 12 4 12 4 18.5 4 18.5" style="fill:#e5e1d5;stroke:#e5e1d5"/><path d="m30 955l27-10-.5 3-.5 3 4.5-11.5 4.5-11.5-12.5 7-12.5 7-6-12.5-6-12.5-9 1.5-9 1.5 1.5-17.5 1.5-17.5-.5 2-.5 2-.5 1.5-.5 1.5v2.5 2.5 2 2l-.5 1.5-.5 1.5v2.5 2.5 2 2l-.5 2-.5 2v2.5 2.5l10.5 16.5 10.5 16.5" style="fill:#9a979a;stroke:#9a979a"/><path d="m130 954l13-5-7-8.5-7-8.5-6-3-6-3-.5 2.5-.5 2.5-.5 1.5-.5 1.5-.5 1.5-.5 1.5-1 1.5-1 1.5v2 2l1-2 1-2 .5-1.5.5-1.5.5.5.5.5 1 1.5 1 1.5.5 1.5.5 1.5 1 1.5 1 1.5 1 1 1 1h1.5 1.5l.5 1.5.5 1.5 1.5 1 1.5 1" style="fill:#2d2826;stroke:#2d2826"/><path d="m532 954l48-18-15.5-3-15.5-3 1 .5 1 .5v2.5 2.5l1 1 1 1h-1.5-1.5l-1.5.5-1.5.5-1.5-.5-1.5-.5-1-.5-1-.5.5-.5.5-.5.5-1.5.5-1.5-1.5 1-1.5 1-2 .5-2 .5h-1.5-1.5l2.5.5 2.5.5v.5.5l-1 1-1 1-.5 1.5-.5 1.5.5 2 .5 2-.5 1.5-.5 1.5-1.5 1-1.5 1-.5 1-.5 1" style="fill:#9a979a;stroke:#9a979a"/><path d="m445 953h2v-2-2l.5-2 .5-2 1-1 1-1v-1.5-1.5-2-2l-.5-.5-.5-.5-.5 1-.5 1-1 1-1 1-1 1-1 1v1.5 1.5l.5 1.5.5 1.5v1.5 1.5 1 1 .5.5" style="fill:#77736c;stroke:#77736c"/><path d="m569 952l3 1 .5-.5.5-.5v-1-1l.5-.5.5-.5.5-1 .5-1h1 1l.5.5.5.5-.5.5-.5.5.5 1 .5 1 .5.5.5.5.5-.5.5-.5 1-1 1-1-1-1-1-1-1-1.5-1-1.5-1.5-1-1.5-1-1 1-1 1-2 .5-2 .5-1.5.5-1.5.5 1 1.5 1 1.5.5 1.5.5 1.5" style="fill:#55504b;stroke:#55504b"/><path d="m197 946v1h1.5 1.5l1-1 1-1 1-.5 1-.5.5-.5.5-.5-1-.5-1-.5-.5-1-.5-1-2.5 3-2.5 3" style="fill:#3e3946;stroke:#3e3946"/><path d="m439 938l1-1 .5-1.5.5-1.5 1-1.5 1-1.5h.5.5v-.5-.5l.5-1.5.5-1.5.5-1 .5-1-.5-.5-.5-.5-.5.5-.5.5v1 1l-1 .5-1 .5h-2-2l-1 2.5-1 2.5 1 1 1 1 .5 1.5.5 1.5" style="fill:#0b0700;stroke:#0b0700"/><path d="m517 938l3 1 1.5-.5 1.5-.5 1-.5 1-.5h1 1l1.5-.5 1.5-.5h.5.5 1.5 1.5 1.5 1.5l2-.5 2-.5 1.5-1 1.5-1 1-.5 1-.5 1.5-1 1.5-1 15.5 3 15.5 3 .5-.5.5-.5.5-1 .5-1 1-.5 1-.5.5-.5.5-.5 1.5.5 1.5.5.5-1 .5-1 .5-.5.5-.5 1-1 1-1h1.5 1.5l.5-.5.5-.5 1-1 1-1 .5-1.5.5-1.5v-2-2l2-.5 2-.5 1-1 1-1 .5-2 .5-2 .5-1.5.5-1.5.5-2 .5-2 .5-1 .5-1-18 7.5-18 7.5-10.5-7.5-10.5-7.5-16.5-3-16.5-3 10 5 10 5-4.5 6.5-4.5 6.5h-15-15l5-10.5 5-10.5-11.5-8.5-11.5-8.5-8.5-4.5-8.5-4.5-1.5-6.5-1.5-6.5-7-9-7-9-5 2-5 2-9.5-5.5-9.5-5.5-3-5.5-3-5.5-6-5-6-5-9.5-10.5-9.5-10.5-5 1.5-5 1.5 7.5 11 7.5 11 8.5 15.5 8.5 15.5 17 11 17 11 8.5 8.5 8.5 8.5 13.5 10.5 13.5 10.5 8.5 13 8.5 13 2-.5 2-.5 1 1 1 1 1.5 1 1.5 1 1 .5 1 .5 1 .5 1 .5" style="fill:#b9b6b0;stroke:#b9b6b0"/><g style="fill:#928d71;stroke:#928d71"><path d="m544 938l3 1 1.5-.5 1.5-.5h1.5 1.5l-1-1-1-1v-2.5-2.5l-1-.5-1-.5-1.5 1-1.5 1-1 .5-1 .5-.5 1.5-.5 1.5-.5.5-.5.5 1 .5 1 .5"/><path d="m488 937l3 1 .5-1.5.5-1.5v-1.5-1.5l-1.5-.5-1.5-.5-2-.5-2-.5-1-1-1-1-.5 1-.5 1 1 1 1 1 1 1 1 1 1 1.5 1 1.5"/></g><path d="m518 937l14-8-11 1.5-11 1.5 4 2.5 4 2.5" style="fill:#e5e1d5;stroke:#e5e1d5"/><path d="m444 934h2l1.5.5 1.5.5-1.5-2-1.5-2-1 1.5-1 1.5" style="fill:#77736c;stroke:#77736c"/><g style="fill:#2d2826;stroke:#2d2826"><path d="m126 930l10-16v-18.5-18.5l-.5 2-.5 2 .5.5.5.5v1 1l-.5.5-.5.5-.5-.5-.5-.5-.5-1-.5-1h-1-1l-.5.5-.5.5-.5.5-.5.5v1 1 1.5 1.5 1 1l.5.5.5.5.5.5.5.5-.5 1-.5 1h-1-1l-1-.5-1-.5.5 1 .5 1 .5 1 .5 1 1.5.5 1.5.5-1 1-1 1 .5.5.5.5v1.5 1.5l-1 1-1 1-.5.5-.5.5v.5.5l-.5 1.5-.5 1.5v1 1 .5.5l-1 .5-1 .5 1-11 1-11-6-7.5-6-7.5 1.5 22.5 1.5 22.5.5-1.5.5-1.5h1 1l1.5.5 1.5.5 1 1.5 1 1.5-.5 1.5-.5 1.5 1 1 1 1"/><path d="m444 930v1l9-14.5 9-14.5 1.5-1 1.5-1-1.5.5-1.5.5-.5.5-.5.5-1 .5-1 .5-.5 1.5-.5 1.5-.5.5-.5.5-1 .5-1 .5h-1.5-1.5l6.5-7 6.5-7-5.5-5.5-5.5-5.5-3.5 9-3.5 9-4.5 4-4.5 4v-2.5-2.5l-.5 2.5-.5 2.5-.5 1.5-.5 1.5v2.5 2.5 2 2l-.5 1.5-.5 1.5.5-1 .5-1 1.5-1 1.5-1 .5 1.5.5 1.5v1.5 1.5l-1 1-1 1h2 2l1-.5 1-.5v-1-1l.5-.5.5-.5.5.5.5.5-.5 1-.5 1-.5 1.5-.5 1.5"/></g><path d="m434 928l1-1v-1.5-1.5l.5-1.5.5-1.5v-2-2-2.5-2.5l.5-1.5.5-1.5.5-2.5.5-2.5-1.5-18-1.5-18-15-9.5-15-9.5 3 12.5 3 12.5 3 9.5 3 9.5 8 16.5 8 16.5.5 1 .5 1" style="fill:#0b0700;stroke:#0b0700"/><path d="m210 925h2 1 1 1.5 1.5v-1-1h1.5 1.5l1-1 1-1 .5-.5.5-.5-1-.5-1-.5v-1.5-1.5h-1-1l-2 .5-2 .5-.5-1.5-.5-1.5 1.5-1 1.5-1 1.5-.5 1.5-.5-.5-1.5-.5-1.5-.5.5-.5.5h-.5-.5l-1.5-.5-1.5-.5-.5.5-.5.5-1.5.5-1.5.5-5 .5-5 .5 7 3.5 7 3.5-2 3.5-2 3.5" style="fill:#7c798a;stroke:#7c798a"/><path d="m600 925h2l1-1.5 1-1.5-1-1-1-1 1-1.5 1-1.5 1-1 1-1 .5-1.5.5-1.5 1-1.5 1-1.5.5-1.5.5-1.5.5-2 .5-2-1-.5-1-.5-.5 1-.5 1-.5 2-.5 2-.5 1.5-.5 1.5-.5 2-.5 2-1 1-1 1-2 .5-2 .5v2 2l-.5 1.5-.5 1.5 1 .5 1 .5" style="fill:#9a979a;stroke:#9a979a"/><path d="m252 923l-10-16v1.5 1.5l.5 1 .5 1v1 1l.5.5.5.5-.5.5-.5.5.5 1 .5 1h1 1 1 1v1 1 1 1h1 1l1 .5 1 .5" style="fill:#0b0700;stroke:#0b0700"/><path d="m468 923h2l.5-.5.5-.5.5-.5.5-.5 1.5-.5 1.5-.5.5-.5.5-.5-2.5-9-2.5-9-1.5 11-1.5 11" style="fill:#77736c;stroke:#77736c"/><path d="m0 921v1l1-.5 1-.5.5-1.5.5-1.5.5-1 .5-1 .5-.5.5-.5.5-1.5.5-1.5-.5-1-.5-1v-1-1-1-1l-1-.5-1-.5-1.5 1.5-1.5 1.5v2 2 2.5 2.5 2 2" style="fill:#55504b;stroke:#55504b"/><path d="m612 921l37-7-14 .5-14 .5-4.5 3-4.5 3" style="fill:#2d2826;stroke:#2d2826"/><path d="m221 919l2 1 1.5-1 1.5-1v-1.5-1.5l1-1 1-1-1-1.5-1-1.5v-1-1-2.5-2.5l-.5-1.5-.5-1.5-.5-1.5-.5-1.5-1-1.5-1-1.5.5-1.5.5-1.5h-1.5-1.5v1 1 1 1l-.5.5-.5.5-1 .5-1 .5-.5.5-.5.5.5.5.5.5h1 1 1 1l1 .5 1 .5-.5.5-.5.5h-1-1-1-1l-.5.5-.5.5-1-.5-1-.5h-1-1l-.5.5-.5.5v1 1l-1 1-1 1v2 2l1.5-.5 1.5-.5.5-.5.5-.5 1.5.5 1.5.5h.5.5l.5-.5.5-.5.5 1.5.5 1.5-1.5.5-1.5.5-1.5 1-1.5 1 .5 1.5.5 1.5 2-.5 2-.5h1 1v1.5 1.5" style="fill:#9a979a;stroke:#9a979a"/><path d="m124 916l2-1v-.5-.5-1-1l.5-1.5.5-1.5v-.5-.5l.5-.5.5-.5 1-1 1-1v-1.5-1.5l-.5-.5-.5-.5 1-1 1-1-1.5-.5-1.5-.5-.5-1-.5-1-.5-1-.5-1-1 11-1 11" style="fill:#0b0700;stroke:#0b0700"/><path d="m162 911v-41l2-13.5 2-13.5-.5-1-.5-1-1.5.5-1.5.5-1-1-1-1-2 1.5-2 1.5-.5 1-.5 1-.5 1-.5 1 .5.5.5.5.5 1 .5 1-1 1-1 1-1.5-.5-1.5-.5v-1-1l-.5-.5-.5-.5-1-.5-1-.5v-1-1h1 1v-.5-.5-2-2-1-1l1.5-1 1.5-1 1.5-.5 1.5-.5 1-1 1-1 1 1.5 1 1.5 1.5.5 1.5.5v-2.5-2.5l1-.5 1-.5-10.5-5.5-10.5-5.5 1 5.5 1 5.5-2 18.5-2 18.5 8.5 20.5 8.5 20.5 1.5 1 1.5 1" style="fill:#2d2826;stroke:#2d2826"/><path d="m258 909v1l1-1 1-1v-1.5-1.5l.5-.5.5-.5v-1-1l-.5-1-.5-1h-1-1l-1-1-1-1 1.5-.5 1.5-.5-1.5-1-1.5-1-.5-1.5-.5-1.5-.5-1-.5-1-.5 1.5-.5 1.5 1 2 1 2-1.5 1-1.5 1 .5 1.5.5 1.5h2.5 2.5l-.5 1.5-.5 1.5-.5 1.5-.5 1.5 1 .5 1 .5" style="fill:#55504b;stroke:#55504b"/><path d="m452 908h3l1-.5 1-.5.5-.5.5-.5.5-1.5.5-1.5 1-.5 1-.5.5-.5.5-.5 1.5-.5 1.5-.5.5-1 .5-1-.5-1-.5-1v-1-1l-6.5 7-6.5 7" style="fill:#0b0700;stroke:#0b0700"/><path d="m178 907l11-33-3 2.5-3 2.5-2.5 14-2.5 14" style="fill:#2d2826;stroke:#2d2826"/><path d="m55 906h2l1-1 1-1 1-1.5 1-1.5v-2-2l-1-.5-1-.5-1.5.5-1.5.5-1-.5-1-.5-.5 1.5-.5 1.5v1 1l1 1.5 1 1.5v1 1" style="fill:#e5e1d5;stroke:#e5e1d5"/><path d="m206 905h2l1 .5 1 .5 1-1 1-1v-1-1l.5-.5.5-.5h1 1l1 .5 1 .5.5-.5.5-.5h1 1 1 1l.5-.5.5-.5-1-.5-1-.5h-1-1-1-1l-.5-.5-.5-.5.5-.5.5-.5 1-.5 1-.5.5-.5.5-.5v-1-1-1-1h1.5 1.5l-1.5-1.5-1.5-1.5-1 .5-1 .5v-1-1h1.5 1.5l1.5-.5 1.5-.5 1-1 1-1 1-1.5 1-1.5-1-1-1-1-.5-2-.5-2-.5-.5-.5-.5-1 .5-1 .5-.5.5-.5.5-.5.5-.5.5v1 1l-1 .5-1 .5-.5.5-.5.5.5.5.5.5v1 1l-1 .5-1 .5-1-1-1-1-.5.5-.5.5v1.5 1.5l-.5.5-.5.5-.5.5-.5.5-2.5-11-2.5-11-1.5 7-1.5 7 2.5 11 2.5 11-1 1-1 1" style="fill:#7c798a;stroke:#7c798a"/><path d="m486 902l1-19h-9.5-9.5l6.5 3 6.5 3 .5 6 .5 6 2 .5 2 .5" style="fill:#e5e1d5;stroke:#e5e1d5"/><path d="m233 899v-32l-1.5 6-1.5 6 1.5 10 1.5 10" style="fill:#2d2826;stroke:#2d2826"/><path d="m171 898l2-14-2-.5-2-.5 1 7.5 1 7.5" style="fill:#7c798a;stroke:#7c798a"/><path d="m48 890l13-25 12-8.5 12-8.5-3-7.5-3-7.5-5 5.5-5 5.5-1 4.5-1 4.5-12.5 12-12.5 12 3 6.5 3 6.5" style="fill:#e5e1d5;stroke:#e5e1d5"/><path d="m211 889l1-1 .5-.5.5-.5v-1.5-1.5l.5-.5.5-.5 1 1 1 1 1-.5 1-.5v-1-1l-.5-.5-.5-.5.5-.5.5-.5 1-.5 1-.5v-1-1l.5-.5.5-.5.5-.5.5-.5 1-.5 1-.5-.5-1.5-.5-1.5v-1-1l-.5-.5-.5-.5-9-20.5-9-20.5.5 2 .5 2v2.5 2.5l-1 1-1 1-1.5-1-1.5-1v-2-2l-1 1.5-1 1.5.5 1.5.5 1.5-.5 1.5-.5 1.5v1 1l1-.5 1-.5.5-.5.5-.5.5.5.5.5.5.5.5.5-.5 1-.5 1v1 1 1 1l.5.5.5.5v.5.5 1 1l-.5.5-.5.5.5.5.5.5v1 1l-1 .5-1 .5h-1-1v1 1l-1.5-.5-1.5-.5.5-1 .5-1h1 1v-1-1-1-1l-1-.5-1-.5.5-.5.5-.5v-1-1-1-1-2-2l-2.5 12-2.5 12h6.5 6.5l2.5 11 2.5 11" style="fill:#9a979a;stroke:#9a979a"/><path d="m253 887l12-32 2-21.5 2-21.5-1.5 5-1.5 5-3 15.5-3 15.5-3.5 17-3.5 17" style="fill:#2d2826;stroke:#2d2826"/><path d="m271 881l13-31-1-13-1-13-.5-.5-.5-.5-1-1-1-1h-2.5-2.5-1-1l-.5-1.5-.5-1.5v-1-1-2-2l-.5 2-.5 2v2 2 2.5 2.5l-.5 1-.5 1 4.5 7.5 4.5 7.5-6 14.5-6 14.5v-1-1l-1.5 1-1.5 1 1 1 1 1-1 1.5-1 1.5 1.5-.5 1.5-.5 1 .5 1 .5-.5.5-.5.5-1 1-1 1h1.5 1.5v1 1h1.5 1.5" style="fill:#7c798a;stroke:#7c798a"/><path d="m140 880l2-1v-1.5-1.5-1-1-1.5-1.5-1.5-1.5l-.5-.5-.5-.5-.5-1.5-.5-1.5-1-1-1-1v-1-1l-.5-1-.5-1v-2-2-1-1-1-1-1-1-1.5-1.5l.5-.5.5-.5-.5-.5-.5-.5v-1-1l.5-1 .5-1h-2-2l.5 1.5.5 1.5.5 1 .5 1v1 1 2 2 2 2 1.5 1.5 1 1 2 2l.5 1 .5 1-.5.5-.5.5.5 1.5.5 1.5-.5 1-.5 1v1 1 2 2l1 .5 1 .5 1 1 1 1" style="fill:#2d2826;stroke:#2d2826"/><path d="m58 878l30-16 11-3.5 11-3.5-6-10-6-10 1.5-3 1.5-3-14.5-.5-14.5-.5 17 7 17 7-12 6.5-12 6.5-12 11.5-12 11.5" style="fill:#9a979a;stroke:#9a979a"/><g style="fill:#b9b6b0;stroke:#b9b6b0"><path d="m129 878l3 1 1-1 1-1v-2.5-2.5-2-2-2.5-2.5-2-2-2.5-2.5-1-1-1-1l-.5 1-.5 1-.5 1.5-.5 1.5.5 1.5.5 1.5v2.5 2.5 1 1 2.5 2.5l-.5.5-.5.5-1-1.5-1-1.5-1-1-1-1v-1-1-1-1-1-1-2-2l-.5 1-.5 1v2.5 2.5 2 2l1 1.5 1 1.5 1 1 1 1-1 1.5-1 1.5-.5 1.5-.5 1.5h.5.5"/><path d="m358 878l-10-30-.5 1-.5 1h-.5-.5v1 1h1 1v1 1l-1 .5-1 .5v1 1l.5.5.5.5.5.5.5.5-.5.5-.5.5-1-1-1-1 .5 1.5.5 1.5.5 2 .5 2 1 1 1 1 .5 1.5.5 1.5 1 1.5 1 1.5 1 1 1 1 1 1 1 1 1 .5 1 .5"/></g><path d="m16 873v1l16-15.5 16-15.5-8.5-4.5-8.5-4.5-4.5 5-4.5 5-3 14.5-3 14.5" style="fill:#9a979a;stroke:#9a979a"/><path d="m132 871l1-1v-2.5-2.5-1-1-2.5-2.5l-.5-1.5-.5-1.5.5-1.5.5-1.5.5-1 .5-1-1-1-1-1-1 1-1 1v1.5 1.5l-.5 1.5-.5 1.5h-.5-.5v2 2 1 1 1 1 1 1l1 1 1 1 1 1.5 1 1.5" style="fill:#e5e1d5;stroke:#e5e1d5"/><path d="m266 871l12-29-4.5-7.5-4.5-7.5-1.5 21-1.5 21v1 1" style="fill:#9a979a;stroke:#9a979a"/><path d="m222 868l1 1-3.5-16-3.5-16 3-12.5 3-12.5-5.5 4-5.5 4-3.5 3.5-3.5 3.5 9 20.5 9 20.5" style="fill:#7c798a;stroke:#7c798a"/><path d="m141 867l1 1 2-18.5 2-18.5-1-5.5-1-5.5-7-13-7-13-3.5 9-3.5 9 4 6 4 6-.5 1.5-.5 1.5v1.5 1.5l.5 1.5.5 1.5 1 1.5 1 1.5.5 1.5.5 1.5h2 2l-.5 1-.5 1v1 1l.5.5.5.5-.5.5-.5.5v1.5 1.5 1 1 1 1 1 1 2 2l.5 1 .5 1v1 1l1 1 1 1 .5 1.5.5 1.5" style="fill:#0b0700;stroke:#0b0700"/><path d="m347 860l1-1-.5-.5-.5-.5-.5-.5-.5-.5v-1-1l1-.5 1-.5v-1-1h-1-1v-1-1h.5.5l.5-1 .5-1-.5-1.5-.5-1.5-.5-.5-.5-.5v-1-1l-.5-.5-.5-.5-.5-1.5-.5-1.5-1-.5-1-.5v-1-1l-1-1-1-1-.5-1-.5-1-.5-.5-.5-.5v-1-1l-.5-.5-.5-.5-.5-1-.5-1-.5-.5-.5-.5-.5-.5-.5-.5-.5-.5-.5-.5-1-1-1-1 7 19 7 19 1 1 1 1" style="fill:#9a979a;stroke:#9a979a"/><path d="m196 859l3 1v-1-1h1 1l1-.5 1-.5v-1-1l-.5-.5-.5-.5.5-.5.5-.5v-1-1-.5-.5l-.5-.5-.5-.5v-1-1-1-1l.5-1 .5-1-.5-.5-.5-.5-.5-.5-.5-.5-.5.5-.5.5-1 .5-1 .5v2 2 1 1 1 1l-.5.5-.5.5 1 .5 1 .5v1 1 1 1h-1-1l-.5 1-.5 1" style="fill:#b9b6b0;stroke:#b9b6b0"/><g style="fill:#9a979a;stroke:#9a979a"><path d="m171 858l6-20-2.5 5-2.5 5-.5 5-.5 5"/><path d="m253 858l1-1 .5-2 .5-2v-2-2l1-1.5 1-1.5.5-1.5.5-1.5v-1-1l-1-.5-1-.5.5-2 .5-2v-.5-.5l.5-2 .5-2v-1-1l.5-.5.5-.5.5-.5.5-.5-.5-1-.5-1-.5.5-.5.5h-1-1l-.5-.5-.5-.5v-1.5-1.5l.5-.5.5-.5v-1-1-1-1l.5-2 .5-2-.5-1.5-.5-1.5.5-1.5.5-1.5 1-1.5 1-1.5v-2-2l-4 5.5-4 5.5-4 14.5-4 14.5 1 1.5 1 1.5h1 1l2.5-.5 2.5-.5v-.5-.5.5.5l.5 1 .5 1v2.5 2.5l-.5 1.5-.5 1.5.5 2 .5 2v1 1"/></g><g style="fill:#b9b6b0;stroke:#b9b6b0"><path d="m344 857l1 1-7-19-7-19-.5-1-.5-1-1-1.5-1-1.5-.5-1.5-.5-1.5-1-1.5-1-1.5-.5-1.5-.5-1.5-1-1-1-1-1.5-1.5-1.5-1.5v1.5 1.5l1 1 1 1 .5.5.5.5.5 1 .5 1 1 1 1 1-.5.5-.5.5v1 1l-.5.5-.5.5-1.5-.5-1.5-.5-.5-1-.5-1v-2-2l-1.5-.5-1.5-.5-1.5-1-1.5-1-.5-1.5-.5-1.5-1-1.5-1-1.5-.5-1.5-.5-1.5-.5-2-.5-2 1.5-.5 1.5-.5 1 1 1 1-.5-1-.5-1-1-1-1-1-.5-1-.5-1-.5-.5-.5-.5-.5-1.5-.5-1.5.5-1.5.5-1.5.5-1.5.5-1.5-.5 1-.5 1-1 1.5-1 1.5-.5 2-.5 2 1 1 1 1-1.5 1-1.5 1-.5 2-.5 2v1.5 1.5l12 15 12 15 8.5 15 8.5 15"/><path d="m489 854l-2-22-4 8.5-4 8.5 5 2.5 5 2.5"/></g><path d="m151 851l3 1 1-1 1-1-.5-1-.5-1-.5-.5-.5-.5.5-1 .5-1 .5-1 .5-1-.5-1-.5-1-1.5-.5-1.5-.5-.5 1.5-.5 1.5-.5 1-.5 1h-1-1v1 1l1 .5 1 .5.5.5.5.5v1 1" style="fill:#55504b;stroke:#55504b"/><path d="m185 847l8-40-1.5-.5-1.5-.5-.5.5-.5.5h-1-1v-1.5-1.5l1.5-1 1.5-1 .5-1.5.5-1.5v-1.5-1.5h-2-2l-.5-1.5-.5-1.5-.5.5-.5.5v1.5 1.5.5.5l-.5 1.5-.5 1.5.5.5.5.5-1 .5-1 .5-1 1-1 1-.5.5-.5.5.5 1 .5 1-.5 1.5-.5 1.5-.5.5-.5.5v1.5 1.5l3 16 3 16" style="fill:#7c798a;stroke:#7c798a"/><path d="m407 846l2 1-8.5-15.5-8.5-15.5-7.5-11-7.5-11 .5 2 .5 2 .5.5.5.5v1 1l.5.5.5.5.5 1 .5 1 .5.5.5.5v1 1l.5.5.5.5.5.5.5.5.5 1 .5 1v1 1l.5.5.5.5v1 1l.5.5.5.5.5 1.5.5 1.5 9.5 13 9.5 13" style="fill:#9a979a;stroke:#9a979a"/><path d="m150 844v1l.5-1 .5-1 .5-1.5.5-1.5 1.5.5 1.5.5.5 1 .5 1 2-1.5 2-1.5 1 1 1 1 1.5-.5 1.5-.5.5 1 .5 1v-1.5-1.5l-.5-1.5-.5-1.5-.5-1.5-.5-1.5.5-1.5.5-1.5-1 .5-1 .5v2.5 2.5l-1.5-.5-1.5-.5-1-1.5-1-1.5-1 1-1 1-1.5.5-1.5.5-1.5 1-1.5 1v1 1 2 2" style="fill:#3e3946;stroke:#3e3946"/><path d="m275 843l1-1 1-1 1-1 1-1.5 1-1.5.5-1.5.5-1.5-1-.5-1-.5-1.5.5-1.5.5-2 .5-2 .5.5 1.5.5 1.5.5 1.5.5 1.5.5 1 .5 1" style="fill:#b9b6b0;stroke:#b9b6b0"/><path d="m230 842v-38 17.5 17.5 1.5 1.5" style="fill:#2d2826;stroke:#2d2826"/><g style="fill:#7c798a;stroke:#7c798a"><path d="m241 839l2 1 4-14.5 4-14.5 4-5.5 4-5.5 1-22 1-22-.5 1-.5 1-.5 1.5-.5 1.5-.5 1.5-.5 1.5v1.5 1.5l-.5 1.5-.5 1.5.5 2 .5 2-.5 1.5-.5 1.5-1 1.5-1 1.5.5 1.5.5 1.5h-1.5-1.5l-.5-1-.5-1 .5-1.5.5-1.5-.5-2-.5-2v-2-2l1-1.5 1-1.5-.5-1.5-.5-1.5v-1.5-1.5l-.5-1.5-.5-1.5-4 20-4 20v-1-1l-1 1-1 1 .5.5.5.5v1 1l-1 .5-1 .5v1 1l-.5.5-.5.5.5.5.5.5.5 1 .5 1-.5 1.5-.5 1.5h-1-1l-.5-1-.5-1v-2-2l1.5 17 1.5 17"/><path d="m257 835v1l1-1 1-1 .5-1.5.5-1.5.5-2 .5-2 .5-1.5.5-1.5-.5-2-.5-2-1.5.5-1.5.5-.5-.5-.5-.5 2-.5 2-.5-.5-1.5-.5-1.5-1.5-1.5-1.5-1.5-.5 2-.5 2v1 1 1 1l-.5.5-.5.5v1.5 1.5l.5.5.5.5h1 1l.5-.5.5-.5.5 1 .5 1-.5.5-.5.5-.5.5-.5.5v1 1l-.5 2-.5 2"/></g><path d="m310 833h2l-.5-1.5-.5-1.5-1.5-1-1.5-1-1-1-1-1-1.5-1-1.5-1-1.5-.5-1.5-.5.5 1 .5 1h1 1l-.5.5-.5.5-.5.5-.5.5h-2-2l-1.5 1-1.5 1h2.5 2.5 2.5 2.5l1.5.5 1.5.5 1.5 1.5 1.5 1.5" style="fill:#b9b6b0;stroke:#b9b6b0"/><g style="fill:#2d2826;stroke:#2d2826"><path d="m112 825l4 1 .5-1 .5-1 .5-1 .5-1-1-.5-1-.5 1 .5 1 .5h1.5 1.5 1.5 1.5 1 1l1.5-.5 1.5-.5 1 1.5 1 1.5-4-6-4-6 3.5-9 3.5-9 7 13 7 13-3.5-6.5-3.5-6.5-9-9-9-9-3 7-3 7-6.5 2.5-6.5 2.5 2.5 8 2.5 8 1.5.5 1.5.5h2 2"/><path d="m67 824l1-1 1.5-.5 1.5-.5 1.5-1 1.5-1 1-1 1-1 .5 1 .5 1 .5.5.5.5 1.5.5 1.5.5 1-.5 1-.5h1 1l1.5.5 1.5.5h2 2l1.5.5 1.5.5h1.5 1.5l-9-4.5-9-4.5-5.5-3-5.5-3-3-11-3-11 18.5 11 18.5 11-13-10-13-10-1.5-12.5-1.5-12.5 10.5-2 10.5-2-1-.5-1-.5-.5-3-.5-3-1-.5-1-.5-.5-.5-.5-.5-1-1-1-1 .5-1.5.5-1.5 2-.5 2-.5 1.5-.5 1.5-.5-1-1.5-1-1.5-.5-1.5-.5-1.5-1-.5-1-.5-.5-.5-.5-.5-.5-2-.5-2v1.5 1.5l-.5.5-.5.5v-3-3l-5-7.5-5-7.5-6.5-11.5-6.5-11.5-5.5-17-5.5-17 4 23.5 4 23.5-3.5 12-3.5 12 5.5 3.5 5.5 3.5-7 8.5-7 8.5 6 12 6 12-6 .5-6 .5 3 13.5 3 13.5-5 9.5-5 9.5h2 2 1 1l1.5.5 1.5.5h1.5 1.5 1 1l.5-.5.5-.5.5-.5.5-.5h1.5 1.5l.5.5.5.5 1.5.5 1.5.5"/></g><path d="m103 823l2 1-2.5-8-2.5-8-18.5-11-18.5-11 3 11 3 11 5.5 3 5.5 3 9 4.5 9 4.5 1.5-.5 1.5-.5 1 .5 1 .5" style="fill:#0b0700;stroke:#0b0700"/><path d="m281 823l1 1 1-.5 1-.5.5-1 .5-1v-.5-.5l-.5-1-.5-1v-1.5-1.5-2-2l-.5-1-.5-1h-2-2v1.5 1.5 1.5 1.5l.5 2 .5 2-1.5.5-1.5.5-1.5-.5-1.5-.5.5-1.5.5-1.5-1-1-1-1-1-1-1-1v2 2 1 1l.5 1.5.5 1.5h1 1 2.5 2.5l1 1 1 1" style="fill:#9a979a;stroke:#9a979a"/><path d="m285 820v1l-3-6-3-6h2 2l.5 1 .5 1v2 2 1.5 1.5l.5 1 .5 1" style="fill:#7c798a;stroke:#7c798a"/><path d="m274 819l3 1 1.5-.5 1.5-.5-.5-2-.5-2v-1.5-1.5-1.5-1.5l-1-1.5-1-1.5-1-.5-1-.5-1.5-.5-1.5-.5-.5 1.5-.5 1.5v1.5 1.5 1 1l1 1 1 1 1 1 1 1-.5 1.5-.5 1.5" style="fill:#b9b6b0;stroke:#b9b6b0"/><path d="m177 817h1l.5-1 .5-1v-1.5-1.5l.5-.5.5-.5.5-1.5.5-1.5-.5-1-.5-1 .5-.5.5-.5 1-1 1-1 1-.5 1-.5-.5-.5-.5-.5.5-1.5.5-1.5v-.5-.5-1.5-1.5l-12.5 5.5-12.5 5.5h-.5-.5l-.5-1.5-.5-1.5 1.5-.5 1.5-.5h1 1l.5-1 .5-1 .5-1.5.5-1.5.5-.5.5-.5.5-1 .5-1 1-1 1-1 .5-.5.5-.5.5-1 .5-1-1-1-1-1v1 1h-1-1l-.5.5-.5.5v-1.5-1.5l-1 .5-1 .5-1-.5-1-.5v1.5 1.5l.5 1.5.5 1.5v1 1h-1.5-1.5l-.5.5-.5.5.5.5.5.5 1 .5 1 .5-.5.5-.5.5-1 1-1 1-.5.5-.5.5-1 .5-1 .5v2 2l-.5.5-.5.5-.5 1-.5 1 .5 1.5.5 1.5 1.5.5 1.5.5 2.5-1 2.5-1 .5-1.5.5-1.5v-1-1l1 1.5 1 1.5h1 1l2-.5 2-.5 1.5.5 1.5.5-1 1.5-1 1.5 1.5.5 1.5.5.5 2 .5 2" style="fill:#9a979a;stroke:#9a979a"/><path d="m153 815h2v-1-1h1.5 1.5l-1.5-.5-1.5-.5-.5-1.5-.5-1.5.5-1 .5-1 .5-.5.5-.5v-2-2l1-.5 1-.5.5-.5.5-.5 1-1 1-1 .5-.5.5-.5-1-.5-1-.5-.5-.5-.5-.5.5-.5.5-.5h1.5 1.5v-1-1l-.5-1.5-.5-1.5-4.5 13-4.5 13" style="fill:#7c798a;stroke:#7c798a"/><g style="fill:#9a979a;stroke:#9a979a"><path d="m320 814l3 1 .5-.5.5-.5v-1-1l.5-.5.5-.5-1-1-1-1-.5-1-.5-1-.5-.5-.5-.5-1-1-1-1v-1.5-1.5l-.5-1-.5-1v-1-1l-1-1-1-1-1.5-1-1.5-1-1-1-1-1-1.5.5-1.5.5.5 2 .5 2 .5 1.5.5 1.5 1 1.5 1 1.5.5 1.5.5 1.5 1.5 1 1.5 1 1.5.5 1.5.5v2 2l.5 1 .5 1"/><path d="m239 811h2l.5-1.5.5-1.5-.5-1-.5-1-.5-.5-.5-.5.5-.5.5-.5v-1-1l1-.5 1-.5v-1-1l-.5-.5-.5-.5 1-1 1-1v-.5-.5-.5-.5l1-20 1-20-.5-1.5-.5-1.5-1-1-1-1 .5-2 .5-2 .5-1.5.5-1.5v-2.5-2.5-2-2-2.5-2.5-2.5-2.5l-.5 1-.5 1v2 2l-.5 2-.5 2 .5 1.5.5 1.5-.5 2-.5 2-.5 1.5-.5 1.5h-1-1l-.5-1.5-.5-1.5v-1-1-1-1l-1-1-1-1v1.5 1.5l.5 2 .5 2 .5 1.5.5 1.5v1.5 1.5l2-.5 2-.5-.5 2-.5 2 .5 1.5.5 1.5.5 1.5.5 1.5-1 1.5-1 1.5-.5 1.5-.5 1.5-1 .5-1 .5-.5-2.5-.5-2.5v23.5 23.5 2 2l.5 1 .5 1"/><path d="m270 809l1 1v-1.5-1.5l.5-1.5.5-1.5 1.5.5 1.5.5 1 .5 1 .5v-2-2l.5-.5.5-.5.5-1.5.5-1.5v-1.5-1.5-1-1l.5-1.5.5-1.5.5-2 .5-2v-.5-.5-1.5-1.5l.5-1 .5-1v-2.5-2.5l.5-1.5.5-1.5-.5-2-.5-2 .5-1.5.5-1.5.5-2 .5-2 1-1 1-1v-2-2l-6 23-6 23-2.5-27.5-2.5-27.5.5 31.5.5 31.5"/><path d="m187 807h2l.5-.5.5-.5 1.5.5 1.5.5 4.5-10 4.5-10 3 4.5 3 4.5 1-11.5 1-11.5v-.5-.5l-7.5-6-7.5-6-1 1.5-1 1.5v1.5 1.5l-.5.5-.5.5-.5 1.5-.5 1.5.5 1.5.5 1.5 1-.5 1-.5.5-.5.5-.5.5 1.5.5 1.5-.5 1-.5 1h-1-1l-1.5-.5-1.5-.5-.5 1-.5 1h2.5 2.5 1 1l.5.5.5.5.5.5.5.5-.5 1-.5 1h-1-1v-1-1h-1-1l-.5.5-.5.5-.5 1-.5 1-.5.5-.5.5v1 1l-.5.5-.5.5-.5 1-.5 1v1 1l-.5.5-.5.5-.5 1-.5 1 .5 1.5.5 1.5h2 2v1.5 1.5l-.5 1.5-.5 1.5-1.5 1-1.5 1v1.5 1.5"/></g><path d="m297 807l1-1 .5-2 .5-2 1-1 1-1 .5-2 .5-2 .5-1 .5-1 .5-2 .5-2 1.5-1 1.5-1-1-1-1-1-6.5 6-6.5 6 .5 1.5.5 1.5.5 1 .5 1 .5.5.5.5 1 1.5 1 1.5" style="fill:#7c798a;stroke:#7c798a"/><g style="fill:#b9b6b0;stroke:#b9b6b0"><path d="m160 805l25-11 .5-.5.5-.5.5-1 .5-1 .5-.5.5-.5v-1-1l.5-1 .5-1 .5-.5.5-.5v-1-1l.5-.5.5-.5.5-1 .5-1 .5-.5.5-.5h1 1v1 1h1 1l.5-1 .5-1-.5-.5-.5-.5-.5-.5-.5-.5h-1-1-2.5-2.5l-1.5 1.5-1.5 1.5-1.5 1-1.5 1-1.5 1.5-1.5 1.5h-1.5-1.5l-4.5-14-4.5-14-1 2-1 2-.5 1-.5 1-.5.5-.5.5h-2-2l-1 .5-1 .5-.5-.5-.5-.5h-1-1l-.5.5-.5.5-.5 1.5-.5 1.5 7 8 7 8-.5 1-.5 1v1.5 1.5l.5-.5.5-.5h1 1v-1-1l1 1 1 1-.5 1-.5 1-.5.5-.5.5-1 1-1 1-.5 1-.5 1-.5.5-.5.5-.5 1.5-.5 1.5-.5 1-.5 1h-1-1l-1.5.5-1.5.5.5 1.5.5 1.5h.5.5"/><path d="m274 801l12-46v-.5-.5l-.5-16.5-.5-16.5 5-8 5-8 2 16.5 2 16.5v3 3 2 2l-.5 1.5-.5 1.5-.5 1-.5 1 5 8.5 5 8.5 2-10 2-10-1-1-1-1-.5-.5-.5-.5v-1.5-1.5l-1-1-1-1-1-1-1-1h-1-1v-1.5-1.5-2-2l-.5-2-.5-2 .5-1.5.5-1.5-.5-2-.5-2-6-33.5-6-33.5v16.5 16.5 2 2l-.5 1.5-.5 1.5v1 1 1.5 1.5 2 2l-.5.5-.5.5-.5 1-.5 1-1 1.5-1 1.5v2.5 2.5l-1 1-1 1-.5 2-.5 2-.5 1.5-.5 1.5.5 1 .5 1-1.5-.5-1.5-.5h-1-1v-1-1l.5-2 .5-2-.5-1.5-.5-1.5.5-2 .5-2 .5-1.5.5-1.5.5-2 .5-2v-2-2-1-1l.5-1 .5-1 .5-.5.5-.5v-.5-.5l1.5-14.5 1.5-14.5 2.5-5.5 2.5-5.5 1.5-2 1.5-2v-2-2l-.5-2-.5-2v-2-2l.5-1 .5-1-2.5-19-2.5-19-6.5-2.5-6.5-2.5-4.5 9.5-4.5 9.5-2 10.5-2 10.5-2.5 24.5-2.5 24.5v2 2 2 2l-.5 2-.5 2 1.5.5 1.5.5 1 .5 1 .5v1 1l-1 1.5-1 1.5-1.5 1.5-1.5 1.5 1 19.5 1 19.5 4.5-15.5 4.5-15.5 1.5 16.5 1.5 16.5 2.5 27.5 2.5 27.5"/></g><path d="m216 800h2l-.5-1.5-.5-1.5 1-1.5 1-1.5.5-1.5.5-1.5h.5.5v-.5-.5-1.5-1.5l-1.5-.5-1.5-.5h-1.5-1.5l-.5 1.5-.5 1.5.5 1.5.5 1.5v2.5 2.5l.5 1.5.5 1.5" style="fill:#9a979a;stroke:#9a979a"/><path d="m244 798l8-40 1.5-26.5 1.5-26.5 1.5-1.5 1.5-1.5 1-1.5 1-1.5v-1-1l-1-.5-1-.5-1.5-.5-1.5-.5.5-2 .5-2v-2-2-2-2-.5-.5l1.5-38.5 1.5-38.5v-.5-.5l1-22 1-22h-1.5-1.5v-2-2l-.5-1.5-.5-1.5v-2.5-2.5-2-2-2.5-2.5l-1-1-1-1 1-2.5 1-2.5-.5-.5-.5-.5v-.5-.5l-.5 1.5-.5 1.5-.5.5-.5.5-.5 1-.5 1v1 1l-.5.5-.5.5v1 1l-.5 1-.5 1-.5.5-.5.5-.5 1-.5 1 .5.5.5.5.5 20 .5 20v19 19l-1.5 30-1.5 30-.5 2-.5 2-1 1-1 1 .5 1.5.5 1.5v2.5 2.5l.5 1.5.5 1.5v1.5 1.5l-1 1-1 1 .5 2 .5 2v2 2l-.5 1-.5 1v3 3 2.5 2.5 2.5 2.5 2 2 2.5 2.5l-.5 1.5-.5 1.5-.5 2-.5 2 1 1 1 1 .5 1.5.5 1.5-1 20.5-1 20.5v.5.5 1 1" style="fill:#5d5869;stroke:#5d5869"/><path d="m285 798h2l.5-1.5.5-1.5-.5-2-.5-2 .5-1.5.5-1.5v-1.5-1.5l-1-1-1-1-.5 2-.5 2-1 1-1 1v2 2 2.5 2.5h1 1" style="fill:#3e3946;stroke:#3e3946"/><path d="m289 798h3l6.5-6 6.5-6 .5-2 .5-2 1-1.5 1-1.5.5-1 .5-1v-1-1l1-12.5 1-12.5-2 10-2 10-5-8.5-5-8.5-1.5 1-1.5 1-2.5 21.5-2.5 21.5" style="fill:#9a979a;stroke:#9a979a"/><g style="fill:#7c798a;stroke:#7c798a"><path d="m244 794v1l1-20.5 1-20.5-1 20-1 20"/><path d="m221 790v1l3.5-12 3.5-12v-11-11l-6.5 19.5-6.5 19.5v1 1h1.5 1.5l1.5.5 1.5.5v1.5 1.5"/></g><g style="fill:#b9b6b0;stroke:#b9b6b0"><path d="m546 789h2l1.5-1.5 1.5-1.5-11.5-15-11.5-15-1 4.5-1 4.5 10 12 10 12"/><path d="m336 788l7-37 3.5-2 3.5-2 9-12.5 9-12.5-1 1-1 1h-1-1l-1 1-1 1-1 .5-1 .5-.5.5-.5.5-1 1-1 1-1 .5-1 .5-.5.5-.5.5-1.5.5-1.5.5-.5 2-.5 2-1 1-1 1-1 1.5-1 1.5-1.5.5-1.5.5h-1.5-1.5l-.5-1.5-.5-1.5v-.5-.5l.5-1.5.5-1.5h1 1l.5-1 .5-1v-.5-.5l-3 8.5-3 8.5 7 15.5 7 15.5-14.5-1-14.5-1-6.5-2-6.5-2v1 1l13.5 5.5 13.5 5.5"/></g><path d="m177 785h3l-1.5-18.5-1.5-18.5h-1-1-1-1-1.5-1.5l.5-1.5.5-1.5v-1-1l-1-.5-1-.5h-1-1v1 1l.5 1 .5 1 .5 1.5.5 1.5h-1-1-.5-.5l-.5 2.5-.5 2.5h1.5 1.5v1.5 1.5l4.5 14 4.5 14" style="fill:#9a979a;stroke:#9a979a"/><path d="m281 785v1l4.5-21.5 4.5-21.5-.5 1.5-.5 1.5v1.5 1.5l-.5.5-.5.5-.5.5-.5.5v1 1l-.5 1-.5 1v2 2l-1 1-1 1-.5 2-.5 2-.5 1.5-.5 1.5.5 2 .5 2-.5 1.5-.5 1.5v2.5 2.5l-.5 1-.5 1v1.5 1.5" style="fill:#7c798a;stroke:#7c798a"/><g style="fill:#9a979a;stroke:#9a979a"><path d="m146 783l21 1-7-8-7-8-2 1-2 1v.5.5l.5.5.5.5-1 1-1 1-1 .5-1 .5-.5.5-.5.5v2 2l.5 1.5.5 1.5"/><path d="m215 783v1l6.5-19.5 6.5-19.5-.5-21-.5-21 .5-9 .5-9-1.5-.5-1.5-.5v-1-1-1-1l-1 .5-1 .5-.5 1.5-.5 1.5-.5.5-.5.5-4-3-4-3 .5 2 .5 2-1 19-1 19-1 4-1 4 1 .5 1 .5 1-1.5 1-1.5v-2-2-1-1l1-1.5 1-1.5 1 1 1 1v3 3l3-5.5 3-5.5-3 24.5-3 24.5h-.5-.5v2 2l-1 1.5-1 1.5v2 2l.5 1.5.5 1.5-.5 2-.5 2v.5.5"/><path d="m253 783h3l-.5-1.5-.5-1.5 1-1.5 1-1.5.5-1.5.5-1.5-.5-2-.5-2 .5-1.5.5-1.5v-1.5-1.5l.5-1.5.5-1.5.5-1.5.5-1.5.5-1 .5-1 .5-2 .5-2v-1-1l-.5-1.5-.5-1.5.5-1.5.5-1.5v-1.5-1.5l1-1 1-1 .5-2 .5-2h1 1l-.5 1-.5 1v1 1l.5 1.5.5 1.5.5 1 .5 1 .5 1 .5 1-1.5-16.5-1.5-16.5-4.5 15.5-4.5 15.5-1-19.5-1-19.5-1.5 26.5-1.5 26.5.5 1.5.5 1.5v1.5 1.5l.5 1.5.5 1.5-1 1.5-1 1.5v2 2l.5 2 .5 2-.5 1.5-.5 1.5.5 1 .5 1"/></g><path d="m552 774l-1-35-6.5-2.5-6.5-2.5-1 .5-1 .5-.5.5-.5.5v1 1l-.5.5-.5.5-.5 1-.5 1 .5 2.5.5 2.5 1.5.5 1.5.5h2.5 2.5l1.5.5 1.5.5 1.5 1 1.5 1 1 1 1 1 1 1.5 1 1.5h-.5-.5l-.5 1-.5 1-.5.5-.5.5.5.5.5.5v.5.5l-.5.5-.5.5v1 1l.5.5.5.5.5 1 .5 1 .5.5.5.5.5.5.5.5-.5 1-.5 1v2 2" style="fill:#b9b6b0;stroke:#b9b6b0"/><path d="m210 772v1l-3.5-13.5-3.5-13.5-.5 1.5-.5 1.5-.5 1-.5 1h-1-1l-.5.5-.5.5-.5.5-.5.5-.5 1-.5 1 .5.5.5.5-.5.5-.5.5-.5 1.5-.5 1.5 7.5 6 7.5 6" style="fill:#7c798a;stroke:#7c798a"/><g style="fill:#9a979a;stroke:#9a979a"><path d="m94 769l1-1 .5-1.5.5-1.5 2 .5 2 .5.5 1.5.5 1.5 1-.5 1-.5 1-1 1-1 1.5 1 1.5 1v-.5-.5-1.5-1.5l-1-.5-1-.5-.5-1.5-.5-1.5-.5-.5-.5-.5h-1-1l-.5-.5-.5-.5.5-1 .5-1-1 .5-1 .5v1.5 1.5h-1-1l-1 1-1 1-1 .5-1 .5-.5.5-.5.5-1.5.5-1.5.5v.5.5h1 1l.5-.5.5-.5.5.5.5.5v1.5 1.5"/><path d="m552 769v1l.5-1 .5-1-.5-.5-.5-.5-.5-.5-.5-.5-.5-1-.5-1-.5-.5-.5-.5v-1-1l.5-.5.5-.5v-.5-.5l-.5-.5-.5-.5.5-.5.5-.5.5-1 .5-1-1.5-.5-1.5-.5-1.5.5-1.5.5-1.5-.5-1.5-.5-2 .5-2 .5.5 1.5.5 1.5.5 2 .5 2 1.5.5 1.5.5 1 1.5 1 1.5 1 1 1 1 2-.5 2-.5.5 1 .5 1"/></g><g style="fill:#b9b6b0;stroke:#b9b6b0"><path d="m108 767v1l28.5-7 28.5-7 .5-2.5.5-2.5-8.5-.5-8.5-.5-16 3-16 3-.5-1-.5-1v-1-1h1 1l1.5-1 1.5-1 1-1 1-1v-2-2l-2 .5-2 .5-1 .5-1 .5-.5.5-.5.5-.5 1.5-.5 1.5-1-1-1-1-1.5 1-1.5 1-.5 1.5-.5 1.5v1.5 1.5l-1 1-1 1-1.5 1-1.5 1-1-1-1-1-.5 1-.5 1 .5.5.5.5h1 1l.5.5.5.5.5 1.5.5 1.5 1 .5 1 .5v1.5 1.5"/><path d="m218 764l6-49-3 5.5-3 5.5-.5 1-.5 1-.5 1-.5 1v1 1l-.5-.5-.5-.5h-1-1v1.5 1.5l1 1.5 1 1.5h1 1v1 1 1 1l.5 1 .5 1v1 1l-.5.5-.5.5v1 1 1.5 1.5 3 3 1 1 2.5 2.5h.5.5"/><path d="m239 763l2-1 .5-1.5.5-1.5 1-1.5 1-1.5-.5-1.5-.5-1.5-.5-1.5-.5-1.5.5-2 .5-2-2 .5-2 .5-.5 1-.5 1v1 1 1.5 1.5 2 2l.5 2.5.5 2.5"/><path d="m424 762l3 1 .5-.5.5-.5.5-.5.5-.5.5-.5.5-.5 1-.5 1-.5.5-.5.5-.5v-1-1l.5-1.5.5-1.5-1.5 1.5-1.5 1.5v-1.5-1.5l.5-1.5.5-1.5.5-1.5.5-1.5.5-2 .5-2-1 1-1 1-.5 1.5-.5 1.5-1 1.5-1 1.5-.5 1.5-.5 1.5-.5 1.5-.5 1.5-1 1.5-1 1.5-.5 1-.5 1"/></g><path d="m188 759l1-2 .5-1.5.5-1.5 7.5-37 7.5-37 10.5-31.5 10.5-31.5 5.5-18.5 5.5-18.5v-1.5-1.5l.5-.5.5-.5.5-1 .5-1v-2-2l.5-.5.5-.5v-1-1l.5-.5.5-.5v-1.5-1.5l.5-.5.5-.5v-1-1-1-1l.5-1 .5-1 .5-.5.5-.5.5-.5.5-.5.5-.5.5-.5v-1-1l.5-.5.5-.5.5-1 .5-1 .5-1 .5-1 .5-1 .5-1 .5-.5.5-.5.5-1 .5-1v-1-1l.5-.5.5-.5v-1-1l.5-1 .5-1 .5-.5.5-.5.5-1.5.5-1.5 8.5-28.5 8.5-28.5 13-30.5 13-30.5.5-1.5.5-1.5.5-.5.5-.5v-1.5-1.5-1-1-1-1-1-1l.5-1 .5-1v-1-1-1-1l-.5-.5-.5-.5v-1-1l.5-.5.5-.5v-1.5-1.5-1-1l-.5-.5-.5-.5v-1-1-1.5-1.5l-1.5-18.5-1.5-18.5 4-13.5 4-13.5-8.5-17-8.5-17-1 1-1 1-.5.5-.5.5-1 1-1 1h-1.5-1.5l-.5.5-.5.5-.5.5-.5.5-.5.5-.5.5.5 1.5.5 1.5h-1.5-1.5l-.5-.5-.5-.5-1 .5-1 .5h-1.5-1.5l-6 11.5-6 11.5-2 2.5-2 2.5-7-11.5-7-11.5 1.5 20 1.5 20-5-19.5-5-19.5h-7-7l-4 4.5-4 4.5-4 11.5-4 11.5-8-10.5-8-10.5-5-.5-5-.5-13 10.5-13 10.5-14 16-14 16 .5-1 .5-1v-1-1l-.5-.5-.5-.5-.5.5-.5.5-.5 1-.5 1-9 19.5-9 19.5-4.5 19-4.5 19-.5-1-.5-1 .5-1 .5-1-.5-1.5-.5-1.5.5-.5.5-.5.5-1 .5-1-.5-1.5-.5-1.5.5-.5.5-.5v-1.5-1.5l-.5-1.5-.5-1.5v-1-1-1-1l.5-1 .5-1 .5-2.5.5-2.5-11.5 19.5-11.5 19.5-3.5 19.5-3.5 19.5 2.5 22 2.5 22 3 19.5 3 19.5 8.5 16 8.5 16 14 10.5 14 10.5 16 3.5 16 3.5 6 18.5 6 18.5 6 29 6 29 5 19.5 5 19.5" style="fill:#e5e1d5;stroke:#e5e1d5"/><path d="m194 759l1 1 .5-1.5.5-1.5.5-.5.5-.5-.5-.5-.5-.5.5-1 .5-1 .5-.5.5-.5.5-.5.5-.5h1 1l.5-1 .5-1 .5-1.5.5-1.5-2-17.5-2-17.5 3-15.5 3-15.5-7.5 37-7.5 37 1 2 1 2 1 .5 1 .5" style="fill:#9a979a;stroke:#9a979a"/><path d="m90 758l2 1 .5-1 .5-1v-.5-.5l8-15.5 8-15.5-1-.5-1-.5-1 .5-1 .5v1 1l-.5 1-.5 1h-1.5-1.5l-1-.5-1-.5-1-.5-1-.5 1-1 1-1 1.5-1 1.5-1 .5-1.5.5-1.5-.5-2-.5-2-1-1-1-1-1-1-1-1-1-.5-1-.5-1-.5-1-.5h-2-2l-1-1-1-1h-1.5-1.5l-1.5.5-1.5.5-1-1-1-1-1.5-1-1.5-1-.5 1-.5 1 6.5 22.5 6.5 22.5.5 3 .5 3" style="fill:#0b0700;stroke:#0b0700"/><path d="m254 758l3 1 1-1 1-1-.5-2-.5-2 1.5.5 1.5.5-.5-2-.5-2-1-1-1-1-1-1.5-1-1.5-.5 1.5-.5 1.5v1 1l-.5 2-.5 2v2 2" style="fill:#b9b6b0;stroke:#b9b6b0"/><path d="m56 757l3 1 1-1 1-1 1-1.5 1-1.5h-2-2v-1.5-1.5h-1-1l-2 .5-2 .5-1.5.5-1.5.5.5 1.5.5 1.5h1.5 1.5l1 1 1 1" style="fill:#3e3946;stroke:#3e3946"/><path d="m93 756v1l12-10.5 12-10.5 3-4 3-4 8.5-7.5 8.5-7.5-15.5 6-15.5 6-8 15.5-8 15.5" style="fill:#2d2826;stroke:#2d2826"/><g style="fill:#9a979a;stroke:#9a979a"><path d="m117 754l32-6 8.5.5 8.5.5-.5-1-.5-1h-.5-.5-1-1v-1-1l-1-.5-1-.5-1-1-1-1v-1-1l.5-.5.5-.5 1-.5 1-.5.5-1.5.5-1.5-.5-.5-.5-.5h-2-2l1 .5 1 .5v1.5 1.5h-2-2-1-1l-.5-1.5-.5-1.5.5-2 .5-2 .5-1.5.5-1.5-1 1.5-1 1.5-.5 2-.5 2-1.5.5-1.5.5h-2.5-2.5l-1.5.5-1.5.5h-2-2l-2.5.5-2.5.5v1 1l-1 1.5-1 1.5-1.5-.5-1.5-.5h-1.5-1.5v2 2l-1 1-1 1-1.5 1-1.5 1h-1-1v1 1l.5 1 .5 1"/><path d="m286 754v1l.5-1 .5-1v-1-1l.5-.5.5-.5.5-.5.5-.5v-1.5-1.5l.5-1.5.5-1.5 1-1 1-1 3.5-1.5 3.5-1.5-2-16.5-2-16.5-5 8-5 8 .5 16.5.5 16.5"/></g><g style="fill:#7c798a;stroke:#7c798a"><path d="m294 754v1l1.5-1 1.5-1 .5-1 .5-1 .5-1.5.5-1.5v-2-2-3-3l-3.5 1.5-3.5 1.5 1 6.5 1 6.5"/><path d="m209 753h2l.5-1.5.5-1.5.5-2 .5-2 .5-1.5.5-1.5 1 .5 1 .5v2 2l.5 1.5.5 1.5v-1.5-1.5-1-1l.5-.5.5-.5v-1-1l-.5-1-.5-1v-1-1-1-1h-1-1l-1-1.5-1-1.5v2 2 1.5 1.5l-1.5-.5-1.5-.5-.5-2-.5-2v2 2l-1 1-1 1 .5 2 .5 2v2 2l1 1.5 1 1.5h-.5-.5"/><path d="m167 749h2l-.5-1.5-.5-1.5-.5-1-.5-1v-1-1h1 1l1 .5 1 .5v1 1l-.5 1.5-.5 1.5h1.5 1.5 1 1 1 1v-1.5-1.5l-1.5.5-1.5.5-1-.5-1-.5-.5-1.5-.5-1.5-1-1.5-1-1.5-1 1-1 1h-1.5-1.5l-1.5-.5-1.5-.5 1-1.5 1-1.5-.5-2-.5-2h-.5-.5l-1.5-1-1.5-1-1 .5-1 .5.5 1 .5 1h2 2l.5.5.5.5-.5 1.5-.5 1.5-1 .5-1 .5-.5.5-.5.5v1 1l1 1 1 1 1 .5 1 .5v1 1h1 1 .5.5l.5 1 .5 1h.5.5"/></g><path d="m336 748h2l.5-1.5.5-1.5-1-1.5-1-1.5.5-1.5.5-1.5-2-.5-2-.5-1.5.5-1.5.5.5 2 .5 2 1 1 1 1 .5 1.5.5 1.5h.5.5" style="fill:#e5e1d5;stroke:#e5e1d5"/><g style="fill:#9a979a;stroke:#9a979a"><path d="m308 747l1 1-.5-2.5-.5-2.5-.5-1-.5-1v-1-1-2-2l.5-1 .5-1-.5-.5-.5-.5-.5-.5-.5-.5-.5.5-.5.5v1.5 1.5h-1-1v-1-1-1-1l.5-1.5.5-1.5-.5-1-.5-1v-1-1l-1-1-1-1 .5 2 .5 2-.5 1.5-.5 1.5.5 2 .5 2v2 2 1.5 1.5h1 1l1 1 1 1 1 1 1 1v1.5 1.5"/><path d="m533 745l1 1-.5-2.5-.5-2.5.5-1 .5-1 .5-.5.5-.5v-1-1l.5-.5.5-.5 1-.5 1-.5-4 4.5-4 4.5 1.5 1 1.5 1"/></g><path d="m173 743l-12-10h.5.5l1.5.5 1.5.5 1-.5 1-.5h1 1v1.5 1.5 1 1l1.5-.5 1.5-.5 1 1.5 1 1.5-.5 1.5-.5 1.5" style="fill:#3e3946;stroke:#3e3946"/><path d="m240 743h2l.5-1.5.5-1.5.5-2 .5-2-.5-1.5-.5-1.5.5-2 .5-2v-2-2l.5-1 .5-1v-3-3-.5-.5-1.5-1.5l-.5-2-.5-2 .5-1.5.5-1.5.5-2 .5-2-.5-1.5-.5-1.5-.5-2-.5-2h-1-1l-.5 2-.5 2-1 2-1 2 1 2.5 1 2.5-.5 1.5-.5 1.5-.5 2-.5 2 .5 1.5.5 1.5-.5 2-.5 2-.5 1.5-.5 1.5v1.5 1.5l.5 1.5.5 1.5-1 1.5-1 1.5 1 1 1 1v1 1 1 1l.5 1.5.5 1.5" style="fill:#b9b6b0;stroke:#b9b6b0"/><path d="m340 743h3l1.5-.5 1.5-.5 1-1.5 1-1.5 1-1 1-1 .5-2 .5-2-1 .5-1 .5-1.5 1-1.5 1h-1-1l1-1 1-1-1.5-.5-1.5-.5v.5.5l-.5 1-.5 1h-1-1l-.5 1.5-.5 1.5v.5.5l.5 1.5.5 1.5" style="fill:#9a979a;stroke:#9a979a"/><path d="m153 738h2 2 2v-1.5-1.5l-1-.5-1-.5-.5-1-.5-1 .5-1 .5-1 .5-1.5.5-1.5 1-.5 1-.5v-1-1l1-1 1-1 .5-1.5.5-1.5.5-2 .5-2 .5-1 .5-1-1-.5-1-.5-.5 1-.5 1-.5 1.5-.5 1.5-1.5 2-1.5 2-1 1-1 1v1.5 1.5l-1 1-1 1-.5 1.5-.5 1.5-.5 2-.5 2 .5 1.5.5 1.5" style="fill:#b9b6b0;stroke:#b9b6b0"/><path d="m136 736v1h2 2l1.5-.5 1.5-.5h2.5 2.5l1.5-.5 1.5-.5.5-2 .5-2 1-1.5 1-1.5 1-1 1-1v-1.5-1.5l1-1 1-1-1-1.5-1-1.5-1.5.5-1.5.5-.5.5-.5.5-.5 1-.5 1-.5 1.5-.5 1.5-.5.5-.5.5v1.5 1.5 1 1l-.5.5-.5.5-1 .5-1 .5-2-.5-2-.5 1-1.5 1-1.5-1 1-1 1-.5 1-.5 1-.5.5-.5.5-.5 1-.5 1h-1.5-1.5" style="fill:#7c798a;stroke:#7c798a"/><path d="m319 736l31-9 13.5-10 13.5-10 13.5-11 13.5-11 12.5-12 12.5-12-8-12.5-8-12.5-10.5 7-10.5 7-10-6-10-6 6 12.5 6 12.5 1.5 9 1.5 9-1.5 5-1.5 5-11.5 2-11.5 2-12.5-5-12.5-5-9 10.5-9 10.5.5 15 .5 15" style="fill:#0b0700;stroke:#0b0700"/><path d="m452 736l15-3-2.5-1.5-2.5-1.5-1.5-.5-1.5-.5-1.5-.5-1.5-.5h-1.5-1.5l-1.5-.5-1.5-.5-1 1-1 1 .5 2 .5 2 1 1 1 1 .5.5.5.5" style="fill:#928d71;stroke:#928d71"/><path d="m84 735l1-1v-1.5-1.5l-.5-1-.5-1v3 3" style="fill:#0b0700;stroke:#0b0700"/><path d="m209 734l1-1 1.5.5 1.5.5v-1.5-1.5h1 1l.5.5.5.5v-1-1l.5-1 .5-1 .5-1 .5-1v-3-3l-1-1-1-1-1 1.5-1 1.5v1 1 2 2l-1 1.5-1 1.5-1-.5-1-.5-.5 2.5-.5 2.5" style="fill:#7c798a;stroke:#7c798a"/><path d="m142 732l4 1 1-.5 1-.5.5-.5.5-.5v-1-1-1.5-1.5l.5-.5.5-.5.5-1.5.5-1.5.5-1 .5-1 .5-.5.5-.5 1.5-.5 1.5-.5 1 1.5 1 1.5 1.5-2 1.5-2 .5-1.5.5-1.5.5-1 .5-1-2.5-.5-2.5-.5-1 1.5-1 1.5-1-1-1-1-.5 2-.5 2-1 1-1 1-.5 1.5-.5 1.5-1 1.5-1 1.5-1 1-1 1-1 1.5-1 1.5-1 1.5-1 1.5" style="fill:#9a979a;stroke:#9a979a"/><path d="m101 729h3l.5-1 .5-1v-1-1l1-.5 1-.5 1 .5 1 .5-1.5-1.5-1.5-1.5-.5-1.5-.5-1.5-.5-1-.5-1-.5-.5-.5-.5-.5-1.5-.5-1.5-2-.5-2-.5 1 1 1 1 1 1 1 1 .5 2 .5 2-.5 1.5-.5 1.5-1.5 1-1.5 1-1 1-1 1 1 .5 1 .5 1 .5 1 .5" style="fill:#2d2826;stroke:#2d2826"/><path d="m459 729l3 1-1.5-9-1.5-9-3 8-3 8h1.5 1.5l1.5.5 1.5.5" style="fill:#b9b6b0;stroke:#b9b6b0"/><path d="m276 725h2l1.5.5 1.5.5-.5-1-.5-1 .5-1.5.5-1.5.5-2 .5-2 1-1 1-1v-2.5-2.5l-1.5.5-1.5.5v2 2h-1-1l-.5-1-.5-1 .5-.5.5-.5.5-.5.5-.5.5-1 .5-1v-1-1-1-1l.5-.5.5-.5v-1.5-1.5l-1-2-1-2-.5 1-.5 1v1 1 2 2l-.5 2-.5 2-.5 1.5-.5 1.5-.5 2-.5 2 .5 1.5.5 1.5-.5 2-.5 2v1 1" style="fill:#9a979a;stroke:#9a979a"/><g style="fill:#b9b6b0;stroke:#b9b6b0"><path d="m429 720v1l1-.5 1-.5 1.5-.5 1.5-.5 1.5-1 1.5-1-1-1-1-1-.5-2-.5-2-.5-1-.5-1v2 2l-1.5-.5-1.5-.5-17-7.5-17-7.5 18 5.5 18 5.5-14.5-10-14.5-10-4 9-4 9 2 1 2 1h2 2l1 1 1 1 2 .5 2 .5 1 1 1 1 2 .5 2 .5 1.5.5 1.5.5 2 .5 2 .5 1.5.5 1.5.5 1.5.5 1.5.5.5 1 .5 1"/><path d="m177 719l1 1-6-29-6-29 5.5 28.5 5.5 28.5"/></g><path d="m245 716v1l.5-1 .5-1v-2-2l-.5-2-.5-2 1-1 1-1v-1.5-1.5l-.5-1.5-.5-1.5v-2.5-2.5l-.5-1.5-.5-1.5 1-1 1-1 .5-2 .5-2v-.5-.5l-1.5-21.5-1.5-21.5-2 25.5-2 25.5-1.5-2-1.5-2 1-1 1-1-1-1-1-1 .5-2 .5-2v-2.5-2.5l-.5 2-.5 2-.5 1.5-.5 1.5v2.5 2.5l.5 1.5.5 1.5-.5 1.5-.5 1.5.5 2 .5 2 .5 1.5.5 1.5v1.5 1.5l1-2 1-2 .5-2 .5-2h1 1l.5 2 .5 2 .5 1.5.5 1.5-.5 2-.5 2-.5 1.5-.5 1.5.5 2 .5 2v1.5 1.5" style="fill:#9a979a;stroke:#9a979a"/><path d="m523 716l-9-5-2-3.5-2-3.5-8.5-5-8.5-5-2-4-2-4-1 2-1 2h-1-1l-1-.5-1-.5-1-.5-1-.5-.5-.5-.5-.5-.5-.5-.5-.5h-1-1l-.5-.5-.5-.5.5-1 .5-1 .5-.5.5-.5.5-.5.5-.5v-1-1l.5-.5.5-.5 1 .5 1 .5v1 1h1 1l.5.5.5.5.5-1 .5-1 1 1 1 1-7.5-7-7.5-7-6 .5-6 .5-1-.5-1-.5-1.5-1-1.5-1-.5-1.5-.5-1.5v-2-2l-.5-1-.5-1-2-21.5-2-21.5-.5-4.5-.5-4.5h-1-1l-1 1-1 1-1 .5-1 .5-2.5 13.5-2.5 13.5-.5 10.5-.5 10.5 4.5 6 4.5 6 10 6.5 10 6.5 7 8.5 7 8.5 14 6.5 14 6.5 7.5 2.5 7.5 2.5" style="fill:#2d2826;stroke:#2d2826"/><path d="m279 715h2v-2-2l1.5-.5 1.5-.5 1-1.5 1-1.5.5-1 .5-1 .5-.5.5-.5v-2-2-1.5-1.5-1-1l.5-1.5.5-1.5v-2-2l-4 4-4 4-.5.5-.5.5 1 2 1 2v1.5 1.5l-.5.5-.5.5v1 1 1 1l-.5 1-.5 1-.5.5-.5.5-.5.5-.5.5.5 1 .5 1" style="fill:#7c798a;stroke:#7c798a"/><path d="m339 713l3 1h1 1 2.5 2.5l1.5-.5 1.5-.5 1-1.5 1-1.5-.5-1.5-.5-1.5-2 .5-2 .5-1.5.5-1.5.5-1.5.5-1.5.5-2 .5-2 .5v1 1" style="fill:#2d2826;stroke:#2d2826"/><path d="m467 713h2l1-1 1-1-.5-2-.5-2-1-1-1-1-1.5-1-1.5-1v-2-2-.5-.5l-1 1-1 1v2 2l-1 1-1 1v1.5 1.5l1 1 1 1 1.5 1 1.5 1h.5.5" style="fill:#0b0700;stroke:#0b0700"/><path d="m430 712l3 1v-2-2l-.5-.5-.5-.5-18-5.5-18-5.5 17 7.5 17 7.5" style="fill:#e5e1d5;stroke:#e5e1d5"/><path d="m96 711l2 1-.5-1-.5-1-.5-.5-.5-.5h-1-1-1.5-1.5l-.5-.5-.5-.5-.5-.5-.5-.5h-1-1l-1-.5-1-.5h-1-1-1-1v-1-1l-1-1-1-1-1-.5-1-.5h-1-1l-.5-.5-.5-.5-.5.5-.5.5v1.5 1.5l.5.5.5.5 1 1 1 1 .5-1 .5-1 1.5 1 1.5 1 1 1 1 1 1.5-.5 1.5-.5h1.5 1.5l1 1 1 1h2 2l1 .5 1 .5" style="fill:#2d2826;stroke:#2d2826"/><path d="m91 705l1-1 1-1 1-1-1-.5-1-.5v-2-2-1.5-1.5-1-1l-1 .5-1 .5-.5 1.5-.5 1.5-1 1-1 1-.5-1.5-.5-1.5-1.5 1-1.5 1-1.5 1-1.5 1h1 1l1.5 1 1.5 1 1 1 1 1 1-.5 1-.5-.5 1.5-.5 1.5h1.5 1.5" style="fill:#7c798a;stroke:#7c798a"/><path d="m461 705v1l1-1 1-1v-2-2l1-1 1-1-7-3.5-7-3.5 3.5 2.5 3.5 2.5 1.5 4.5 1.5 4.5" style="fill:#2d2826;stroke:#2d2826"/><path d="m319 703l1-21-5-1-5-1 .5 2 .5 2 1 1 1 1-.5 1.5-.5 1.5-.5 2-.5 2 .5.5.5.5 1 1 1 1 .5 2 .5 2 1 1 1 1 1 .5 1 .5" style="fill:#d4786f;stroke:#d4786f"/><g style="fill:#2d2826;stroke:#2d2826"><path d="m151 700l15-15-2-1-2-1-.5 1.5-.5 1.5-.5.5-.5.5-.5.5-.5.5h-1.5-1.5l-.5.5-.5.5.5 1.5.5 1.5 2.5 1 2.5 1-1 1-1 1-2 .5-2 .5-1.5.5-1.5.5-.5 1-.5 1"/><path d="m514 700l3 1 .5-1.5.5-1.5 1-1.5 1-1.5 1-1 1-1-1.5-1-1.5-1-1-1-1-1-.5-1.5-.5-1.5-.5 2-.5 2-1 1-1 1-1 1.5-1 1.5v1 1 1.5 1.5h1.5 1.5"/></g><g style="fill:#9a979a;stroke:#9a979a"><path d="m78 698l2 1 1.5-1 1.5-1 1.5-1 1.5-1-.5-1.5-.5-1.5-1-1.5-1-1.5h-2-2l-.5 2-.5 2v2 2 .5.5"/><path d="m281 695v1l4-4 4-4v-16.5-16.5l-2.5 5.5-2.5 5.5-1.5 14.5-1.5 14.5"/></g><g style="fill:#b9b6b0;stroke:#b9b6b0"><path d="m305 695l3 1 1-1 1-1-.5-1-.5-1-.5 1.5-.5 1.5-1-1.5-1-1.5.5-1.5.5-1.5v-1.5-1.5l.5-1.5.5-1.5h1 1l.5.5.5.5-.5-2-.5-2-5.5-18-5.5-18-.5 4-.5 4 3.5 20.5 3.5 20.5v1 1"/><path d="m241 692l4-51-3 17-3 17v2.5 2.5l-.5 2-.5 2 1 1 1 1-1 1-1 1 1.5 2 1.5 2"/></g><path d="m153 691l3 1-.5-1.5-.5-1.5.5-.5.5-.5h1.5 1.5l.5-.5.5-.5.5-.5.5-.5.5-1.5.5-1.5v-1.5-1.5-1.5-1.5l.5-1.5.5-1.5 1-1 1-1v-1.5-1.5l-1 1-1 1h-1-1l-1-.5-1-.5 1.5-.5 1.5-.5-.5-.5-.5-.5-.5-1-.5-1-1-1-1-1v-1-1h-1.5-1.5l.5-1.5.5-1.5h-1-1l-.5 2-.5 2-1 1-1 1-.5 2-.5 2v1 1l-1 1.5-1 1.5 1 1 1 1-.5 1.5-.5 1.5-.5 1-.5 1-.5-1-.5-1 1 2 1 2h2 2 1.5 1.5l-1-.5-1-.5 1 .5 1 .5 1.5.5 1.5.5-1.5.5-1.5.5-1.5 1-1.5 1h-1.5-1.5l1.5.5 1.5.5v1 1 .5.5" style="fill:#3e3946;stroke:#3e3946"/><path d="m137 690l3 1v-1-1l-1.5-1-1.5-1-.5-.5-.5-.5-.5-2-.5-2-.5-.5-.5-.5-1 .5-1 .5-1 1-1 1h-1-1l-.5-.5-.5-.5-.5-.5-.5-.5-1 .5-1 .5-1.5-.5-1.5-.5-.5-.5-.5-.5-.5 1-.5 1 .5.5.5.5h1 1l1 1 1 1 2 .5 2 .5 1.5.5 1.5.5 1.5 1 1.5 1h1.5 1.5" style="fill:#b9b6b0;stroke:#b9b6b0"/><g style="fill:#0b0700;stroke:#0b0700"><path d="m485 690h2l1-2 1-2-.5-1-.5-1v-1-1l-1-1-1-1-.5 1-.5 1-.5-.5-.5-.5h-1-1v-1-1l-1-.5-1-.5-.5.5-.5.5v1 1l-.5.5-.5.5-.5.5-.5.5-.5 1-.5 1 .5.5.5.5h1 1l.5.5.5.5.5.5.5.5 1 .5 1 .5 1 .5 1 .5"/><path d="m352 688l5-21-11.5 4-11.5 4 1-9 1-9-2-8.5-2-8.5-8 12.5-8 12.5 7 7.5 7 7.5 11 4 11 4"/></g><path d="m444 688h2v-2-2l-.5-2-.5-2-1-1-1-1-2-.5-2-.5h-1-1l1 1.5 1 1.5.5 1.5.5 1.5 1 1 1 1 1 1.5 1 1.5" style="fill:#b9b6b0;stroke:#b9b6b0"/><path d="m148 687h2 1.5 1.5l1.5-1 1.5-1 1.5-.5 1.5-.5-1.5-.5-1.5-.5h-1.5-1.5-2-2l-1-2-1-2h-2.5-2.5l.5.5.5.5 1.5 1 1.5 1-1 1-1 1 .5 1 .5 1 1.5.5 1.5.5" style="fill:#2d2826;stroke:#2d2826"/><path d="m119 686h2 1.5 1.5l-1-1-1-1h-1-1l-.5-.5-.5-.5.5-1 .5-1 .5.5.5.5 1.5.5 1.5.5 1-.5 1-.5.5.5.5.5.5.5.5.5h1 1l1-1 1-1 1-.5 1-.5.5.5.5.5.5 2 .5 2 .5-6.5.5-6.5-10 1.5-10 1.5-4-3.5-4-3.5 1.5-1.5 1.5-1.5-1 .5-1 .5-1 .5-1 .5-1 1-1 1-.5.5-.5.5.5.5.5.5v1 1l1-.5 1-.5 1.5.5 1.5.5v1 1l.5 1 .5 1-1 1-1 1 .5.5.5.5 1 .5 1 .5.5 1.5.5 1.5 2.5.5 2.5.5" style="fill:#9a979a;stroke:#9a979a"/><path d="m221 685l1-1 .5-1.5.5-1.5 1-.5 1-.5v1 1 1 1l1.5.5 1.5.5-2-18.5-2-18.5-1.5-4-1.5-4-4.5 18-4.5 18 .5 1.5.5 1.5 4 3 4 3" style="fill:#7c798a;stroke:#7c798a"/><path d="m508 685l3 1 1-1 1-1 1.5 1 1.5 1-2.5-4-2.5-4-1.5 3.5-1.5 3.5" style="fill:#2d2826;stroke:#2d2826"/><path d="m111 684l3 1-.5-1.5-.5-1.5-1-.5-1-.5-.5-.5-.5-.5 1-1 1-1-.5-1-.5-1v-1-1l-1.5-.5-1.5-.5-1 .5-1 .5v-1-1l-.5-.5-.5-.5.5-.5.5-.5 1-1 1-1 1-.5 1-.5 1-.5 1-.5.5-1 .5-1h1 1v-.5-.5l.5-2 .5-2-1-1-1-1-.5.5-.5.5-1-.5-1-.5-1.5.5-1.5.5-.5.5-.5.5v1 1h-1-1l-.5-1-.5-1-1 .5-1 .5-.5 1-.5 1-1-1-1-1-1-1-1-1-.5-1.5-.5-1.5-.5-1-.5-1-1.5.5-1.5.5-2 .5-2 .5.5 1.5.5 1.5 2 .5 2 .5-.5 2.5-.5 2.5v1.5 1.5l-.5.5-.5.5 3.5 5 3.5 5 1 1.5 1 1.5 1 1 1 1 2 .5 2 .5h1 1 1.5 1.5" style="fill:#b9b6b0;stroke:#b9b6b0"/><path d="m248 684v1l1.5-30 1.5-30v-19-19l-.5-20-.5-20v19.5 19.5l-2.5 27.5-2.5 27.5 1.5 21.5 1.5 21.5" style="fill:#7c798a;stroke:#7c798a"/><path d="m364 684l22-16-10.5-14-10.5-14-.5-.5-.5-.5-.5-2-.5-2 2-.5 2-.5.5-.5.5-.5-1-1.5-1-1.5v-1-1l2 .5 2 .5 1 1 1 1 1 1.5 1 1.5 1 1 1 1 1 1 1 1-1 .5-1 .5 7-6.5 7-6.5-9.5-11.5-9.5-11.5 8.5-11 8.5-11 6-4 6-4-5-8.5-5-8.5-8.5-1.5-8.5-1.5-5-8.5-5-8.5-6-7-6-7 13-6 13-6 2.5-17 2.5-17h-.5-.5l-1.5-.5-1.5-.5h-1-1v-1.5-1.5l.5-1.5.5-1.5v-1-1l.5-3 .5-3-11 7-11 7-4 11-4 11v1.5 1.5l-.5.5-.5.5-.5 1-.5 1h-1-1l-.5.5-.5.5-.5.5-.5.5h-1-1l.5-1 .5-1v-1-1-1.5-1.5l-9-1.5-9-1.5-5.5-3.5-5.5-3.5-3.5-13-3.5-13 2 22.5 2 22.5.5 1 .5 1v2 2 1 1l1 .5 1 .5.5.5.5.5h-1-1l.5 1 .5 1 .5 1.5.5 1.5.5-.5.5-.5.5-.5.5-.5-.5-.5-.5-.5.5-1 .5-1h1.5 1.5l3.5 18 3.5 18 1.5.5 1.5.5 1 1 1 1-.5 1-.5 1v2 2l-1 1.5-1 1.5v2 2l-1.5 1-1.5 1-1 2-1 2-5 17-5 17v1.5 1.5l-.5.5-.5.5-.5 1-.5 1-.5.5-.5.5v1 1 1 1l-.5 1-.5 1v1 1l.5.5.5.5v1 1l1 .5 1 .5 1.5.5 1.5.5v1 1 1.5 1.5l1.5.5 1.5.5.5.5.5.5h1 1l.5 1 .5 1 8.5 1.5 8.5 1.5 6.5 3.5 6.5 3.5 1.5 9 1.5 9 5 9 5 9" style="fill:#d4786f;stroke:#d4786f"/><g style="fill:#9a979a;stroke:#9a979a"><path d="m256 682v1l2.5-24.5 2.5-24.5 2-10.5 2-10.5 4.5-9.5 4.5-9.5 6.5 2.5 6.5 2.5 2.5 19 2.5 19-.5-2.5-.5-2.5v-2-2l-.5-2-.5-2v-2-2-2.5-2.5-1-1l-.5-2-.5-2v-2-2l.5-2 .5-2-.5-1.5-.5-1.5-.5-.5-.5-.5-1-.5-1-.5.5-1.5.5-1.5.5-1.5.5-1.5-1-1.5-1-1.5v-2-2-2-2l-.5-2-.5-2-.5-1.5-.5-1.5 1-1 1-1-.5-2-.5-2v-2.5-2.5-2-2l-.5-2-.5-2v-3-3l-3-5.5-3-5.5-8.5 12-8.5 12-1 22.5-1 22.5-1.5 38.5-1.5 38.5"/><path d="m94 678h2 1 1l-3.5-5-3.5-5-.5 2-.5 2 .5 1.5.5 1.5 1 1.5 1 1.5h.5.5"/><path d="m490 676h2v-1-1-1-1l.5-1 .5-1v-1-1-1-1l.5-.5.5-.5-.5-1-.5-1v-1-1l.5-.5.5-.5v-1-1-1.5-1.5-1-1-1.5-1.5l-.5 2-.5 2v1 1l-.5 1-.5 1h-1.5-1.5l1-1 1-1 .5-1.5.5-1.5-.5-2-.5-2-2-.5-2-.5-1 1-1 1h-1-1-1-1l-1 1-1 1-1-.5-1-.5 6-.5 6-.5.5 13 .5 13"/></g><path d="m128 674l21-19 2-5.5 2-5.5-.5-.5-.5-.5h-1-1l-10.5 14.5-10.5 14.5-.5 1-.5 1" style="fill:#2d2826;stroke:#2d2826"/><path d="m239 674v1l3-17 3-17 2.5-27.5 2.5-27.5v-19.5-19.5l-.5-.5-.5-.5-.5 1-.5 1-4 19-4 19 .5-1 .5-1v-2-2l.5-.5.5-.5.5-1 .5-1-.5-1.5-.5-1.5-.5-.5-.5-.5-1 .5-1 .5-.5 1-.5 1-.5.5-.5.5v1.5 1.5l1 1 1 1v2.5 2.5l-.5 2-.5 2-3.5 20-3.5 20 4 21.5 4 21.5" style="fill:#9a979a;stroke:#9a979a"/><path d="m86 673h2l-.5-1.5-.5-1.5.5-2 .5-2v-1-1l-1-1.5-1-1.5-.5-1.5-.5-1.5-.5-2-.5-2-1-1-1-1-1.5.5-1.5.5-1.5-1-1.5-1h-.5-.5l.5 1 .5 1 1 1 1 1 1.5-1 1.5-1 1 1 1 1 .5 2 .5 2v2 2l-1.5-.5-1.5-.5-1.5-1-1.5-1-1-1-1-1-2-.5-2-.5 1 .5 1 .5 1 1 1 1 1.5 1 1.5 1 .5 1.5.5 1.5 1 1 1 1 2 .5 2 .5-.5 1.5-.5 1.5.5 1 .5 1" style="fill:#2d2826;stroke:#2d2826"/><path d="m308 673l11-33-8.5 3-8.5 3 3 13.5 3 13.5" style="fill:#0b0700;stroke:#0b0700"/><path d="m161 671h2l1-1 1-1-.5-2-.5-2-.5-1.5-.5-1.5-.5-2-.5-2-.5-1.5-.5-1.5-1-1.5-1-1.5-1 1-1 1v2 2l-.5.5-.5.5-.5 1.5-.5 1.5h1.5 1.5v1 1l1 1 1 1 .5 1 .5 1 .5.5.5.5-1.5.5-1.5.5 1 .5 1 .5" style="fill:#2d2826;stroke:#2d2826"/><path d="m459 668l2 1-1.5-9.5-1.5-9.5-2 3.5-2 3.5.5 1 .5 1v2 2l.5 1.5.5 1.5 1.5 1 1.5 1" style="fill:#55504b;stroke:#55504b"/><path d="m507 668l5-39-4.5-5.5-4.5-5.5v2 2l1 .5 1 .5v1 1 1 1l.5-.5.5-.5.5 1 .5 1 .5 1.5.5 1.5v1 1 1 1 1 1l-1 .5-1 .5.5.5.5.5.5.5.5.5v1 1h-1.5-1.5l-.5.5-.5.5v1 1h-1-1l-1 .5-1 .5v2 2l2-.5 2-.5 1.5.5 1.5.5.5 1.5.5 1.5v2.5 2.5l-.5 1.5-.5 1.5v2.5 2.5 1 1" style="fill:#b9b6b0;stroke:#b9b6b0"/><path d="m343 664l-2-12-2.5 2.5-2.5 2.5 1.5-.5 1.5-.5 1.5.5 1.5.5.5 2 .5 2v1.5 1.5" style="fill:#0b0700;stroke:#0b0700"/><g style="fill:#9a979a;stroke:#9a979a"><path d="m91 663l1 1 .5-2.5.5-2.5-2-.5-2-.5-.5-1.5-.5-1.5 2-.5 2-.5 1.5-.5 1.5-.5.5 1 .5 1 .5 1.5.5 1.5 1 1 1 1 1 1 1 1 .5-1 .5-1-.5-.5-.5-.5-.5-1-.5-1h-1-1l-.5-1-.5-1 .5-1.5.5-1.5-.5-.5-.5-.5.5-.5.5-.5.5-.5.5-.5-.5-2-.5-2-4 2-4 2 .5 7 .5 7"/><path d="m115 663v1l7.5-6 7.5-6-4.5-3-4.5-3-9.5 7-9.5 7 1-.5 1-.5.5 1 .5 1h1 1v-1-1l.5-.5.5-.5 1.5-.5 1.5-.5 1 .5 1 .5.5-.5.5-.5 1 1 1 1-.5 2-.5 2"/></g><path d="m469 663h2l.5-1.5.5-1.5.5-1 .5-1v-1-1l1-1 1-1 1-1.5 1-1.5 11.5-22 11.5-22 4-20.5 4-20.5.5-23 .5-23-7.5-16.5-7.5-16.5-5-16.5-5-16.5-2-22-2-22-4.5-18.5-4.5-18.5-5-19-5-19-8.5-16-8.5-16h-2-2l-2-1-2-1-1.5-1-1.5-1-1-1-1-1-1-1.5-1-1.5-1.5-.5-1.5-.5-1-1.5-1-1.5-1.5-.5-1.5-.5-1-.5-1-.5-.5-1-.5-1-2.5 7.5-2.5 7.5-14.5-21.5-14.5-21.5-.5-.5-.5-.5.5 9 .5 9-1.5-1.5-1.5-1.5-.5-1.5-.5-1.5-1-1.5-1-1.5-1-1-1-1-1-1-1-1h-1.5-1.5v2 2l.5 2.5.5 2.5.5 1.5.5 1.5 1 1 1 1 .5 2 .5 2 .5 1.5.5 1.5.5 1.5.5 1.5 1 1.5 1 1.5v2 2l.5 2 .5 2v1 1l13 29 13 29 8.5 32.5 8.5 32.5 3.5 19.5 3.5 19.5 3 21 3 21 3 21 3 21 3 20 3 20 2.5 21.5 2.5 21.5 7.5 17.5 7.5 17.5" style="fill:#e5e1d5;stroke:#e5e1d5"/><path d="m81 662l3 1v-2-2l-.5-2-.5-2-1-1-1-1-1.5 1-1.5 1-1-1-1-1-.5-1-.5-1-1-2-1-2-.5 5-.5 5 2 .5 2 .5 1 1 1 1 1.5 1 1.5 1" style="fill:#0b0700;stroke:#0b0700"/><path d="m101 659l1 1 9.5-7 9.5-7-1.5 1-1.5 1-1.5.5-1.5.5-1-1.5-1-1.5-1.5-.5-1.5-.5-1-1-1-1-1.5 1-1.5 1-1 1-1 1-1.5-1-1.5-1h-1-1l.5 2 .5 2-.5.5-.5.5-.5.5-.5.5.5.5.5.5-.5 1.5-.5 1.5.5 1 .5 1h1 1l.5 1 .5 1" style="fill:#7c798a;stroke:#7c798a"/><path d="m255 659l1-1v-2-2-2.5-2.5-2-2-1.5-1.5-2-2l-.5-2-.5-2v-2-2l.5-1.5.5-1.5v-1-1l-1-.5-1-.5h-.5-.5v1.5 1.5l-.5 2-.5 2v2 2l1 .5 1 .5.5 1.5.5 1.5-.5 2-.5 2-.5 1.5-.5 1.5h1 1v2.5 2.5 2 2 2 2" style="fill:#3e3946;stroke:#3e3946"/><path d="m489 658h3l.5-1 .5-1v-1-1l.5-2 .5-2 .5-1 .5-1 .5-2 .5-2 .5-1.5.5-1.5v-1.5-1.5l-.5 1.5-.5 1.5-1 .5-1 .5-.5.5-.5.5-1 1-1 1-.5 1-.5 1-1.5.5-1.5.5 2 .5 2 .5.5 2 .5 2-.5 1.5-.5 1.5-1 1-1 1" style="fill:#b9b6b0;stroke:#b9b6b0"/><path d="m71 656l1 1 .5-5 .5-5-5.5-14-5.5-14 4.5 18.5 4.5 18.5" style="fill:#2d2826;stroke:#2d2826"/><path d="m103 655h2 2 2l1-1.5 1-1.5 1-1 1-1-.5-2-.5-2-1 1-1 1-1-.5-1-.5h-1-1l-1.5.5-1.5.5v2.5 2.5 1 1" style="fill:#9a979a;stroke:#9a979a"/><g style="fill:#2d2826;stroke:#2d2826"><path d="m57 652l-2-51-1 19.5-1 19.5.5 1 .5 1 .5.5.5.5v1.5 1.5l-.5.5-.5.5.5.5.5.5.5.5.5.5.5 1.5.5 1.5"/><path d="m142 648h2l.5-1.5.5-1.5 1-1.5 1-1.5-.5-1.5-.5-1.5-.5-1-.5-1-.5-1-.5-1-.5-1-.5-1-.5-.5-.5-.5v-1.5-1.5l-1.5 5.5-1.5 5.5 1.5 4 1.5 4"/></g><path d="m500 645v1l1-.5 1-.5h1 1v-1-1l.5-.5.5-.5h1.5 1.5v-1-1l-.5-.5-.5-.5-.5-.5-.5-.5 1-.5 1-.5v-1-1-1-1-1-1l-.5-1.5-.5-1.5-.5-1-.5-1-.5.5-.5.5v-1-1-1-1l-1-.5-1-.5v-2-2l-.5 12-.5 12-1 1.5-1 1.5" style="fill:#9a979a;stroke:#9a979a"/><path d="m152 643l1 1v-3-3-1.5-1.5-2-2l-1 .5-1 .5h-1-1l-2-.5-2-.5-1-1-1-1h-.5-.5v1.5 1.5l.5.5.5.5.5 1 .5 1 .5 1 .5 1 1-1 1-1 1 1 1 1 .5 2 .5 2v1 1h1 1" style="fill:#3e3946;stroke:#3e3946"/><g style="fill:#c5594a;stroke:#c5594a"><path d="m364 639l1 1 1-2 1-2h1.5 1.5 1 1l1.5.5 1.5.5.5 1 .5 1 1-.5 1-.5-1-1-1-1-1-1-1-1-1-1.5-1-1.5-1-1-1-1-2-.5-2-.5v1 1l1 1.5 1 1.5-.5.5-.5.5-2 .5-2 .5.5 2 .5 2"/><path d="m312 637l3 1 1.5-.5 1.5-.5 1.5.5 1.5.5-.5-1-.5-1h-1-1l-.5-.5-.5-.5-1.5-.5-1.5-.5v-1.5-1.5-1-1l-1.5-.5-1.5-.5-1-.5-1-.5v-1-1l-.5-.5-.5-.5v-1-1l.5-1 .5-1v-1-1-1-1l.5-.5.5-.5.5-1 .5-1 .5-.5.5-.5v-1.5-1.5 14 14"/></g><path d="m427 636l5-21-3.5-14-3.5-14-4 5.5-4 5.5-1-13.5-1-13.5-3.5 9-3.5 9 2 6 2 6 6.5 8.5 6.5 8.5-1-.5-1-.5-.5-1.5-.5-1.5-.5-2-.5-2 .5-1.5.5-1.5 1.5-1 1.5-1 1 1 1 1v1.5 1.5 2 2l1.5-.5 1.5-.5.5 2 .5 2v1 1l1 1.5 1 1.5v2 2l-.5 2-.5 2-1-1-1-1-1 .5-1 .5-.5 1-.5 1-.5 2-.5 2 .5.5.5.5" style="fill:#7c798a;stroke:#7c798a"/><path d="m398 632l11-3 1.5-10 1.5-10-9-10.5-9-10.5-1.5-8-1.5-8-6 11.5-6 11.5-.5 8.5-.5 8.5 8.5 8 8.5 8 1.5 2 1.5 2" style="fill:#0b0700;stroke:#0b0700"/><path d="m231 630v1l3.5-20 3.5-20-3.5 19.5-3.5 19.5" style="fill:#7c798a;stroke:#7c798a"/><path d="m427 630v1l.5-1 .5-1 1-.5 1-.5 1 1 1 1 .5-2 .5-2v-2-2l-1-1.5-1-1.5v-1-1l-.5-2-.5-2-1.5.5-1.5.5-1 2-1 2-6.5-8.5-6.5-8.5 1 1 1 1 .5 1.5.5 1.5-.5 1.5-.5 1.5 1 1.5 1 1.5.5 1.5.5 1.5.5 2 .5 2 .5 1.5.5 1.5 1.5 1 1.5 1v2 2l1.5.5 1.5.5 1 .5 1 .5" style="fill:#9a979a;stroke:#9a979a"/><g style="fill:#2d2826;stroke:#2d2826"><path d="m294 626l1-1 .5-1.5.5-1.5.5-2 .5-2 .5-1.5.5-1.5v-.5-.5l-.5-.5-.5-.5v-2-2l-1-1.5-1-1.5 1-1 1-1v-1-1l.5-2 .5-2 .5-1.5.5-1.5v-1.5-1.5l-1.5 1.5-1.5 1.5-1 1.5-1 1.5v2 2l-1 1.5-1 1.5.5 1.5.5 1.5-.5 1.5-.5 1.5.5 2 .5 2v2 2 2.5 2.5l.5 1 .5 1"/><path d="m254 624l2 1v-2.5-2.5-1.5-1.5-2-2l.5-2 .5-2v-2-2h-1.5-1.5l-.5 1.5-.5 1.5v2 2 2.5 2.5 2 2 1.5 1.5h.5.5"/></g><path d="m349 621l3 1 .5-1.5.5-1.5 1.5-1 1.5-1 .5-1.5.5-1.5v-2.5-2.5l-1.5-.5-1.5-.5-2 .5-2 .5-1 1-1 1v2 2l-.5 2-.5 2 1 1 1 1" style="fill:#c5594a;stroke:#c5594a"/><path d="m86 618l-9-5 1 1.5 1 1.5 1.5 1 1.5 1h2 2" style="fill:#3e3946;stroke:#3e3946"/><path d="m423 617l2 1 1-2 1-2v-2-2-1.5-1.5l-1-1-1-1-1.5 1-1.5 1-.5 1.5-.5 1.5.5 2 .5 2 .5 1.5.5 1.5" style="fill:#5d5869;stroke:#5d5869"/><g style="fill:#3e3946;stroke:#3e3946"><path d="m297 613l1 1 1.5-11 1.5-11h-1-1v1.5 1.5l-.5 1.5-.5 1.5-.5 2-.5 2v1 1l-1 1-1 1 1 1.5 1 1.5v2 2"/><path d="m73 612l4 1v-1.5-1.5h-1-1l-1-1-1-1-1 .5-1 .5h-1-1l-1-1-1-1-1-.5-1-.5v-1-1-1-1h-1-1l-1-.5-1-.5v-1-1l-.5-1.5-.5-1.5-.5-1-.5-1-1-.5-1-.5v1 1l1 1 1 1v1 1l.5 1 .5 1-.5.5-.5.5v1 1l.5-.5.5-.5 1 .5 1 .5.5.5.5.5.5.5.5.5v1 1h1 1l.5.5.5.5 1 .5 1 .5h1 1l1 1 1 1"/></g><path d="m304 609l6-35-.5 1-.5 1-8-22-8-22 6 23.5 6 23.5-.5 15-.5 15" style="fill:#9a979a;stroke:#9a979a"/><path d="m308 609l16-26-3-16.5-3-16.5 2.5-17 2.5-17-5.5 17-5.5 17v20.5 20.5l-2 9-2 9" style="fill:#0b0700;stroke:#0b0700"/><path d="m443 607v1l1-.5 1-.5 1-1 1-1h1 1l-2.5-12.5-2.5-12.5-.5-1.5-.5-1.5-.5-.5-.5-.5v-1.5-1.5l-1-.5-1-.5h-1.5-1.5l-1-1-1-1-1.5.5-1.5.5-1.5-1-1.5-1-1.5 1-1.5 1 1 8.5 1 8.5 5-.5 5-.5 2.5 9 2.5 9v1 1" style="fill:#3e3946;stroke:#3e3946"/><path d="m81 604h2l-1-1-1-1-1-1.5-1-1.5h-2-2l-1.5-1-1.5-1v-1-1l.5-2 .5-2-1-1-1-1-.5-1.5-.5-1.5-.5 1.5-.5 1.5v1 1 1.5 1.5l-1.5.5-1.5.5-1 .5-1 .5.5 1 .5 1 1.5-.5 1.5-.5 2 .5 2 .5 1 1 1 1h1 1l1 .5 1 .5-1.5.5-1.5.5-.5 1-.5 1 1.5-.5 1.5-.5 2 .5 2 .5" style="fill:#9a979a;stroke:#9a979a"/><path d="m259 604v1l1-22.5 1-22.5-1 22-1 22" style="fill:#7c798a;stroke:#7c798a"/><path d="m354 604l8-32-10.5 7-10.5 7 6.5 9 6.5 9" style="fill:#c5594a;stroke:#c5594a"/><path d="m242 600l3 1 .5-1.5.5-1.5v-1.5-1.5l.5-1.5.5-1.5-1-1.5-1-1.5h-1-1l-1 1.5-1 1.5-1 1-1 1 .5 1.5.5 1.5 1 1.5 1 1.5" style="fill:#b9b6b0;stroke:#b9b6b0"/><path d="m54 599l1 1 .5-1.5.5-1.5.5-1 .5-1v-1-1l1-17.5 1-17.5-2.5 20.5-2.5 20.5" style="fill:#2d2826;stroke:#2d2826"/><path d="m354 599l3-27-4.5 9-4.5 9 3 4.5 3 4.5" style="fill:#0b0700;stroke:#0b0700"/><path d="m288 597l1 1-.5-1.5-.5-1.5.5-.5.5-.5v-1.5-1.5-1-1l-.5-.5-.5-.5-.5-.5-.5-.5.5-1 .5-1v-1-1l.5-.5.5-.5v-1-1-.5-.5l-.5-.5-.5-.5v-1-1l-.5-.5-.5-.5v-1.5-1.5l-.5-1-.5-1-1 1-1 1 .5 1.5.5 1.5.5 2 .5 2v2 2 2 2l1 1.5 1 1.5-.5 1.5-.5 1.5-.5 1.5-.5 1.5 1 .5 1 .5" style="fill:#7c798a;stroke:#7c798a"/><g style="fill:#b9b6b0;stroke:#b9b6b0"><path d="m64 595v1l1-.5 1-.5 1.5-.5 1.5-.5v-1.5-1.5-1-1l.5-1.5.5-1.5h-1.5-1.5l-1.5-1-1.5-1-1-1-1-1-.5 1.5-.5 1.5.5 2 .5 2v2 2l1 1 1 1"/><path d="m240 586l8-38-.5 1-.5 1-.5.5-.5.5v1 1l-.5.5-.5.5-.5.5-.5.5-.5.5-.5.5-.5 1-.5 1v1 1 1 1l-.5.5-.5.5v1.5 1.5l-.5.5-.5.5v1 1l-.5.5-.5.5v2 2l1-.5 1-.5.5.5.5.5.5 1.5.5 1.5-.5 1-.5 1-.5.5-.5.5v2 2l-.5 1-.5 1"/></g><path d="m294 577h3l-.5-1.5-.5-1.5-.5-1.5-.5-1.5-.5-2-.5-2-.5-1.5-.5-1.5-1-2-1-2-.5 1-.5 1v1 1l.5.5.5.5.5 1 .5 1-.5 1.5-.5 1.5h-1-1-.5-.5v2 2l.5.5.5.5 1.5.5 1.5.5 1 .5 1 .5" style="fill:#3e3946;stroke:#3e3946"/><path d="m309 576l1-2v-1-1l-.5-.5-.5-.5-3-19.5-3-19.5h-5-5l8 22 8 22" style="fill:#b9b6b0;stroke:#b9b6b0"/><path d="m442 576l1 1 1-2 1-2-.5-2-.5-2h-2-2-1.5-1.5l-1-1-1-1v-1.5-1.5l-.5-.5-.5-.5v-.5-.5l-.5 1-.5 1 .5 1 .5 1-.5.5-.5.5h-1-1-1-1l-1-.5-1-.5-.5 1.5-.5 1.5v1 1l1.5-1 1.5-1 1.5 1 1.5 1 1.5-.5 1.5-.5 1 1 1 1h1.5 1.5l1 .5 1 .5v1.5 1.5" style="fill:#55504b;stroke:#55504b"/><path d="m321 574l1 1 1-2 1-2 1.5-1 1.5-1v-2-2l1-1.5 1-1.5v-2-2l.5-1 .5-1-1-1-1-1-1.5-.5-1.5-.5-1-.5-1-.5-.5-1.5-.5-1.5-1 .5-1 .5 1 1 1 1 1 1.5 1 1.5v2 2l-.5 2-.5 2-.5 1.5-.5 1.5-1 1.5-1 1.5.5 2.5.5 2.5" style="fill:#c5594a;stroke:#c5594a"/><path d="m420 574l1-1-.5-1.5-.5-1.5.5-1 .5-1 .5-1.5.5-1.5h1.5 1.5v-2-2h-1.5-1.5-1-1-.5-.5l-1.5.5-1.5.5.5 1 .5 1 .5.5.5.5v1.5 1.5l.5.5.5.5v1.5 1.5l.5 1 .5 1" style="fill:#9a979a;stroke:#9a979a"/><path d="m63 572h2l1.5-.5 1.5-.5 1.5-1 1.5-1 .5-1.5.5-1.5 1-1.5 1-1.5h-1-1l-2 .5-2 .5-1 1-1 1-1 1-1 1-.5 2-.5 2" style="fill:#2d2826;stroke:#2d2826"/><path d="m309 571l1 1-2-28-2-28-5.5-10-5.5-10 .5 1 .5 1-.5 1-.5 1-1.5.5-1.5.5-1-.5-1-.5-.5 1.5-.5 1.5-.5.5-.5.5 3.5-4 3.5-4 .5-31.5.5-31.5-.5 1-.5 1-.5 1.5-.5 1.5-.5 1.5-.5 1.5-.5 1.5-.5 1.5 1.5 1 1.5 1 1 1 1 1-2 .5-2 .5-1.5-.5-1.5-.5-1 1-1 1 2.5 15 2.5 15-4.5 11-4.5 11 .5 1 .5 1 .5 1.5.5 1.5.5 2 .5 2 .5 1.5.5 1.5v2.5 2.5l.5 1.5.5 1.5.5 1.5.5 1.5 1 1.5 1 1.5.5 2 .5 2h5 5l3 19.5 3 19.5" style="fill:#9a979a;stroke:#9a979a"/><path d="m406 571h2l1-1 1-1-.5-2-.5-2v-2-2l1-1.5 1-1.5-1.5-.5-1.5-.5-1.5-1-1.5-1-.5-1.5-.5-1.5-.5-1.5-.5-1.5v2 2 1.5 1.5l.5 1.5.5 1.5h-1-1-.5-.5l1 1.5 1 1.5h1 1l1 1.5 1 1.5-1 1-1 1v1 1l.5 1 .5 1" style="fill:#3e3946;stroke:#3e3946"/><path d="m289 570h2l.5-1.5.5-1.5-.5-1-.5-1-.5-.5-.5-.5v-1-1l.5-1 .5-1 .5-1.5.5-1.5v-2-2l-.5-1-.5-1-.5-.5-.5-.5-.5-1.5-.5-1.5-1 1-1 1 .5 2.5.5 2.5v2 2l.5 2 .5 2-.5 1.5-.5 1.5v2.5 2.5h.5.5" style="fill:#2d2826;stroke:#2d2826"/><path d="m429 567h2 1 1l.5-.5.5-.5-.5-1-.5-1 .5-1 .5-1-.5-8.5-.5-8.5-4 6-4 6 1 4.5 1 4.5 1 .5 1 .5" style="fill:#3e3946;stroke:#3e3946"/><g style="fill:#7c798a;stroke:#7c798a"><path d="m413 561l3 1 1.5-.5 1.5-.5h.5.5 1 1 1.5 1.5l-6-15-6-15v1.5 1.5l-1 1-1 1v2.5 2.5l-1.5.5-1.5.5h-1-1l-1.5-1-1.5-1 5 10.5 5 10.5"/><path d="m258 560h3l8.5-12 8.5-12 3 5.5 3 5.5.5-1 .5-1-.5-1.5-.5-1.5v-2.5-2.5-2.5-2.5l-.5-1-.5-1-.5-2-.5-2-.5 1-.5 1-.5-1-.5-1-1-1.5-1-1.5-1-1-1-1-2 .5-2 .5v-2-2l1-1 1-1 1-1.5 1-1.5h1 1v2.5 2.5l1.5 1.5 1.5 1.5v-1.5-1.5l.5-1.5.5-1.5-.5-2-.5-2v-2-2-1.5-1.5-1-1l.5-1.5.5-1.5 1 1.5 1 1.5 4.5-11 4.5-11-2.5-15-2.5-15-5 14-5 14-4 11.5-4 11.5-6.5 15.5-6.5 15.5-1 2.5-1 2.5 1 1 1 1v2.5 2.5 2 2 2.5 2.5l.5 1.5.5 1.5v2 2"/></g><path d="m402 559h2l-.5-1.5-.5-1.5v-1.5-1.5-2-2l-3.5-6-3.5-6 2.5 11 2.5 11h.5.5" style="fill:#2d2826;stroke:#2d2826"/><path d="m368 552l25-9-4-20.5-4-20.5-1.5 7-1.5 7-4.5 6-4.5 6-3.5 7-3.5 7 1 5 1 5" style="fill:#0b0700;stroke:#0b0700"/><path d="m290 550l1 1-3.5-9.5-3.5-9.5.5 1 .5 1v2.5 2.5l.5 1.5.5 1.5 1 1.5 1 1.5-1 1-1 1 .5 1 .5 1 1-1 1-1 .5 1.5.5 1.5" style="fill:#3e3946;stroke:#3e3946"/><path d="m312 545l1-2 .5-1.5.5-1.5v-1.5-1.5-2-2l.5-2 .5-2 .5-1.5.5-1.5 1-1.5 1-1.5v-1.5-1.5-1.5-1.5h-1.5-1.5l-.5 1-.5 1 .5.5.5.5-.5.5-.5.5-.5.5-.5.5-.5-1.5-.5-1.5-.5-1-.5-1h1 1l-.5-.5-.5-.5-1-.5-1-.5v-1-1-2-2l-.5-1-.5-1v2 2 2.5 2.5 2 2l.5 2 .5 2v2 2 2.5 2.5 2 2 2 2 1.5 1.5l1 .5 1 .5" style="fill:#c5594a;stroke:#c5594a"/><path d="m309 543l1 1v-1.5-1.5-2-2-2-2-2.5-2.5-2-2l-.5-2-.5-2v-2-2-2.5-2.5-2-2l-2-22.5-2-22.5 1 17.5 1 17.5 1 23 1 23" style="fill:#975349;stroke:#975349"/><path d="m406 542h2l1.5-.5 1.5-.5v-2.5-2.5l1-1 1-1v-1.5-1.5-.5-.5-1.5-1.5h-1.5-1.5l-1.5.5-1.5.5-.5-1.5-.5-1.5h-1-1l-.5 1-.5 1 .5 1.5.5 1.5v1 1l-.5 1-.5 1v1 1 2 2l1.5 1 1.5 1" style="fill:#9a979a;stroke:#9a979a"/><g style="fill:#2d2826;stroke:#2d2826"><path d="m706 538l4 1 1-.5 1-.5v-2.5-2.5-2-2-2.5-2.5-2-2-1.5-1.5l-3 10.5-3 10.5"/><path d="m438 536l-5-37v10.5 10.5l2.5 8 2.5 8"/></g><path d="m403 535v1-1-1l.5-1 .5-1v-1-1l-.5-1.5-.5-1.5.5-1 .5-1h1 1l.5 1.5.5 1.5 1.5-.5 1.5-.5h1.5 1.5v1.5 1.5l-6.5-9-6.5-9 5-7.5 5-7.5-6.5-11-6.5-11v2 2 1 1l-.5.5-.5.5.5 1 .5 1-.5.5-.5.5.5.5.5.5v1 1l-.5 1-.5 1v15 15l3.5 7.5 3.5 7.5" style="fill:#7c798a;stroke:#7c798a"/><g style="fill:#9a979a;stroke:#9a979a"><path d="m256 531l1 1 6.5-15.5 6.5-15.5 4-11.5 4-11.5 5-14 5-14-.5 1.5-.5 1.5-1 1-1 1v1 1l-.5 1-.5 1 .5 1.5.5 1.5-1 1.5-1 1.5-1.5.5-1.5.5v2.5 2.5l-.5 1.5-.5 1.5-1.5-.5-1.5-.5h-1.5-1.5l-8.5 28.5-8.5 28.5v.5.5"/><path d="m281 528l1-2-.5-1-.5-1v-1.5-1.5l-1.5-1.5-1.5-1.5v-2.5-2.5h-1-1l-1 1.5-1 1.5-1 1-1 1v2 2l2-.5 2-.5 1 1 1 1 1 1.5 1 1.5.5 1 .5 1"/></g><path d="m412 518h2l1-1 1-1 1-1.5 1-1.5 1-1 1-1 1-1.5 1-1.5v-2-2l-.5-2-.5-2-.5-1.5-.5-1.5v-2-2l-.5-2-.5-2-.5-.5-.5-.5v-1.5-1.5l-1-1.5-1-1.5v1.5 1.5 2 2l1 1.5 1 1.5v2 2l-1 1.5-1 1.5 1 1 1 1-.5 1-.5 1-.5 2.5-.5 2.5-1 1.5-1 1.5-1 1-1 1-.5 2-.5 2 .5.5.5.5" style="fill:#2d2826;stroke:#2d2826"/><path d="m363 507h2 2 2l1.5-1 1.5-1v-2-2l-2-.5-2-.5-1-1-1-1-1.5 1-1.5 1-1 1-1 1v2 2l1 .5 1 .5" style="fill:#c5594a;stroke:#c5594a"/><path d="m389 507l1-2v-2.5-2.5l-.5-.5-.5-.5-2.5-19-2.5-19-2.5-19-2.5-19-.5-16.5-.5-16.5 3.5-10 3.5-10-1 8-1 8 15-1 15-1 .5-1.5.5-1.5v-1.5-1.5-1-1l-.5-.5-.5-.5v-1-1l-1-1-1-1-1-.5-1-.5.5-.5.5-.5-1-1-1-1v-1.5-1.5l-.5-.5-.5-.5-.5-1.5-.5-1.5-.5-1-.5-1-.5-.5-.5-.5.5-.5.5-.5 1 .5 1 .5-13-29-13-29-.5 1-.5 1v1 1 1 1l-.5.5-.5.5v1 1l-.5 1-.5 1-5 21-5 21-.5-1.5-.5-1.5-.5-1.5-.5-1.5-.5 1-.5 1v.5.5 2.5 2.5l-.5 1.5-.5 1.5.5 2.5.5 2.5 5.5 19.5 5.5 19.5 1.5 21 1.5 21 .5 2 .5 2v2 2l.5 1.5.5 1.5v2.5 2.5l.5 1.5.5 1.5v1.5 1.5l.5 1 .5 1v2 2l.5 1.5.5 1.5v2.5 2.5l.5 1.5.5 1.5v1.5 1.5l.5 1.5.5 1.5v1.5 1.5 1 1l.5 1.5.5 1.5v2 2l.5 2 .5 2 .5 1.5.5 1.5" style="fill:#b9b6b0;stroke:#b9b6b0"/><path d="m340 505h2l.5-.5.5-.5.5-.5.5-.5h1 1l.5-1 .5-1 .5-.5.5-.5v-1.5-1.5-.5-.5l-.5-1-.5-1h-1.5-1.5l-1.5 1.5-1.5 1.5v.5.5 1.5 1.5 1 1l-.5 1-.5 1" style="fill:#9a979a;stroke:#9a979a"/><path d="m288 504l1-1 .5-1.5.5-1.5 1 .5 1 .5 1.5-.5 1.5-.5.5-1 .5-1-.5-1-.5-1-3.5 4-3.5 4" style="fill:#b9b6b0;stroke:#b9b6b0"/><path d="m417 502v1l.5-1 .5-1-1-1-1-1 1-1.5 1-1.5v-2-2l-1-1.5-1-1.5v-2-2-1.5-1.5l-1-1-1-1v-1-1l-.5 1-.5 1v1.5 1.5l1 .5 1 .5-.5 1.5-.5 1.5-1-.5-1-.5-.5 1.5-.5 1.5-.5 2-.5 2 .5 1.5.5 1.5v1.5 1.5l.5 1.5.5 1.5 1-1 1-1 1.5 1 1.5 1" style="fill:#3e3946;stroke:#3e3946"/><path d="m389 499l1 1v-2-2-1-1l.5-.5.5-.5v-1.5-1.5-1-1-1-1l.5-.5.5-.5v-1.5-1.5l.5-1 .5-1v-2-2-1-1l.5-1 .5-1v-2-2l.5-1 .5-1 4-22 4-22 5-19 5-19-15 1-15 1 1-8 1-8-3.5 10-3.5 10 .5 16.5.5 16.5 2.5 19 2.5 19 2.5 19 2.5 19" style="fill:#e5e1d5;stroke:#e5e1d5"/><path d="m340 496l1 1 1.5-1.5 1.5-1.5h1.5 1.5l.5 1 .5 1-4.5-12-4.5-12 .5 12 .5 12" style="fill:#d4786f;stroke:#d4786f"/><path d="m392 492l1-1 1.5-.5 1.5-.5.5-1 .5-1v-1-1l-.5-.5-.5-.5.5-.5.5-.5-.5-1-.5-1 .5-.5.5-.5v-1-1-2-2l.5-1 .5-1v-2-2l-1-.5-1-.5-.5-1-.5-1-.5 1-.5 1v2 2l-.5 1-.5 1v1 1 2 2 1.5 1.5 1 1 1 1l-.5.5-.5.5v2 2" style="fill:#9a979a;stroke:#9a979a"/><path d="m418 488l1 1-6-13.5-6-13.5 1 4 1 4 .5-1 .5-1 .5.5.5.5 1 1 1 1 1 1.5 1 1.5v2 2l.5 2 .5 2 1 1.5 1 1.5v1.5 1.5" style="fill:#3e3946;stroke:#3e3946"/><path d="m410 483h2 .5.5v-1.5-1.5l.5-1 .5-1v1 1l1 1 1 1-.5-2-.5-2v-2-2l-1-1.5-1-1.5-1-1-1-1-.5-.5-.5-.5-.5 1-.5 1 1 2 1 2 .5 2 .5 2-1 1-1 1-.5 1-.5 1 .5.5.5.5" style="fill:#2d2826;stroke:#2d2826"/><path d="m321 478l11-19 6-4.5 6-4.5 14 4.5 14 4.5 1.5-16 1.5-16-2-22.5-2-22.5-4-7.5-4-7.5-2 24-2 24-1.5 16.5-1.5 16.5-1.5-17-1.5-17-.5-.5-.5-.5-1-.5-1-.5v-1-1l-.5-.5-.5-.5v-1-1l-.5-.5-.5-.5-.5-.5-.5-.5-.5-1-.5-1v-1-1l-.5-.5-.5-.5-.5-.5-.5-.5-.5-1-.5-1h-1-1l-.5-.5-.5-.5v-1-1l-.5-1.5-.5-1.5-17.5-5-17.5-5 8 3.5 8 3.5 2.5 10 2.5 10-8.5 6-8.5 6v18.5 18.5l6.5 10.5 6.5 10.5" style="fill:#0b0700;stroke:#0b0700"/><path d="m381 476h1l.5-2.5.5-2.5v-2-2l-.5-1-.5-1-2-2-2-2-.5 3-.5 3v1 1l-.5 1.5-.5 1.5v1.5 1.5h1 1l1.5.5 1.5.5" style="fill:#c5594a;stroke:#c5594a"/><path d="m276 473l3 1 .5-1.5.5-1.5v-2.5-2.5l1.5-.5 1.5-.5 1-1.5 1-1.5-.5-1.5-.5-1.5.5-1 .5-1v-1-1l1-1 1-1 .5-1.5.5-1.5 1-1 1-1 1.5.5 1.5.5 2-.5 2-.5-1-1-1-1-1.5-1-1.5-1 .5-1.5.5-1.5.5-1.5.5-1.5.5-1.5.5-1.5.5-1 .5-1-.5-1.5-.5-1.5v-1-1l.5-.5.5-.5h1 1l.5-.5.5-.5v-1.5-1.5-1-1-1-1-1-1-2.5-2.5l-13 30.5-13 30.5h1.5 1.5" style="fill:#b9b6b0;stroke:#b9b6b0"/><g style="fill:#2d2826;stroke:#2d2826"><path d="m421 467l-8-34-1 5.5-1 5.5 5 11.5 5 11.5"/><path d="m711 467l1 1v-3-3-2.5-2.5-2-2-2.5-2.5-1-1l-7.5-3-7.5-3 7 13.5 7 13.5"/></g><path d="m376 452l1-1-.5-1.5-.5-1.5 1-.5 1-.5-.5-.5-.5-.5.5-.5.5-.5.5-1 .5-1-1-2-1-2v-1.5-1.5l-.5-1.5-.5-1.5-1 1-1 1-.5 2-.5 2-.5 1.5-.5 1.5v2.5 2.5l-.5 1.5-.5 1.5 1 .5 1 .5 1.5.5 1.5.5" style="fill:#c5594a;stroke:#c5594a"/><path d="m356 448l3-33-1-.5-1-.5-.5-.5-.5-.5h-1-1l-.5.5-.5.5 1.5 17 1.5 17" style="fill:#2d2826;stroke:#2d2826"/><path d="m358 445h2l1.5-.5 1.5-.5 1-1 1-1-1.5-1-1.5-1-.5.5-.5.5-.5 1-.5 1h-1.5-1.5l1-.5 1-.5v-1.5-1.5l-.5-1.5-.5-1.5v-1.5-1.5l-.5-1.5-.5-1.5-1-.5-1-.5.5-1.5.5-1.5 2 1.5 2 1.5-1.5-2-1.5-2v-2-2l-1 1-1 1-.5 2-.5 2-.5 1.5-.5 1.5 1 1.5 1 1.5-1 1-1 1v2.5 2.5 2 2l1.5.5 1.5.5h1 1" style="fill:#b9b6b0;stroke:#b9b6b0"/><path d="m357 443h3l.5-1 .5-1 .5-.5.5-.5 1.5 1 1.5 1 .5-2 .5-2-.5-1.5-.5-1.5-.5-2-.5-2-1.5-.5-1.5-.5-.5-.5-.5-.5-2-1.5-2-1.5-.5 1.5-.5 1.5 1 .5 1 .5.5 1.5.5 1.5v1.5 1.5l.5 1.5.5 1.5v1.5 1.5l-1 .5-1 .5" style="fill:#e5e1d5;stroke:#e5e1d5"/><path d="m94 435l9-38-.5 1.5-.5 1.5-1 1.5-1 1.5v2 2l-.5 1-.5 1v1 1l-.5 1.5-.5 1.5-1.5.5-1.5.5.5-2 .5-2v-2-2-1.5-1.5l-.5 2.5-.5 2.5-.5 1-.5 1v1 1 1 1l.5 1.5.5 1.5v1.5 1.5l-.5.5-.5.5.5 1.5.5 1.5-.5 1-.5 1-.5.5-.5.5.5 1.5.5 1.5-.5 1-.5 1 .5 1 .5 1" style="fill:#b9b6b0;stroke:#b9b6b0"/><path d="m421 428l-6-26-2 2.5-2 2.5 5 10.5 5 10.5" style="fill:#55504b;stroke:#55504b"/><g style="fill:#583429;stroke:#583429"><path d="m308 426l3 1 1-1 1-1 1.5-1 1.5-1 1-1 1-1 1-1.5 1-1.5-1-1-1-1-1.5 1-1.5 1-1.5.5-1.5.5-1 1-1 1-1 1.5-1 1.5v1 1"/><path d="m357 414l2 1 2-24 2-24-1.5 1-1.5 1-.5.5-.5.5-1.5 21.5-1.5 21.5.5.5.5.5"/><path d="m352 413l1 1 .5-.5.5-.5-.5-1.5-.5-1.5-1-1.5-1-1.5-.5-1.5-.5-1.5-1-1.5-1-1.5-1-1-1-1-.5-2-.5-2-1-1-1-1-.5-1.5-.5-1.5-.5-1-.5-1-1 1.5-1 1.5.5 1.5.5 1.5v1 1l.5.5.5.5h1 1l.5 1 .5 1 .5.5.5.5.5.5.5.5v1 1l.5 1 .5 1 .5.5.5.5.5.5.5.5v1 1l.5.5.5.5v1 1l1 .5 1 .5"/></g><path d="m354 413h2l1.5-21.5 1.5-21.5-1.5 1-1.5 1-1 1-1 1-1 1-1 1-1.5 1-1.5 1-1.5.5-1.5.5-1.5 1-1.5 1h-2-2v1.5 1.5l.5 1.5.5 1.5.5.5.5.5.5 1 .5 1 .5 1.5.5 1.5 1 1 1 1 .5 2 .5 2 1 1 1 1 1 1.5 1 1.5.5 1.5.5 1.5 1 1.5 1 1.5.5 1.5.5 1.5" style="fill:#0b0700;stroke:#0b0700"/><path d="m307 409l24-10-12 2.5-12 2.5v2.5 2.5" style="fill:#d4786f;stroke:#d4786f"/><path d="m322 380l39-16v-.5-.5-2-2l.5-1.5.5-1.5v-2.5-2.5-2-2-2-2-1-1l.5-1 .5-1v-.5-.5l-.5-.5-.5-.5-3.5-17.5-3.5-17.5-.5-15-.5-15 1.5-16.5 1.5-16.5-21.5-7-21.5-7-6 13-6 13-6.5 14.5-6.5 14.5 8.5 17 8.5 17-4 13.5-4 13.5 1.5 18.5 1.5 18.5 2-.5 2-.5 1.5.5 1.5.5 2 .5 2 .5 1.5.5 1.5.5h2 2 1.5 1.5" style="fill:#b9b6b0;stroke:#b9b6b0"/><path d="m361 363v1l1-.5 1-.5 1-.5 1-.5-.5-2.5-.5-2.5.5-1.5.5-1.5v-2.5-2.5h-1-1v-2.5-2.5-2.5-2.5l-.5 1-.5 1v1 1 2 2 2 2 2.5 2.5l-.5 1.5-.5 1.5v2 2" style="fill:#9a979a;stroke:#9a979a"/><path d="m123 360l28-32 13-10.5 13-10.5 5 .5 5 .5 8 10.5 8 10.5 4-11.5 4-11.5 4-4.5 4-4.5h7 7l5 19.5 5 19.5-1.5-20-1.5-20 7 11.5 7 11.5 2-2.5 2-2.5 6-11.5 6-11.5-2-.5-2-.5-.5-1-.5-1h-2-2l-1.5-.5-1.5-.5-2 .5-2 .5-.5-.5-.5-.5-1.5-1-1.5-1v2 2h-1-1l-2.5-.5-2.5-.5-10.5 2.5-10.5 2.5-.5-.5-.5-.5-.5-1-.5-1v-1-1-1-1l-.5-.5-.5-.5-.5-1-.5-1-.5-.5-.5-.5-.5.5-.5.5h-1-1l-1 .5-1 .5-.5.5-.5.5-.5.5-.5.5v1 1l-.5.5-.5.5v1.5 1.5l-6-1.5-6-1.5-.5-.5-.5-.5-.5-1.5-.5-1.5h-1-1l-1-.5-1-.5h-1-1l-1 .5-1 .5-10.5 13.5-10.5 13.5-12.5 11-12.5 11-.5 1.5-.5 1.5-.5.5-.5.5-.5 1-.5 1-.5.5-.5.5-.5.5-.5.5-.5.5-.5.5h-.5-.5l-.5.5-.5.5h-1-1l-1 .5-1 .5-.5 1-.5 1-.5 1-.5 1-.5.5-.5.5-.5.5-.5.5-.5.5-.5.5-.5.5-.5.5-.5 1-.5 1-.5 1.5-.5 1.5.5-1 .5-1 .5-.5.5-.5.5.5.5.5v1 1l-.5 1-.5 1" style="fill:#b9b6b0;stroke:#b9b6b0"/><path d="m368 352l10-42-.5 1.5-.5 1.5.5.5.5.5-.5.5-.5.5-.5.5-.5.5-1-.5-1-.5v-1-1l-.5-.5-.5-.5-.5-.5-.5-.5v-1.5-1.5l.5-.5.5-.5.5-.5.5-.5.5-.5.5-.5-1.5-.5-1.5-.5-1 .5-1 .5v1 1 1 1l-.5.5-.5.5-.5 1.5-.5 1.5v.5.5l-.5 13-.5 13h-1-1v2.5 2.5 1.5 1.5l.5-1 .5-1 .5 1.5.5 1.5.5 1.5.5 1.5" style="fill:#9a979a;stroke:#9a979a"/><path d="m363 349h2v-.5-.5-1.5-1.5-2.5-2.5h1 1l.5-1 .5-1-.5-1.5-.5-1.5v-1.5-1.5l-.5-.5-.5-.5-1-1.5-1-1.5-.5 1-.5 1 .5 1.5.5 1.5-.5 2.5-.5 2.5v.5.5 2.5 2.5 2.5 2.5" style="fill:#928d71;stroke:#928d71"/><g style="fill:#9a979a;stroke:#9a979a"><path d="m129 344v1l1-.5 1-.5h1 1l.5-.5.5-.5h.5.5l.5-.5.5-.5.5-.5.5-.5.5-.5.5-.5.5-1 .5-1 .5-.5.5-.5.5-1.5.5-1.5-1.5 1-1.5 1-.5-.5-.5-.5v-1-1l1-1.5 1-1.5h-1-1l-1 1.5-1 1.5-1.5.5-1.5.5-.5 2-.5 2-1 1-1 1v2 2"/><path d="m362 337l1 1 .5-2.5.5-2.5-.5-1.5-.5-1.5.5-1 .5-1v-23.5-23.5l-4-4-4-4 2.5-18 2.5-18-.5-.5-.5-.5-1.5-1-1.5-1-.5-1.5-.5-1.5-1.5-1-1.5-1-1.5-.5-1.5-.5h-2.5-2.5l-1.5-.5-1.5-.5h-2.5-2.5-2-2l-1.5-.5-1.5-.5-1.5-1-1.5-1 7-.5 7-.5 34-5.5 34-5.5.5-1.5.5-1.5v-2-2l-.5-2-.5-2-.5-1.5-.5-1.5v-2.5-2.5-2-2l.5-2 .5-2-1-.5-1-.5-1 .5-1 .5-.5-.5-.5-.5v1.5 1.5l.5 1.5.5 1.5-.5.5-.5.5-.5-1-.5-1-.5-1.5-.5-1.5v-1-1l-1-1.5-1-1.5-1.5-.5-1.5-.5-1.5-.5-1.5-.5-1.5-1-1.5-1-2.5-.5-2.5-.5h-1.5-1.5-1.5-1.5-2-2-1-1l-1 .5-1 .5h-2-2l-1.5-.5-1.5-.5.5-1 .5-1v-.5-.5l16-9 16-9-7-6.5-7-6.5-1.5-.5-1.5-.5 1-1.5 1-1.5 1-1 1-1 1.5-1 1.5-1 1-1 1-1 2-.5 2-.5 1.5-.5 1.5-.5 1 1 1 1-.5.5-.5.5.5 1 .5 1-1 1-1 1-.5.5-.5.5h-1.5-1.5l-1 .5-1 .5 2.5 1 2.5 1 1.5-.5 1.5-.5 1.5-1 1.5-1 .5-1.5.5-1.5.5-2 .5-2-1-1-1-1-1-.5-1-.5-1.5-1-1.5-1-1-1-1-1-.5-1.5-.5-1.5-.5-.5-.5-.5-1-.5-1-.5-1-1-1-1-.5-.5-.5-.5-.5-1-.5-1-1-1-1-1v-1-1l-.5-1-.5-1 2-.5 2-.5h-1.5-1.5l-1.5-.5-1.5-.5-1-2-1-2-.5-.5-.5-.5-.5-1-.5-1-.5-1-.5-1v-2-2-2-2-1-1l1-.5 1-.5 1.5-.5 1.5-.5.5-.5.5-.5 1-.5 1-.5.5-1.5.5-1.5-.5-.5-.5-.5-1.5-1-1.5-1-1.5.5-1.5.5-13 1.5-13 1.5 5.5 12.5 5.5 12.5v.5.5l-1 24.5-1 24.5-8-23-8-23h-2-2l-.5 1-.5 1-1 1-1 1v1 1h1.5 1.5l1 1 1 1h-1-1l-2.5-.5-2.5-.5-1.5.5-1.5.5-1-1-1-1-.5-1-.5-1-1-1-1-1v-1.5-1.5l.5-1.5.5-1.5 1-1.5 1-1.5 1.5-1.5 1.5-1.5 13-15.5 13-15.5h-1.5-1.5l-1.5-1-1.5-1v-1.5-1.5l-16 9.5-16 9.5v2.5 2.5l-7.5 13.5-7.5 13.5-2.5 21-2.5 21 .5 1 .5 1v2 2l-1.5 1-1.5 1-.5 1.5-.5 1.5.5 2 .5 2 .5 1.5.5 1.5.5 2.5.5 2.5 6.5-9 6.5-9 6.5-5.5 6.5-5.5 11.5-3 11.5-3 5 17 5 17 13 3.5 13 3.5 5 11 5 11-25 7-25 7-20.5-13-20.5-13 .5 2 .5 2 .5 2 .5 2v2 2l.5 2 .5 2 1 1 1 1 .5 2 .5 2 .5 1.5.5 1.5v2 2l21.5 7 21.5 7-1.5 16.5-1.5 16.5.5 15 .5 15 3.5 17.5 3.5 17.5"/></g><path d="m574 315h2l.5-1.5.5-1.5v-2.5-2.5l-.5-.5-.5-.5-.5-.5-.5-.5-.5-20.5-.5-20.5-3 12-3 12 3 13.5 3 13.5" style="fill:#55504b;stroke:#55504b"/><path d="m367 313l1 1v-.5-.5l3-8.5 3-8.5-3.5 8.5-3.5 8.5" style="fill:#77736c;stroke:#77736c"/><g style="fill:#2d2826;stroke:#2d2826"><path d="m147 310l9-35-6.5 8-6.5 8 2 9.5 2 9.5"/><path d="m575 305l1 1-2-19.5-2-19.5 1-1.5 1-1.5.5 20.5.5 20.5"/></g><g style="fill:#b9b6b0;stroke:#b9b6b0"><path d="m440 303h4l-1-1.5-1-1.5h-1-1l-.5-.5-.5-.5-.5-.5-.5-.5-1-.5-1-.5-.5-.5-.5-.5-.5-.5-.5-.5h-1-1l-.5-.5-.5-.5-1-.5-1-.5-.5-.5-.5-.5-.5-.5-.5-.5-1.5-.5-1.5-.5 1 1.5 1 1.5 1.5.5 1.5.5 1 1.5 1 1.5 1 1 1 1 1.5 1 1.5 1 2 1 2 1"/><path d="m413 301l5-15-17-14-17-14 14.5 21.5 14.5 21.5"/></g><path d="m146 299l3-25-2 7.5-2 7.5.5 5 .5 5" style="fill:#55504b;stroke:#55504b"/><g style="fill:#9a979a;stroke:#9a979a"><path d="m221 292l1 1-6.5-.5-6.5-.5v-1.5-1.5l.5-.5.5-.5v-1-1l.5-.5.5-.5.5-.5.5-.5 1-.5 1-.5h1 1l.5-.5.5-.5.5.5.5.5.5 1 .5 1 .5.5.5.5v1 1 1 1l.5 1 .5 1"/><path d="m248 289h2v-2-2l1.5 1 1.5 1 .5.5.5.5 2-.5 2-.5 1.5.5 1.5.5h2 2-11-11l2.5.5 2.5.5"/><path d="m196 288l1 1v-1-1-.5-.5-1.5-1.5-1.5-1.5-1-1l-.5-1-.5-1v-1-1l2-.5 2-.5.5 1.5.5 1.5.5-1.5.5-1.5 1.5-1 1.5-1 1 .5 1 .5-.5-1.5-.5-1.5h1 1l-.5-.5-.5-.5h-1-1-1.5-1.5l-.5.5-.5.5-.5.5-.5.5h-1-1l-.5.5-.5.5-.5 1-.5 1-.5.5-.5.5h-1-1l-.5.5-.5.5v1 1l.5 1 .5 1v1 1l-.5.5-.5.5-.5.5-.5.5h-1.5-1.5l-.5 1-.5 1 1-.5 1-.5h1 1l1 .5 1 .5h1 1l.5 1.5.5 1.5"/></g><path d="m197 286v1l.5-1.5.5-1.5 1-1 1-1 .5-1.5.5-1.5.5-2 .5-2 1-1 1-1 2 .5 2 .5-.5-1-.5-1-1-.5-1-.5-1.5 1-1.5 1-.5 1.5-.5 1.5-.5-1.5-.5-1.5-2 .5-2 .5v1 1l.5 1 .5 1v1 1 1.5 1.5 1.5 1.5" style="fill:#928d71;stroke:#928d71"/><path d="m384 275l-1-18-.5-1.5-.5-1.5-.5-.5-.5-.5-1-.5-1-.5-.5-.5-.5-.5h-1-1l-.5.5-.5.5-1 .5-1 .5v1 1 1 1l.5.5.5.5h-1-1-1-1v1.5 1.5l-.5.5-.5.5v1 1 1 1l.5 1 .5 1 .5.5.5.5.5 1 .5 1-.5-2.5-.5-2.5v-2-2h1.5 1.5l1 1 1 1 1 1 1 1 1 1.5 1 1.5.5 1.5.5 1.5 1.5 1.5 1.5 1.5" style="fill:#b9b6b0;stroke:#b9b6b0"/><g style="fill:#2d2826;stroke:#2d2826"><path d="m363 258h2l.5-.5.5-.5.5-.5.5-.5 1-.5 1-.5v-1-1-1-1-1-1-1.5-1.5-1-1l.5-.5.5-.5v-1-1h1.5 1.5l-1-.5-1-.5-1-.5-1-.5.5-.5.5-.5.5-.5.5-.5.5-.5.5-.5 1-1 1-1 1-.5 1-.5.5-.5.5-.5 1-.5 1-.5-2 .5-2 .5-1.5.5-1.5.5-1.5 1-1.5 1-.5 1.5-.5 1.5-.5 2-.5 2-.5 1.5-.5 1.5-.5 2-.5 2-.5 1.5-.5 1.5-.5 1.5-.5 1.5v1.5 1.5"/><path d="m121 250l3 1 .5-1.5.5-1.5v-1.5-1.5-2-2l-1.5-1-1.5-1-1 1-1 1-.5 2-.5 2v2 2l1 .5 1 .5"/><path d="m250 244l18-18-14.5 5-14.5 5 5.5 4 5.5 4"/></g><path d="m365 239l1-1v-1-1h-1-1v-1-1l.5-1.5.5-1.5 1-.5 1-.5h1 1l1.5-.5 1.5-.5 1 .5 1 .5h1 1v-1.5-1.5l.5-1 .5-1-2 .5-2 .5h-1.5-1.5l-1.5.5-1.5.5h-1.5-1.5-1-1l-1.5-.5-1.5-.5h-2-2l-1-.5-1-.5-2 1-2 1 1 .5 1 .5 2 .5 2 .5 1.5.5 1.5.5 1 .5 1 .5.5 1.5.5 1.5v1.5 1.5l1 .5 1 .5 1 .5 1 .5" style="fill:#77736c;stroke:#77736c"/><path d="m360 236l1 1v-1.5-1.5l-.5-1.5-.5-1.5-1-.5-1-.5-1.5-.5-1.5-.5-2-.5-2-.5-1-.5-1-.5h-1.5-1.5l-.5-.5-.5-.5h-1-1-1-1-.5-.5-2-2l-.5-.5-.5-.5h-1-1-1-1l-2-.5-2-.5 1.5 1 1.5 1 1.5.5 1.5.5h2 2 2.5 2.5l1.5.5 1.5.5h2.5 2.5l1.5.5 1.5.5 1.5 1 1.5 1 .5 1.5.5 1.5 1.5 1 1.5 1" style="fill:#7c798a;stroke:#7c798a"/><g style="fill:#2d2826;stroke:#2d2826"><path d="m289 234l11-23-7.5-4-7.5-4 1.5 14 1.5 14 .5 1.5.5 1.5"/><path d="m216 231l2-24-5 10.5-5 10.5 4 1.5 4 1.5"/></g><path d="m380 228l3 1 1.5-.5 1.5-.5.5-1 .5-1h1 1l1.5-.5 1.5-.5 1-.5 1-.5.5-.5.5-.5.5-.5.5-.5h-1.5-1.5l-.5-.5-.5-.5-.5.5-.5.5-.5.5-.5.5-1.5.5-1.5.5-1.5-.5-1.5-.5-1.5.5-1.5.5-.5 1-.5 1 1 .5 1 .5-1 .5-1 .5" style="fill:#55504b;stroke:#55504b"/><path d="m362 227h2 1.5 1.5l1.5-.5 1.5-.5h1.5 1.5l2-.5 2-.5 2-.5 2-.5 1.5-.5 1.5-.5 1.5-.5 1.5-.5 1.5-.5 1.5-.5 2-.5 2-.5 1.5-.5 1.5-.5 2-.5 2-.5.5.5.5.5 1.5-.5 1.5-.5 1-1.5 1-1.5 1-1.5 1-1.5-34 5.5-34 5.5-7 .5-7 .5 2 .5 2 .5h1 1 1 1l.5.5.5.5h2 2 .5.5 1 1 1 1l.5.5.5.5h1.5 1.5l2-1 2-1 1 .5 1 .5h2 2l1.5.5 1.5.5" style="fill:#928d71;stroke:#928d71"/><path d="m348 222l50-14-5-11-5-11-13-3.5-13-3.5-5-17-5-17-11.5 3-11.5 3-6.5 5.5-6.5 5.5-6.5 9-6.5 9 .5 1 .5 1 .5.5.5.5v1 1l.5 1 .5 1 .5.5.5.5v1 1 1 1 2 2l20.5 13 20.5 13" style="fill:#b9b6b0;stroke:#b9b6b0"/><path d="m378 210l-6-8-4 2.5-4 2.5 7 1.5 7 1.5" style="fill:#e5e1d5;stroke:#e5e1d5"/><g style="fill:#2d2826;stroke:#2d2826"><path d="m706 210l4 1v-1-1l-1-1.5-1-1.5v-2-2l2 1 2 1v-.5-.5l-3 3.5-3 3.5"/><path d="m302 197l1 1-4-20.5-4-20.5 3.5 20 3.5 20"/></g><path d="m404 191l1-1-.5-1.5-.5-1.5v-1.5-1.5l.5.5.5.5 1-.5 1-.5 1 .5 1 .5.5-1.5.5-1.5-.5-1.5-.5-1.5-.5 2-.5 2-1-1-1-1-.5 1-.5 1h-1-1l-.5-2-.5-2-2-.5-2-.5-2.5-.5-2.5-.5-1.5-.5-1.5-.5h-2-2l2.5.5 2.5.5 1.5 1 1.5 1 1.5.5 1.5.5 1.5.5 1.5.5 1 1.5 1 1.5v1 1l.5 1.5.5 1.5.5 1 .5 1" style="fill:#928d71;stroke:#928d71"/><path d="m398 178l4 1 2-10.5 2-10.5-.5-.5-.5-.5-1.5.5-1.5.5-1-.5-1-.5-.5 2.5-.5 2.5h-2-2l-1.5-.5-1.5-.5-2 .5-2 .5-1 1-1 1-1.5 1-1.5 1 1.5.5 1.5.5v1 1l-.5 1-.5 1-.5.5-.5.5-.5.5-.5.5h-1-1l-.5.5-.5.5-.5.5-.5.5h1.5 1.5 1 1l1 .5 1 .5h2 2l1.5.5 1.5.5 2.5.5 2.5.5" style="fill:#c5594a;stroke:#c5594a"/><path d="m365 176l3 1h2 2l1-.5 1-.5h1 1 2 2 1.5 1.5 1.5 1.5l-1-.5-1-.5h-1-1-1.5-1.5l.5-.5.5-.5.5-.5.5-.5h1 1l.5-.5.5-.5.5-.5.5-.5.5-1 .5-1v-1-1l-1.5-.5-1.5-.5-1 .5-1 .5-1.5.5-1.5.5h-1-1l-1 .5-1 .5-1 1-1 1-.5.5-.5.5-1 .5-1 .5-1.5.5-1.5.5-.5 1-.5 1" style="fill:#975349;stroke:#975349"/><path d="m366 173v1l1.5-.5 1.5-.5 1-.5 1-.5.5-.5.5-.5 1-1 1-1 1-.5 1-.5h1 1l1.5-.5 1.5-.5 1-.5 1-.5 1.5-1 1.5-1 1-1 1-1 2-.5 2-.5 1.5.5 1.5.5h2 2l.5-2.5.5-2.5-1-1-1-1-16 9-16 9" style="fill:#928d71;stroke:#928d71"/><path d="m217 169l8-36-3.5-1-3.5-1-.5 19-.5 19" style="fill:#2d2826;stroke:#2d2826"/><g style="fill:#928d71;stroke:#928d71"><path d="m407 158l-2-1 .5.5.5.5h.5.5"/><path d="m302 156l1 1 2.5-21 2.5-21v-2.5-2.5l-.5 1-.5 1-.5 2-.5 2-1 1-1 1h-2-2v1 1l1 12 1 12-.5-.5-.5-.5-.5-.5-.5-.5-1-.5-1-.5.5-.5.5-.5v-1-1-1-1-1-1-1-1-2-2l-.5 1-.5 1v1 1 1.5 1.5 1 1 1 1l-1 .5-1 .5.5 1.5.5 1.5 1 1 1 1 .5 1 .5 1 .5.5.5.5-.5 1.5-.5 1.5.5 1.5.5 1.5.5 1 .5 1"/><path d="m362 156l2-49-1 1.5-1 1.5v1 1l-1-.5-1-.5-1.5-.5-1.5-.5h-1-1-1-1-1-1-2.5-2.5l8 23 8 23"/></g><path d="m302 144l-2-24h-.5-.5l-.5 1-.5 1 .5 1 .5 1v1.5 1.5.5.5 2 2 1 1 1 1 1 1 1 1l-.5.5-.5.5 1 .5 1 .5.5.5.5.5.5.5.5.5" style="fill:#77736c;stroke:#77736c"/><path d="m290 141l1 1v-2.5-2.5l.5-1.5.5-1.5v-1-1l.5-2 .5-2 .5-1.5.5-1.5v-2.5-2.5l.5-2.5.5-2.5-2.5 13-2.5 13" style="fill:#2d2826;stroke:#2d2826"/><path d="m381 141l3 1 1.5-.5 1.5-.5 1-.5 1-.5 1-.5 1-.5 1-.5 1-.5h1.5 1.5l.5-.5.5-.5 1-1 1-1-.5-1-.5-1 .5-.5.5-.5-1-1-1-1-1.5.5-1.5.5-2 .5-2 .5-1 1-1 1-1.5 1-1.5 1-1 1-1 1-1 1.5-1 1.5" style="fill:#b9b6b0;stroke:#b9b6b0"/><path d="m296 139v1l1-.5 1-.5v-1-1-1-1-1.5-1.5-1-1l.5-1 .5-1v-.5-.5-1.5-1.5l-.5-1-.5-1-1-1-1-1v1 1 1 1l-.5.5-.5.5v2 2l-.5 1-.5 1v1 1 1 1l.5.5.5.5.5 1.5.5 1.5" style="fill:#9a979a;stroke:#9a979a"/><path d="m400 128l2 1-1-1.5-1-1.5-1-.5-1-.5v-1-1l-.5-1.5-.5-1.5-1-.5-1-.5-.5-.5-.5-.5-.5-.5-.5-.5-.5-.5-.5-.5-.5-1-.5-1-.5-.5-.5-.5-.5-.5-.5-.5-.5-.5-.5-.5v-1-1-1-1l-2 .5-2 .5.5 1 .5 1v1 1l1 1 1 1 .5 1 .5 1 .5.5.5.5 1 1 1 1 1 .5 1 .5.5.5.5.5.5 1.5.5 1.5 1 1 1 1 1.5 1 1.5 1" style="fill:#928d71;stroke:#928d71"/><path d="m342 118h2l-1-1-1-1h-1.5-1.5v-1-1l1-1 1-1 .5-1 .5-1h2 2 2.5 2.5 1 1 1 1 1 1l1.5.5 1.5.5 1 .5 1 .5v-1-1l1-1.5 1-1.5v-.5-.5l-.5-.5-.5-.5-14-2.5-14-2.5-1.5 1.5-1.5 1.5-1 1.5-1 1.5-.5 1.5-.5 1.5v1.5 1.5l1 1 1 1 .5 1 .5 1 1 1 1 1 1.5-.5 1.5-.5 2.5.5 2.5.5" style="fill:#77736c;stroke:#77736c"/><path d="m300 117v1h2 2l1-1 1-1 .5-2 .5-2 .5-1 .5-1-4 3.5-4 3.5" style="fill:#9a979a;stroke:#9a979a"/><path d="m363 105l1 1-5.5-12.5-5.5-12.5 13-1.5 13-1.5-1-.5-1-.5h-1.5-1.5-1-1l-.5-.5-.5-.5-.5-.5-.5-.5-1-.5-1-.5-.5-.5-.5-.5-.5-.5-.5-.5-.5-.5-.5-.5-1-.5-1-.5-1-.5-1-.5-13 15.5-13 15.5 14 2.5 14 2.5" style="fill:#928d71;stroke:#928d71"/><path d="m383 103l6-19-1 1-1 1h-2-2l-.5 1.5-.5 1.5-.5.5-.5.5-1 .5-1 .5v2 2 1 1l.5 2 .5 2 1.5 1 1.5 1" style="fill:#975349;stroke:#975349"/><path d="m379 101l1 1v-.5-.5l-.5-2-.5-2v-1-1-2-2l1-.5 1-.5.5-.5.5-.5.5-1.5.5-1.5h2 2l1-1 1-1 1-1 1-1-1-.5-1-.5-.5-1.5-.5-1.5-1 1-1 1-.5 1.5-.5 1.5-1 .5-1 .5-.5.5-.5.5-1.5.5-1.5.5-1 .5-1 .5v1 1 2 2 2 2l.5 1 .5 1 .5 1 .5 1" style="fill:#928d71;stroke:#928d71"/><path d="m301 97v1l.5-1 .5-1 .5-1.5.5-1.5.5-2 .5-2h2 2l.5 2 .5 2 1.5-.5 1.5-.5 1 .5 1 .5 1-1 1-1-1.5-1.5-1.5-1.5-2-.5-2-.5h-1-1l-1-1.5-1-1.5-1 1-1 1v2.5 2.5l-.5 1.5-.5 1.5-.5 1.5-.5 1.5" style="fill:#2d2826;stroke:#2d2826"/><path d="m385 79l1 1 1-1 1-1-16.5-7-16.5-7v1.5 1.5l1.5 1 1.5 1h1.5 1.5l1 .5 1 .5 1 .5 1 .5.5.5.5.5.5.5.5.5.5.5.5.5 1 .5 1 .5.5.5.5.5.5.5.5.5h1 1 1.5 1.5l1 .5 1 .5 1.5-.5 1.5-.5 1.5 1 1.5 1" style="fill:#d4786f;stroke:#d4786f"/><path d="m286 60l3 1 1.5-.5 1.5-.5 1-.5 1-.5v-2-2l.5-2 .5-2-1.5-.5-1.5-.5-1.5 1-1.5 1 .5 1.5.5 1.5-1 1-1 1-1 1.5-1 1.5" style="fill:#2d2826;stroke:#2d2826"/></g></svg>