<svg xmlns="http://www.w3.org/2000/svg" viewBox="0 0 712 960"><g style="stroke-linejoin:round;stroke-width:.7"><path d="m4 865l3 1v-2-2l1-1.5 1-1.5.5-1.5.5-1.5-1.5-1-1.5-1h-1-1l-.5 2-.5 2v1 1 2 2 .5.5" style="fill:#dce5c7;stroke:#dce5c7"/><g style="fill:#0f1009;stroke:#0f1009"><path d="m232 959v1h1.5 1.5 2 2 2.5 2.5 2 2 2.5 2.5.5.5l9-21.5 9-21.5-.5-4.5-.5-4.5-1.5-16.5-1.5-16.5 1-14 1-14-4.5-14-4.5-14-3-17-3-17-3.5-16.5-3.5-16.5-3-16-3-16-2-18-2-18-2-17-2-17-2-17-2-17h4 4 14 14l4-15 4-15 1.5-17.5 1.5-17.5 2.5-17.5 2.5-17.5 2.5-17.5 2.5-17.5 1.5-18.5 1.5-18.5 1.5-17.5 1.5-17.5-.5-14.5-.5-14.5-3.5-15.5-3.5-15.5 1-19 1-19 1.5-18.5 1.5-18.5 1.5-18.5 1.5-18.5 3.5-12.5 3.5-12.5 3.5 15.5 3.5 15.5 3.5 16.5 3.5 16.5 3 16 3 16-2 16.5-2 16.5-1.5 18.5-1.5 18.5v19 19l9 5 9 5 2-18 2-18 2-18 2-18 2-16 2-16 2.5-16.5 2.5-16.5-2-16-2-16-3-16-3-16-4-16-4-16 1.5-11.5 1.5-11.5-3.5-11.5-3.5-11.5-11-9-11-9-18.5 1.5-18.5 1.5-17.5 2.5-17.5 2.5-16.5 3.5-16.5 3.5-14.5 5.5-14.5 5.5-10 9-10 9v17 17l2 18 2 18 2 18 2 18 2 17 2 17-10.5 8.5-10.5 8.5-15 5-15 5-12.5 7-12.5 7 13.5 2.5 13.5 2.5 16-4 16-4 14-6 14-6 7 6 7 6-9 11-9 11-9 11-9 11-10 10-10 10 6.5 10.5 6.5 10.5 5 15 5 15 4 16 4 16 4.5 15.5 4.5 15.5 4 16 4 16 3.5 16.5 3.5 16.5 1.5 16.5 1.5 16.5 2 15 2 15 4 16 4 16 4.5 15.5 4.5 15.5 4.5 15.5 4.5 15.5 5 15 5 15 3.5 16.5 3.5 16.5 3.5 16.5 3.5 16.5 7.5 12.5 7.5 12.5-6 14-6 14-5.5 14-5.5 14-1.5 15.5-1.5 15.5"/><path d="m209 133l17-23 9-11 9-11 12-4 12-4-11.5-8.5-11.5-8.5 5.5-13.5 5.5-13.5-9-10-9-10-9.5 10.5-9.5 10.5-7 13-7 13-5.5 14.5-5.5 14.5-1 14.5-1 14.5 8.5 6 8.5 6"/></g><g style="fill:#dce5c7;stroke:#dce5c7"><path d="m221 526l-1-35-2.5-6.5-2.5-6.5 2 18 2 18 1 6 1 6"/><path d="m190 456h2l.5-1.5.5-1.5v-2.5-2.5-2-2l-1-1.5-1-1.5-1-1-1-1-.5 2-.5 2 .5 1.5.5 1.5v2 2 2.5 2.5l.5.5.5.5"/><path d="m214 436l4-34 2-18 2-18-2.5-8.5-2.5-8.5-3 17-3 17-2.5 17.5-2.5 17.5 4 9 4 9"/><path d="m234 415l6-36 2.5-17.5 2.5-17.5 1.5-18.5 1.5-18.5 2-17 2-17 2-18 2-18 2-18 2-18-3-5-3-5-2.5 17.5-2.5 17.5-2 18-2 18-2 17.5-2 17.5-1.5 17.5-1.5 17.5-1.5 17.5-1.5 17.5-1 15-1 15 .5 9 .5 9"/><path d="m253 397l17-25 1-17 1-17 1.5-17.5 1.5-17.5 1-17 1-17 1.5-16.5 1.5-16.5 1.5-18.5 1.5-18.5 2.5-15.5 2.5-15.5-5.5 5.5-5.5 5.5-3.5 15.5-3.5 15.5-2 17.5-2 17.5-2 17-2 17-1.5 16.5-1.5 16.5-1.5 18.5-1.5 18.5-1.5 17.5-1.5 17.5v6.5 6.5"/><path d="m198 331l6-30-5-15-5-15-2 2-2 2 2.5 17.5 2.5 17.5 1.5 10.5 1.5 10.5"/><path d="m228 279l6-36 2-18 2-18-7-3-7-3-2 16-2 16 2.5 16.5 2.5 16.5 1.5 6.5 1.5 6.5"/></g><g style="fill:#0f1009;stroke:#0f1009"><path d="m383 912l11-29-7-10-7-10-4 16-4 16 5.5 8.5 5.5 8.5"/><path d="m398 841l19-23 6-14 6-14 6-14 6-14 4.5-15.5 4.5-15.5 6-14 6-14 5.5-14.5 5.5-14.5 5.5-14.5 5.5-14.5 4.5-15.5 4.5-15.5 5-15 5-15 5-15 5-15 5-14.5 5-14.5 2.5-17.5 2.5-17.5 2-18 2-18 1-15 1-15-4-16-4-16-3.5-16.5-3.5-16.5-4-16-4-16-7-13-7-13-2 16-2 16 3.5 16.5 3.5 16.5 3.5 16.5 3.5 16.5-8.5 10.5-8.5 10.5-8 12-8 12-8.5 11.5-8.5 11.5-8-6-8-6-7.5-12.5-7.5-12.5-5.5-14.5-5.5-14.5-11.5-6.5-11.5-6.5-2.5 16.5-2.5 16.5 2 18 2 18 2.5 17.5 2.5 17.5 2 18 2 18 2 17.5 2 17.5 2 18 2 18 5.5 14.5 5.5 14.5 12.5-3.5 12.5-3.5 2.5-15.5 2.5-15.5-.5-17.5-.5-17.5v-18-18l-1-18-1-18 6 8 6 8v20 20l-.5 17.5-.5 17.5-1.5 18.5-1.5 18.5-2.5 17.5-2.5 17.5-2.5 17.5-2.5 17.5-3.5 16.5-3.5 16.5-6 14-6 14-6 14-6 14-6 14-6 14-6 14-6 14 4.5 7.5 4.5 7.5"/></g><path d="m424 531v-38l-3.5-11.5-3.5-11.5 2 17 2 17 1.5 13.5 1.5 13.5" style="fill:#dce5c7;stroke:#dce5c7"/><g style="fill:#0f1009;stroke:#0f1009"><path d="m575 394l6-18-4-16-4-16-3.5-16.5-3.5-16.5-2.5-16.5-2.5-16.5-3-17-3-17-2.5-17.5-2.5-17.5-6.5-13.5-6.5-13.5-12-8-12-8-16.5-3.5-16.5-3.5-16.5-3-16.5-3-17-1-17-1-14 4-14 4-2 17-2 17-3 16-3 16-3 17-3 17-3.5 16.5-3.5 16.5 3.5 14.5 3.5 14.5 7.5 12.5 7.5 12.5 10 10 10 10 15 4 15 4-2.5-9.5-2.5-9.5-11.5-8.5-11.5-8.5-7.5-12.5-7.5-12.5 2-16 2-16 3.5-16.5 3.5-16.5 3.5-16.5 3.5-16.5 2.5-17.5 2.5-17.5 17-1 17-1 17.5 2.5 17.5 2.5 16 4 16 4 6 14 6 14 2 17 2 17 3 16.5 3 16.5 3.5 16.5 3.5 16.5 2.5 15.5 2.5 15.5 4.5 15.5 4.5 15.5 8.5 6.5 8.5 6.5"/><path d="m420 289l27-15 13-7 13-7 11.5-4.5 11.5-4.5-7.5-12.5-7.5-12.5-15 4-15 4-12 8-12 8-7.5 12.5-7.5 12.5 4 7 4 7"/><path d="m439 143l15-27 9-11 9-11 7 4 7 4 13-1 13-1-1.5-14.5-1.5-14.5-17-1-17-1 3.5-13.5 3.5-13.5-10-7-10-7-7.5 12.5-7.5 12.5-6 13.5-6 13.5-5.5 14.5-5.5 14.5 2 15 2 15 5.5 2 5.5 2"/></g></g></svg>